<?xml version="1.0" encoding="utf-8"?>
<!-- Generator: Adobe Illustrator 26.3.1, SVG Export Plug-In . SVG Version: 6.00 Build 0)  -->
<svg version="1.1" id="图层_1" xmlns="http://www.w3.org/2000/svg" xmlns:xlink="http://www.w3.org/1999/xlink" x="0px" y="0px"
	 viewBox="0 0 64 64" style="enable-background:new 0 0 64 64;" xml:space="preserve">
<style type="text/css">
	.st0{fill:currentColor;}
</style>
<path class="st0" d="M60.6,57.5H3.4c-1.1,0-2-0.9-2-2v-47c0-1.1,0.9-2,2-2h57.2c1.1,0,2,0.9,2,2v47C62.6,56.6,61.7,57.5,60.6,57.5z
	 M5.4,53.5h53.2v-43H5.4V53.5z"/>
<g>
	<rect x="31.9" y="19.1" class="st0" width="20.6" height="4"/>
	<rect x="11.4" y="41.3" class="st0" width="41.1" height="4"/>
	<rect x="31.9" y="30.2" class="st0" width="20.6" height="4"/>
	<path class="st0" d="M17.1,30.7h5.7l1.2,3.6h3.6L22,18.6H18l-5.7,15.7h3.6L17.1,30.7z M19.9,21.3L19.9,21.3l2.1,6.8h-4.2L19.9,21.3
		z"/>
</g>
</svg>
