<svg version="1.1" id="图层_1"
  xmlns="http://www.w3.org/2000/svg"
  xmlns:xlink="http://www.w3.org/1999/xlink" x="0px" y="0px" viewBox="0 0 64 64" style="enable-background:new 0 0 64 64;" xml:space="preserve">
  <style type="text/css">
  .st0{fill:currentcolor;}
  </style>
  <path class="st0" d="M59.5,17.3H3.9c-1.1,0-2,0.9-2,2v26.3c0,1.1,0.9,2,2,2h55.6c1.1,0,2-0.9,2-2V19.3
  C61.5,18.2,60.6,17.3,59.5,17.3z M57.5,43.6H5.9V21.3h51.6V43.6z"/>
  <g>
    <path class="st0" d="M41.1,29.9c-1.3,0-2.3,0.4-3,1.1S37,32.7,37,33.9s0.4,2.2,1.1,2.9c0.7,0.7,1.7,1.1,2.9,1.1
    c1.3,0,2.2-0.4,3-1.1s1.1-1.7,1.1-3c0-1.2-0.4-2.1-1.1-2.8C43.3,30.3,42.3,29.9,41.1,29.9z M41.1,36.1c-1.2,0-1.8-0.8-1.8-2.3
    c0-0.7,0.2-1.3,0.5-1.7c0.3-0.4,0.8-0.6,1.3-0.6c1.2,0,1.8,0.7,1.8,2.2C42.8,35.4,42.2,36.1,41.1,36.1z"/>
    <path class="st0" d="M15.7,32L15.7,32c0.6-0.2,1.1-0.5,1.5-0.9c0.4-0.4,0.6-0.9,0.6-1.5c0-0.8-0.3-1.4-0.9-1.8s-1.5-0.7-2.7-0.7
    h-3.8v10.6h3.9c1.2,0,2.1-0.3,2.8-0.8c0.7-0.6,1-1.3,1-2.3c0-0.7-0.2-1.3-0.7-1.7C17,32.3,16.4,32.1,15.7,32z M12.6,28.8h1
    c1.2,0,1.8,0.4,1.8,1.2c0,0.4-0.1,0.8-0.4,1c-0.3,0.2-0.7,0.4-1.2,0.4h-1.1v-2.6H12.6z M15.3,35.6C15,35.9,14.5,36,14,36h-1.3v-2.9
    H14c0.6,0,1,0.1,1.4,0.4c0.3,0.2,0.5,0.6,0.5,1C15.8,34.9,15.6,35.3,15.3,35.6z"/>
    <path class="st0" d="M23.8,34.4c0,0.5-0.1,0.9-0.4,1.3c-0.3,0.3-0.6,0.5-1.1,0.5c-0.9,0-1.3-0.6-1.3-1.7v-4.3h-2.2v4.5
    c0,2.1,0.9,3.2,2.6,3.2c1,0,1.7-0.4,2.3-1.3l0,0v1.2H26v-7.5h-2.2V34.4z"/>
    <path class="st0" d="M35.1,27.8l-2.2,0.6v1.7h-1.2h-0.1h-1.7v-2.3l-2.2,0.6v1.7h-1.2v1.6h1.2v3.6c0,1.7,0.8,2.5,2.4,2.5
    c0.7,0,1.2-0.1,1.5-0.3v-1.6c-0.3,0.1-0.5,0.2-0.8,0.2c-0.6,0-1-0.4-1-1.2v-3.2h1.7h0.1h1.2v3.6c0,1.7,0.8,2.5,2.4,2.5
    c0.7,0,1.2-0.1,1.5-0.3v-1.6c-0.3,0.1-0.5,0.2-0.8,0.2c-0.6,0-1-0.4-1-1.2v-3.2h1.7v-1.6h-1.7v-2.3H35.1z"/>
    <path class="st0" d="M50.6,29.9c-1.1,0-1.9,0.5-2.4,1.4l0,0v-1.2H46v7.5h2.2v-4.3c0-0.5,0.1-0.9,0.4-1.2c0.3-0.3,0.6-0.5,1-0.5
    c0.9,0,1.3,0.6,1.3,1.8v4.2h2.2V33C53.1,31,52.3,29.9,50.6,29.9z"/>
  </g>
</svg>
