<?xml version="1.0" encoding="utf-8"?>
<!-- Generator: Adobe Illustrator 26.0.2, SVG Export Plug-In . SVG Version: 6.00 Build 0)  -->
<svg version="1.1" id="图层_1" xmlns="http://www.w3.org/2000/svg" xmlns:xlink="http://www.w3.org/1999/xlink" x="0px" y="0px"
	 viewBox="0 0 24 24" style="enable-background:new 0 0 24 24;" xml:space="preserve">
<style type="text/css">
	.st0{fill:currentColor;}
</style>
<g>
	<ellipse class="st0" cx="12" cy="5.8" rx="10.3" ry="3.9"/>
	<path class="st0" d="M12,11.6c-5.6,0-10.1-1.7-10.3-3.8l0,0V12c0,2.2,4.6,3.9,10.3,3.9c5.7,0,10.3-1.8,10.3-3.9V7.9l0,0
		C22.1,9.9,17.6,11.6,12,11.6z"/>
	<path class="st0" d="M12,17.9c-5.6,0-10.1-1.7-10.3-3.8l0,0v4.2c0,2.2,4.6,3.9,10.3,3.9c5.7,0,10.3-1.8,10.3-3.9v-4.2l0,0
		C22.1,16.1,17.6,17.9,12,17.9z"/>
</g>
</svg>
