<svg version="1.1" id="图层_1"
  xmlns="http://www.w3.org/2000/svg"
  xmlns:xlink="http://www.w3.org/1999/xlink" x="0px" y="0px" viewBox="0 0 64 64" style="enable-background:new 0 0 64 64;" xml:space="preserve">
  <style type="text/css">
  .st0{fill:currentcolor;}
  </style>
  <g>
    <path class="st0" d="M36.1,46.1h3.3V32.7h-2.8c0,0.4-0.2,0.8-0.5,1.1c-0.3,0.4-0.7,0.6-1.2,0.6v2h1.2V46.1z"/>
    <path class="st0" d="M28.4,46.2c2.5,0,3.7-0.9,3.7-2.8v-2c0-1.4-0.6-2.2-1.7-2.5c1.1-0.4,1.7-1.1,1.7-2.2v-1.8
    c0-0.8-0.4-1.5-1.1-1.8c-0.8-0.4-1.7-0.6-2.6-0.6c-2.4,0-3.7,0.8-3.7,2.4v2.3h2.9v-2.3c0-0.3,0.2-0.4,0.6-0.4s0.6,0.1,0.6,0.4v2.4
    c0,0.5-0.2,0.8-1.2,0.8v1.5c0.5,0,0.7,0.1,0.9,0.2c0.2,0.1,0.3,0.4,0.3,0.7v3.1c0,0.3-0.2,0.5-0.6,0.5s-0.6-0.2-0.6-0.5v-3h-3v3
    C24.7,45.4,25.9,46.2,28.4,46.2z"/>
    <path class="st0" d="M57,11.3h-9.7V8h-4v3.4H34V8h-4v3.4h-9.3V8h-4v3.4H7c-1.1,0-2,0.9-2,2v40.3c0,1.1,0.9,2,2,2h50
    c1.1,0,2-0.9,2-2V13.3C59,12.2,58.1,11.3,57,11.3z M55,51.6H9V27.8h46V51.6z M55,24.8H9v-9.5h7.7v4.2h4v-4.2H30v4.2h4v-4.2h9.3v4.2
    h4v-4.2H55V24.8z"/>
  </g>
</svg>
