<?xml version="1.0" encoding="UTF-8"?>
<svg width="16px" height="16px" viewBox="0 0 16 16" version="1.1" xmlns="http://www.w3.org/2000/svg" xmlns:xlink="http://www.w3.org/1999/xlink">
    <title>刷新</title>
    <g id="页面-2" stroke="none" stroke-width="1" fill="none" fill-rule="evenodd">
        <g id="定稿11-11备份" transform="translate(-130.000000, -60.000000)">
            <g id="刷新" transform="translate(130.000000, 60.000000)">
                <path d="M12.288118,4.90887619 C11.5580824,4.2169071 10.6340504,3.74249093 9.60741522,3.56146745 C6.76884668,3.06095123 4.06198367,4.95631708 3.56146745,7.79488563 C3.06095123,10.6334542 4.95631711,13.3403172 7.79488566,13.8408334 C10.2620071,14.2758535 12.6771936,12.8956539 13.5684586,10.587623 C13.7157877,10.2060979 14.1445087,10.0162445 14.5260338,10.1635735 C14.907559,10.3109026 15.0974124,10.7396236 14.9500834,11.1211488 C13.8049894,14.0864981 10.7052245,15.8579117 7.53770241,15.2993921 C3.89359413,14.6568375 1.46035415,11.1818106 2.10290876,7.53770238 C2.74546337,3.89359411 6.2204902,1.46035415 9.86459847,2.10290876 C11.1676098,2.33266482 12.3434401,2.93197246 13.2761307,3.80489633 L13.3275251,3.2415391 C13.3646819,2.83424722 13.7249787,2.53419346 14.1322706,2.57135021 C14.5395625,2.60850706 14.8396162,2.96880389 14.8024594,3.37609578 L14.5916917,5.6864131 C14.5574033,6.06226348 14.2459415,6.35219769 13.8686014,6.35952487 L11.7145188,6.40135279 C11.3056126,6.40929291 10.967692,6.08424574 10.9597518,5.67533958 C10.9518117,5.26643345 11.2768589,4.92851279 11.685765,4.9205726 L12.288118,4.90887619 Z" id="Combined-Shape" fill="currentColor" fill-rule="nonzero"></path>
                <rect id="矩形" fill="#FFFFFF" opacity="0" x="0" y="0" width="16" height="16"></rect>
            </g>
        </g>
    </g>
</svg>