<?xml version="1.0" encoding="UTF-8"?>
<svg width="16px" height="16px" viewBox="0 0 16 16" version="1.1" xmlns="http://www.w3.org/2000/svg" xmlns:xlink="http://www.w3.org/1999/xlink">
    <title>icon-a</title>
    <defs>
        <polygon id="path-1" points="0 16 16 16 16 0 0 0"></polygon>
    </defs>
    <g id="页面-2" stroke="none" stroke-width="1" fill="none" fill-rule="evenodd">
        <g id="定稿11-11备份" transform="translate(-954.000000, -60.000000)">
            <g id="编组" transform="translate(962.000000, 68.000000) rotate(-180.000000) translate(-962.000000, -68.000000) translate(954.000000, 60.000000)">
                <mask id="mask-2" fill="white">
                    <use xlink:href="#path-1"></use>
                </mask>
                <g id="Fill-1"></g>
                <g mask="url(#mask-2)" fill="currentColor">
                    <g transform="translate(1.000000, 1.000000)">
                        <path d="M0.5,1.5 C0.5,1.086 0.836,0.75 1.25,0.75 L12.75,0.75 C13.164,0.75 13.5,1.086 13.5,1.5 C13.5,1.914 13.164,2.25 12.75,2.25 L1.25,2.25 C0.836,2.25 0.5,1.914 0.5,1.5" id="Fill-2"></path>
                        <path d="M0.5,12.5 C0.5,12.086 0.836,11.75 1.25,11.75 L12.75,11.75 C13.164,11.75 13.5,12.086 13.5,12.5 C13.5,12.914 13.164,13.25 12.75,13.25 L1.25,13.25 C0.836,13.25 0.5,12.914 0.5,12.5" id="Fill-4"></path>
                        <path d="M9.5,7 C9.5,6.586 9.836,6.25 10.25,6.25 L12.75,6.25 C13.164,6.25 13.5,6.586 13.5,7 C13.5,7.414 13.164,7.75 12.75,7.75 L10.25,7.75 C9.836,7.75 9.5,7.414 9.5,7" id="Fill-6"></path>
                        <path d="M0.5,7 C0.5,6.586 0.836,6.25 1.25,6.25 L3.75,6.25 C4.164,6.25 4.5,6.586 4.5,7 C4.5,7.414 4.164,7.75 3.75,7.75 L1.25,7.75 C0.836,7.75 0.5,7.414 0.5,7" id="Fill-8"></path>
                        <path d="M7,2.6934 C7.414,2.6934 7.75,3.0294 7.75,3.4434 L7.75,9.6934 L6.25,9.6934 L6.25,3.4434 C6.25,3.0294 6.586,2.6934 7,2.6934" id="Fill-10"></path>
                        <path d="M6.6465,11.1602 L4.1765,8.6902 L9.8235,8.6902 L7.3535,11.1602 C7.1585,11.3552 6.8415,11.3552 6.6465,11.1602" id="Fill-12"></path>
                    </g>
                </g>
            </g>
        </g>
    </g>
</svg>