<?xml version="1.0" encoding="utf-8"?>
<svg version="1.1" id="图层_1"
  xmlns="http://www.w3.org/2000/svg"
  xmlns:xlink="http://www.w3.org/1999/xlink" x="0px" y="0px" viewBox="0 0 64 64" style="enable-background:new 0 0 64 64;" xml:space="preserve">
  <style type="text/css">
	.st0{fill:currentcolor;}
  </style>
  <g id="Clip-30">
  </g>
  <g>
    <path class="st0" d="M26.4,52.3H13.3V10.7h21.4v12.7c0,1.1,0.9,2,2,2h13.6v5.3c0,1.1,0.9,2,2,2s2-0.9,2-2v-8.1
		c0-0.6-0.2-1.1-0.7-1.5L38,7.2c-0.4-0.3-0.8-0.5-1.3-0.5H11.3c-1.1,0-2,0.9-2,2v45.6c0,1.1,0.9,2,2,2h15.2c1.1,0,2-0.9,2-2
		S27.6,52.3,26.4,52.3z M38.7,13.2l9.2,8.2h-9.2V13.2z"/>
    <path class="st0" d="M28.9,21.8h-9.6c-1.1,0-2,0.9-2,2s0.9,2,2,2h9.6c1.1,0,2-0.9,2-2S30.1,21.8,28.9,21.8z"/>
    <path class="st0" d="M25.3,37.7c1.1,0,2-0.9,2-2s-0.9-2-2-2h-5.9c-1.1,0-2,0.9-2,2s0.9,2,2,2H25.3z"/>
    <path class="st0" d="M52.7,40.7h-2.4v-2.5c0-4-3.3-7.3-7.3-7.3s-7.3,3.3-7.3,7.3v2.5h-2.4c-1.1,0-2,0.9-2,2v12.6c0,1.1,0.9,2,2,2
		h19.4c1.1,0,2-0.9,2-2V42.7C54.7,41.6,53.9,40.7,52.7,40.7z M39.7,38.2c0-1.8,1.5-3.3,3.3-3.3s3.3,1.5,3.3,3.3v2.5h-6.6V38.2z
		 M50.7,53.3H35.4v-8.6h15.4V53.3z"/>
    <rect x="40.9" y="47.8" class="st0" width="4.4" height="2.3"/>
  </g>
  <g id="Clip-30_00000082359790372202237170000007339004850009255582_">
  </g>
</svg>
