<?xml version="1.0" encoding="utf-8"?>
<!-- Generator: Adobe Illustrator 26.0.2, SVG Export Plug-In . SVG Version: 6.00 Build 0)  -->
<svg version="1.1" id="图层_1" xmlns="http://www.w3.org/2000/svg" xmlns:xlink="http://www.w3.org/1999/xlink" x="0px" y="0px"
	 viewBox="0 0 24 24" style="enable-background:new 0 0 24 24;" xml:space="preserve">
<style type="text/css">
	.st0{fill-rule:evenodd;clip-rule:evenodd;fill:currentColor;fill-opacity:0;}
	.st1{fill-rule:evenodd;clip-rule:evenodd;fill:currentColor;}
</style>
<g id="ic_notebook_lined">
	<g id="编组">
		<rect id="矩形" class="st0" width="24" height="24"/>
		<path id="形状结合" class="st1" d="M18.8,4C20,4,21,5,21,6.2V16h1c0.4,0,0.8,0.3,0.8,0.8v1c0,1.2-1,2.2-2.2,2.2h-17
			c-1.2,0-2.2-1-2.2-2.2v-1C1.2,16.3,1.6,16,2,16h1V6.2C3,5,4,4,5.2,4H18.8z M21.2,17.5H2.8v0.3c0,0.4,0.3,0.7,0.7,0.7h17
			c0.4,0,0.7-0.3,0.7-0.7V17.5z M18.8,5.5H5.2c-0.4,0-0.7,0.3-0.7,0.7V16h15V6.2C19.5,5.8,19.2,5.5,18.8,5.5z"/>
	</g>
</g>
</svg>
