<?xml version="1.0" encoding="utf-8"?>
<!-- Generator: Adobe Illustrator 26.0.2, SVG Export Plug-In . SVG Version: 6.00 Build 0)  -->
<svg version="1.1" id="图层_1" xmlns="http://www.w3.org/2000/svg" xmlns:xlink="http://www.w3.org/1999/xlink" x="0px" y="0px"
	 viewBox="0 0 24 24" style="enable-background:new 0 0 24 24;" xml:space="preserve">
<style type="text/css">
	.st0{fill-rule:evenodd;clip-rule:evenodd;}
</style>
<path class="st0" d="M19.5,5.9l-6-3.5l-0.2-0.1c-0.9-0.4-1.9-0.4-2.8,0.1l-6,3.5L4.3,6C3.5,6.5,3,7.5,3,8.5v7v0.2
	c0.1,1,0.6,1.9,1.5,2.4l6,3.5l0.2,0.1c0.4,0.2,0.9,0.3,1.3,0.3c0.5,0,1-0.1,1.5-0.4l6-3.5l0.2-0.1c0.8-0.5,1.3-1.5,1.3-2.5v-7V8.3
	C20.9,7.3,20.4,6.4,19.5,5.9z M11.3,3.7l0.1-0.1c0.4-0.1,0.9-0.1,1.4,0l6,3.5L11.9,11l-0.1-0.1L5.3,7.2L11.3,3.7z M11.2,20.3l-6-3.5
	l-0.1-0.1c-0.4-0.2-0.6-0.7-0.6-1.2v-7l6.7,4V20.3z M19.5,15.5L19.5,15.5c0,0.6-0.3,1.1-0.7,1.3l-6,3.5v-8l1.8-1c0,0,0,0,0,0
	l4.9-2.8V15.5z"/>
</svg>
