<?xml version="1.0" encoding="utf-8"?>
<!-- Generator: Adobe Illustrator 26.0.2, SVG Export Plug-In . SVG Version: 6.00 Build 0)  -->
<svg version="1.1" id="图层_1" xmlns="http://www.w3.org/2000/svg" xmlns:xlink="http://www.w3.org/1999/xlink" x="0px" y="0px"
	 viewBox="0 0 24 24" style="enable-background:new 0 0 24 24;" xml:space="preserve">
<style type="text/css">
	.st0{fill-rule:evenodd;clip-rule:evenodd;}
</style>
<path id="形状结合" class="st0" d="M12,2.3c5.3,0,9.7,4.3,9.7,9.7s-4.3,9.7-9.7,9.7c-5.3,0-9.7-4.3-9.7-9.7S6.7,2.3,12,2.3z
	 M11.7,17.6c-0.5,0-0.9,0-1.4,0.1c0.4,0.8,0.8,1.6,1.3,2.4l0.1,0.1l0,0h0.2c0.1,0,0.2,0,0.2,0L12,20.4c0.6-0.9,1.1-1.8,1.5-2.7
	C13,17.7,12.4,17.6,11.7,17.6z M8.8,17.9H8.7c-0.6,0.1-1.2,0.3-1.8,0.5c0.9,0.7,1.9,1.2,3,1.5C9.5,19.3,9.1,18.6,8.8,17.9z M15.1,18
	L15,18.2c-0.3,0.6-0.6,1.2-0.9,1.8c1.1-0.3,2-0.8,2.9-1.4C16.4,18.3,15.8,18.1,15.1,18z M20.2,12.7h-3.9c-0.1,1.4-0.3,2.7-0.7,3.9
	c0.9,0.2,1.7,0.5,2.6,0.8C19.3,16.1,20.1,14.5,20.2,12.7z M7.7,12.7H3.8C4,14.4,4.6,16,5.7,17.3c0.9-0.3,1.7-0.6,2.6-0.8
	C8,15.3,7.7,14,7.7,12.7z M14.9,12.7H9.1c0.1,1.2,0.3,2.4,0.7,3.5c0.6-0.1,1.3-0.1,1.9-0.1c0.8,0,1.6,0.1,2.5,0.2
	C14.6,15.2,14.8,14,14.9,12.7z M5.7,6.7L5.7,6.7C4.6,8,3.9,9.6,3.8,11.3h3.9c0-1.3,0.2-2.6,0.6-3.8C7.4,7.3,6.5,7,5.7,6.7z
	 M14.3,7.6h-0.2c-0.8,0.1-1.6,0.2-2.4,0.2c-0.7,0-1.4,0-2-0.1C9.3,8.8,9.1,10,9.1,11.3h5.8C14.9,10,14.7,8.8,14.3,7.6z M18.2,6.6
	l0.4-0.2c-0.9,0.4-1.9,0.7-2.9,0.9c0.4,1.2,0.6,2.5,0.6,3.9h3.9C20.1,9.5,19.3,7.9,18.2,6.6z M12,3.8c-0.2,0-0.3,0-0.5,0l0.1-0.2
	c-0.6,0.9-1.1,1.8-1.5,2.8c0.5,0.1,1,0.1,1.6,0.1c0.7,0,1.4,0,2.1-0.1c-0.4-0.9-0.8-1.7-1.3-2.5C12.3,3.8,12.2,3.8,12,3.8z M9.6,4.1
	L9.4,4.2C8.5,4.5,7.6,5,6.9,5.6C7.5,5.8,8.1,6,8.7,6.1C9,5.4,9.3,4.7,9.6,4.1z M14.4,4.1L14.4,4.1C14.7,4.7,15,5.3,15.3,6
	c0.6-0.1,1.2-0.3,1.7-0.5C16.2,4.9,15.3,4.4,14.4,4.1z"/>
</svg>
