<svg version="1.1" id="plus-circle" xmlns="http://www.w3.org/2000/svg" xmlns:xlink="http://www.w3.org/1999/xlink" x="0px" y="0px" viewBox="0 0 16 16" style="enable-background:new 0 0 16 16;" xml:space="preserve" width="132px" height="132px">
<style type="text/css">
	.st0{fill:currentcolor;}
</style>
<path id="形状结合" class="st0" d="M8,0c4.4,0,8,3.6,8,8c0,4.4-3.6,8-8,8c-4.4,0-8-3.6-8-8C0,3.6,3.6,0,8,0z M1.5,8&#10;&#9;c0,3.6,2.9,6.5,6.5,6.5c3.6,0,6.5-2.9,6.5-6.5c0-3.6-2.9-6.5-6.5-6.5C4.4,1.5,1.5,4.4,1.5,8z M7.3,7.3V5c0-0.4,0.3-0.7,0.7-0.7&#10;&#9;S8.7,4.6,8.7,5v2.3H11c0.4,0,0.7,0.3,0.7,0.7S11.4,8.7,11,8.7H8.7V11c0,0.4-0.3,0.7-0.7,0.7S7.3,11.4,7.3,11V8.7H5&#10;&#9;C4.6,8.7,4.3,8.4,4.3,8S4.6,7.3,5,7.3H7.3z"/>
</svg>