<svg version="1.1" id="图层_1" xmlns="http://www.w3.org/2000/svg" xmlns:xlink="http://www.w3.org/1999/xlink" x="0px" y="0px" viewBox="0 0 48 48" style="enable-background:new 0 0 48 48;" xml:space="preserve" width="132px" height="132px">
<g>
	<circle cx="14" cy="8" r="1.5"/>
	<circle cx="34.8" cy="8" r="1.5"/>
	<path d="M28.4,21.1C27.7,19.3,26,18,24,18s-3.7,1.3-4.4,3.1c-2.3,0.3-4.1,2.2-4.1,4.6c0,2.6,2.1,4.6,4.6,4.6h7.7&#10;&#9;&#9;c2.6,0,4.6-2.1,4.6-4.6C32.5,23.3,30.7,21.4,28.4,21.1z M27.9,29.4h-7.7c-2,0-3.6-1.6-3.6-3.6c0-1.9,1.4-3.4,3.2-3.6&#10;&#9;&#9;c0.4,0,0.7-0.3,0.8-0.7C21.1,20,22.5,19,24,19s2.9,1,3.4,2.4c0.1,0.4,0.5,0.6,0.8,0.7c1.8,0.2,3.2,1.8,3.2,3.6&#10;&#9;&#9;C31.5,27.7,29.9,29.4,27.9,29.4z"/>
	<path d="M34,2H14c-3.3,0-6,2.7-6,6v32c0,3.3,2.7,6,6,6h20c3.3,0,6-2.7,6-6V8C40,4.7,37.3,2,34,2z M38,40&#10;&#9;&#9;c0,2.2-1.8,4-4,4H14c-2.2,0-4-1.8-4-4V8c0-2.2,1.8-4,4-4h20c2.2,0,4,1.8,4,4V40z"/>
</g>
</svg>