<svg version="1.1" id="图层_1" xmlns="http://www.w3.org/2000/svg" xmlns:xlink="http://www.w3.org/1999/xlink" x="0px" y="0px" viewBox="0 0 48 48" style="enable-background:new 0 0 48 48;" xml:space="preserve" width="132px" height="132px">
<path d="M43.4,24.8l-7.8-4.5v-9.5c0-1.7-1.1-3.7-2.6-4.5l-6.4-3.7c-1.5-0.8-3.7-0.8-5.2,0L15,6.3&#10;&#9;c-1.5,0.8-2.6,2.8-2.6,4.5v9.5l-7.8,4.5C3.1,25.6,2,27.6,2,29.3v7.9c0,1.7,1.1,3.7,2.6,4.5l6.4,3.7c0.7,0.4,1.7,0.6,2.6,0.6&#10;&#9;s1.8-0.2,2.6-0.6l7.8-4.5l7.9,4.5c0.7,0.4,1.7,0.6,2.6,0.6s1.8-0.2,2.6-0.6l6.4-3.7c1.5-0.8,2.6-2.8,2.6-4.5v-7.9&#10;&#9;C46,27.6,44.9,25.7,43.4,24.8z M24,39.5L24,39.5L24,39.5L24,39.5z M16.2,8.3l6.4-3.7c0.8-0.4,2.1-0.4,2.9,0l6.4,3.7&#10;&#9;c0.7,0.4,1.4,1.6,1.4,2.5v10.1l-7.6,4.3c0,0,0,0-0.1,0c-0.4-0.4-1-0.7-1.6-0.7c-0.6,0-1.2,0.3-1.7,0.7c0,0,0,0,0,0c0,0,0,0-0.1,0&#10;&#9;l-7.5-4.3V10.8C14.7,9.9,15.4,8.8,16.2,8.3z M15,43.3c-0.8,0.4-2.1,0.4-2.9,0l-6.4-3.7C5,39.2,4.3,38,4.3,37.2v-7.9&#10;&#9;c0-0.9,0.7-2,1.4-2.5l8.4-4.8l-0.1-0.1l7.6,4.4c0,0,0.1,0,0.1,0c-0.1,0.2-0.1,0.4-0.1,0.6c0,1.1,0.7,2,1.7,2.3c0,0,0,0,0,0.1v0v9.3&#10;&#9;L15,43.3z M43.7,37.2c0,0.9-0.7,2-1.4,2.5l-6.4,3.7c-0.8,0.4-2.1,0.4-2.9,0l-8.4-4.8l0,0v-9.3c0,0,0-0.1,0-0.1&#10;&#9;c1-0.3,1.7-1.2,1.7-2.2c0-0.2,0-0.4-0.1-0.6c0,0,0,0,0.1,0l7.6-4.4L33.8,22l8.4,4.8c0.7,0.4,1.4,1.6,1.4,2.5V37.2z"/>
</svg>