<svg version="1.1" id="图层_1" xmlns="http://www.w3.org/2000/svg" xmlns:xlink="http://www.w3.org/1999/xlink" x="0px" y="0px" viewBox="0 0 48 48" style="enable-background:new 0 0 48 48;" xml:space="preserve" width="132px" height="132px">
<path d="M35.3,16.1C33.7,11.4,29.3,8,24,8c-5.3,0-9.7,3.4-11.3,8.1C6.7,16.7,2,21.8,2,28c0,6.6,5.4,12,12,12h20&#10;&#9;c6.6,0,12-5.4,12-12C46,21.8,41.3,16.7,35.3,16.1z M23.5,19.9c0,0.2,0.1,0.4,0.2,0.6l-6.6,7c-0.1-0.1-0.3-0.1-0.5-0.1l-2.5-9.8&#10;&#9;L23.5,19.9z M34,38H14C8.5,38,4,33.5,4,28c0-5.1,3.8-9.4,8.9-9.9c0.1,0,0.3-0.1,0.4-0.1l2.4,9.5c-0.4,0.3-0.7,0.7-0.7,1.2&#10;&#9;c0,0.8,0.7,1.5,1.5,1.5c0.8,0,1.5-0.7,1.5-1.5c0-0.2-0.1-0.5-0.2-0.7l6.6-7c0.2,0.1,0.4,0.1,0.6,0.1c0.8,0,1.5-0.7,1.5-1.5&#10;&#9;c0-0.8-0.7-1.5-1.5-1.5c-0.5,0-1,0.3-1.2,0.7l-9.1-2.4c1.5-3.9,5.2-6.5,9.4-6.5c4.3,0,8,2.7,9.4,6.7c0.3,0.7,0.9,1.2,1.7,1.3&#10;&#9;c5.1,0.6,8.9,4.8,8.9,9.9C44,33.5,39.5,38,34,38z"/>
</svg>