<?xml version="1.0" encoding="iso-8859-1"?>
<!-- Uploaded to: SVG Repo, www.svgrepo.com, Generator: SVG Repo Mixer Tools -->
<svg version="1.1" id="Layer_1" xmlns="http://www.w3.org/2000/svg" xmlns:xlink="http://www.w3.org/1999/xlink" 
	 viewBox="0 0 512.001 512.001" xml:space="preserve">
<path style="fill:#FF3C63;" d="M479.728,114.762H32.273c-13.326,0-24.13,10.803-24.13,24.13v269.083
	c0,13.326,10.803,24.13,24.13,24.13h447.456c13.326,0,24.13-10.803,24.13-24.13V138.892
	C503.858,125.566,493.055,114.762,479.728,114.762z"/>
<path style="fill:#EEE5DD;" d="M360.983,79.894C303.003,79.894,256,90.43,256,103.427c0-12.996-47.003-23.532-104.983-23.532
	S46.033,90.43,46.033,103.427v325.836c0-12.996,47.003-23.532,104.983-23.532S256,416.266,256,429.262
	c0-12.996,47.003-23.532,104.983-23.532s104.983,10.536,104.983,23.532V103.428C465.967,90.43,418.964,79.894,360.983,79.894z"/>
<path style="opacity:0.3;fill:#20272E;enable-background:new    ;" d="M479.728,114.762h-13.762v-11.334
	c0-12.996-47.003-23.532-104.983-23.532S256,90.431,256,103.428v328.678h223.728c13.326,0,24.13-10.803,24.13-24.13V138.892
	C503.858,125.565,493.055,114.762,479.728,114.762z"/>
<rect x="78.307" y="134.869" style="fill:#A6998E;" width="145.421" height="171.303"/>
<circle style="fill:#EEE5DD;" cx="151.012" cy="220.515" r="72.711"/>
<polygon style="fill:#A6998E;" points="151.017,282.946 136.06,236.914 87.66,236.914 126.817,208.465 111.86,162.434 
	151.017,190.882 190.173,162.434 175.217,208.465 214.373,236.914 165.972,236.914 "/>
<g>
	<path style="fill:#20272E;" d="M223.726,126.725H78.306c-4.498,0-8.142,3.646-8.142,8.142v171.301c0,4.497,3.644,8.142,8.142,8.142
		h145.42c4.498,0,8.142-3.646,8.142-8.142V134.868C231.868,130.371,228.224,126.725,223.726,126.725z M86.448,143.01h41.594
		c-16.779,4.982-31.297,15.262-41.594,28.907V143.01z M151.017,155.951c9.409,0,18.346,2.04,26.417,5.675l-26.417,19.193
		L124.6,161.625C132.669,157.991,141.606,155.951,151.017,155.951z M106.88,173.455l10.365,31.9l-30.418,22.101
		c-0.245-2.28-0.378-4.593-0.378-6.937C86.448,201.974,94.318,185.242,106.88,173.455z M86.448,298.026v-28.907
		c10.297,13.646,24.816,23.925,41.594,28.907H86.448z M91.305,245.057h38.839l12.839,39.512
		C119.565,281.647,100.006,266.15,91.305,245.057z M151.017,256.597l-7.213-22.198c-1.09-3.355-4.217-5.627-7.744-5.627h-23.341
		l18.884-13.72c2.854-2.074,4.048-5.748,2.958-9.103l-7.213-22.199l18.884,13.719c2.854,2.074,6.718,2.074,9.571,0l18.884-13.719
		l-7.213,22.198c-1.09,3.355,0.104,7.031,2.958,9.104l18.884,13.719h-23.34c-3.527,0-6.654,2.271-7.744,5.626L151.017,256.597z
		 M171.889,245.057h38.838c-8.7,21.093-28.259,36.59-51.677,39.512L171.889,245.057z M215.584,298.026H173.99
		c16.779-4.982,31.297-15.262,41.594-28.907V298.026z M215.206,227.455l-30.419-22.1l10.366-31.899
		c12.561,11.788,20.431,28.519,20.431,47.063C215.584,222.862,215.451,225.175,215.206,227.455z M215.584,171.918
		c-10.297-13.646-24.816-23.925-41.594-28.907h41.594V171.918z"/>
	<path style="fill:#20272E;" d="M223.726,346.427H78.306c-4.498,0-8.142-3.646-8.142-8.142s3.644-8.142,8.142-8.142h145.42
		c4.498,0,8.142,3.646,8.142,8.142S228.224,346.427,223.726,346.427z"/>
	<path style="fill:#20272E;" d="M433.693,147.152h-145.42c-4.498,0-8.142-3.646-8.142-8.142c0-4.497,3.644-8.142,8.142-8.142h145.42
		c4.498,0,8.142,3.646,8.142,8.142C441.835,143.506,438.191,147.152,433.693,147.152z"/>
	<path style="fill:#20272E;" d="M433.693,182.095h-145.42c-4.498,0-8.142-3.646-8.142-8.142c0-4.497,3.644-8.142,8.142-8.142h145.42
		c4.498,0,8.142,3.646,8.142,8.142C441.835,178.45,438.191,182.095,433.693,182.095z"/>
	<path style="fill:#20272E;" d="M433.693,217.038h-145.42c-4.498,0-8.142-3.646-8.142-8.142c0-4.497,3.644-8.142,8.142-8.142h145.42
		c4.498,0,8.142,3.646,8.142,8.142C441.835,213.392,438.191,217.038,433.693,217.038z"/>
	<path style="fill:#20272E;" d="M433.693,251.981h-145.42c-4.498,0-8.142-3.646-8.142-8.142c0-4.497,3.644-8.142,8.142-8.142h145.42
		c4.498,0,8.142,3.646,8.142,8.142C441.835,248.335,438.191,251.981,433.693,251.981z"/>
	<path style="fill:#20272E;" d="M433.693,286.924h-145.42c-4.498,0-8.142-3.646-8.142-8.142c0-4.497,3.644-8.142,8.142-8.142h145.42
		c4.498,0,8.142,3.646,8.142,8.142C441.835,283.279,438.191,286.924,433.693,286.924z"/>
	<path style="fill:#20272E;" d="M433.693,321.868h-145.42c-4.498,0-8.142-3.646-8.142-8.142c0-4.497,3.644-8.142,8.142-8.142h145.42
		c4.498,0,8.142,3.646,8.142,8.142C441.835,318.222,438.191,321.868,433.693,321.868z"/>
	<path style="fill:#20272E;" d="M223.726,375.472H78.306c-4.498,0-8.142-3.646-8.142-8.142s3.644-8.142,8.142-8.142h145.42
		c4.498,0,8.142,3.646,8.142,8.142S228.224,375.472,223.726,375.472z"/>
	<path style="fill:#20272E;" d="M479.728,106.619h-5.619v-3.192c0-10.946-12.14-18.988-37.11-24.585
		c-20.396-4.572-47.392-7.089-76.016-7.089s-55.619,2.518-76.016,7.089c-13.218,2.963-22.837,6.61-28.968,11.012
		c-6.13-4.401-15.75-8.049-28.968-11.012c-20.396-4.572-47.392-7.089-76.016-7.089s-55.619,2.518-76.016,7.089
		c-24.971,5.598-37.11,13.639-37.11,24.585v3.192h-5.618C14.477,106.619,0,121.097,0,138.892v269.083
		c0,17.795,14.477,32.273,32.273,32.273h447.456c17.796,0,32.273-14.477,32.273-32.273V138.892
		C512,121.097,497.523,106.619,479.728,106.619z M37.89,423.963h-5.618c-8.815,0-15.988-7.172-15.988-15.988V138.892
		c0-8.815,7.172-15.988,15.988-15.988h5.618V423.963z M66.159,423.963c0.056-0.02,0.112-0.038,0.169-0.058
		c0.468-0.156,0.948-0.314,1.447-0.472c0.029-0.01,0.06-0.018,0.09-0.028c0.49-0.154,0.999-0.309,1.52-0.465
		c0.161-0.048,0.324-0.096,0.487-0.143c0.441-0.129,0.893-0.259,1.356-0.389c0.131-0.037,0.258-0.074,0.391-0.111
		c0.573-0.159,1.166-0.317,1.773-0.477c0.173-0.046,0.35-0.09,0.524-0.136c0.487-0.125,0.986-0.251,1.495-0.376
		c0.181-0.044,0.362-0.089,0.545-0.134c0.66-0.16,1.336-0.319,2.032-0.478c0.145-0.034,0.297-0.066,0.445-0.1
		c0.586-0.131,1.184-0.264,1.797-0.394c0.213-0.046,0.426-0.091,0.642-0.137c0.763-0.161,1.538-0.32,2.341-0.479
		c18.661-3.687,42.742-5.717,67.802-5.717s49.141,2.03,67.802,5.717c0.802,0.159,1.577,0.318,2.341,0.479
		c0.216,0.046,0.429,0.091,0.642,0.137c0.611,0.131,1.21,0.263,1.797,0.394c0.148,0.034,0.299,0.066,0.445,0.1
		c0.696,0.159,1.372,0.318,2.032,0.478c0.185,0.044,0.364,0.089,0.545,0.134c0.509,0.125,1.007,0.251,1.495,0.376
		c0.175,0.046,0.353,0.09,0.524,0.136c0.608,0.159,1.2,0.317,1.774,0.477c0.132,0.037,0.258,0.073,0.389,0.11
		c0.464,0.13,0.917,0.261,1.359,0.39c0.163,0.048,0.326,0.096,0.485,0.143c0.52,0.155,1.03,0.311,1.52,0.465
		c0.029,0.01,0.06,0.018,0.09,0.028c0.5,0.159,0.979,0.316,1.447,0.472c0.058,0.02,0.113,0.038,0.169,0.058L66.159,423.963
		L66.159,423.963z M247.858,114.762v296.392c-5.515-2.445-12.448-4.598-20.826-6.476c-20.396-4.572-47.392-7.089-76.016-7.089
		s-55.619,2.518-76.016,7.089c-8.378,1.878-15.311,4.031-20.826,6.476V114.762v-10.607c1.558-1.813,8.984-6.44,29.039-10.402
		c18.661-3.687,42.742-5.717,67.802-5.717s49.141,2.03,67.802,5.717c20.055,3.961,27.481,8.588,29.039,10.402v10.607H247.858z
		 M276.127,423.963c0.056-0.02,0.112-0.038,0.169-0.058c0.468-0.156,0.948-0.314,1.447-0.472c0.029-0.01,0.06-0.018,0.09-0.028
		c0.49-0.154,0.999-0.309,1.52-0.465c0.161-0.048,0.324-0.096,0.487-0.143c0.441-0.129,0.893-0.259,1.356-0.389
		c0.131-0.037,0.258-0.074,0.391-0.111c0.573-0.159,1.166-0.317,1.773-0.477c0.173-0.046,0.35-0.09,0.524-0.136
		c0.487-0.125,0.986-0.251,1.495-0.376c0.181-0.044,0.362-0.089,0.545-0.134c0.66-0.16,1.336-0.319,2.032-0.478
		c0.145-0.034,0.297-0.066,0.445-0.1c0.586-0.131,1.184-0.264,1.797-0.394c0.213-0.046,0.426-0.091,0.642-0.137
		c0.763-0.161,1.538-0.32,2.341-0.479c18.661-3.687,42.742-5.717,67.802-5.717s49.141,2.03,67.802,5.717
		c0.802,0.159,1.577,0.318,2.341,0.479c0.216,0.046,0.429,0.091,0.642,0.137c0.611,0.131,1.21,0.263,1.797,0.394
		c0.148,0.034,0.299,0.066,0.445,0.1c0.696,0.159,1.372,0.318,2.032,0.478c0.185,0.044,0.364,0.089,0.545,0.134
		c0.509,0.125,1.008,0.251,1.495,0.376c0.175,0.046,0.353,0.09,0.524,0.136c0.608,0.159,1.2,0.317,1.774,0.477
		c0.132,0.037,0.258,0.073,0.389,0.11c0.464,0.13,0.917,0.261,1.359,0.39c0.163,0.048,0.326,0.096,0.485,0.143
		c0.52,0.155,1.03,0.311,1.52,0.465c0.029,0.01,0.06,0.018,0.09,0.028c0.5,0.159,0.979,0.316,1.447,0.472
		c0.058,0.02,0.113,0.038,0.169,0.058L276.127,423.963L276.127,423.963z M457.824,114.762v296.392
		c-5.515-2.445-12.448-4.598-20.826-6.476c-20.396-4.572-47.392-7.089-76.016-7.089s-55.619,2.518-76.016,7.089
		c-8.378,1.878-15.311,4.031-20.826,6.476V114.762v-10.607c1.558-1.813,8.984-6.44,29.039-10.402
		c18.661-3.687,42.742-5.717,67.802-5.717c25.061,0,49.141,2.03,67.802,5.717c20.055,3.961,27.481,8.588,29.039,10.402v10.607
		H457.824z M495.715,407.975c0,8.815-7.172,15.988-15.988,15.988h-5.619V122.904h5.619c8.815,0,15.988,7.172,15.988,15.988V407.975z
		"/>
</g>
</svg>