<svg viewBox="0 0 1024 1024" version="1.1" xmlns="http://www.w3.org/2000/svg" p-id="6149">
  <path d="M122.368 165.888h778.24c-9.216 0-16.384-7.168-16.384-16.384v713.728c0-9.216 7.168-16.384 16.384-16.384h-778.24c9.216 0 16.384 7.168 16.384 16.384V150.016c0 8.192-6.656 15.872-16.384 15.872z m-32.768 684.544c0 26.112 20.992 47.104 47.104 47.104h750.08c26.112 0 47.104-20.992 47.104-47.104V162.304c0-26.112-20.992-47.104-47.104-47.104H136.704c-26.112 0-47.104 20.992-47.104 47.104v688.128zM138.752 158.208V435.2h745.472V158.208H138.752z m609.792 206.336l-102.912-109.056 25.088-26.624 77.824 82.432 77.824-82.432 25.088 26.624-102.912 109.056z" p-id="6150"></path>
</svg>