
<svg t="1720533394523" class="icon" viewBox="0 0 1024 1024" version="1.1" xmlns="http://www.w3.org/2000/svg" p-id="1479" width="16" height="16"><path d="M894.336 64C930.624 64 960 93.44 960 129.664V576h-64V511.936H383.936V896H512v64H129.664C93.376 960 64 930.56 64 894.336V129.664C64 93.376 93.44 64 129.664 64h764.672zM832 640l-0.064 128H960v64h-128.064L832 960h-64l-0.064-128H640v-64h127.936L768 640h64zM319.936 128H128v768h191.936V128zM896 128H383.936v319.936H896V128z" fill="#20232A" p-id="1480"></path></svg>