<?xml version="1.0" encoding="utf-8"?>
<svg version="1.1" id="图层_1" xmlns="http://www.w3.org/2000/svg" xmlns:xlink="http://www.w3.org/1999/xlink" x="0px" y="0px"
	 viewBox="0 0 132 132" style="enable-background:new 0 0 132 132;" xml:space="preserve">
<style type="text/css">
	.st0{fill:none;}
	.st1{fill:currentColor;}
</style>
<rect id="size" class="st0" width="132" height="132"/>
<path id="形状结合" class="st1" d="M81.8,19.2c8.1-8.1,21.1-8.1,29.2,0l0.9,1c7.1,8.1,6.8,20.4-0.9,28.2l-63.5,63.5
	c-2.3,2.3-5.5,3.6-8.8,3.6H20.5c-3.2,0-5.8-2.6-5.8-5.8V91.5c0-3.3,1.3-6.4,3.6-8.8L81.8,19.2z M72.5,40.2L24.1,88.5
	c-0.8,0.8-1.2,1.8-1.2,2.9v15.8h15.8c0.9,0,1.7-0.3,2.4-0.8l0.5-0.4L90,57.7L72.5,40.2z M104.2,24.3c-4.9-4-12.1-3.7-16.6,0.8
	l-9.3,9.3l17.5,17.5l9.3-9.3c4.6-4.6,4.8-11.9,0.7-16.8l-0.7-0.7L104.2,24.3z M97.5,79.7c2.2,0,4.1,1.8,4.1,4.1v12.4H114
	c2.2,0,4.1,1.8,4.1,4.1c0,2.2-1.9,4.1-4.1,4.1h-12.4v12.4c0,2.2-1.9,4.1-4.1,4.1c-2.3,0-4.1-1.9-4.1-4.1v-12.4H81
	c-2.4,0-4.1-1.9-4.1-4.1c0-2.3,1.7-4.1,4.1-4.1h12.4V83.8C93.4,81.5,95.2,79.7,97.5,79.7z"/>
</svg>
