<?xml version="1.0" encoding="utf-8"?>
<!-- Generator: Adobe Illustrator 26.0.2, SVG Export Plug-In . SVG Version: 6.00 Build 0)  -->
<svg version="1.1" id="图层_1" xmlns="http://www.w3.org/2000/svg" xmlns:xlink="http://www.w3.org/1999/xlink" x="0px" y="0px"
	 viewBox="0 0 16 16" style="enable-background:new 0 0 16 16;" xml:space="preserve">
<path d="M8.5,14.2H3c-0.8,0-1.5-0.7-1.5-1.5V11c0-0.8,0.7-1.5,1.5-1.5h5.5C8.8,9.5,9,9.7,9,10s-0.2,0.5-0.5,0.5H3
	c-0.3,0-0.5,0.2-0.5,0.5v1.7c0,0.3,0.2,0.5,0.5,0.5h5.5c0.3,0,0.5,0.2,0.5,0.5S8.8,14.2,8.5,14.2z"/>
<path d="M12.6,9H3.4C2.6,9,1.9,8.3,1.9,7.5c0-0.2,0-0.3,0.1-0.5l1.6-4.6c0.2-0.6,0.8-1,1.4-1h6c0.6,0,1.2,0.4,1.4,1L14,7
	c0.3,0.8-0.1,1.6-0.9,1.9C12.9,8.9,12.8,9,12.6,9z M5,2.4c-0.2,0-0.4,0.1-0.5,0.3L2.9,7.3c0,0.1,0,0.1,0,0.2C2.9,7.8,3.1,8,3.4,8
	h9.2c0.1,0,0.1,0,0.2,0c0.1,0,0.2-0.1,0.3-0.3s0.1-0.3,0-0.4l-1.6-4.6c-0.1-0.2-0.3-0.3-0.5-0.3H5z"/>
<path d="M14,12.6h-4c-0.3,0-0.5-0.2-0.5-0.5s0.2-0.5,0.5-0.5h4c0.3,0,0.5,0.2,0.5,0.5S14.3,12.6,14,12.6z"/>
<path d="M12,14.6c-0.3,0-0.5-0.2-0.5-0.5v-4c0-0.3,0.2-0.5,0.5-0.5s0.5,0.2,0.5,0.5v4C12.5,14.4,12.3,14.6,12,14.6z"/>
</svg>
