<svg width="16.267334" height="16.267334" viewBox="0 0 16.2673 16.2673" fill="none" xmlns="http://www.w3.org/2000/svg" xmlns:xlink="http://www.w3.org/1999/xlink">
	<defs/>
	<mask id="mask413_10171" mask-type="alpha" maskUnits="userSpaceOnUse" x="0.000000" y="0.000000" width="16.267334" height="16.267334">
		<rect id="新建文件夹-folder-add" x="0.269531" width="16.000000" height="16.000000" transform="rotate(0.965286 0.269531 0.000000)" fill="currentColor" fill-opacity="1.000000"/>
	</mask>
	<g mask="url(#mask413_10171)">
		<path id="形状结合" d="M5.55 2.26C5.71 2.26 5.88 2.32 6.01 2.44L8.18 4.33L13.1 4.41C13.93 4.42 14.6 5.07 14.66 5.89L14.66 6.02L14.6 9.4C14.6 9.66 14.37 9.89 14.1 9.89C13.82 9.88 13.6 9.65 13.6 9.38L13.63 7.62L2.64 7.43L2.58 11.37C2.56 12.29 3.3 13.06 4.22 13.08L9.68 13.17C9.95 13.17 10.18 13.4 10.17 13.67C10.17 13.96 9.94 14.17 9.66 14.17L4.2 14.08C2.72 14.05 1.55 12.84 1.58 11.36L1.7 3.78C1.71 2.91 2.44 2.21 3.32 2.22L5.55 2.26ZM12.72 10.5C13 10.51 13.22 10.73 13.21 11.01L13.2 11.87L14.06 11.89C14.34 11.89 14.56 12.12 14.55 12.39C14.55 12.66 14.32 12.89 14.04 12.89L13.18 12.87L13.17 13.73C13.16 14.01 12.93 14.23 12.66 14.22C12.38 14.22 12.16 13.99 12.17 13.72L12.18 12.85L11.32 12.84C11.04 12.84 10.82 12.61 10.83 12.33C10.83 12.04 11.06 11.84 11.34 11.84L12.2 11.85L12.21 10.99C12.22 10.72 12.45 10.5 12.72 10.5ZM5.43 3.26L3.3 3.22C3.01 3.22 2.77 3.43 2.7 3.71L2.66 6.43L13.65 6.62L13.66 6.01C13.67 5.68 13.41 5.42 13.08 5.41L8.06 5.32C7.89 5.32 7.71 5.26 7.6 5.15L5.43 3.26Z" fill="#191919" fill-opacity="1.000000" fill-rule="nonzero"/>
	</g>
</svg>
