<?xml version="1.0" encoding="utf-8"?>
<!-- Generator: Adobe Illustrator 26.0.2, SVG Export Plug-In . SVG Version: 6.00 Build 0)  -->
<svg version="1.1" id="图层_1" xmlns="http://www.w3.org/2000/svg" xmlns:xlink="http://www.w3.org/1999/xlink" x="0px" y="0px"
	 viewBox="0 0 24 24" style="enable-background:new 0 0 24 24;" xml:space="preserve">
<g>
	<path class="st0" d="M21.9,17.9h-2.5v-2.5c0-0.4-0.4-0.6-0.8-0.6c-0.4,0-0.8,0.3-0.8,0.6v2.5h-2.5c-0.4,0-0.6,0.4-0.6,0.8
		c0,0.4,0.3,0.8,0.6,0.8h2.5V22c0,0.4,0.4,0.6,0.8,0.6c0.4,0,0.8-0.3,0.8-0.6v-2.5h2.5c0.4,0,0.6-0.4,0.6-0.8
		C22.5,18.3,22.2,17.9,21.9,17.9z"/>
	<path class="st0" d="M21.1,5l-3.2-3.2c-0.3-0.3-0.6-0.4-1-0.4c-0.4,0-0.7,0.1-1,0.4L4.1,13.5C4,13.7,3.9,13.8,3.8,14l-2.3,6
		c-0.2,0.6,0.2,1.2,0.8,1.2c0.1,0,0.2,0,0.3-0.1L8.8,19c0.2-0.1,0.4-0.2,0.5-0.3L21.1,6.9C21.6,6.3,21.6,5.5,21.1,5z M8.2,17.5
		l-4.6,1.7l1.7-4.6l8.1-8.1l2.9,2.9L8.2,17.5z M17.4,8.3l-2.9-2.9L16.9,3l2.9,2.9L17.4,8.3z"/>
</g>
</svg>
