<svg width="16.000000" height="16.000000" viewBox="0 0 16 16" fill="none" xmlns="http://www.w3.org/2000/svg" xmlns:xlink="http://www.w3.org/1999/xlink">

	<g mask="url(#mask413_9366)">
		<path id="形状结合" d="M8 2.5C8.27 2.5 8.5 2.71 8.5 3L8.5 7.48L13 7.5C13.27 7.5 13.5 7.71 13.5 8C13.5 8.27 13.27 8.5 13 8.5L8.5 8.48L8.5 13C8.5 13.27 8.27 13.5 8 13.5C7.71 13.5 7.5 13.27 7.5 13L7.5 8.5L3 8.5C2.71 8.5 2.5 8.27 2.5 8C2.5 7.71 2.71 7.5 3 7.5L7.5 7.5L7.5 3C7.5 2.71 7.71 2.5 8 2.5Z" fill="currentColor" fill-opacity="1.000000" fill-rule="nonzero"/>
	</g>
</svg>
