<svg
  viewBox="0 0 1024 1024"
  version="1.1"
  xmlns="http://www.w3.org/2000/svg"
  p-id="17880"
  >
  <path
    d="M915.7 80.6H143.2c-4.6 0-8.4 3.7-8.4 8.4v63.3c0 4.6 3.7 8.4 8.4 8.4h772.6c4.6 0 8.4-3.7 8.4-8.4V88.9c-0.1-4.6-3.9-8.3-8.5-8.3zM525.2 451.2H142.9c-4.4 0-8 3.6-8 8v63.9c0 4.4 3.6 8 8 8h382.4c4.9 0 8.9-4 8.9-8.9V460c-0.1-4.8-4.1-8.8-9-8.8zM143 901.9h261c4.5 0 8.2-3.7 8.2-8.2v-63.6c0-4.5-3.7-8.2-8.2-8.2H143c-4.5 0-8.2 3.7-8.2 8.2v63.6c0 4.5 3.7 8.2 8.2 8.2zM952.7 661H774.8V483.2c0-4.5-3.6-8.1-8.1-8.1H703c-4.5 0-8.2 3.6-8.2 8.1V661H517c-4.5 0-8.1 3.6-8.1 8.1v63.7c0 4.5 3.6 8.1 8.1 8.1h177.8v177.8c0 4.5 3.6 8.1 8.2 8.1h63.7c4.5 0 8.1-3.6 8.1-8.1V741h177.8c4.5 0 8.1-3.6 8.1-8.1v-63.7c0.1-4.5-3.5-8.2-8-8.2z"
    p-id="17881"
  ></path>
</svg>