<svg width="18.000000" height="18.000000" viewBox="0 0 18 18" fill="none" xmlns="http://www.w3.org/2000/svg" xmlns:xlink="http://www.w3.org/1999/xlink">
	<desc>
			Created with Pixso.
	</desc>
	<defs>
		<linearGradient x1="-1.124997" y1="-2.250002" x2="15.999999" y2="17.249994" id="paint_linear_653_16299_0" gradientUnits="userSpaceOnUse">
			<stop offset="0.281531" stop-color="#5C89FF"/>
			<stop offset="0.755488" stop-color="#9B5FFF"/>
			<stop offset="1.000000" stop-color="#B188FF"/>
			<stop offset="1.000000" stop-color="#B188FF"/>
		</linearGradient>
	</defs>
	<g opacity="0.880000">
		<rect id="矩形 304" rx="9.000000" width="18.000000" height="18.000000" fill="url(#paint_linear_653_16299_0)" fill-opacity="1.000000"/>
	</g>
	<path id="矢量 13" d="M5.38 8.91C5.71 8.58 6.09 8.25 6.5 7.94C6.57 7.41 6.67 6.91 6.8 6.45C5.76 6.26 4.97 6.39 4.69 6.87C4.41 7.36 4.7 8.11 5.38 8.91ZM4.91 9.44C3.98 8.33 3.62 7.24 4.05 6.5C4.47 5.76 5.6 5.53 7.01 5.77C7.51 4.44 8.27 3.59 9.11 3.59C9.97 3.59 10.73 4.45 11.22 5.79C12.63 5.55 13.75 5.78 14.18 6.52C14.61 7.26 14.25 8.34 13.34 9.44C14.25 10.53 14.6 11.61 14.18 12.35C13.75 13.08 12.63 13.32 11.23 13.08C10.74 14.43 9.97 15.29 9.11 15.29C8.26 15.29 7.5 14.44 7.01 13.1C5.6 13.34 4.47 13.11 4.05 12.37C3.62 11.63 3.99 10.54 4.91 9.44ZM11.44 12.4C12.47 12.58 13.25 12.46 13.53 11.97C13.81 11.49 13.53 10.76 12.87 9.96C12.53 10.3 12.15 10.63 11.72 10.95C11.66 11.47 11.57 11.95 11.44 12.4ZM12.87 8.91C13.53 8.12 13.81 7.38 13.53 6.9C13.25 6.41 12.47 6.29 11.44 6.47C11.56 6.92 11.66 7.4 11.72 7.92C12.15 8.24 12.53 8.57 12.87 8.91ZM11.8 8.92C12.01 9.09 12.2 9.26 12.38 9.44C12.2 9.61 12.01 9.78 11.8 9.95C11.81 9.78 11.81 9.62 11.81 9.44C11.81 9.27 11.81 9.09 11.8 8.92ZM10.89 7.34C10.85 7.09 10.8 6.86 10.74 6.63C10.52 6.69 10.29 6.77 10.05 6.86C10.19 6.93 10.32 7 10.46 7.08C10.61 7.17 10.75 7.26 10.89 7.34ZM9.14 7.24C9.45 7.38 9.77 7.55 10.09 7.73C10.41 7.92 10.73 8.12 11.02 8.32C11.05 8.68 11.06 9.06 11.06 9.44C11.06 9.82 11.05 10.19 11.02 10.55C10.73 10.75 10.42 10.95 10.09 11.14C9.77 11.32 9.45 11.49 9.14 11.63C8.81 11.48 8.47 11.31 8.14 11.11C7.81 10.92 7.5 10.73 7.21 10.52C7.18 10.18 7.16 9.81 7.16 9.44C7.16 9.07 7.18 8.7 7.21 8.35C7.5 8.15 7.81 7.95 8.14 7.76C8.47 7.57 8.81 7.39 9.14 7.24ZM9.14 6.42C9.62 6.22 10.09 6.06 10.53 5.94C10.18 4.96 9.67 4.34 9.11 4.34C8.56 4.34 8.06 4.95 7.7 5.92C8.17 6.04 8.65 6.21 9.14 6.42ZM7.49 6.61C7.73 6.68 7.98 6.76 8.23 6.85C8.08 6.93 7.92 7.02 7.76 7.11C7.62 7.19 7.47 7.28 7.33 7.37C7.38 7.1 7.43 6.85 7.49 6.61ZM6.5 10.93C6.57 11.46 6.66 11.96 6.79 12.43C5.76 12.61 4.98 12.48 4.7 12C4.42 11.51 4.7 10.76 5.38 9.96C5.71 10.29 6.09 10.62 6.5 10.93ZM6.42 9.93C6.23 9.76 6.04 9.6 5.87 9.44C6.04 9.27 6.23 9.11 6.42 8.94C6.42 9.11 6.41 9.28 6.41 9.44C6.41 9.61 6.42 9.77 6.42 9.93ZM7.33 11.5C7.47 11.59 7.61 11.68 7.76 11.76C7.92 11.85 8.08 11.94 8.23 12.02C7.98 12.11 7.73 12.2 7.49 12.26C7.43 12.02 7.37 11.77 7.33 11.5ZM9.14 12.45C8.65 12.66 8.16 12.83 7.7 12.95C8.05 13.93 8.56 14.54 9.11 14.54C9.68 14.54 10.18 13.92 10.54 12.93C10.09 12.81 9.62 12.65 9.14 12.45ZM10.05 12.02C10.29 12.1 10.52 12.18 10.75 12.24C10.8 12.01 10.85 11.78 10.89 11.53C10.75 11.61 10.61 11.7 10.46 11.79C10.33 11.87 10.19 11.94 10.05 12.02Z" fill="#FFFFFF" fill-opacity="1.000000" fill-rule="evenodd"/>
</svg>
