<?xml version="1.0" encoding="utf-8"?>
<svg version="1.1" id="图层_1" xmlns="http://www.w3.org/2000/svg" xmlns:xlink="http://www.w3.org/1999/xlink" x="0px" y="0px"
	 viewBox="0 0 132 132" style="enable-background:new 0 0 132 132;" xml:space="preserve">
<style type="text/css">
	.st0{fill:none;}
	.st1{fill:url(#矩形_304_00000114780347070762469230000012585656689893626520_);}
	.st2{fill-rule:evenodd;clip-rule:evenodd;fill:#FFFFFF;}
</style>
<rect id="size" class="st0" width="132" height="132"/>
<linearGradient id="矩形_304_00000050633274750191579490000012498256746600559501_" gradientUnits="userSpaceOnUse" x1="-7.2348" y1="149.3915" x2="118.3485" y2="6.3915" gradientTransform="matrix(1 0 0 -1 0 132)">
	<stop  offset="0.2815" style="stop-color:#5C89FF"/>
	<stop  offset="0.7555" style="stop-color:#9B5FFF"/>
	<stop  offset="1" style="stop-color:#B188FF"/>
	<stop  offset="1" style="stop-color:#B188FF"/>
</linearGradient>
<path id="矩形_304" style="fill:url(#矩形_304_00000050633274750191579490000012498256746600559501_);" d="M66,0L66,0
	c36.5,0,66,29.5,66,66l0,0c0,36.5-29.5,66-66,66l0,0c-36.5,0-66-29.5-66-66l0,0C0,29.5,29.5,0,66,0z"/>
<path id="矢量_13" class="st2" d="M39.5,65.3c2.4-2.4,5.2-4.8,8.2-7.1c0.5-3.9,1.2-7.6,2.2-10.9c-7.6-1.4-13.4-0.4-15.4,3.1
	C32.3,54,34.5,59.5,39.5,65.3z M36,69.2c-6.8-8.1-9.5-16.1-6.3-21.6c3.1-5.4,11.4-7.1,21.7-5.4c3.7-9.8,9.2-16,15.4-16
	c6.3,0,11.9,6.3,15.5,16.1c10.3-1.8,18.6-0.1,21.7,5.4c3.2,5.4,0.5,13.3-6.2,21.4c6.7,8,9.2,15.9,6.2,21.3
	c-3.2,5.4-11.4,7.1-21.6,5.4c-3.6,9.9-9.2,16.2-15.5,16.2c-6.2,0-11.8-6.2-15.4-16.1c-10.3,1.8-18.6,0.1-21.7-5.4
	C26.5,85.3,29.3,77.3,36,69.2z M83.9,90.9c7.6,1.3,13.3,0.4,15.3-3.2c2.1-3.5,0-8.9-4.8-14.7c-2.5,2.5-5.3,4.9-8.4,7.3
	C85.5,84.1,84.8,87.6,83.9,90.9z M94.4,65.3c4.8-5.8,6.9-11.2,4.8-14.7c-2.1-3.6-7.8-4.5-15.3-3.2c0.9,3.3,1.6,6.8,2.1,10.6
	C89.1,60.4,91.9,62.8,94.4,65.3z M86.5,65.4c1.5,1.2,2.9,2.5,4.3,3.8c-1.3,1.2-2.7,2.5-4.3,3.7c0.1-1.2,0.1-2.4,0.1-3.7
	C86.6,68,86.6,66.7,86.5,65.4z M79.9,53.8c-0.3-1.8-0.7-3.5-1.1-5.2c-1.6,0.4-3.3,1-5.1,1.7c1,0.5,2,1.1,3,1.6
	C77.8,52.6,78.8,53.2,79.9,53.8z M67,53.1c2.3,1,4.6,2.3,7,3.6c2.3,1.4,4.7,2.9,6.8,4.3c0.2,2.6,0.3,5.4,0.3,8.2
	c0,2.8-0.1,5.5-0.3,8.1c-2.1,1.5-4.4,2.9-6.8,4.3c-2.3,1.3-4.7,2.6-7,3.6c-2.4-1.1-4.9-2.3-7.3-3.8c-2.4-1.4-4.7-2.8-6.8-4.3
	c-0.2-2.5-0.4-5.2-0.4-7.9c0-2.7,0.1-5.4,0.4-8c2.1-1.5,4.4-2.9,6.8-4.3C62.1,55.5,64.6,54.2,67,53.1z M67,47.1
	c3.5-1.5,7-2.6,10.2-3.4c-2.6-7.3-6.3-11.8-10.4-11.8c-4,0-7.7,4.5-10.3,11.6C59.9,44.3,63.4,45.5,67,47.1z M54.9,48.5
	c1.8,0.5,3.6,1.1,5.4,1.8c-1.1,0.6-2.3,1.2-3.4,1.9c-1,0.6-2.1,1.2-3.2,1.9C54.1,52.1,54.5,50.2,54.9,48.5z M47.7,80.2
	c0.5,3.9,1.2,7.6,2.1,11c-7.6,1.3-13.3,0.4-15.3-3.2c-2.1-3.6,0-9.1,5-15C41.9,75.5,44.7,77.9,47.7,80.2z M47.1,72.8
	c-1.4-1.2-2.8-2.4-4-3.6c1.2-1.2,2.6-2.4,4-3.7c0,1.2-0.1,2.5-0.1,3.7C47,70.5,47.1,71.6,47.1,72.8z M53.8,84.3
	c1,0.7,2.1,1.3,3.2,1.9c1.2,0.7,2.3,1.3,3.4,1.9c-1.8,0.7-3.7,1.3-5.4,1.8C54.5,88.1,54,86.3,53.8,84.3z M67,91.3
	c-3.6,1.5-7.2,2.8-10.6,3.7c2.6,7.2,6.3,11.7,10.3,11.7c4.2,0,7.8-4.5,10.5-11.8C74,93.9,70.5,92.8,67,91.3z M73.7,88.1
	c1.8,0.6,3.4,1.2,5.1,1.6c0.4-1.7,0.7-3.4,1.1-5.2c-1.1,0.6-2.1,1.2-3.2,1.9C75.8,87,74.7,87.6,73.7,88.1z"/>
</svg>
