<?xml version="1.0" encoding="utf-8"?>
<svg version="1.1" id="图层_1" xmlns="http://www.w3.org/2000/svg" xmlns:xlink="http://www.w3.org/1999/xlink" x="0px" y="0px"
	 viewBox="0 0 132 132" style="enable-background:new 0 0 132 132;" xml:space="preserve">
<style type="text/css">
	.st0{fill:none;}
	.st1{fill:currentColor;}
</style>
<rect id="size" class="st0" width="132" height="132"/>
<path id="形状结合" class="st1" d="M59.6,13.8c25.1,0,45.4,20.3,45.4,45.4c0,11-3.9,21-10.3,28.8l22.5,22.2
	c1.6,1.6,1.6,4.2,0,5.8c-1.6,1.6-4.2,1.6-5.8,0L88.9,93.9c-7.9,6.7-18.1,10.7-29.2,10.7c-25.1,0-45.4-20.3-45.4-45.4
	S34.6,13.8,59.6,13.8z M59.6,22.1c-20.5,0-37.1,16.6-37.1,37.1s16.6,37.1,37.1,37.1s37.1-16.6,37.1-37.1S80.1,22.1,59.6,22.1z"/>
</svg>
