<svg version="1.1" id="图层_1"
  xmlns="http://www.w3.org/2000/svg"
  xmlns:xlink="http://www.w3.org/1999/xlink" x="0px" y="0px" viewBox="0 0 16 16" style="enable-background:new 0 0 16 16;" xml:space="preserve" width="132px" height="132px">
  <style type="text/css">
	.st0{fill:currentColor;}
  </style>
  <path id="合并形状" class="st0" d="M12.4,11.1l2.4,2.4c0.4,0.4,0.4,0.9,0,1.3s-0.9,0.4-1.3,0l-2.4-2.4c-1.1,0.8-2.4,1.3-3.8,1.3&#10;&#9;C3.8,13.6,1,10.8,1,7.3S3.8,1,7.3,1s6.3,2.8,6.3,6.3C13.6,8.7,13.1,10,12.4,11.1z M7.3,12.1c2.7,0,4.8-2.1,4.8-4.8S10,2.5,7.3,2.5&#10;&#9;S2.5,4.7,2.5,7.3S4.7,12.1,7.3,12.1z"/>
</svg>