<?xml version="1.0" encoding="utf-8"?>
<!-- Generator: Adobe Illustrator 26.3.1, SVG Export Plug-In . SVG Version: 6.00 Build 0)  -->
<svg version="1.1" id="图层_1" xmlns="http://www.w3.org/2000/svg" xmlns:xlink="http://www.w3.org/1999/xlink" x="0px" y="0px"
	 viewBox="0 0 64 64" style="enable-background:new 0 0 64 64;" xml:space="preserve">
<style type="text/css">
	.st0{fill:currentcolor;}
</style>
<path class="st0" d="M60.6,6.7H3.3c-1.1,0-2,0.9-2,2v47c0,1.1,0.9,2,2,2h57.3c1.1,0,2-0.9,2-2v-47C62.6,7.6,61.7,6.7,60.6,6.7z
	 M58.6,21.9H44V10.7h14.6V21.9z M23.9,21.9V10.7H40v11.2H23.9z M58.6,25.9v12.6H5.3V25.9H58.6z M19.9,10.7v11.2H5.3V10.7H19.9z
	 M5.3,53.7V42.5h53.3v11.2H5.3z"/>
</svg>

