<?xml version="1.0" encoding="utf-8"?>
<svg version="1.1" id="图层_1" xmlns="http://www.w3.org/2000/svg" xmlns:xlink="http://www.w3.org/1999/xlink" x="0px" y="0px"
	 viewBox="0 0 132 132" style="enable-background:new 0 0 132 132;" xml:space="preserve">
<style type="text/css">
	.st0{fill:none;}
	.st1{fill:currentColor;}
</style>
<rect id="size" class="st0" width="132" height="132"/>
<path id="形状结合" class="st1" d="M66,9.7c-22.4,0-40.5,18.1-40.5,40.4l0.1,1.9c0.6,12.6,6.9,24,17,31.1l1.1,0.7v9.4
	c0,7.3,5.9,13.2,13.3,13.2H75l1.2-0.1c6.8-0.6,12-6.3,12-13.1l0.1-9.4l1.1-0.7c10.6-7.4,17.1-19.6,17.1-33
	C106.5,27.8,88.3,9.7,66,9.7z M66,17.9c17.7,0,32.2,14.4,32.2,32.2c0,11.6-6.3,22.3-16.1,27.9l-2.1,1.2l-0.1,14c0,2.7-2.1,5-4.9,5
	H57c-2.8,0-5-2.2-5-5v-14L49.9,78c-9.8-5.6-16.1-16.3-16.1-27.9C33.8,32.3,48.2,17.9,66,17.9z M82.4,114.1c2.2,0,4.1,1.8,4.1,4.1
	c0,2.2-1.9,4.1-4.1,4.1H49.6c-2.2,0-4.1-1.9-4.1-4.1c0-2.3,1.9-4.1,4.1-4.1H82.4z"/>
</svg>
