<?xml version="1.0" encoding="utf-8"?>
<svg version="1.1" id="图层_1"
  xmlns="http://www.w3.org/2000/svg"
  xmlns:xlink="http://www.w3.org/1999/xlink" x="0px" y="0px" viewBox="0 0 64 64" style="enable-background:new 0 0 64 64;" xml:space="preserve">
  <style type="text/css">
	.st0{fill:currentcolor;}
  </style>
  <g id="Clip-30">
  </g>
  <g>
    <path class="st0" d="M39.1,32.6c1.3-3.7,0.5-7.9-2.5-10.9c-3.1-3.1-7.7-3.9-11.8-2.1c-0.5,0.2-0.8,0.6-0.9,1.1
		c-0.1,0.5,0.1,1,0.4,1.3l3.7,3.7c0.4,0.4,0.5,0.8,0.5,1.3c0,0.3-0.1,0.7-0.5,1.1c-0.4,0.3-0.8,0.5-1.3,0.5c-0.3,0-0.7-0.1-1.1-0.5
		l-3.7-3.7c-0.3-0.3-0.8-0.5-1.3-0.4c-0.5,0.1-0.9,0.4-1.1,0.9c-1.8,4-0.9,8.7,2.2,11.7c2,2,4.7,3.1,7.4,3.1c1.1,0,2.2-0.2,3.3-0.5
		l4.7,4.7c1,1,2.3,1.5,3.6,1.5c1.1,0,2.2-0.4,3-1.2l0.2-0.2c1.7-1.8,1.5-4.7-0.3-6.6L39.1,32.6z M24,34.4c-1.7-1.6-2.5-3.8-2.2-6.1
		l1.9,1.9c0.9,0.9,2,1.4,3.3,1.4c1.2,0,2.4-0.5,3.3-1.3c0.9-0.8,1.4-2,1.5-3.2c0-1.3-0.5-2.5-1.4-3.4l-1.9-1.9
		c2.3-0.3,4.5,0.5,6.2,2.1c2.9,2.9,2.9,7.7,0,10.6C31.6,37.4,26.9,37.4,24,34.4z M42,41.7l-0.2,0.2c-0.3,0.3-0.7,0.4-1,0.4
		c-0.5,0-1-0.3-1.3-0.7l-4-4c0.5-0.3,0.9-0.7,1.3-1.1c0.4-0.4,0.7-0.8,1-1.2l4,4C42.4,40.1,42.5,41.2,42,41.7z"/>
    <path class="st0" d="M32,6.6C18,6.6,6.6,18,6.6,32C6.6,46,18,57.4,32,57.4C46,57.4,57.4,46,57.4,32C57.4,18,46,6.6,32,6.6z
		 M32,53.4c-11.8,0-21.4-9.6-21.4-21.4S20.2,10.6,32,10.6S53.4,20.2,53.4,32S43.8,53.4,32,53.4z"/>
  </g>
  <g id="Clip-30_00000082359790372202237170000007339004850009255582_">
  </g>
</svg>
