<?xml version="1.0" encoding="utf-8"?>
<svg version="1.1" id="图层_1"
  xmlns="http://www.w3.org/2000/svg"
  xmlns:xlink="http://www.w3.org/1999/xlink" x="0px" y="0px" viewBox="0 0 64 64" style="enable-background:new 0 0 64 64;" xml:space="preserve">
  <style type="text/css">
	.st0{fill:currentcolor;}
  </style>
  <g id="Clip-30">
  </g>
  <g id="Clip-30_00000082359790372202237170000007339004850009255582_">
  </g>
  <g>
    <path class="st0" d="M13.9,13.9c-6.1,0-11,4.9-11,11v25.3h47.1c6.1,0,11-4.9,11-10.9V13.9H13.9z M57.1,39.2c0,3.8-3.1,6.9-7,6.9
		H6.9V24.9c0-3.9,3.1-7,7-7h43.1V39.2z"/>
    <path class="st0" d="M30.1,32.3c0.4-0.5,1.1-1.2,1.9-2c-2-1.7-3.6-3.8-4.9-6.4L24.9,25C26.4,28,28.1,30.5,30.1,32.3z"/>
    <path class="st0" d="M16.6,37.3l1,2.3c0.6-0.1,1.1-0.2,1.7-0.3l8.8-0.5c0.3,0.5,0.6,0.9,0.9,1.4l2.2-1.5c-1.4-2.1-2.9-4.2-4.7-6.3
		l-2,1.2c0.8,1,1.5,2,2.1,3c-2,0.1-4.1,0.2-6.3,0.2c1.2-1.4,2.8-3.6,4.7-6.5l-2.5-1.1c-0.7,1.3-1.6,2.9-2.9,4.7
		C18.4,35.7,17.4,36.9,16.6,37.3z"/>
    <path class="st0" d="M22.4,25l-2.3-1c-1.1,2.5-2.7,4.6-4.7,6.5c0.8,0.8,1.3,1.4,1.7,1.9C19.4,30.2,21.2,27.8,22.4,25z"/>
    <rect x="44.1" y="25.1" class="st0" width="1.7" height="11.2"/>
    <path class="st0" d="M34.4,33c-0.5,2.4-1,4.6-1.7,6.5c0.7,0.2,1.4,0.4,2.2,0.7l1.6-6.4C35.9,33.6,35.2,33.3,34.4,33z"/>
    <path class="st0" d="M47.1,39.8c0.4-0.1,0.7-0.4,1-0.7s0.4-0.8,0.4-1.4V23.8h-1.9v12.9c0,0.6-0.3,0.9-0.8,0.9c-0.6,0-1.2,0-1.8-0.1
		c0.2,0.9,0.4,1.6,0.5,2.4C45.8,39.9,46.7,39.9,47.1,39.8z"/>
    <path class="st0" d="M36.6,30.3c-0.9-0.8-1.8-1.5-2.7-2.1l-1.3,1.6c1,0.9,1.8,1.7,2.5,2.3L36.6,30.3z"/>
    <path class="st0" d="M40.2,36.2c0.4-1.1,0.6-2.6,0.6-4.5v-4.3h-1.5v3.9c0,1.7-0.3,3.1-0.7,4.1s-1.3,2-2.6,2.9
		c0.4,0.5,0.9,1.1,1.4,1.8c1.3-1.1,2.2-2.3,2.7-3.5c0.7,1,1.5,2,2.2,3l1.6-1.4c-0.8-1-1.6-1.9-2.6-2.9L40.2,36.2z"/>
    <path class="st0" d="M36.8,25.9V35h1.9v-8.7h3v8.6h1.7V24.4h-6.5L36.8,25.9c-0.9-0.9-1.7-1.6-2.5-2.2l-1.4,1.5
		c0.9,0.8,1.7,1.6,2.4,2.3L36.8,25.9z"/>
  </g>
</svg>
