<?xml version="1.0" standalone="no"?><!DOCTYPE svg PUBLIC "-//W3C//DTD SVG 1.1//EN" "http://www.w3.org/Graphics/SVG/1.1/DTD/svg11.dtd"><svg t="1660207304263" class="icon" viewBox="0 0 1024 1024" version="1.1" xmlns="http://www.w3.org/2000/svg" p-id="9496" xmlns:xlink="http://www.w3.org/1999/xlink" width="200" height="200"><defs><style type="text/css">@font-face { font-family: feedback-iconfont; src: url("//at.alicdn.com/t/font_1031158_u69w8yhxdu.woff2?t=1630033759944") format("woff2"), url("//at.alicdn.com/t/font_1031158_u69w8yhxdu.woff?t=1630033759944") format("woff"), url("//at.alicdn.com/t/font_1031158_u69w8yhxdu.ttf?t=1630033759944") format("truetype"); }
</style></defs><path d="M896 626.592a16 16 0 0 0-7.68-13.664l-172.448-105.088a16 16 0 0 0-20.704 3.52l-76 92.608-1.024 1.152a16 16 0 0 1-22.624 0.032l-252.832-252.064a16.032 16.032 0 0 0-22.08-0.512l-187.36 170.656a15.936 15.936 0 0 0-5.248 11.84V800h768v-173.408z" p-id="9497" fill="#ADB0B8"></path><path d="M800 320m-64 0a64 64 0 1 0 128 0 64 64 0 1 0-128 0Z" p-id="9498" fill="currentColor"></path><path d="M32 128v768h960V128H32z m896 704H96V192h832v640z" p-id="9499" fill="#ADB0B8"></path></svg>