<?xml version="1.0" encoding="utf-8"?>
<svg version="1.1" id="图层_1" xmlns="http://www.w3.org/2000/svg" xmlns:xlink="http://www.w3.org/1999/xlink" x="0px" y="0px"
	 viewBox="0 0 132 132" style="enable-background:new 0 0 132 132;" xml:space="preserve">
<style type="text/css">
	.st0{fill:none;}
	.st1{fill-rule:evenodd;clip-rule:evenodd;fill:#191919;}
	.st2{fill-rule:evenodd;clip-rule:evenodd;fill:#C2C2C2;}
</style>
<rect id="size" class="st0" width="132" height="132"/>
<path id="path4__x28_边框_x29_" class="st1" d="M11.1,17.4v96.3c0,2.6,2.1,4.6,4.6,4.6c2.6,0,4.7-2.1,4.7-4.6V17.4
	c0-2.6-2.1-4.6-4.7-4.6C13.1,12.8,11.1,14.8,11.1,17.4z"/>
<path id="path5__x28_边框_x29_" class="st2" d="M30.1,22h72.2c1,0,1.9,0.2,2.8,0.3c0.7,0.2,1.3,0.4,2,0.7c0.7,0.2,1.3,0.7,1.9,1
	c0.7,0.5,1.4,1,2,1.6c0.6,0.6,1.2,1.2,1.7,2c0.3,0.6,0.7,1.2,1,1.9c0.2,0.7,0.5,1.3,0.6,2c0.2,0.9,0.3,1.8,0.3,2.7v62.6
	c0,0.9-0.1,1.8-0.3,2.7c-0.1,0.7-0.3,1.3-0.6,2c-0.3,0.7-0.7,1.3-1,1.9c-0.5,0.7-1.1,1.4-1.7,2c-0.6,0.7-1.2,1.2-2,1.7
	c-0.6,0.3-1.2,0.7-1.9,1c-0.7,0.2-1.3,0.5-2,0.7c-0.9,0.2-1.8,0.3-2.8,0.3H30.1c-2.6,0-4.6,2-4.6,4.6c0,2.6,2.1,4.6,4.6,4.6h72.2
	c1.7,0,3.1-0.2,4.6-0.5c1.3-0.2,2.6-0.7,3.8-1.2c1.2-0.6,2.4-1.2,3.5-1.9c1.2-0.8,2.3-1.7,3.4-2.7c1-1.1,1.9-2.1,2.7-3.4
	c0.7-1.1,1.3-2.2,1.8-3.5c0.6-1.2,0.9-2.5,1.2-3.7c0.3-1.5,0.5-3.1,0.5-4.6V34.2c0-1.6-0.2-3.1-0.5-4.6c-0.3-1.2-0.7-2.5-1.2-3.7
	c-0.5-1.2-1.1-2.4-1.8-3.5c-0.8-1.2-1.7-2.3-2.7-3.4c-1.1-1-2.2-1.9-3.4-2.7c-1.1-0.7-2.2-1.3-3.5-1.9c-1.2-0.5-2.5-0.9-3.8-1.2
	c-1.5-0.3-3-0.5-4.6-0.5H30.1c-2.6,0-4.6,2.1-4.6,4.6C25.5,20,27.6,22,30.1,22z"/>
</svg>
