<?xml version="1.0" encoding="utf-8"?>
<svg version="1.1" id="图层_1" xmlns="http://www.w3.org/2000/svg" xmlns:xlink="http://www.w3.org/1999/xlink" x="0px" y="0px"
	 viewBox="0 0 132 132" style="enable-background:new 0 0 132 132;" xml:space="preserve">
<style type="text/css">
	.st0{fill:none;}
	.st1{fill-rule:evenodd;clip-rule:evenodd;fill:#191919;}
	.st2{fill-rule:evenodd;clip-rule:evenodd;fill:#C2C2C2;}
</style>
<rect id="size" class="st0" width="132" height="132"/>
<path id="path4__x28_边框_x29_" class="st1" d="M115.6,9.1H19.3c-2.6,0-4.6,2.1-4.6,4.6c0,2.6,2.1,4.7,4.6,4.7h96.3
	c2.6,0,4.6-2.1,4.6-4.7C120.2,11.2,118.2,9.1,115.6,9.1z"/>
<path id="path5__x28_边框_x29_" class="st2" d="M111,28.2v72.2c0,1-0.2,1.9-0.3,2.8c-0.2,0.7-0.4,1.3-0.7,2
	c-0.2,0.7-0.7,1.3-1,1.9c-0.5,0.7-1,1.4-1.6,2c-0.6,0.6-1.2,1.2-2,1.7c-0.6,0.3-1.2,0.7-1.9,1c-0.7,0.2-1.3,0.5-2,0.6
	c-0.9,0.2-1.8,0.3-2.7,0.3H36.2c-0.9,0-1.8-0.1-2.7-0.3c-0.7-0.1-1.3-0.3-2-0.6c-0.7-0.3-1.3-0.7-1.9-1c-0.7-0.5-1.4-1.1-2-1.7
	c-0.7-0.6-1.2-1.2-1.6-2c-0.3-0.6-0.7-1.2-1-1.9c-0.2-0.7-0.5-1.3-0.7-2c-0.2-0.9-0.3-1.8-0.3-2.8V28.2c0-2.6-2-4.6-4.6-4.6
	c-2.6,0-4.6,2.1-4.6,4.6v72.2c0,1.7,0.2,3.1,0.5,4.6c0.2,1.3,0.7,2.6,1.2,3.8c0.6,1.2,1.2,2.4,1.9,3.5c0.8,1.2,1.7,2.3,2.7,3.4
	c1.1,1,2.1,1.9,3.4,2.7c1.1,0.7,2.2,1.3,3.5,1.8c1.2,0.6,2.5,0.9,3.7,1.2c1.5,0.3,3.1,0.5,4.6,0.5h62.6c1.6,0,3.1-0.2,4.6-0.5
	c1.2-0.3,2.5-0.7,3.7-1.2c1.2-0.5,2.4-1.1,3.5-1.8c1.2-0.8,2.3-1.7,3.4-2.7c1-1.1,1.9-2.2,2.7-3.4c0.7-1.1,1.3-2.2,1.9-3.5
	c0.5-1.2,0.9-2.5,1.2-3.8c0.3-1.5,0.5-3,0.5-4.6V28.2c0-2.6-2.1-4.6-4.6-4.6C113,23.6,111,25.6,111,28.2z"/>
</svg>
