<?xml version="1.0" encoding="utf-8"?>
<svg version="1.1" id="图层_1" xmlns="http://www.w3.org/2000/svg" xmlns:xlink="http://www.w3.org/1999/xlink" x="0px" y="0px"
	 viewBox="0 0 132 132" style="enable-background:new 0 0 132 132;" xml:space="preserve">
<style type="text/css">
	.st0{fill:none;}
	.st1{fill-rule:evenodd;clip-rule:evenodd;fill:#191919;}
</style>
<rect id="size" class="st0" width="132" height="132"/>
<path id="矩形_13__x28_边框_x29_" class="st1" d="M96.9,13c-2-0.5-4.1-0.7-6.2-0.7H41.2c-2.1,0-4.3,0.2-6.3,0.7
	c-1.7,0.3-3.4,0.9-5,1.6s-3.1,1.5-4.6,2.5c-1.6,1.1-3.1,2.3-4.5,3.7c-1.4,1.4-2.6,2.9-3.7,4.5c-1,1.5-1.8,3-2.5,4.6s-1.2,3.3-1.6,5
	c-0.5,2-0.7,4.1-0.7,6.3v49.5c0,2.1,0.2,4.2,0.7,6.2c0.3,1.7,0.9,3.4,1.6,5c0.7,1.7,1.5,3.1,2.5,4.6c1.1,1.6,2.3,3.1,3.7,4.5
	c1.4,1.4,2.9,2.6,4.5,3.7c1.5,1,3,1.8,4.6,2.5s3.3,1.2,5,1.6c2,0.5,4.1,0.7,6.3,0.7h49.5c2.1,0,4.2-0.2,6.2-0.7
	c1.7-0.3,3.4-0.9,5-1.6c1.7-0.7,3.1-1.5,4.6-2.5c1.6-1.1,3.1-2.3,4.5-3.7s2.6-2.9,3.7-4.5c1-1.5,1.8-3,2.5-4.6
	c0.7-1.6,1.2-3.3,1.6-5c0.5-2,0.7-4.1,0.7-6.2V41.2c0-2.1-0.2-4.3-0.7-6.3c-0.3-1.7-0.9-3.4-1.6-5s-1.5-3.1-2.5-4.6
	c-1.1-1.6-2.3-3.1-3.7-4.5c-1.4-1.4-2.9-2.6-4.5-3.7c-1.5-1-3-1.8-4.6-2.5C100.3,13.9,98.7,13.4,96.9,13z M41.2,20.6h49.5
	c1.6,0,3.1,0.2,4.6,0.5c1.2,0.2,2.2,0.6,3.4,1.1c1.2,0.5,2.2,1.1,3.2,1.7c1.2,0.7,2.3,1.6,3.3,2.7c1.1,1,2,2.1,2.7,3.3
	c0.7,1,1.2,2.1,1.7,3.2c0.5,1.2,0.8,2.2,1.1,3.4c0.3,1.6,0.6,3.1,0.6,4.7v49.5c0,1.6-0.2,3.1-0.6,4.6c-0.2,1.2-0.6,2.2-1.1,3.4
	c-0.5,1.2-1.1,2.2-1.7,3.2c-0.7,1.2-1.6,2.3-2.7,3.3c-1,1.1-2.1,2-3.3,2.7c-1,0.7-2.1,1.2-3.2,1.7c-1.2,0.5-2.2,0.8-3.4,1.1
	c-1.6,0.3-3.1,0.6-4.6,0.6H41.2c-1.6,0-3.1-0.2-4.7-0.6c-1.2-0.2-2.2-0.6-3.4-1.1c-1.2-0.5-2.2-1.1-3.2-1.7
	c-1.2-0.7-2.3-1.6-3.3-2.7c-1.1-1-2-2.1-2.7-3.3c-0.7-1-1.2-2.1-1.7-3.2c-0.5-1.2-0.8-2.2-1.1-3.4c-0.3-1.6-0.5-3.1-0.5-4.6V41.2
	c0-1.6,0.2-3.1,0.5-4.7c0.2-1.2,0.6-2.2,1.1-3.4c0.5-1.2,1.1-2.2,1.7-3.2c0.7-1.2,1.6-2.3,2.7-3.3c1-1.1,2.1-2,3.3-2.7
	c1-0.7,2.1-1.2,3.2-1.7c1.2-0.5,2.2-0.8,3.4-1.1C38.1,20.8,39.6,20.6,41.2,20.6z"/>
</svg>
