<?xml version="1.0" encoding="utf-8"?>
<svg version="1.1" id="图层_1" xmlns="http://www.w3.org/2000/svg" xmlns:xlink="http://www.w3.org/1999/xlink" x="0px" y="0px"
	 viewBox="0 0 132 132" style="enable-background:new 0 0 132 132;" xml:space="preserve">
<style type="text/css">
	.st0{fill:none;}
	.st1{fill-rule:evenodd;clip-rule:evenodd;fill:currentColor;}
</style>
<rect id="size" class="st0" width="132" height="132"/>
<path id="矩形_84__x28_边框_x29_" class="st1" d="M123.8,33c0-13.7-11.1-24.8-24.8-24.8H33C19.3,8.2,8.2,19.3,8.2,33v66
	c0,13.6,11.1,24.8,24.8,24.8h66c13.6,0,24.8-11.1,24.8-24.8V33z M115.5,33c0-9.2-7.4-16.5-16.5-16.5H33c-9.2,0-16.5,7.3-16.5,16.5
	v66c0,9.1,7.3,16.5,16.5,16.5h66c9.1,0,16.5-7.4,16.5-16.5V33z"/>
</svg>
