<?xml version="1.0" encoding="utf-8"?>
<svg version="1.1" id="图层_1" xmlns="http://www.w3.org/2000/svg" xmlns:xlink="http://www.w3.org/1999/xlink" x="0px" y="0px"
	 viewBox="0 0 132 132" style="enable-background:new 0 0 132 132;" xml:space="preserve">
<style type="text/css">
	.st0{fill:none;}
	.st1{fill-rule:evenodd;clip-rule:evenodd;fill:#191919;}
</style>
<rect id="size" class="st0" width="132" height="132"/>
<path id="矩形_15__x28_边框_x29_" class="st1" d="M90.8,13h-8.1c-2.3,0-4.1,1.7-4.1,4.1c0,2.3,1.8,4.1,4.1,4.1h8.1
	c1.6,0,3.1,0.2,4.6,0.5c1.2,0.2,2.2,0.6,3.4,1.1c2.5,1.1,4.6,2.6,6.5,4.5c1.1,1,2,2.1,2.7,3.3c0.7,1,1.2,2.1,1.7,3.2
	c0.5,1.2,0.8,2.2,1.1,3.4c0.3,1.6,0.6,3.1,0.6,4.7v8.1c0,2.3,1.8,4.1,4.1,4.1s4.1-1.8,4.1-4.1v-8.1c0-2.1-0.2-4.3-0.7-6.3
	c-0.3-1.7-0.9-3.4-1.6-5c-1.5-3.5-3.5-6.5-6.2-9.2c-2.6-2.6-5.7-4.7-9.2-6.2c-1.6-0.7-3.3-1.2-5-1.6C95,13.1,92.8,13,90.8,13z
	 M12.4,41.8v8.6c0,2.3,1.7,4.1,4.1,4.1c2.3,0,4.1-1.8,4.1-4.1v-8.6c0-1.6,0.2-3.1,0.5-4.7c0.2-1.2,0.6-2.2,1.1-3.4
	c0.5-1.2,1.1-2.2,1.7-3.2c0.7-1.2,1.6-2.3,2.7-3.3c1-1.1,2.1-2,3.3-2.7c1-0.7,2.1-1.2,3.2-1.7s2.2-0.8,3.4-1.1
	c1.6-0.3,3.1-0.5,4.7-0.5h8.2c2.3,0,4.1-1.8,4.1-4.1c0-2.4-1.8-4.1-4.1-4.1h-8.2c-2.1,0-4.3,0.2-6.3,0.7c-1.7,0.3-3.4,0.9-5,1.6
	c-1.6,0.7-3.1,1.5-4.6,2.5c-1.6,1.1-3.1,2.3-4.5,3.7c-1.4,1.4-2.6,2.9-3.7,4.5c-1,1.5-1.8,3-2.5,4.6c-0.7,1.6-1.2,3.3-1.6,5
	C12.5,37.5,12.4,39.7,12.4,41.8z M119.6,83c0-2.3-1.8-4.1-4.1-4.1s-4.1,1.8-4.1,4.1v8.3c0,1.6-0.2,3.1-0.6,4.6
	c-0.2,1.2-0.6,2.2-1.1,3.4c-0.5,1.2-1.1,2.2-1.7,3.2c-0.7,1.2-1.6,2.3-2.7,3.3c-1.9,1.9-4,3.4-6.5,4.5c-1.2,0.5-2.2,0.8-3.4,1.1
	c-1.6,0.3-3.1,0.6-4.6,0.6h-8.3c-2.3,0-4.1,1.8-4.1,4.1s1.8,4.1,4.1,4.1h8.3c2.1,0,4.2-0.2,6.2-0.7c1.7-0.3,3.4-0.9,5-1.6
	c3.5-1.5,6.5-3.5,9.2-6.2c2.6-2.6,4.7-5.7,6.2-9.2c1.5-3.6,2.3-7.3,2.3-11.2V83z M20.6,83.3c0-2.3-1.8-4.1-4.1-4.1
	c-2.4,0-4.1,1.8-4.1,4.1v8.1c0,2.1,0.2,4.2,0.7,6.2c0.3,1.7,0.9,3.4,1.6,5s1.5,3.1,2.5,4.6c1.1,1.6,2.3,3.1,3.7,4.5
	c1.4,1.4,2.9,2.6,4.5,3.7c1.5,1,3,1.8,4.6,2.5c3.6,1.5,7.3,2.3,11.3,2.3h8.2c2.3,0,4.1-1.8,4.1-4.1s-1.8-4.1-4.1-4.1h-8.2
	c-1.6,0-3.1-0.2-4.7-0.6c-1.2-0.2-2.2-0.6-3.4-1.1c-2.5-1.1-4.6-2.6-6.5-4.5c-1.1-1-2-2.1-2.7-3.3c-0.7-1-1.2-2.1-1.7-3.2
	c-0.5-1.2-0.8-2.2-1.1-3.4c-0.3-1.6-0.5-3.1-0.5-4.6V83.3z"/>
</svg>
