<svg version="1.1" id="图层_1"
  xmlns="http://www.w3.org/2000/svg"
  xmlns:xlink="http://www.w3.org/1999/xlink" x="0px" y="0px" viewBox="0 0 64 64" style="enable-background:new 0 0 64 64;" xml:space="preserve">
  <style type="text/css">
  .st0{fill:currentcolor;}
  </style>
  <path class="st0" d="M55.2,17.6L33.6,5.2c-0.6-0.4-1.4-0.4-2,0L10,17.6c-0.6,0.4-1,1-1,1.7v25c0,0.7,0.4,1.4,1,1.7l21.6,12.5
  c0.3,0.2,0.7,0.3,1,0.3s0.7-0.1,1-0.3L55.2,46c0.6-0.4,1-1,1-1.7v-25C56.2,18.7,55.8,18,55.2,17.6z M32.6,9.2l17.6,10.2L32.6,29.5
  L15,19.4L32.6,9.2z M13,22.8L30.6,33v20.3L13,43.2V22.8z M34.6,53.3V33l17.6-10.2v20.3L34.6,53.3z"/>
</svg>
