<?xml version="1.0" encoding="utf-8"?>
<svg version="1.1" id="图层_1" xmlns="http://www.w3.org/2000/svg" xmlns:xlink="http://www.w3.org/1999/xlink" x="0px" y="0px"
	 viewBox="0 0 132 132" style="enable-background:new 0 0 132 132;" xml:space="preserve">
<style type="text/css">
	.st0{fill:none;}
	.st1{fill:currentColor;}
</style>
<rect id="size" class="st0" width="132" height="132"/>
<path id="形状" class="st1" d="M66,123.8c-2.6,0-5.2-0.7-7.6-2.1l-37-21.3c-4.6-2.8-7.5-7.8-7.5-13.1V44.6
	c0-5.4,2.9-10.4,7.5-13.1l37-21.3c4.7-2.7,10.5-2.7,15.2,0l37,21.3c4.7,2.7,7.6,7.8,7.6,13.1v42.8c0,5.4-2.9,10.3-7.6,13.1l-37,21.3
	C71.2,123.1,68.6,123.8,66,123.8z M22.1,45.4v41.9c0,2.3,1.3,4.7,3.4,5.9l36.4,21V68.2c-0.7-0.2-1.3-0.5-1.8-0.9L22.1,45.4z
	 M70.2,68.2v46l36.2-20.8c2.1-1.2,3.4-3.6,3.4-5.9V45.4L72.1,67.3C71.4,67.6,70.8,67.9,70.2,68.2z M26.2,38.2l38,21.9
	c1.2,0.7,2.6,0.7,3.8,0l37.8-21.9L69.4,17.3c-2.1-1.2-4.8-1.2-7,0L26.2,38.2z"/>
</svg>
