<svg version="1.1" id="图层_1"
  xmlns="http://www.w3.org/2000/svg"
  xmlns:xlink="http://www.w3.org/1999/xlink" x="0px" y="0px" viewBox="0 0 64 64" style="enable-background:new 0 0 64 64;" xml:space="preserve">
  <style type="text/css">
	.st0{fill:currentcolor;}
  </style>
  <g>
    <path class="st0" d="M18.9,14.9H4.7c-1.1,0-2,0.9-2,2v29.5c0,1.1,0.9,2,2,2H19c1.1,0,2-0.9,2-2V16.9C20.9,15.8,20,14.9,18.9,14.9z
		 M16.9,44.5H6.7V18.9H17v25.6H16.9z"/>
    <path class="st0" d="M59.3,14.9H45.1c-1.1,0-2,0.9-2,2v29.5c0,1.1,0.9,2,2,2h14.3c1.1,0,2-0.9,2-2V16.9
		C61.3,15.8,60.4,14.9,59.3,14.9z M57.3,44.5H47.1V18.9h10.3L57.3,44.5L57.3,44.5z"/>
    <path class="st0" d="M29.2,22.3l-2,2.2l7.6,7l-7.9,7.3l2,2.2l9.1-8.4c0.3-0.3,0.5-0.7,0.5-1.1s-0.2-0.8-0.5-1.1L29.2,22.3z"/>
  </g>
</svg>
