<svg xmlns="http://www.w3.org/2000/svg" xml:space="preserve" version="1.1" viewBox="0 0 17 17" xmlns:xlink="http://www.w3.org/1999/xlink" style="shape-rendering: geometricprecision; text-rendering: geometricprecision; fill-rule: evenodd; clip-rule: evenodd;">
  <g>
    <metadata id="CorelCorpID_0Corel-Layer"></metadata>
    <path class="fil0" d="M5 11c0,1 -3,2 -3,2l6 3 6 -3 -2 -1 0 0c-1,0 -2,1 -2,1 -1,0 -3,-1 -5,-2zm4 -7l3 0 0 -4 1 0 0 4 4 0 0 1 -4 0 0 3 -1 0 0 -3 -3 0 0 -1zm5 7c0,0 2,2 2,2 0,1 -7,4 -8,4 -1,0 -8,-4 -8,-4l4 -3c-1,0 -3,-1 -3,-1 -1,-1 6,-4 7,-4l0 1c1,0 -5,3 -5,3 1,1 4,2 6,3 1,0 5,-3 7,-4 0,1 0,1 1,1 0,0 -2,1 -3,2z"></path>
  </g>
</svg>