<svg version="1.1" id="图层_1"
  xmlns="http://www.w3.org/2000/svg"
  xmlns:xlink="http://www.w3.org/1999/xlink" x="0px" y="0px" viewBox="0 0 64 64" style="enable-background:new 0 0 64 64;" xml:space="preserve">
  <style type="text/css">
  .st0{fill:currentcolor;}
  </style>
  <g>
    <path class="st0" d="M59.9,22h-6.8v-8c0-1.1-0.9-2-2-2H4.8c-1.1,0-2,0.9-2,2v24.2c0,1.1,0.9,2,2,2h6.8v7.9c0,1.1,0.9,2,2,2h46.3
    c1.1,0,2-0.9,2-2V24C61.9,22.9,61,22,59.9,22z M11.6,24v12.2H6.8V16h42.3v6H13.6C12.5,22,11.6,22.9,11.6,24z M57.9,46.1H15.6V26
    h42.3V46.1z"/>
    <g>
      <path class="st0" d="M25.2,35.9L25.2,35.9c0.5-0.1,0.8-0.4,1.1-0.7c0.3-0.3,0.4-0.7,0.4-1.2c0-0.6-0.2-1.1-0.7-1.4
      c-0.5-0.3-1.2-0.5-2.1-0.5H21v8.1h3c0.9,0,1.6-0.2,2.2-0.7c0.5-0.4,0.8-1,0.8-1.8c0-0.5-0.2-1-0.5-1.3
      C26.2,36.2,25.7,35.9,25.2,35.9z M22.8,33.4h0.7c0.9,0,1.4,0.3,1.4,0.9c0,0.3-0.1,0.6-0.3,0.8c-0.2,0.2-0.5,0.3-0.9,0.3h-0.8v-2
      H22.8z M24.9,38.6c-0.2,0.2-0.6,0.3-1,0.3h-1v-2.2h1c0.5,0,0.8,0.1,1,0.3s0.4,0.5,0.4,0.8C25.3,38.2,25.1,38.4,24.9,38.6z"/>
      <path class="st0" d="M31.5,37.8c0,0.4-0.1,0.7-0.3,1c-0.2,0.2-0.5,0.4-0.8,0.4c-0.7,0-1-0.4-1-1.3v-3.4h-1.7V38
      c0,1.6,0.7,2.5,2,2.5c0.8,0,1.3-0.3,1.8-1l0,0v0.9h1.7v-5.8h-1.7V37.8z"/>
      <path class="st0" d="M40.2,32.7l-1.7,0.5v1.3h-0.9l0,0h-1.3v-1.8l-1.7,0.5v1.3h-1v1.3h1v2.7c0,1.3,0.6,1.9,1.9,1.9
      c0.5,0,0.9-0.1,1.2-0.2v-1.3c-0.2,0.1-0.4,0.2-0.6,0.2c-0.5,0-0.7-0.3-0.7-0.9v-2.5h1.3l0,0h0.9v2.7c0,1.3,0.6,1.9,1.9,1.9
      c0.5,0,0.9-0.1,1.2-0.2v-1.3c-0.2,0.1-0.4,0.2-0.6,0.2c-0.5,0-0.7-0.3-0.7-0.9v-2.5h1.3v-1.3h-1.3v-1.6H40.2z"/>
      <path class="st0" d="M44.8,34.3c-1,0-1.7,0.3-2.3,0.8s-0.9,1.3-0.9,2.3c0,0.9,0.3,1.7,0.8,2.2c0.6,0.5,1.3,0.8,2.3,0.8
      s1.7-0.3,2.3-0.8c0.6-0.6,0.8-1.3,0.8-2.3c0-0.9-0.3-1.6-0.8-2.2C46.5,34.6,45.7,34.3,44.8,34.3z M44.8,39.1
      c-0.9,0-1.4-0.6-1.4-1.7c0-0.6,0.1-1,0.4-1.3c0.2-0.3,0.6-0.5,1-0.5c0.9,0,1.4,0.6,1.4,1.7C46.1,38.5,45.7,39.1,44.8,39.1z"/>
      <path class="st0" d="M52.1,34.3c-0.8,0-1.4,0.4-1.9,1.1l0,0v-0.9h-1.7v5.8h1.7V37c0-0.4,0.1-0.7,0.3-1s0.5-0.4,0.8-0.4
      c0.7,0,1,0.5,1,1.4v3.2H54v-3.6C54,35.1,53.4,34.3,52.1,34.3z"/>
    </g>
  </g>
</svg>
