<svg width="16.000000" height="16.000000" viewBox="0 0 16 16" fill="none" xmlns="http://www.w3.org/2000/svg" xmlns:xlink="http://www.w3.org/1999/xlink">
	<desc>
			Created with Pixso.
	</desc>
	<defs/>
	<mask id="mask413_10086" mask-type="alpha" maskUnits="userSpaceOnUse" x="0.000000" y="0.000000" width="16.000000" height="16.000000">
		<rect id="退出全屏-exit-full-screen" width="16.000000" height="16.000000" fill="#000000" fill-opacity="1.000000"/>
	</mask>
	<g mask="url(#mask413_10086)">
		<path id="path" d="M11.65 7.84C11.92 7.84 12.15 7.64 12.15 7.34C12.15 7.07 11.92 6.84 11.65 6.84L9.84 6.84L12.34 4.34C12.52 4.17 12.55 3.9 12.4 3.68C12.22 3.51 11.85 3.43 11.66 3.63L9.15 6.13L9.15 4.34C9.15 4.1 8.98 3.91 8.75 3.84C8.46 3.84 8.15 4.07 8.15 4.34L8.15 7C8.15 7.5 8.56 7.9 9.06 7.9L11.65 7.84ZM3.65 12.35C3.84 12.53 4.15 12.55 4.34 12.36L6.84 9.85L6.84 11.64C6.84 11.88 7.01 12.09 7.25 12.14C7.52 12.14 7.84 11.92 7.84 11.64L7.84 9C7.84 8.5 7.42 8.09 6.92 8.09L4.34 8.09C4.06 8.09 3.84 8.32 3.84 8.59C3.84 8.88 4.06 9.09 4.34 9.09L6.15 9.09L3.65 11.6C3.48 11.8 3.5 12.16 3.65 12.35ZM4 2.5L12 2.5C12.83 2.5 13.5 3.17 13.5 4L13.5 12C13.5 12.83 12.83 13.5 12 13.5L4 13.5C3.16 13.5 2.5 12.83 2.5 12L2.5 4C2.5 3.17 3.16 2.5 4 2.5ZM4 1.5C2.6 1.5 1.5 2.6 1.5 4L1.5 12C1.5 13.38 2.6 14.5 4 14.5L12 14.5C13.38 14.5 14.5 13.38 14.5 12L14.5 4C14.5 2.6 13.38 1.5 12 1.5L4 1.5Z" fill="#191919" fill-opacity="1.000000" fill-rule="nonzero"/>
	</g>
</svg>
