<?xml version="1.0" encoding="utf-8"?>
<svg version="1.1" id="图层_1" xmlns="http://www.w3.org/2000/svg" xmlns:xlink="http://www.w3.org/1999/xlink" x="0px" y="0px"
	 viewBox="0 0 132 132" style="enable-background:new 0 0 132 132;" xml:space="preserve">
<style type="text/css">
	.st0{fill:none;}
	.st1{fill:currentColor;}
</style>
<rect class="st0" width="132" height="132"/>
<path class="st1" d="M96.2,64.8c2.3,0,4.1-1.8,4.1-4.1s-1.8-4.1-4.1-4.1H81.3l20.6-20.7c1.5-1.4,1.6-3.7,0.4-5.4l-0.4-0.4
	c-1.5-1.6-4-1.7-5.6-0.2c-0.1,0.1-0.1,0.1-0.2,0.2L75.6,50.6V36c0-2-1.4-3.7-3.4-4.1h-0.7c-2.3,0-4.1,1.8-4.1,4.1v21.8
	c0,4.1,3.3,7.4,7.4,7.4L96.2,64.8z M30.2,101.9c1.5,1.6,4,1.6,5.6,0.2c0.1-0.1,0.1-0.1,0.2-0.2l20.5-20.5V96c0,2,1.4,3.7,3.4,4.1
	h0.7c2.3,0,4.1-1.8,4.1-4.1V74.2c0-4.1-3.3-7.4-7.4-7.4H35.8c-2.3,0-4.1,1.8-4.1,4.1s1.8,4.1,4.1,4.1h14.9L30.1,95.8
	c-1.3,1.6-1.3,3.8,0,5.4L30.2,101.9z M33,20.6h66c6.8,0,12.4,5.5,12.4,12.4v66c0,6.8-5.5,12.4-12.4,12.4H33
	c-6.8,0-12.4-5.5-12.4-12.4V33C20.6,26.2,26.2,20.6,33,20.6z M33,12.4c-11.4,0-20.6,9.2-20.6,20.6v66c0,11.4,9.2,20.6,20.6,20.6h66
	c11.4,0,20.6-9.2,20.6-20.6V33c0-11.4-9.2-20.6-20.6-20.6H33z"/>
</svg>
