<svg version="1.1" id="图层_1"
  xmlns="http://www.w3.org/2000/svg"
  xmlns:xlink="http://www.w3.org/1999/xlink" x="0px" y="0px" viewBox="0 0 64 64" style="enable-background:new 0 0 64 64;" xml:space="preserve">
  <style type="text/css">
  .st0{fill:currentcolor;}
  </style>
  <g>
    <path class="st0" d="M59,19.2h-5.7v-3.5c0-1.1-0.9-2-2-2H13.4c-1.1,0-2,0.9-2,2v3.5H5.7c-0.8,0-1.5,0.7-1.5,1.5v21.7
    c0,0.8,0.7,1.5,1.5,1.5h5.7v3.5c0,1.1,0.9,2,2,2h6.3l0,0l0,0h31.5c1.1,0,2-0.9,2-2V22.2h4.2v18.7h-5v3H59c0.8,0,1.5-0.7,1.5-1.5
    V20.7C60.5,19.9,59.8,19.2,59,19.2z M7.2,40.9V22.2h4.2v18.7H7.2z M49.3,45.4H23.2l7-8.1l6.1,4.2c0.9,0.6,2,0.4,2.7-0.4l7.5-9.4
    l2.8,2.5V45.4z M49.3,28.9l-1.7-1.5c-0.4-0.4-1-0.5-1.5-0.5s-1.1,0.3-1.4,0.7L37,37.1l-6.1-4.2c-0.8-0.6-2-0.4-2.7,0.3L17.9,45.4
    h-2.5V17.7h33.9C49.3,17.7,49.3,28.9,49.3,28.9z"/>
    <path class="st0" d="M24.5,29.3c2.1,0,3.8-1.7,3.8-3.8s-1.7-3.8-3.8-3.8s-3.8,1.7-3.8,3.8C20.7,27.7,22.4,29.3,24.5,29.3z"/>
  </g>
</svg>
