<?xml version="1.0" encoding="utf-8"?>
<!-- Generator: Adobe Illustrator 26.0.2, SVG Export Plug-In . SVG Version: 6.00 Build 0)  -->
<svg version="1.1" id="图层_1"
	xmlns="http://www.w3.org/2000/svg"
	xmlns:xlink="http://www.w3.org/1999/xlink" x="0px" y="0px" viewBox="0 0 72.2 58.3" style="enable-background:new 0 0 72.2 58.3;" xml:space="preserve">
	<style type="text/css">
	.st0{fill:currentColor;}
	</style>
	<g>
		<path class="st0" d="M62.6,6c1.9,0,3.5,1.6,3.5,3.5v39.2c0,1.9-1.6,3.5-3.5,3.5H9.5c-1.9,0-3.5-1.6-3.5-3.5V9.5C6,7.6,7.6,6,9.5,6
		H62.6 M62.6,0H9.5C4.3,0,0,4.3,0,9.5v39.2c0,5.2,4.3,9.5,9.5,9.5h53.1c5.2,0,9.5-4.3,9.5-9.5V9.5C72.2,4.3,67.9,0,62.6,0L62.6,0z" />
	</g>
</svg>
