<svg width="17.000000" height="17.000000" viewBox="0 0 17 17" fill="none" xmlns="http://www.w3.org/2000/svg" xmlns:xlink="http://www.w3.org/1999/xlink">
	<desc>
			Created with Pixso.
	</desc>
	<defs/>
	<path id="path" d="M11.1 17C10.99 17 10.88 16.99 10.77 16.97C10.66 16.96 10.55 16.94 10.45 16.91C10.34 16.88 10.24 16.85 10.14 16.8C10.03 16.76 9.94 16.71 9.84 16.66C9.75 16.6 9.65 16.54 9.57 16.48C9.48 16.41 9.4 16.33 9.32 16.26C9.25 16.18 9.17 16.1 9.11 16.01C9.04 15.92 8.98 15.83 8.93 15.73L6.44 11.4C6.39 11.31 6.32 11.22 6.23 11.15C6.15 11.07 6.06 11.01 5.96 10.96L1.45 8.87C1.34 8.82 1.23 8.76 1.12 8.69C1.02 8.62 0.92 8.55 0.83 8.47C0.74 8.38 0.65 8.29 0.57 8.2C0.49 8.1 0.42 8 0.35 7.9C0.29 7.79 0.23 7.68 0.19 7.57C0.14 7.45 0.1 7.33 0.07 7.21C0.04 7.09 0.02 6.97 0.01 6.85C-0.01 6.73 -0.01 6.6 0 6.48C0 6.36 0.02 6.23 0.05 6.11C0.07 5.99 0.1 5.87 0.15 5.76C0.19 5.64 0.24 5.53 0.3 5.42C0.36 5.31 0.43 5.21 0.5 5.11C0.58 5.01 0.66 4.92 0.75 4.83C0.83 4.74 0.93 4.66 1.03 4.59C1.13 4.52 1.24 4.45 1.35 4.39C1.46 4.34 1.57 4.29 1.69 4.25L13.65 0.13C13.76 0.1 13.87 0.07 13.98 0.04C14.09 0.02 14.2 0.01 14.32 0C14.43 -0.01 14.55 -0.01 14.66 0C14.77 0.01 14.89 0.03 15 0.05C15.11 0.07 15.22 0.1 15.33 0.14C15.44 0.18 15.54 0.23 15.64 0.28C15.74 0.33 15.84 0.39 15.93 0.46C16.03 0.52 16.12 0.59 16.2 0.67C16.28 0.75 16.36 0.83 16.43 0.92C16.5 1.01 16.57 1.1 16.63 1.2C16.69 1.3 16.74 1.4 16.79 1.5C16.83 1.6 16.87 1.71 16.9 1.82C16.93 1.93 16.96 2.04 16.97 2.15C16.99 2.27 17 2.38 17 2.49C17 2.6 16.99 2.72 16.97 2.83C16.96 2.94 16.93 3.05 16.9 3.16L13.55 15.16C13.52 15.28 13.48 15.39 13.43 15.51C13.38 15.62 13.32 15.73 13.25 15.83C13.19 15.94 13.11 16.04 13.03 16.13C12.95 16.22 12.86 16.31 12.77 16.39C12.68 16.47 12.58 16.54 12.47 16.61C12.37 16.68 12.26 16.73 12.14 16.78C12.03 16.83 11.91 16.87 11.8 16.9C11.68 16.94 11.55 16.96 11.43 16.97C11.32 16.99 11.21 16.99 11.1 17ZM10.18 15.03C10.21 15.07 10.23 15.11 10.27 15.16C10.3 15.2 10.34 15.24 10.37 15.27C10.41 15.31 10.45 15.34 10.5 15.37C10.54 15.4 10.59 15.43 10.63 15.45C10.68 15.48 10.73 15.5 10.78 15.51C10.83 15.53 10.88 15.54 10.93 15.55C10.99 15.56 11.04 15.56 11.09 15.57C11.14 15.57 11.2 15.56 11.25 15.56C11.3 15.55 11.35 15.54 11.41 15.53C11.46 15.51 11.51 15.5 11.56 15.47C11.6 15.45 11.65 15.43 11.69 15.4C11.74 15.37 11.78 15.34 11.82 15.31C11.86 15.27 11.9 15.23 11.93 15.19C11.97 15.15 12 15.11 12.03 15.07C12.06 15.02 12.08 14.98 12.1 14.93C12.13 14.88 12.14 14.83 12.16 14.78L15.51 2.78C15.54 2.69 15.55 2.59 15.55 2.49C15.55 2.4 15.54 2.3 15.51 2.21C15.49 2.11 15.45 2.02 15.4 1.94C15.34 1.86 15.28 1.78 15.21 1.71C15.14 1.65 15.06 1.59 14.97 1.55C14.89 1.5 14.79 1.47 14.7 1.45C14.6 1.43 14.5 1.42 14.41 1.43C14.31 1.43 14.21 1.45 14.12 1.48L2.16 5.6C2.11 5.61 2.06 5.64 2.01 5.66C1.96 5.68 1.92 5.71 1.88 5.74C1.83 5.78 1.79 5.81 1.75 5.85C1.72 5.88 1.68 5.92 1.65 5.97C1.62 6.01 1.59 6.05 1.56 6.1C1.54 6.15 1.52 6.19 1.5 6.24C1.48 6.29 1.46 6.34 1.45 6.4C1.44 6.45 1.44 6.5 1.43 6.55C1.43 6.61 1.43 6.66 1.44 6.71C1.44 6.77 1.45 6.82 1.46 6.87C1.48 6.92 1.49 6.97 1.52 7.02C1.54 7.07 1.56 7.12 1.59 7.16C1.61 7.21 1.65 7.25 1.68 7.29C1.71 7.33 1.75 7.37 1.79 7.41C1.83 7.44 1.87 7.47 1.92 7.5C1.96 7.53 2.01 7.56 2.06 7.58L6.57 9.67C6.8 9.78 7.02 9.92 7.21 10.1C7.4 10.27 7.56 10.47 7.69 10.7L10.18 15.03Z" fill="#191919" fill-opacity="1.000000" fill-rule="nonzero"/>
	<path id="path" d="M8.74 9C8.67 9 8.6 8.98 8.52 8.96C8.45 8.94 8.39 8.91 8.32 8.86C8.26 8.82 8.21 8.77 8.16 8.71C8.11 8.65 8.08 8.59 8.05 8.52C8.02 8.45 8 8.37 8 8.3C7.99 8.22 8 8.14 8.01 8.07C8.03 8 8.05 7.92 8.09 7.86C8.13 7.79 8.17 7.73 8.22 7.68L10.73 5.21C10.76 5.17 10.8 5.14 10.84 5.12C10.88 5.09 10.93 5.07 10.97 5.05C11.02 5.03 11.07 5.02 11.11 5.01C11.16 5 11.21 4.99 11.26 5C11.31 5 11.36 5 11.41 5.01C11.45 5.02 11.5 5.04 11.55 5.06C11.59 5.08 11.63 5.1 11.67 5.13C11.71 5.16 11.75 5.19 11.79 5.23C11.82 5.27 11.85 5.3 11.88 5.35C11.9 5.39 11.93 5.43 11.94 5.48C11.96 5.53 11.97 5.58 11.98 5.62C11.99 5.67 12 5.72 12 5.77C11.99 5.82 11.99 5.87 11.98 5.92C11.97 5.97 11.95 6.02 11.93 6.07C11.91 6.11 11.89 6.16 11.86 6.2C11.83 6.24 11.8 6.28 11.77 6.31L9.26 8.78C9.19 8.85 9.11 8.9 9.02 8.94C8.93 8.98 8.84 9 8.74 9Z" fill="#1476FF" fill-opacity="1.000000" fill-rule="nonzero"/>
</svg>
