<svg version="1.1" id="图层_1"
  xmlns="http://www.w3.org/2000/svg"
  xmlns:xlink="http://www.w3.org/1999/xlink" x="0px" y="0px" viewBox="0 0 64 64" style="enable-background:new 0 0 64 64;" xml:space="preserve">
  <style type="text/css">
  .st0{fill:currentcolor;}
  </style>
  <g>
    <path class="st0" d="M50.4,11H13.8c-1.1,0-2,0.9-2,2v36.7c0,1.1,0.9,2,2,2h36.7c1.1,0,2-0.9,2-2V13C52.4,11.8,51.5,11,50.4,11z
     M48.4,47.6H15.8V15h32.7L48.4,47.6L48.4,47.6z"/>
    <path class="st0" d="M29.6,39.9c0.5,0,1-0.2,1.4-0.6l13.2-13.2l-2.8-2.8L29.6,35.1l-6.9-6.9L19.9,31l8.3,8.3
    C28.6,39.7,29.1,39.9,29.6,39.9z"/>
  </g>
</svg>
