<svg class="icon" style="width: 1em;height: 1em;vertical-align: middle;fill: currentColor;overflow: hidden;" viewBox="0 0 1024 1024" version="1.1"
  xmlns="http://www.w3.org/2000/svg" p-id="5060">
  <path d="M928 323.67v382.69c0 43.1-15.33 79.98-45.87 110.63-30.55 30.65-67.52 45.97-110.63 45.97h-174c-4.75 0-8.9-1.68-12.16-5.14-3.46-3.46-5.14-7.51-5.14-12.16 0-1.48-0.2-4.94-0.59-10.88-0.4-5.73-0.4-10.67-0.2-14.33 0.2-3.86 0.7-8.11 1.68-12.75 0.89-4.74 2.77-8.3 5.54-10.48 2.77-2.38 6.42-3.46 11.07-3.46h174c23.92 0 44.39-8.5 61.39-25.6 17-17.01 25.6-37.47 25.6-61.39v-383.1c0-23.92-8.5-44.39-25.6-61.39-17.01-17.01-37.47-25.61-61.39-25.61H602.24l-6.23-0.59c-4.25-0.4-6.23-0.89-6.23-1.68 0-0.79-1.49-1.68-4.45-2.96s-4.25-2.96-3.86-4.94c0.4-2.08 0-4.45-1.09-7.41 0-1.48-0.2-5.14-0.59-10.88-0.4-5.73-0.4-10.68-0.2-14.33 0.2-3.86 0.7-8.11 1.68-12.75 0.89-4.74 2.77-8.31 5.34-10.68 2.77-2.38 6.42-3.46 11.07-3.46h174c43.1 0 79.98 15.32 110.63 45.87C912.67 243.69 928 280.57 928 323.67z m0 0M699.72 490.75l-295.69-295.9c-6.82-6.82-15.13-10.28-24.52-10.28-9.39 0-17.5 3.46-24.52 10.28-6.83 6.82-10.28 15.13-10.28 24.52v156.5h-243.6c-9.39 0-17.5 3.46-24.52 10.28-6.82 6.82-10.28 15.13-10.28 24.52v208.7c0 9.39 3.46 17.5 10.28 24.52 6.82 6.82 15.12 10.28 24.52 10.28h243.5v156.7c0 9.39 3.46 17.5 10.28 24.52 6.82 6.82 15.13 10.28 24.52 10.28 9.39 0 17.5-3.46 24.52-10.28l295.7-295.69c6.82-6.83 10.28-15.13 10.28-24.52 0.09-9.51-3.37-17.61-10.19-24.43z m0 0" p-id="5061"></path>
</svg>