<svg version="1.1" id="图层_1"
  xmlns="http://www.w3.org/2000/svg"
  xmlns:xlink="http://www.w3.org/1999/xlink" x="0px" y="0px" viewBox="0 0 64 64" style="enable-background:new 0 0 64 64;" xml:space="preserve">
  <style type="text/css">
  .st0{fill:currentcolor;}
  </style>
  <g>
    <rect x="30.9" y="13.5" class="st0" width="2.4" height="11"/>
    <path class="st0" d="M37.7,14.3L35.4,15v1.7h-1.3v1.7h1.3v3.7c0,1.8,0.8,2.6,2.5,2.6c0.7,0,1.2-0.1,1.6-0.3v-1.7
    c-0.3,0.2-0.5,0.2-0.8,0.2c-0.7,0-1-0.4-1-1.3v-3.3h1.8v-1.7h-1.8V14.3z"/>
    <path class="st0" d="M43.6,16.5c-1.1,0-2.1,0.4-2.8,1.2s-1.1,1.8-1.1,3.1c0,1.3,0.3,2.2,1,3c0.7,0.7,1.7,1.1,2.9,1.1
    s2.1-0.2,2.8-0.6v-1.7c-0.7,0.4-1.4,0.6-2.3,0.6c-1.4,0-2.1-0.6-2.2-1.8h5.2v-1c0-1.2-0.3-2.1-0.9-2.8
    C45.6,16.8,44.7,16.5,43.6,16.5z M41.9,19.8c0.1-0.5,0.3-1,0.6-1.3s0.7-0.5,1-0.5c1,0,1.4,0.6,1.4,1.8H41.9z"/>
    <path class="st0" d="M57.7,16.5c-1.2,0-2,0.5-2.7,1.5c-0.4-1-1.2-1.5-2.3-1.5c-0.5,0-1,0.1-1.4,0.4c-0.5,0.2-0.8,0.6-1.1,1.1l0,0
    v-1.2h-2.3v7.9h2.3v-4.4c0-0.6,0.1-1,0.4-1.4c0.3-0.3,0.6-0.5,1-0.5c0.9,0,1.3,0.6,1.3,1.8v4.6h2.3v-4.4c0-0.5,0.1-1,0.4-1.3
    c0.3-0.4,0.6-0.5,1-0.5c0.9,0,1.3,0.6,1.3,1.8v4.5h2.3V20C60.3,17.5,59.4,16.5,57.7,16.5z"/>
    <path class="st0" d="M22.6,8.8H5c-0.8,0-1.5,0.7-1.5,1.5v17.6c0,0.8,0.7,1.5,1.5,1.5h17.6c0.8,0,1.5-0.7,1.5-1.5V10.3
    C24.1,9.5,23.5,8.8,22.6,8.8z M21.1,26.4H6.5V11.8h14.6V26.4z"/>
    <path class="st0" d="M13,22.8c0.3,0,0.5-0.1,0.7-0.3l5.3-5.3l-1.4-1.4L13,20.3l-2.6-2.6L9,19.1l3.3,3.3
    C12.5,22.6,12.8,22.8,13,22.8z"/>
    <rect x="30.9" y="37.9" class="st0" width="2.4" height="11"/>
    <path class="st0" d="M37.7,38.6l-2.3,0.7V41h-1.3v1.7h1.3v3.7c0,1.8,0.8,2.6,2.5,2.6c0.7,0,1.2-0.1,1.6-0.3V47
    c-0.3,0.2-0.5,0.2-0.8,0.2c-0.7,0-1-0.4-1-1.3v-3.3h1.8V41h-1.8V38.6z"/>
    <path class="st0" d="M43.6,40.8c-1.1,0-2.1,0.4-2.8,1.2s-1.1,1.8-1.1,3.1s0.3,2.2,1,3c0.7,0.7,1.7,1.1,2.9,1.1s2.1-0.2,2.8-0.6
    v-1.7c-0.7,0.4-1.4,0.6-2.3,0.6c-1.4,0-2.1-0.6-2.2-1.8h5.2v-1c0-1.2-0.3-2.1-0.9-2.8C45.6,41.2,44.7,40.8,43.6,40.8z M41.9,44.2
    c0.1-0.5,0.3-1,0.6-1.3s0.7-0.5,1-0.5c1,0,1.4,0.6,1.4,1.8H41.9z"/>
    <path class="st0" d="M57.7,40.8c-1.2,0-2,0.5-2.7,1.5c-0.4-1-1.2-1.5-2.3-1.5c-0.5,0-1,0.1-1.4,0.4c-0.5,0.2-0.8,0.6-1.1,1.1l0,0
    V41h-2.3v7.9h2.3v-4.4c0-0.6,0.1-1,0.4-1.4c0.3-0.3,0.6-0.5,1-0.5c0.9,0,1.3,0.6,1.3,1.8V49h2.3v-4.4c0-0.5,0.1-1,0.4-1.3
    c0.3-0.4,0.6-0.5,1-0.5c0.9,0,1.3,0.6,1.3,1.8v4.5h2.3V44C60.3,41.9,59.4,40.8,57.7,40.8z"/>
    <path class="st0" d="M22.6,33.2H5c-0.8,0-1.5,0.7-1.5,1.5v17.6c0,0.8,0.7,1.5,1.5,1.5h17.6c0.8,0,1.5-0.7,1.5-1.5V34.7
    C24.1,33.8,23.5,33.2,22.6,33.2z M21.1,50.8H6.5V36.2h14.6V50.8z"/>
  </g>
</svg>
