<?xml version="1.0" encoding="utf-8"?>
<svg version="1.1" id="图层_1" xmlns="http://www.w3.org/2000/svg" xmlns:xlink="http://www.w3.org/1999/xlink" x="0px" y="0px"
	 viewBox="0 0 132 132" style="enable-background:new 0 0 132 132;" xml:space="preserve">
<style type="text/css">
	.st0{fill:none;}
	.st1{fill:currentColor;}
</style>
<rect id="size" class="st0" width="132" height="132"/>
<path id="形状结合" class="st1" d="M66,8.8c2.3,0,4.1,1.8,4.1,4.1l0,33.1l24.9,0c4.3,0,7.9,3.5,8.7,7.9l0.1,0.8l4.9,53.4
	c0.5,5.1-3.4,9.4-8.6,9.4H32c-5.2,0-9.1-4.3-8.6-9.4l4.9-53.4c0.4-4.7,4.2-8.7,8.8-8.7l24.8,0l0-33.1C61.9,10.7,63.7,8.8,66,8.8z
	 M95,54.3H37c-0.1,0-0.5,0.5-0.6,1.2L31.6,109c0,0.3,0.1,0.5,0.4,0.5l11.2,0l0-12.4c0-2.3,1.8-4.1,4.1-4.1c2.3,0,4.1,1.8,4.1,4.1
	l0,12.4h10.5l0-12.4c0-2.3,1.8-4.1,4.1-4.1c2.3,0,4.1,1.8,4.1,4.1l0,12.4h10.5l0-12.4c0-2.3,1.8-4.1,4.1-4.1c2.3,0,4.1,1.8,4.1,4.1
	l0,12.4l11.2,0c0.3,0,0.4-0.1,0.4-0.5l-4.9-53.4C95.5,54.8,95,54.3,95,54.3z M72.2,66.5c2.3,0,4.1,1.8,4.1,4.1
	c0,2.3-1.8,4.1-4.1,4.1H59.8c-2.3,0-4.1-1.8-4.1-4.1c0-2.3,1.8-4.1,4.1-4.1H72.2z"/>
</svg>
