<svg width="16.000000" height="16.000000" viewBox="0 0 16 16" fill="none" xmlns="http://www.w3.org/2000/svg" xmlns:xlink="http://www.w3.org/1999/xlink">
	<desc>
			Created with Pixso.
	</desc>
	<defs/>
	<mask id="mask413_9816" mask-type="alpha" maskUnits="userSpaceOnUse" x="0.000000" y="0.000000" width="16.000000" height="16.000000">
		<rect id="清除-clean" width="16.000000" height="16.000000" fill="#000000" fill-opacity="1.000000"/>
	</mask>
	<g mask="url(#mask413_9816)">
		<path id="形状结合" d="M8 1.07C8.27 1.07 8.5 1.29 8.5 1.57L8.5 5.58L11.51 5.58C12.03 5.58 12.46 6.01 12.56 6.54L12.57 6.64L13.16 13.12C13.22 13.74 12.74 14.26 12.11 14.26L3.88 14.26C3.25 14.26 2.77 13.74 2.83 13.12L3.42 6.64C3.46 6.06 3.92 5.58 4.47 5.58L7.5 5.58L7.5 1.57C7.5 1.29 7.71 1.07 8 1.07ZM11.51 6.58L4.47 6.58C4.47 6.58 4.42 6.64 4.42 6.72L3.83 13.21L5.22 13.26L5.22 11.76C5.22 11.49 5.44 11.26 5.72 11.26C6 11.26 6.22 11.49 6.22 11.76L6.22 13.26L7.5 13.26L7.5 11.76C7.5 11.49 7.71 11.26 8 11.26C8.27 11.26 8.5 11.49 8.5 11.76L8.5 13.26L9.76 13.26L9.76 11.76C9.76 11.49 9.98 11.26 10.26 11.26C10.54 11.26 10.76 11.49 10.76 11.76L10.76 13.26L12.11 13.26L11.58 6.72C11.57 6.64 11.51 6.58 11.51 6.58ZM8.75 8.05C9.02 8.05 9.25 8.28 9.25 8.55C9.25 8.83 9.02 9.05 8.75 9.05L7.25 9.05C6.96 9.05 6.75 8.83 6.75 8.55C6.75 8.28 6.96 8.05 7.25 8.05L8.75 8.05Z" fill="#191919" fill-opacity="1.000000" fill-rule="nonzero"/>
	</g>
</svg>
