<?xml version="1.0" encoding="utf-8"?>
<svg version="1.1" id="图层_1" xmlns="http://www.w3.org/2000/svg" xmlns:xlink="http://www.w3.org/1999/xlink" x="0px" y="0px"
	 viewBox="0 0 132 132" style="enable-background:new 0 0 132 132;" xml:space="preserve">
<style type="text/css">
	.st0{fill:none;}
	.st1{fill:currentColor;}
</style>
<rect class="st0" width="132" height="132"/>
<path class="st1" d="M103,27.2c1.4,1.4,1.6,3.6,0.5,5.3L103,33L71,65.1L103,97.2c1.7,1.5,2,4,0.5,5.8c-1.5,1.7-4,2-5.8,0.5l0,0
	l-0.6-0.5L65.1,71L33,103c-1.5,1.6-4,1.7-5.6,0.2c-0.1-0.1-0.1-0.1-0.2-0.2c-1.5-1.4-1.7-3.6-0.5-5.3l0.5-0.6l32.1-32.1L27.2,33
	c-1.5-1.7-1.3-4.3,0.4-5.9c1.3-1.2,3.3-1.3,4.8-0.4l0.6,0.5l32.1,32.1l32.1-32.1C98.8,25.6,101.4,25.6,103,27.2L103,27.2z"/>
</svg>
