<svg version="1.1" id="图层_1" xmlns="http://www.w3.org/2000/svg" xmlns:xlink="http://www.w3.org/1999/xlink" x="0px" y="0px" viewBox="0 0 16 16" style="enable-background:new 0 0 16 16;" xml:space="preserve" width="132px" height="132px">
<style type="text/css">
	.st0{fill:currentcolor;}
</style>
<path class="st0" d="M4.4,5.1L4.4,5.1l2.2,2.2C6.9,7.6,7,8,6.8,8.3L6.7,8.4l-2.1,2.1c-0.3,0.3-0.8,0.3-1.1,0s-0.3-0.7-0.1-1l0.1-0.1&#10;&#9;l1.6-1.6L3.5,6.3C3.2,6,3.2,5.6,3.4,5.3l0.1-0.1C3.7,5,4.2,4.9,4.4,5.1z M12,9.2c0.4,0,0.8,0.3,0.8,0.8c0,0.4-0.3,0.7-0.6,0.7h-0.1&#10;&#9;H9c-0.4,0-0.8-0.3-0.8-0.8c0-0.4,0.3-0.7,0.6-0.7h0.1H12z M14.5,3h-13v10h13V3z M15,1.5c0.6,0,1,0.4,1,1v11c0,0.6-0.4,1-1,1H1&#10;&#9;c-0.6,0-1-0.4-1-1v-11c0-0.6,0.4-1,1-1H15z"/>
</svg>