<?xml version="1.0" encoding="utf-8"?>
<svg version="1.1" id="图层_1" xmlns="http://www.w3.org/2000/svg" xmlns:xlink="http://www.w3.org/1999/xlink" x="0px" y="0px"
	 viewBox="0 0 132 132" style="enable-background:new 0 0 132 132;" xml:space="preserve">
<style type="text/css">
	.st0{fill:none;}
	.st1{fill:currentColor;}
</style>
<rect id="size" class="st0" width="132" height="132"/>
<path id="形状结合" class="st1" d="M103.1,16.5c11.4,0,20.6,9.2,20.6,20.6v57.8c0,11.4-9.2,20.6-20.6,20.6H28.9
	c-11.4,0-20.6-9.2-20.6-20.6V37.1c0-11.4,9.2-20.6,20.6-20.6H103.1z M103.1,24.8H28.9c-6.8,0-12.4,5.5-12.4,12.4v57.8
	c0,6.8,5.5,12.4,12.4,12.4h74.2c6.8,0,12.4-5.5,12.4-12.4V37.1C115.5,30.3,110,24.8,103.1,24.8z M94.9,82.5c2.3,0,4.1,1.8,4.1,4.1
	s-1.8,4.1-4.1,4.1H70.1c-2.3,0-4.1-1.8-4.1-4.1s1.8-4.1,4.1-4.1H94.9z M36.7,43.2c1.6-1.6,4.2-1.6,5.8,0l18.7,18.7
	c2.3,2.3,2.3,5.9,0,8.2L42.6,88.8c-1.6,1.6-4.2,1.6-5.8,0l-0.5-0.6c-1.1-1.6-1-3.8,0.5-5.3L53.6,66L36.7,49.1
	C35.1,47.5,35.1,44.9,36.7,43.2z"/>
</svg>
