<svg version="1.1" id="图层_1"
  xmlns="http://www.w3.org/2000/svg"
  xmlns:xlink="http://www.w3.org/1999/xlink" x="0px" y="0px" viewBox="0 0 64 64" style="enable-background:new 0 0 64 64;" xml:space="preserve">
  <style type="text/css">
  .st0{opacity:0.7;}
  .st1{fill:currentcolor;}
  </style>
  <g>
    <g class="st0">
      <rect x="14.6" y="34.9" class="st1" width="30.9" height="3"/>
      <rect x="14.6" y="41.5" class="st1" width="20.8" height="3"/>
    </g>
    <g>
      <path class="st1" d="M15.9,23.4h6.7c1.1,0,1.6-1.2,1-2l-3.3-4.3c-0.5-0.7-1.5-0.7-2,0L15,21.4C14.2,22.2,14.8,23.4,15.9,23.4z"/>
      <path class="st1" d="M56.1,9.6H7.9c-1.1,0-2,0.9-2,2v39.9c0,1.1,0.9,2,2,2h48.3c1.1,0,2-0.9,2-2V11.6C58.1,10.5,57.2,9.6,56.1,9.6
      z M54.1,13.6V27H9.9V13.6H54.1z M9.9,49.5V30h44.3v19.5H9.9z"/>
    </g>
  </g>
</svg>
