<svg version="1.1" id="图层_1"
  xmlns="http://www.w3.org/2000/svg"
  xmlns:xlink="http://www.w3.org/1999/xlink" x="0px" y="0px" viewBox="0 0 64 64" style="enable-background:new 0 0 64 64;" xml:space="preserve">
  <style type="text/css">
  .st0{fill:currentcolor;}
  </style>
  <path class="st0" d="M56.4,26.1H53l-0.9-6.9c-0.1-0.9-0.9-1.6-1.8-1.6h-3.2l-0.8-6.5c-0.1-0.8-0.8-1.4-1.6-1.4H19.3
  c-0.8,0-1.5,0.6-1.6,1.4l-0.8,6.5h-3.2c-0.9,0-1.7,0.7-1.8,1.6l-0.8,6.9H7.6c-1.1,0-2,0.9-2,2v24c0,1.1,0.9,2,2,2h48.8
  c1.1,0,2-0.9,2-2v-24C58.4,27,57.5,26.1,56.4,26.1z M20.7,12.9h22.6l0.6,4.7H20.1L20.7,12.9z M15.3,21.2h33.4l0.6,4.9H14.7
  L15.3,21.2z M54.4,50H9.6V30h44.8V50z"/>
</svg>
