<svg width="20.000000" height="20.661133" viewBox="0 0 20 20.6611" fill="none" xmlns="http://www.w3.org/2000/svg" xmlns:xlink="http://www.w3.org/1999/xlink">
	<desc>
			Created with Pixso.
	</desc>
	<defs/>
	<rect id="矩形 20" width="20.000000" height="20.661156" fill="#C4C4C4" fill-opacity="0"/>
	<path id="形状结合" d="M13.13 2.58C13.47 2.58 13.76 2.86 13.76 3.22L13.76 4.24L15.62 4.26C17.28 4.26 18.65 5.6 18.73 7.3L18.75 7.48L18.75 15.23C18.75 17.01 17.35 18.46 15.62 18.46L4.37 18.46C2.63 18.46 1.25 17.01 1.25 15.23L1.25 7.48C1.25 5.69 2.63 4.26 4.37 4.26L6.26 4.24L6.26 3.22C6.26 2.86 6.53 2.58 6.88 2.58C7.22 2.58 7.51 2.86 7.51 3.22L7.51 4.24L12.51 4.24L12.51 3.22C12.51 2.86 12.78 2.58 13.13 2.58ZM6.26 5.53L4.37 5.55C3.33 5.55 2.5 6.41 2.5 7.48L2.5 15.23C2.5 16.29 3.33 17.17 4.37 17.17L15.62 17.17C16.65 17.17 17.5 16.29 17.5 15.23L17.5 7.48C17.5 6.41 16.65 5.55 15.62 5.55L13.76 5.53L13.76 5.81C13.76 6.15 13.47 6.45 13.13 6.45C12.78 6.45 12.51 6.15 12.51 5.81L12.51 5.53L7.51 5.53L7.51 5.81C7.51 6.15 7.22 6.45 6.88 6.45C6.53 6.45 6.26 6.15 6.26 5.81L6.26 5.53ZM6.09 12.26C6.66 12.26 7.09 12.71 7.09 13.3C7.09 13.86 6.66 14.33 6.09 14.33C5.55 14.33 5.09 13.86 5.09 13.3C5.09 12.71 5.55 12.26 6.09 12.26ZM10.01 12.26C10.56 12.26 11.01 12.71 11.01 13.3C11.01 13.86 10.56 14.33 10.01 14.33C9.46 14.33 9.01 13.86 9.01 13.3C9.01 12.71 9.46 12.26 10.01 12.26ZM13.88 12.26C14.43 12.26 14.88 12.71 14.88 13.3C14.88 13.86 14.43 14.33 13.88 14.33C13.32 14.33 12.88 13.86 12.88 13.3C12.88 12.71 13.32 12.26 13.88 12.26ZM6.13 8.39C6.68 8.39 7.13 8.84 7.13 9.41C7.13 9.99 6.68 10.44 6.13 10.44C5.58 10.44 5.13 9.99 5.13 9.41C5.13 8.84 5.58 8.39 6.13 8.39ZM10.01 8.39C10.56 8.39 11.01 8.84 11.01 9.41C11.01 9.99 10.56 10.44 10.01 10.44C9.46 10.44 9.01 9.99 9.01 9.41C9.01 8.84 9.46 8.39 10.01 8.39ZM13.88 8.39C14.43 8.39 14.88 8.84 14.88 9.41C14.88 9.99 14.43 10.44 13.88 10.44C13.32 10.44 12.88 9.99 12.88 9.41C12.88 8.84 13.32 8.39 13.88 8.39Z" fill="#808080" fill-opacity="1.000000" fill-rule="nonzero"/>
</svg>
