<?xml version="1.0" encoding="utf-8"?>
<svg version="1.1" id="图层_1" xmlns="http://www.w3.org/2000/svg" xmlns:xlink="http://www.w3.org/1999/xlink" x="0px" y="0px"
	 viewBox="0 0 132 132" style="enable-background:new 0 0 132 132;" xml:space="preserve">
<style type="text/css">
	.st0{fill:none;}
	.st1{fill:#808080;}
</style>
<rect id="size" class="st0" width="132" height="132"/>
<path id="形状结合" class="st1" d="M86.7,15c2.2,0,4.2,1.9,4.2,4.3V26l12.3,0.1c11,0,20,8.9,20.5,20.1l0.1,1.2v51.1
	c0,11.7-9.2,21.3-20.7,21.3H28.9c-11.5,0-20.6-9.6-20.6-21.3V47.4c0-11.8,9.1-21.3,20.6-21.3L41.4,26v-6.7c0-2.4,1.8-4.3,4.1-4.3
	c2.2,0,4.2,1.9,4.2,4.3V26h33v-6.7C82.6,16.9,84.4,15,86.7,15z M41.4,34.5l-12.5,0.1c-6.9,0-12.3,5.7-12.3,12.8v51.1
	c0,7,5.5,12.8,12.3,12.8h74.2c6.8,0,12.4-5.8,12.4-12.8V47.4c0-7.1-5.6-12.8-12.4-12.8l-12.3-0.1v1.8c0,2.3-1.9,4.3-4.2,4.3
	c-2.3,0-4.1-2-4.1-4.3v-1.8h-33v1.8c0,2.3-1.9,4.3-4.2,4.3c-2.3,0-4.1-2-4.1-4.3V34.5z M40.3,78.9c3.8,0,6.6,3,6.6,6.8
	c0,3.8-2.8,6.8-6.6,6.8c-3.6,0-6.6-3-6.6-6.8C33.7,81.9,36.7,78.9,40.3,78.9z M66.1,78.9c3.6,0,6.6,3,6.6,6.8c0,3.8-3,6.8-6.6,6.8
	c-3.6,0-6.6-3-6.6-6.8C59.5,81.9,62.5,78.9,66.1,78.9z M91.7,78.9c3.6,0,6.6,3,6.6,6.8c0,3.8-3,6.8-6.6,6.8c-3.7,0-6.6-3-6.6-6.8
	C85.1,81.9,88,78.9,91.7,78.9z M40.5,53.3c3.6,0,6.6,3,6.6,6.7c0,3.9-3,6.9-6.6,6.9c-3.6,0-6.6-3-6.6-6.9
	C33.9,56.4,36.9,53.3,40.5,53.3z M66.1,53.3c3.6,0,6.6,3,6.6,6.7c0,3.9-3,6.9-6.6,6.9c-3.6,0-6.6-3-6.6-6.9
	C59.5,56.4,62.5,53.3,66.1,53.3z M91.7,53.3c3.6,0,6.6,3,6.6,6.7c0,3.9-3,6.9-6.6,6.9c-3.7,0-6.6-3-6.6-6.9
	C85.1,56.4,88,53.3,91.7,53.3z"/>
</svg>
