<?xml version="1.0" encoding="utf-8"?>
<svg version="1.1" id="图层_1" xmlns="http://www.w3.org/2000/svg" xmlns:xlink="http://www.w3.org/1999/xlink" x="0px" y="0px"
	 viewBox="0 0 132 132" style="enable-background:new 0 0 132 132;" xml:space="preserve">
<style type="text/css">
	.st0{fill:none;}
	.st1{fill:currentColor;}
</style>
<rect id="size" class="st0" width="132" height="132"/>
<path id="形状结合" class="st1" d="M103.5,43.6c2.1,0,4.1,2.1,4.1,4.1v60.6c0,8.3-6.9,15.1-15.1,15.1H36.8
	c-8.3,0-15.1-6.9-15.1-15.1V47.8c0-2.1,2.1-4.1,4.1-4.1c2.1,0,4.1,2.1,4.1,4.1v60.6c0,3.4,2.8,6.9,6.9,6.9h55.7
	c3.4,0,6.9-2.8,6.9-6.9V47.8C99.4,45.7,101.4,43.6,103.5,43.6z M51.9,56c2.1,0,4.1,2.1,4.1,4.1V98c0,1.4-0.7,2.1-1.4,2.8
	c-0.7,0.7-2.1,1.4-2.8,1.4c-2.8,0-4.1-2.1-4.1-4.1V60.2C47.8,58.1,49.8,56,51.9,56z M77.4,56c2.1,0,4.1,2.1,4.1,4.1V98
	c0,2.1-2.1,4.1-4.1,4.1s-4.1-2.1-4.1-4.1V60.2C73.2,58.1,75.3,56,77.4,56z M77.4,8.5c4.8,0,8.9,2.8,10.3,6.9l4.1,14.4h24.8
	c2.1,0,4.1,2.1,4.1,4.1s-2.1,4.1-4.1,4.1H15.4c-2.1,0-4.1-2.1-4.1-4.1s2.1-4.1,4.1-4.1h24.1L45,15.4c1.4-4.1,5.5-6.9,9.6-6.9H77.4z
	 M77.4,16.1h-22c-1.4,0-2.8,0.7-2.8,1.4l-4.1,11.7h35.1l-3.4-11.7C79.4,16.8,78.7,16.1,77.4,16.1z"/>
</svg>
