<?xml version="1.0" encoding="UTF-8"?>
<svg width="16px" height="16px" viewBox="0 0 16 16" version="1.1" xmlns="http://www.w3.org/2000/svg" xmlns:xlink="http://www.w3.org/1999/xlink">
    <title>操作/删除</title>
    <g id="操作/删除" stroke="none" stroke-width="1" fill="none" fill-rule="evenodd">
        <g id="删除备份-2" transform="translate(1.369350, 1.035732)" fill="currentColor" fill-rule="nonzero">
            <path d="M12.7608736,2.58553648 L9.75831509,2.58553648 L9.25788868,0.834044025 C9.09107987,0.33361761 8.59065346,0 8.00682264,0 L5.25447736,0 C4.75405094,0 4.25362453,0.33361761 4.08681572,0.834044025 L3.4195805,2.58553648 L0.500426415,2.58553648 C0.250213208,2.58553648 0,2.83574969 0,3.08596289 C0,3.3361761 0.250213208,3.58638931 0.500426415,3.58638931 L12.7608736,3.58638931 C13.0110868,3.58638931 13.2613,3.3361761 13.2613,3.08596289 C13.2613,2.83574969 13.0110868,2.58553648 12.7608736,2.58553648 Z M5.00426415,1.08425723 C5.00426415,1.00085283 5.17107296,0.917448428 5.33788176,0.917448428 L8.00682264,0.917448428 C8.17363145,0.917448428 8.25703585,1.00085283 8.34044025,1.08425723 L8.75746226,2.50213208 L4.50383774,2.50213208 L5.00426415,1.08425723 Z M10.6757635,4.75405094 L10.6757635,12.0936384 C10.6757635,12.5940648 10.2587415,12.9276824 9.8417195,12.9276824 L3.08596289,12.9276824 C2.58553648,12.9276824 2.25191887,12.5106604 2.25191887,12.0936384 L2.25191887,4.75405094 C2.25191887,4.50383774 2.00170566,4.25362453 1.75149245,4.25362453 C1.50127925,4.25362453 1.25106604,4.50383774 1.25106604,4.75405094 L1.25106604,12.0936384 C1.25106604,13.0944912 2.08511006,13.9285352 3.08596289,13.9285352 L9.8417195,13.9285352 C10.8425723,13.9285352 11.6766164,13.0944912 11.6766164,12.0936384 L11.6766164,4.75405094 C11.6766164,4.50383774 11.4264031,4.25362453 11.1761899,4.25362453 C10.9259767,4.25362453 10.6757635,4.50383774 10.6757635,4.75405094 Z" id="形状"></path>
            <path d="M4.42043333,10.8425723 L4.42043333,6.25533019 C4.42043333,6.00511698 4.67064654,5.75490377 4.92085975,5.75490377 C5.17107296,5.75490377 5.42128616,6.00511698 5.42128616,6.25533019 L5.42128616,10.8425723 C5.42128616,11.0093811 5.33788176,11.0927855 5.25447736,11.1761899 C5.17107296,11.2595943 5.00426415,11.3429987 4.92085975,11.3429987 C4.58724214,11.3429987 4.42043333,11.0927855 4.42043333,10.8425723 Z" id="路径"></path>
            <path d="M7.50639623,10.8425723 L7.50639623,6.25533019 C7.50639623,6.00511698 7.75660943,5.75490377 8.00682264,5.75490377 C8.25703585,5.75490377 8.50724906,6.00511698 8.50724906,6.25533019 L8.50724906,10.8425723 C8.50724906,11.0927855 8.25703585,11.3429987 8.00682264,11.3429987 C7.75660943,11.3429987 7.50639623,11.0927855 7.50639623,10.8425723 Z" id="路径_1_"></path>
        </g>
    </g>
</svg>