<svg width="16.000000" height="16.000000" viewBox="0 0 16 16" fill="none" xmlns="http://www.w3.org/2000/svg" xmlns:xlink="http://www.w3.org/1999/xlink">
	<desc>
			Created with Pixso.
	</desc>
	<defs/>
	<mask id="mask413_9896" mask-type="alpha" maskUnits="userSpaceOnUse" x="0.000000" y="0.000000" width="16.000000" height="16.000000">
		<rect id="删除-delete" width="16.000000" height="16.000000" fill="#000000" fill-opacity="1.000000"/>
	</mask>
	<g mask="url(#mask413_9896)">
		<path id="形状结合" d="M12.54 5.28C12.79 5.28 13.04 5.53 13.04 5.78L13.04 13.12C13.04 14.12 12.21 14.96 11.21 14.96L4.44 14.96C3.44 14.96 2.62 14.12 2.62 13.12L2.62 5.78C2.62 5.53 2.87 5.28 3.12 5.28C3.37 5.28 3.62 5.53 3.62 5.78L3.62 13.12C3.62 13.54 3.94 13.96 4.44 13.96L11.21 13.96C11.62 13.96 12.04 13.62 12.04 13.12L12.04 5.78C12.04 5.53 12.29 5.28 12.54 5.28ZM6.28 6.79C6.54 6.79 6.79 7.04 6.79 7.29L6.79 11.87C6.79 12.04 6.69 12.12 6.62 12.21C6.54 12.29 6.37 12.37 6.28 12.37C5.94 12.37 5.78 12.12 5.78 11.87L5.78 7.29C5.78 7.04 6.03 6.79 6.28 6.79ZM9.37 6.79C9.62 6.79 9.87 7.04 9.87 7.29L9.87 11.87C9.87 12.12 9.62 12.37 9.37 12.37C9.12 12.37 8.87 12.12 8.87 11.87L8.87 7.29C8.87 7.04 9.12 6.79 9.37 6.79ZM9.37 1.03C9.94 1.03 10.46 1.35 10.62 1.85L11.12 3.62L14.13 3.62C14.38 3.62 14.63 3.87 14.63 4.12C14.63 4.37 14.38 4.62 14.13 4.62L1.85 4.62C1.6 4.62 1.35 4.37 1.35 4.12C1.35 3.87 1.6 3.62 1.85 3.62L4.78 3.62L5.44 1.85C5.62 1.35 6.12 1.03 6.62 1.03L9.37 1.03ZM9.37 1.94L6.69 1.94C6.54 1.94 6.37 2.03 6.37 2.1L5.87 3.53L10.12 3.53L9.69 2.1C9.62 2.03 9.54 1.94 9.37 1.94Z" fill="#191919" fill-opacity="1.000000" fill-rule="nonzero"/>
	</g>
</svg>
