<svg version="1.1" id="图层_1" xmlns="http://www.w3.org/2000/svg" xmlns:xlink="http://www.w3.org/1999/xlink" x="0px" y="0px" viewBox="0 0 16 16" style="enable-background:new 0 0 16 16;" xml:space="preserve" width="132px" height="132px">
<style type="text/css">
	.st0{fill:#575D6C;}
</style>
<g id="编组" transform="translate(0.500000, 1.000000)">
	<path id="形状结合" class="st0" d="M7,3.8C6.6,3.8,6.2,3.4,6.2,3S6.6,2.2,7,2.2h7c0.4,0,0.8,0.3,0.8,0.8S14.4,3.8,14,3.8H7z&#10;&#9;&#9; M7,7.8C6.6,7.8,6.2,7.4,6.2,7S6.6,6.2,7,6.2h4.5c0.4,0,0.8,0.3,0.8,0.8s-0.3,0.8-0.8,0.8H7z M7,11.8c-0.4,0-0.8-0.3-0.8-0.8&#10;&#9;&#9;s0.3-0.8,0.8-0.8h2.2c0.4,0,0.8,0.3,0.8,0.8s-0.3,0.8-0.8,0.8H7z M3.2,10.3V2c0-0.4,0.3-0.8,0.8-0.8S4.8,1.6,4.8,2v10&#10;&#9;&#9;c0,0.7-0.8,1-1.3,0.6l-3-2.7C0.2,9.5,0.2,9.1,0.4,8.8c0.3-0.3,0.8-0.3,1.1-0.1L3.2,10.3z"/>
</g>
</svg>