<?xml version="1.0" encoding="utf-8"?>
<!-- Generator: Adobe Illustrator 26.0.2, SVG Export Plug-In . SVG Version: 6.00 Build 0)  -->
<svg version="1.1" id="图层_1" xmlns="http://www.w3.org/2000/svg" xmlns:xlink="http://www.w3.org/1999/xlink" x="0px" y="0px"
	 viewBox="0 0 24 24" style="enable-background:new 0 0 24 24;" xml:space="preserve">
<style type="text/css">
	.st0{fill-rule:evenodd;clip-rule:evenodd;fill:currentColor;fill-opacity:0;}
	.st1{fill-rule:evenodd;clip-rule:evenodd;fill:currentColor;}
</style>
<g id="ic_tv_lined">
	<g id="编组">
		<rect id="矩形" class="st0" width="24" height="24"/>
		<path id="形状结合" class="st1" d="M19,3.6c1.6,0,2.9,1.2,3,2.8l0,0.2v7.8c0,1.6-1.2,2.9-2.8,3l-0.2,0h-4.5
			c-0.4,0-0.8-0.3-0.8-0.8c0-0.4,0.3-0.7,0.6-0.7l0.1,0H19c0.8,0,1.4-0.6,1.5-1.4l0-0.1V6.6c0-0.8-0.6-1.4-1.4-1.5l-0.1,0H5
			c-0.8,0-1.4,0.6-1.5,1.4l0,0.1v7.8c0,0.8,0.6,1.4,1.4,1.5l0.1,0h6c0.9,0,1.7,0.7,1.7,1.6l0,0.1l0,1.2l5.3,0c0.4,0,0.8,0.3,0.8,0.8
			c0,0.4-0.3,0.7-0.6,0.7l-0.1,0H6c-0.4,0-0.8-0.3-0.8-0.8c0-0.4,0.3-0.7,0.6-0.7l0.1,0l5.2,0l0-1.2c0-0.1-0.1-0.2-0.2-0.2l-0.1,0H5
			c-1.6,0-2.9-1.2-3-2.8l0-0.2V6.6c0-1.6,1.2-2.9,2.8-3l0.2,0H19z"/>
	</g>
</g>
</svg>
