<svg width="20.000000" height="20.661133" viewBox="0 0 20 20.6611" fill="none" xmlns="http://www.w3.org/2000/svg" xmlns:xlink="http://www.w3.org/1999/xlink">
	<desc>
			Created with Pixso.
	</desc>
	<defs/>
	<rect id="矩形 34" width="20.000000" height="20.661156" fill="#C4C4C4" fill-opacity="0"/>
	<path id="矢量 11" d="M8.09 11.12C8.06 11.12 8.03 11.13 7.99 11.13L0.99 11.13C0.55 11.13 0.19 10.77 0.19 10.33C0.19 9.88 0.55 9.53 0.99 9.53L7.99 9.53C8.02 9.53 8.04 9.53 8.06 9.53C8.4 7.66 10.03 6.24 11.99 6.24C13.96 6.24 15.59 7.66 15.93 9.53C15.95 9.53 15.97 9.53 15.99 9.53L18.99 9.53C19.44 9.53 19.79 9.88 19.79 10.33C19.79 10.77 19.44 11.13 18.99 11.13L15.99 11.13C15.96 11.13 15.93 11.12 15.9 11.12C15.5 12.91 13.9 14.24 11.99 14.24C10.09 14.24 8.49 12.91 8.09 11.12ZM11.99 7.44C10.45 7.44 9.19 8.7 9.19 10.24C9.19 11.79 10.45 13.04 11.99 13.04C13.54 13.04 14.79 11.79 14.79 10.24C14.79 8.7 13.54 7.44 11.99 7.44Z" fill="#808080" fill-opacity="1.000000" fill-rule="evenodd"/>
</svg>
