<svg width="16.000000" height="16.000000" viewBox="0 0 16 16" fill="none" xmlns="http://www.w3.org/2000/svg" xmlns:xlink="http://www.w3.org/1999/xlink">
	<desc>
			Created with Pixso.
	</desc>
	<defs/>
	<mask id="mask413_10496" mask-type="alpha" maskUnits="userSpaceOnUse" x="0.000000" y="0.000000" width="16.000000" height="16.000000">
		<rect id="编辑-edit" width="16.000000" height="16.000000" fill="#000000" fill-opacity="1.000000"/>
	</mask>
	<g mask="url(#mask413_10496)">
		<path id="形状结合" d="M9.91 2.33C10.88 1.35 12.47 1.35 13.44 2.33L13.56 2.44C14.42 3.42 14.38 4.92 13.44 5.85L5.75 13.56C5.46 13.84 5.08 14 4.69 14L2.47 14C2.09 14 1.78 13.67 1.78 13.3L1.78 11.08C1.78 10.67 1.93 10.3 2.22 10.02L9.91 2.33ZM13.29 12.97C13.57 12.97 13.79 13.2 13.79 13.47C13.79 13.75 13.57 13.97 13.29 13.97L8.29 13.97C8.01 13.97 7.79 13.75 7.79 13.47C7.79 13.2 8.01 12.97 8.29 12.97L13.29 12.97ZM8.78 4.87L2.92 10.73C2.83 10.82 2.78 10.95 2.78 11.08L2.78 13L4.69 13C4.8 13 4.9 12.96 4.97 12.89L10.91 6.98L8.78 4.87ZM12.63 2.93C12.04 2.44 11.17 2.48 10.61 3.04L9.48 4.15L11.61 6.28L12.74 5.15C13.29 4.6 13.32 3.7 12.82 3.12L12.63 2.93Z" fill="#191919" fill-opacity="1.000000" fill-rule="nonzero"/>
	</g>
</svg>
