<?xml version="1.0" encoding="utf-8"?>
<svg version="1.1" id="图层_1" xmlns="http://www.w3.org/2000/svg" xmlns:xlink="http://www.w3.org/1999/xlink" x="0px" y="0px"
	 viewBox="0 0 132 132" style="enable-background:new 0 0 132 132;" xml:space="preserve">
<style type="text/css">
	.st0{fill:none;}
	.st1{fill-rule:evenodd;clip-rule:evenodd;fill:currentColor;}
</style>
<rect id="size" class="st0" width="132" height="132"/>
<path id="path-1_00000034790264379017788950000010040161072804476348_" class="st1" d="M19,64.2v0.7c0.2,5.4,4.6,9.7,10.1,9.7l0,0
	c5.6,0,10.1-4.5,10.1-10l0,0c0-5.5-4.5-10-10.1-10l0,0C23.6,54.6,19.2,58.8,19,64.2L19,64.2z M54,64.6c0,5.5,4.5,10,10.1,10l0,0
	c5.6,0,10.1-4.5,10.1-10l0,0c0-5.5-4.5-10-10.1-10l0,0C58.5,54.6,54,59,54,64.6L54,64.6z M89,64.2v0.7c0.2,5.4,4.6,9.7,10.1,9.7l0,0
	c5.6,0,10.1-4.5,10.1-10l0,0c0-5.5-4.5-10-10.1-10l0,0C93.6,54.6,89.1,58.8,89,64.2L89,64.2z"/>
</svg>
