<?xml version="1.0" encoding="utf-8"?>
<!-- Generator: Adobe Illustrator 26.0.2, SVG Export Plug-In . SVG Version: 6.00 Build 0)  -->
<svg version="1.1" id="图层_1" xmlns="http://www.w3.org/2000/svg" xmlns:xlink="http://www.w3.org/1999/xlink" x="0px" y="0px"
	 viewBox="0 0 16 16" style="enable-background:new 0 0 16 16;" xml:space="preserve">
<style type="text/css">
	.st0{fill-rule:evenodd;clip-rule:evenodd;}
</style>
<g id="Clip-44">
</g>
<g id="Clip-46">
</g>
<g id="Clip-48">
</g>
<g>
	<path class="st0" d="M3.8,6.1c-0.7,0-1.2,0.5-1.2,1.2c0,0.7,0.5,1.2,1.2,1.2C4.4,8.6,5,8,5,7.3C5,6.7,4.4,6.1,3.8,6.1z"/>
	<path class="st0" d="M8,6.1c-0.7,0-1.2,0.5-1.2,1.2C6.8,8,7.3,8.6,8,8.6S9.2,8,9.2,7.3C9.2,6.7,8.7,6.1,8,6.1z"/>
	<path class="st0" d="M12.2,6.1c-0.7,0-1.2,0.5-1.2,1.2c0,0.7,0.5,1.2,1.2,1.2c0.7,0,1.2-0.5,1.2-1.2C13.5,6.7,12.9,6.1,12.2,6.1z"
		/>
</g>
</svg>
