<?xml version="1.0" encoding="utf-8"?>
<svg version="1.1" id="图层_1" xmlns="http://www.w3.org/2000/svg" xmlns:xlink="http://www.w3.org/1999/xlink" x="0px" y="0px"
	 viewBox="0 0 80 80" style="enable-background:new 0 0 80 80;" xml:space="preserve">
<style type="text/css">
	.st0{fill-rule:evenodd;clip-rule:evenodd;fill:#F0F0F0;}
	.st1{fill-rule:evenodd;clip-rule:evenodd;fill:#FFFFFF;}
	.st2{fill:#808080;}
	.st3{fill:#1476FF;}
</style>
<desc>Created with Pixso.</desc>
<path id="矩形备份" class="st0" d="M12.5,24.9h57.2c2.1,0,3.8,1.7,3.8,3.8v41.4c0,2.1-1.7,3.8-3.8,3.8H16.3
	c-2.1,0-3.8-1.7-3.8-3.8V24.9z"/>
<path id="矩形" class="st1" d="M8.8,24.9h47.7v45.2c0,2.1-1.7,3.8-3.8,3.8H11.3c-2.1,0-3.8-1.7-3.8-3.8V26.2
	C7.5,25.5,8.1,24.9,8.8,24.9z"/>
<path id="矩形备份-4" class="st1" d="M56.5,24.9h13.8c0.7,0,1.3,0.4,1.7,1L78.7,38c0.3,0.4,0.1,1-0.4,1.3
	c-0.1,0.1-0.3,0.1-0.5,0.1H66.2c-1.4,0-2.7-0.8-3.4-2L56.5,24.9z"/>
<path id="矩形备份_00000035511733735893648220000010616042805675987633_" class="st2" d="M73.6,39.4v30.7c0,2.2-1.8,3.9-3.9,3.9
	H52.6v-0.9h17.1c1.7,0,3.1-1.4,3.1-3.1V39.4H73.6z"/>
<path id="矩形备份_00000105405867668283661140000008043634887963491969_" class="st2" d="M73.6,39.4v30.7c0,2.2-1.8,3.9-3.9,3.9
	H52.6v-0.9h17.1c1.7,0,3.1-1.4,3.1-3.1V39.4H73.6z"/>
<path id="矩形_00000008842762861175875140000016122364342128432818_" class="st2" d="M56.9,25v45.1c0,2.2-1.8,3.9-3.9,3.9h-42
	C8.8,74,7,72.2,7,70.1V39.4h0.9v30.7c0,1.7,1.4,3.1,3.1,3.1h42c1.7,0,3.1-1.4,3.1-3.1V25.9H10.7V25H56.9z"/>
<path id="矩形_00000168096672605160378470000009783412723989525678_" class="st2" d="M9.4,25c-0.6,0-1.1,0.3-1.5,0.8L0.1,38.6
	c-0.3,0.4-0.1,1,0.3,1.2C0.5,40,0.7,40,0.9,40h44.8c1.2,0,2.3-0.6,2.9-1.6L57,25H9.4z M9.6,26h45.5l-7.5,11.8
	c-0.5,0.7-1.3,1.2-2.1,1.2H1.2l7.8-12.6C9.1,26.1,9.3,26,9.6,26z"/>
<path id="矩形备份-4_00000088117989663329157660000004928306572229514645_" class="st2" d="M70.8,25c0.6,0,1.1,0.3,1.4,0.8
	l7.7,12.7c0.2,0.4,0.1,1-0.2,1.2c-0.1,0.1-0.3,0.1-0.4,0.1h-13c-1.2,0-2.2-0.7-2.8-1.7L56,25H70.8z M70.7,26H57.8l6.4,11.7
	c0.4,0.8,1.2,1.3,2.1,1.3h12.6l-7.5-12.6C71.2,26.1,71,26,70.7,26z"/>
<path id="矩形_00000069358967950564001470000014020788858568159375_" class="st3" d="M15.4,56h10.2c1,0,1.9,0.8,1.9,1.9v0.2
	c0,1-0.8,1.9-1.9,1.9H15.4c-1,0-1.9-0.8-1.9-1.9v-0.2C13.5,56.8,14.3,56,15.4,56z"/>
<path id="矩形备份-2" class="st2" d="M23.6,63c0.2,0,0.4,0.2,0.4,0.5c0,0.3-0.2,0.5-0.4,0.5h-9.6c-0.2,0-0.4-0.2-0.4-0.5
	c0-0.3,0.2-0.5,0.4-0.5H23.6z"/>
<path id="矩形备份-3" class="st2" d="M14,66h4c0.3,0,0.5,0.2,0.5,0.5l0,0c0,0.3-0.2,0.5-0.5,0.5h-4c-0.3,0-0.5-0.2-0.5-0.5l0,0
	C13.5,66.2,13.7,66,14,66z"/>
<path id="路径备份" class="st2" d="M40,6c0.3,0,0.5,0.2,0.5,0.4v6.2c0,0.2-0.2,0.4-0.5,0.4c-0.3,0-0.5-0.2-0.5-0.4V6.4
	C39.5,6.2,39.7,6,40,6z"/>
<path id="路径备份_00000150095667493323061020000013648131494996201114_" class="st2" d="M56.5,8.6c0.2,0.1,0.3,0.4,0.2,0.6
	l-3.1,5.3c-0.1,0.2-0.4,0.3-0.7,0.1c-0.2-0.1-0.3-0.4-0.2-0.6l3.1-5.3C56,8.6,56.3,8.5,56.5,8.6z"/>
<path id="路径备份_00000106845422319248595200000003685995326618043565_" class="st2" d="M23.4,8.6c0.2-0.1,0.5-0.1,0.7,0.1
	l3.1,5.3c0.1,0.2,0,0.5-0.2,0.6c-0.2,0.1-0.5,0.1-0.7-0.1l-3.1-5.3C23.1,9.1,23.2,8.8,23.4,8.6z"/>
</svg>
