<?xml version="1.0" encoding="UTF-8"?>
<svg width="60px" height="60px" viewBox="0 0 60 60" version="1.1" xmlns="http://www.w3.org/2000/svg" xmlns:xlink="http://www.w3.org/1999/xlink">
    <title>空数据</title>
    <g id="错误态" stroke="none" stroke-width="1" fill="none" fill-rule="evenodd">
        <g transform="translate(-1043.000000, -1175.000000)" id="编组-36">
            <g transform="translate(975.000000, 1085.000000)">
                <g id="编组-12" transform="translate(47.000000, 90.000000)">
                    <g id="空数据" transform="translate(21.000000, 0.000000)">
                        <rect id="矩形" x="0" y="0" width="60" height="60"></rect>
                        <g id="编组-7" transform="translate(7.500000, 4.500000)" stroke="#191919" stroke-width="0.75">
                            <path d="M0,36.23148 L0,46.6561973 C0,49.0552133 2.03242836,51 4.5395558,51 L40.4604442,51 C42.9675716,51 45,49.0552133 45,46.6561973 L45,36.2803725 L45,36" id="路径" stroke-linecap="round" stroke-linejoin="round"></path>
                            <path d="M40.5,51 L4.5,51 C2.01471863,51 3.04359188e-16,48.9852814 0,46.5 L0,36 L0,36 L15.6339459,36 C16.3649713,35.9999842 16.9980739,36.5073392 17.1573443,37.2208033 C17.1573443,37.2208033 17.1573443,37.2208033 17.1573443,37.2208033 C17.7198163,39.7404414 19.986782,41.625 22.697779,41.625 C25.4091657,41.625 27.6763934,39.7398995 28.2384562,37.2197166 C28.2384562,37.2197166 28.2384562,37.2197166 28.2384562,37.2197166 C28.3974266,36.5069234 29.0298726,35.9999903 29.7601779,36 L36.6861119,36 L36.6861119,36 L45,36 L45,46.5 C45,48.9852814 42.9852814,51 40.5,51 Z" id="路径" fill="#EBEBEB" stroke-linejoin="round"></path>
                            <path d="M0,36 L4.98588943,16.0564423 C5.36149909,14.5540036 6.71144208,13.5 8.26012037,13.5 L11.2494893,13.5 L11.2494893,13.5" id="路径" stroke-linecap="round" stroke-linejoin="round"></path>
                            <path d="M33.75,13.5 L36.7398796,13.5 C38.2885579,13.5 39.6385009,14.5540036 40.0141106,16.0564423 L45,36 L45,36" id="路径" stroke-linecap="round" stroke-linejoin="round"></path>
                            <path d="M19.1422401,13.5 C16.854544,13.5 15,15.354544 15,17.6422401 L15,17.7610675 C15,20.11439 16.9077449,22.0221349 19.2610675,22.0221349 L24.8052862,22.0221349 C26.9100847,22.0221349 28.7438116,23.4569753 29.25,25.5 L29.25,25.5 L29.25,25.5" id="路径-17" stroke-linecap="round" stroke-dasharray="2.25"></path>
                            <g id="编组-30" transform="translate(15.750000, 0.000000)" stroke-linecap="round" stroke-linejoin="round">
                                <path d="M2.85204509,6.43725 L0.242795091,5.289 C-0.0977049086,5.1405 -0.0744549086,4.65 0.277295091,4.533 L13.8747951,0 L12.4130451,9.501 C12.3327951,10.0275 11.7740451,10.33425 11.2865451,10.1205 L4.54854509,7.17225" id="Stroke-12040" fill="#D8D8D8"></path>
                                <path d="M13.8750201,0 L6.57602009,5.613 L4.54802009,7.17225 L4.54802009,11.115 C4.54802009,11.48625 5.00477009,11.6625 5.25452009,11.388 L7.79252009,8.592" id="Stroke-12041" fill="#D8D8D8"></path>
                                <path d="M2.85204509,6.43725 L0.242795091,5.289 C-0.0977049086,5.1405 -0.0744549086,4.65 0.277295091,4.533 L13.8747951,0 L12.4130451,9.501 C12.3327951,10.0275 11.7740451,10.33425 11.2865451,10.1205 L4.54854509,7.17225" id="Stroke-12040"></path>
                            </g>
                        </g>
                    </g>
                </g>
            </g>
        </g>
    </g>
</svg>