<svg width="132px" height="132px" viewBox="0 0 120 100" version="1.1" xmlns="http://www.w3.org/2000/svg" xmlns:xlink="http://www.w3.org/1999/xlink">
    <title>emptydata</title>
    <g id="页面-1" stroke="none" stroke-width="1" fill="none" fill-rule="evenodd">
        <g id="运维侧缺省图标" transform="translate(-280.000000, -314.000000)" fill-rule="nonzero">
            <g id="暂无结果备份-6" transform="translate(280.000000, 314.000000)">
                <path d="M80.2581177,0 C90.0569881,0 120.550302,10.2296915 119.992445,55.8011225 C119.992445,77.4470535 101.330553,96.1492743 72.0268869,99.6614588 C42.7232205,103.173643 -15.8930092,79.0743549 4.05444812,40.5731658 C12.7636012,25.4291705 32.4483985,27.5982373 46.8602373,17.7237161 C61.272076,7.84919482 70.4592473,0 80.2581177,0 Z" id="蒙版" fill="#DDE5FA" opacity="0.2" transform="translate(60.000000, 50.000000) scale(-1, 1) translate(-60.000000, -50.000000) "/>
                <g id="暂无结果" transform="translate(21.600000, 23.400000)">
                    <path d="M0.281672784,10.4792083 C1.63395139,3.49472134 3.82598553,0.00165190659 6.8577752,0 C14.1299675,0 49.0860537,11.9073006 49.0860537,11.9073006 L1.45976414,11.9073006 C0.797039621,11.9072695 0.259795247,11.3700251 0.259795247,10.7073006 C0.259795247,10.6307461 0.267121151,10.5543672 0.281672784,10.4792083 Z" id="路径" fill="#CFD9FA"/>
                    <path d="M7.46983975,0 L56.9036916,0 C60.5043982,1.21709142 62.1561577,8.20707653 61.8589702,20.9699553 C61.6739954,29.0659125 61.6637904,40.9887385 61.8283552,56.7384334 C61.8443317,58.2677022 60.6175679,59.520373 59.0882991,59.536352 C59.0786553,59.5364527 59.069011,59.5365031 59.0593667,59.5365031 L21.4561531,59.5365031 L21.4561531,59.5365031 C11.0790646,58.8645301 12.7043923,53.0804972 12.7085036,41.5041287 C12.7085036,32.2874759 13.459695,16.6043919 12.7085036,7.12799757 C12.3709863,2.96399196 10.6247651,0.587992766 7.46983975,0 Z" id="路径" fill="#DDE5FA"/>
                    <path d="M24.1913564,12.9897825 L52.6404023,12.9897825 C53.8288793,12.9897825 54.4231178,13.5892825 54.4231178,14.7882826 C54.4231178,15.9872827 53.8291722,16.5867828 52.6412811,16.5867828 L24.1913564,16.5867828 C23.0038558,16.5867828 22.4099102,15.9872827 22.4095196,14.7882826 C22.4095196,13.57992 23.0041487,12.9897825 24.1913564,12.9897825 L24.1913564,12.9897825 Z M24.1913564,22.5537941 L52.6404023,22.5537941 C53.8288793,22.5537941 54.4231178,23.1529 54.4231178,24.3511116 C54.4231178,25.5493233 53.8291722,26.1488233 52.6412811,26.1496118 L24.1913564,26.1496118 C23.0038558,26.1496118 22.4099102,25.5501117 22.4095194,24.3511116 C22.4091291,23.1521115 23.0030746,22.5526115 24.1913564,22.5526115 L24.1913564,22.5537941 Z M24.1913564,32.1249016 L38.9103295,32.1249016 C40.0978301,32.1249016 40.6917757,32.7244016 40.6921665,33.9234017 C40.6925568,35.1224018 40.0986113,35.7219019 38.9103295,35.7219019 L24.1913564,35.7219019 C23.0038558,35.7219019 22.4099102,35.1224018 22.4095194,33.9234017 C22.4091291,32.7244016 23.0030746,32.124803 24.1913564,32.1246059 L24.1913564,32.1249016 Z" id="形状" fill="#FFFFFF"/>
                    <path d="M65.2774386,50.4011069 C65.3967875,50.4011069 65.5154687,50.4189117 65.6295636,50.4539334 C66.2631261,50.6484066 66.6190782,51.3196622 66.4246118,51.9532269 C65.0846266,56.3186824 63.1962089,58.833119 60.759359,59.4965367 L60.759359,59.4965367 L22.0077314,59.4960146 C18.2087467,59.7753666 16.6983162,58.5089693 17.1520327,58.7518904 C17.615893,58.9939377 18.8758339,59.1977828 21.3600569,58.1463242 C23.0229411,57.4417704 23.9990266,55.1723316 25.2652604,51.1292463 L25.2025434,51.3248482 C25.2165657,51.2653813 25.234932,51.2077563 25.2572693,51.1522947 L25.2652604,51.1292463 C25.4525481,50.6958842 25.8811349,50.401087 26.370381,50.4011069 L26.370381,50.4011069 Z" id="形状结合" fill="#CFD9FA"/>
                    <g id="编组-19" transform="translate(44.819039, 16.237228)" fill="#5E7CE0">
                        <path d="M13.5180646,5.32907052e-14 C20.9838855,5.32907052e-14 27.0361292,5.94587289 27.0361292,13.2804788 C27.0361292,16.2460249 26.0467286,18.9845455 24.3745305,21.1948261 C24.4834735,21.252645 24.5863392,21.3278766 24.6795709,21.4188826 L30.5511433,27.1502826 C31.0983436,27.6844196 31.1089336,28.5610168 30.5747966,29.1082172 C30.5670077,29.1161966 30.5591227,29.1240816 30.5511433,29.1318705 L28.6064402,31.0301475 C28.068565,31.555182 27.2100342,31.555182 26.672159,31.0301475 L20.8005866,25.2987475 C20.6222203,25.1246394 20.5008694,24.9141445 20.4368149,24.6905319 C18.4140549,25.8786286 16.0471685,26.5609576 13.5180646,26.5609576 C6.05224368,26.5609576 4.93827201e-13,20.6150847 4.93827201e-13,13.2804788 C4.93827201e-13,5.94587289 6.05224368,5.32907052e-14 13.5180646,5.32907052e-14 Z M13.5180646,4.68722781 C8.6872393,4.68722781 4.77108163,8.53455732 4.77108163,13.2804788 C4.77108163,18.0264003 8.6872393,21.8737298 13.5180646,21.8737298 C18.3488899,21.8737298 22.2650476,18.0264003 22.2650476,13.2804788 C22.2650476,8.53455732 18.3488899,4.68722781 13.5180646,4.68722781 Z" id="形状结合"/>
                    </g>
                </g>
            </g>
        </g>
    </g>
</svg>