<?xml version="1.0" encoding="utf-8"?>
<!-- Generator: Adobe Illustrator 26.0.2, SVG Export Plug-In . SVG Version: 6.00 Build 0)  -->
<svg version="1.1" id="图层_1" xmlns="http://www.w3.org/2000/svg" xmlns:xlink="http://www.w3.org/1999/xlink" x="0px"
	y="0px" viewBox="0 0 16 16" style="enable-background:new 0 0 16 16;" xml:space="preserve">
	<style type="text/css">
		.st0 {
			fill: none;
		}

		.st1 {
			fill: none;
			stroke: currentColor;
		}
	</style>
	<g id="中文">
		<rect id="矩形" class="st0" width="16" height="16" />
		<path id="矩形_00000124154262090962803930000018142082069906303116_" class="st1" d="M3.5,2.5h9c1.1,0,2,0.9,2,2v7
		c0,1.1-0.9,2-2,2h-9c-1.1,0-2-0.9-2-2v-7C1.5,3.4,2.4,2.5,3.5,2.5z" />
		<g id="CN" transform="translate(3.063704, 5.344000)">
			<path id="路径_00000163030310302581000120000014688746644935092127_" d="M6.3,5.4c0,0.1,0,0.2-0.1,0.3S6,5.8,5.8,5.8
			c-0.2,0-0.3,0-0.4-0.1C5.3,5.6,5.3,5.5,5.3,5.4V0.5c0-0.1,0-0.2,0.1-0.3c0.1-0.1,0.2-0.1,0.4-0.1c0.1,0,0.2,0,0.3,0.1
			s0.1,0.1,0.2,0.2l2.5,3.4V0.5c0-0.1,0-0.2,0.1-0.3S9,0.1,9.2,0.1c0.2,0,0.3,0,0.4,0.1s0.1,0.2,0.1,0.3v5c0,0.1,0,0.2-0.1,0.2
			S9.5,5.8,9.3,5.8c-0.1,0-0.2,0-0.3-0.1C8.9,5.7,8.9,5.6,8.8,5.5L6.3,2.2V5.4z" />
		</g>
	</g>
	<g>
		<path d="M4.6,10.3h2.8v0.9H3.6V5.5h3.6v0.9H4.6v1.5h2.5v0.9H4.6V10.3z" />
	</g>
</svg>