<svg xmlns="http://www.w3.org/2000/svg" viewBox="0 0 14 14" xml:space="preserve" isSvg="true">
  <path d="M14 7c0 3.87-3.13 7-7 7s-7-3.13-7-7 3.13-7 7-7 7 3.13 7 7z" style="fill-rule: evenodd; clip-rule: evenodd;"></path>
  <path d="M9.96 9.29c.09.09.14.21.14.34 0 .13-.05.25-.14.33a.47.47 0 0 1-.67 0L7 7.67 4.71 9.96c-.18.18-.49.18-.67 0a.483.483 0 0 1 0-.67L6.33 7 4.04 4.71c-.09-.09-.14-.21-.14-.34s.05-.25.14-.34c.18-.18.49-.18.67 0L7 6.33l2.29-2.29c.19-.18.49-.18.67 0 .09.09.14.21.14.34s-.05.25-.14.34L7.67 7l2.29 2.29z" style="fill: rgb(255, 255, 255);"></path>
</svg>