<?xml version="1.0" encoding="utf-8"?>
<svg version="1.1" id="图层_1" xmlns="http://www.w3.org/2000/svg" xmlns:xlink="http://www.w3.org/1999/xlink" x="0px" y="0px"
	 viewBox="0 0 132 132" style="enable-background:new 0 0 132 132;" xml:space="preserve">
<style type="text/css">
	.st0{fill:none;}
	.st1{fill-rule:evenodd;clip-rule:evenodd;fill:currentColor;}
</style>
<rect id="size" class="st0" width="132" height="132"/>
<path id="形状结合" class="st1" d="M28.8,43l5.9,5.9l-1.9,1.5c-1.3,1.1-2.5,2.2-3.8,3.3l-2,1.9c-3.2,3.2-6.2,6.5-8.7,9.9
	L17.8,66l-0.4,0.5L16,68.5l2.3,3.1l1.6,2c2.7,3.3,5.8,6.6,9.1,9.8l1.5,1.3c10.9,9.7,22.9,15.4,35.6,15.4l1.9,0
	c5-0.2,10-1.4,14.7-3.3l6.3,6.3l-1.8,0.8c-6.7,2.9-13.8,4.5-21.1,4.5l-1.9,0c-14.9-0.5-28.6-7.6-40.8-18.9l-2.2-2.1
	c-3.5-3.5-6.7-7.1-9.5-10.7l-0.4-0.6l-0.4-0.5l-1.4-2L8.3,72l-0.8-1.3l-0.3-0.6c-0.4-1-0.4-2.1,0-3.1l0.3-0.7l0.8-1.3l1.1-1.6l1.4-2
	l0.8-1.1l1.7-2.2c2.9-3.6,6.3-7.2,9.9-10.6C25.1,46,26.9,44.4,28.8,43z M31,23.6l0.6,0c0.8,0.1,1.6,0.5,2.3,1.2l9.2,9.2
	c7.3-3.4,14.9-5.3,22.9-5.3l1.9,0c14.9,0.5,28.6,7.6,40.8,18.9l2.2,2.1c3.5,3.5,6.7,7.1,9.5,10.7l0.4,0.6l0.4,0.5l1.4,2l1.1,1.6
	l0.8,1.3l0.3,0.6c0.4,1,0.4,2.1,0.1,3.1l-0.3,0.7l-0.8,1.3l-1.1,1.6l-1.4,2l-0.8,1.1l-1.7,2.2c-2.9,3.6-6.3,7.2-9.9,10.6l-2,1.8
	c-1.1,1-2.3,2-3.5,2.9l6.5,6.5l0.4,0.5c1.2,1.6,1.1,3.9-0.4,5.4l-0.5,0.4c-1.6,1.2-3.9,1.1-5.4-0.4L96.4,99l-6-6l0,0l-11-11
	l-1.8-1.8l0,0L28.1,30.6l-0.4-0.5c-1.2-1.6-1.1-3.9,0.4-5.4C28.9,24,29.9,23.6,31,23.6z M43.7,57.9l6.4,6.4l-0.2,1
	c-0.2,1.1-0.3,2.1-0.3,3.2l0,1C50,78.2,57.2,85,66,85l1.1,0c1.1-0.1,2.1-0.3,3.2-0.5l6.4,6.4l-1.2,0.5c-2.9,1.2-6.1,1.9-9.4,1.9
	l-1.2,0c-13.1-0.6-23.6-11.4-23.6-24.7C41.2,64.7,42.1,61.1,43.7,57.9z M66,36.9l-1.8,0c-5.1,0.2-10,1.3-14.8,3.3l6,6
	c3.2-1.5,6.8-2.4,10.7-2.4l1.2,0c13.1,0.6,23.6,11.4,23.6,24.7l0,1.4c-0.2,3.3-1,6.5-2.4,9.3l9,9c1.9-1.5,3.8-3.1,5.7-4.9l2-1.9
	c3.2-3.2,6.2-6.5,8.7-9.9l0.4-0.5l0.4-0.5l1.5-2.1l-2.3-3.1l-1.6-2c-2.7-3.3-5.8-6.6-9.1-9.8l-1.5-1.3C90.6,42.6,78.7,36.9,66,36.9z
	 M66,52l-1.1,0c-1.1,0.1-2.1,0.2-3.1,0.5l20.2,20.2c0.4-1.4,0.6-2.8,0.6-4.3l0-1C82,58.9,74.8,52,66,52z"/>
</svg>
