<?xml version="1.0" encoding="utf-8"?>
<svg version="1.1" id="图层_1" xmlns="http://www.w3.org/2000/svg" xmlns:xlink="http://www.w3.org/1999/xlink" x="0px" y="0px"
	 viewBox="0 0 132 132" style="enable-background:new 0 0 132 132;" xml:space="preserve">
<style type="text/css">
	.st0{fill:none;}
	.st1{fill:currentColor;}
</style>
<rect id="size" class="st0" width="132" height="132"/>
<path id="形状结合" class="st1" d="M66,26.1c15.6,0,30,7.2,42.7,19c4.4,4.1,8.3,8.4,11.6,12.8c0.3,0.4,0.6,0.7,0.8,1.1l1.4,2
	l1.1,1.6l0.8,1.3c0.8,1.3,0.8,3,0,4.3l-0.8,1.3l-1.1,1.6l-1.4,2l-0.8,1.1c-3.4,4.4-7.2,8.7-11.6,12.8c-12.7,11.8-27,19-42.7,19
	s-30-7.2-42.7-19c-4.4-4.1-8.3-8.4-11.6-12.8c-0.3-0.4-0.6-0.7-0.8-1.1l-1.4-2l-1.1-1.6l-0.8-1.3c-0.8-1.3-0.8-3,0-4.3l0.8-1.3
	L9.4,61l1.4-2l0.8-1.1c3.4-4.4,7.2-8.7,11.6-12.8C36,33.3,50.4,26.1,66,26.1z M66,34.4c-13.2,0-25.7,6.2-37.1,16.8
	c-4,3.7-7.6,7.8-10.7,11.8c-0.3,0.3-0.5,0.7-0.8,1L16,66l2.3,3.1c3.1,4,6.7,8,10.7,11.8C40.3,91.4,52.8,97.6,66,97.6
	s25.7-6.2,37.1-16.8c4-3.7,7.6-7.8,10.7-11.8c0.3-0.3,0.5-0.7,0.8-1L116,66l-2.3-3.1c-3.1-4-6.7-8-10.7-11.8
	C91.7,40.6,79.2,34.4,66,34.4z M66,41.2c13.7,0,24.8,11.1,24.8,24.8S79.7,90.8,66,90.8S41.2,79.7,41.2,66S52.3,41.2,66,41.2z
	 M66,49.5c-9.1,0-16.5,7.4-16.5,16.5S56.9,82.5,66,82.5S82.5,75.1,82.5,66S75.1,49.5,66,49.5z"/>
</svg>
