<?xml version="1.0" encoding="utf-8"?>
<svg version="1.1" id="图层_1" xmlns="http://www.w3.org/2000/svg" xmlns:xlink="http://www.w3.org/1999/xlink" x="0px" y="0px"
	 viewBox="0 0 132 132" style="enable-background:new 0 0 132 132;" xml:space="preserve">
<style type="text/css">
	.st0{fill:none;}
	.st1{fill:currentColor;}
</style>
<rect id="size" class="st0" width="132" height="132"/>
<path id="形状结合" class="st1" d="M88.2,15.4c3.4-2.9,8.5-2.7,11.7,0.5l16.2,16.2c3.2,3.2,3.4,8.3,0.5,11.7L93.2,71.5l3.2,3.2
	c3.1,3.1,3.4,8,0.7,11.4l-0.7,0.8l-15.9,15.9c-3.4,3.4-8.9,3.4-12.2,0L51.6,86.2l-27.5,27.5c-1.6,1.6-4.2,1.6-5.8,0
	c-1.6-1.6-1.6-4.2,0-5.8l27.5-27.5L29.2,63.8c-3.2-3.2-3.4-8.2-0.6-11.6l0.6-0.6l15.9-15.9c3.4-3.4,8.9-3.4,12.2,0l3.1,3.1
	L88.2,15.4z M93.7,21.6l-0.2,0.1L60,50l-8.5-8.5c-0.2-0.2-0.4-0.2-0.6,0L35,57.4c-0.2,0.2-0.2,0.4,0,0.6l39,39
	c0.2,0.2,0.4,0.2,0.6,0L90.6,81c0.2-0.2,0.2-0.4,0-0.6L82,72l28.2-33.5c0.1-0.2,0.1-0.4,0-0.6L94.1,21.7c-0.1-0.1-0.1-0.1-0.2-0.1
	L93.7,21.6z"/>
</svg>
