<svg width="16.000000" height="16.000000" viewBox="0 0 16 16" fill="none" xmlns="http://www.w3.org/2000/svg" xmlns:xlink="http://www.w3.org/1999/xlink">
	<desc>
			Created with Pixso.
	</desc>
	<defs/>
	<mask id="mask413_9551" mask-type="alpha" maskUnits="userSpaceOnUse" x="0.000000" y="0.000000" width="16.000000" height="16.000000">
		<rect id="固定-fixed" width="16.000000" height="16.000000" fill="#000000" fill-opacity="1.000000"/>
	</mask>
	<g mask="url(#mask413_9551)">
		<path id="形状结合" d="M10.67 1.86C11.1 1.51 11.72 1.54 12.1 1.91L14.06 3.89C14.45 4.27 14.48 4.89 14.12 5.3L11.29 8.65L11.67 9.04C12.05 9.41 12.09 10.01 11.76 10.42L9.75 12.45C9.33 12.86 8.67 12.86 8.26 12.45L6.26 10.43L2.92 13.77C2.72 13.97 2.41 13.97 2.21 13.77C2.01 13.58 2.01 13.26 2.21 13.06L5.54 9.73L3.53 7.71C3.14 7.34 3.12 6.72 3.46 6.31L5.45 4.31C5.87 3.89 6.53 3.89 6.94 4.31L7.32 4.68L10.67 1.86ZM11.35 2.62L7.26 6.05L6.23 5.02L4.23 6.94L8.96 11.75L10.97 9.82L9.93 8.71L13.36 4.65L11.35 2.62Z" fill="#191919" fill-opacity="1.000000" fill-rule="nonzero"/>
	</g>
</svg>
