<?xml version="1.0" encoding="UTF-8"?>
<svg width="16px" height="16px" viewBox="0 0 16 16" version="1.1" xmlns="http://www.w3.org/2000/svg" xmlns:xlink="http://www.w3.org/1999/xlink">
    <title>操作/未固定</title>
    <g id="操作/未固定" stroke="none" stroke-width="1" fill="none" fill-rule="evenodd" stroke-dasharray="0,0" stroke-linecap="round">
        <path d="M11.0126165,2.24960571 L7.30685704,5.37705686 L6.60040792,4.67060752 C6.38574397,4.45594357 6.03770525,4.45594401 5.82304195,4.6706073 L3.89486992,6.59877955 C3.68020663,6.81344284 3.68020618,7.16148057 3.89487025,7.37614465 L5.93551168,9.41678618 L6.58331629,10.0645908 L8.62384512,12.1051192 C8.83850903,12.3197831 9.18654735,12.3197834 9.40121065,12.1051201 L11.3293829,10.1769478 C11.5440459,9.96228481 11.5440471,9.6142465 11.3293829,9.39958228 L10.6229333,8.69313272 L13.750384,4.98737284 C13.934591,4.7691037 13.9209469,4.4461261 13.7189904,4.24416961 L11.7558206,2.28099926 C11.5538643,2.07904293 11.2308863,2.06539867 11.0126165,2.24960571 Z M6.24261373,9.75739657 L2.57807647,13.4219338" id="形状结合" stroke="currentColor"></path>
    </g>
</svg>