<svg version="1.1" id="图层_1" xmlns="http://www.w3.org/2000/svg" xmlns:xlink="http://www.w3.org/1999/xlink" x="0px" y="0px" viewBox="0 0 16 16" style="enable-background:new 0 0 16 16;" xml:space="preserve" width="132px" height="132px">
<style type="text/css">
	.st0{fill:currentcolor;}
</style>
<path id="delete-删除" class="st0" d="M13.7,4.6l-0.8,9.7c-0.1,0.9-0.8,1.6-1.7,1.6H4.9c-0.9,0-1.7-0.7-1.7-1.6L2.3,4.6H0.8&#10;&#9;C0.3,4.6,0,4.3,0,3.9s0.3-0.8,0.8-0.8h14.5c0.4,0,0.8,0.3,0.8,0.8s-0.3,0.8-0.8,0.8H13.7z M12.2,4.6H3.8l0.8,9.5&#10;&#9;c0,0.1,0.1,0.2,0.2,0.2h6.2c0.1,0,0.2-0.1,0.2-0.2L12.2,4.6z M8.8,12.3c0,0.4-0.3,0.8-0.8,0.8c-0.4,0-0.8-0.3-0.8-0.8V9.9&#10;&#9;c0-0.4,0.3-0.8,0.8-0.8c0.4,0,0.8,0.3,0.8,0.8V12.3z M5.8,0.1h4.5c0.4,0,0.8,0.3,0.8,0.8s-0.3,0.8-0.8,0.8H5.8C5.3,1.6,5,1.3,5,0.9&#10;&#9;S5.3,0.1,5.8,0.1z"/>
</svg>