<?xml version="1.0" encoding="utf-8"?>
<!-- Generator: Adobe Illustrator 26.0.2, SVG Export Plug-In . SVG Version: 6.00 Build 0)  -->
<svg version="1.1" id="flow-align-vertical" xmlns="http://www.w3.org/2000/svg" xmlns:xlink="http://www.w3.org/1999/xlink" x="0px" y="0px" viewBox="0 0 16 16" style="enable-background:new 0 0 16 16;" xml:space="preserve">
	<path id="flow-align-vertical-path" fill="currentColor" d="M7.8,1.5c0.3,0,0.7,0.2,0.7,0.7v0.2
	h2.4c0.5,0,0.8,0.3,0.8,0.8v3.2c0,0.5-0.3,0.8-0.8,0.8H8.4v1.6h4.1c0.5,0,0.8,0.3,0.8,0.8v3.2c0,0.5-0.3,0.8-0.8,0.8H8.4v0.2
	c0,0.3-0.2,0.7-0.7,0.7s-0.7-0.2-0.7-0.7v-0.2H3.5c-0.5,0-0.8-0.3-0.8-0.8V9.6c0-0.5,0.3-0.8,0.8-0.8h3.7V7.2h-2
	c-0.5,0-0.8-0.3-0.8-0.8V3.1c0-0.5,0.3-0.8,0.8-0.8h2V2.2C7.1,1.7,7.4,1.5,7.8,1.5z M12,10H3.9v2.4H12V10z M10.4,3.5H5.5V6h4.9V3.5z
	" />
</svg>
