<?xml version="1.0" encoding="utf-8"?>
<svg version="1.1" id="图层_1" xmlns="http://www.w3.org/2000/svg" xmlns:xlink="http://www.w3.org/1999/xlink" x="0px" y="0px"
	 viewBox="0 0 132 132" style="enable-background:new 0 0 132 132;" xml:space="preserve">
<style type="text/css">
	.st0{fill:none;}
	.st1{fill:currentColor;}
</style>
<rect id="size" class="st0" width="132" height="132"/>
<path id="形状结合备份-2" class="st1" d="M39,26L17.7,47.5l-0.3,0.3l-0.3,0.5l-0.2,0.5l-0.2,0.5l-0.1,0.5l0,0.6
	c0,0.3,0,0.6,0.1,0.9l0.2,0.6l0.4,0.8l0.3,0.5l0.3,0.3l0.3,0.2l0.5,0.4l0.6,0.3l0.4,0.1l0.4,0.1l0.6,0h64
	c12.5,0,22.6,10.1,22.6,22.6S97.1,99.7,84.6,99.7H35.8c-2.3,0-4.1,1.8-4.1,4.1s1.8,4.1,4.1,4.1h48.9c17.1,0,30.9-13.8,30.9-30.9
	s-13.8-30.9-30.9-30.9l-54.1,0l14.3-14.5c1.6-1.6,1.6-4.2,0-5.8C43.2,24.3,40.6,24.4,39,26z"/>
</svg>
