<svg version="1.1" id="flow-fullscreen-icon" xmlns="http://www.w3.org/2000/svg" xmlns:xlink="http://www.w3.org/1999/xlink" x="0px" y="0px" viewBox="0 0 16 16" style="enable-background:new 0 0 16 16;" xml:space="preserve" width="132px" height="132px" fill="#8A8E99" color="#8A8E99">
	<path fill="currentColor" d="M14,0c1.1,0,2,0.9,2,2v12c0,1.1-0.9,2-2,2H2c-1.1,0-2-0.9-2-2V2c0-1.1,0.9-2,2-2H14z M14,1.5&#10;&#9;H2C1.7,1.5,1.5,1.7,1.5,2v12c0,0.3,0.2,0.5,0.5,0.5h12c0.3,0,0.5-0.2,0.5-0.5V2C14.5,1.7,14.3,1.5,14,1.5z M9.9,8.9L9.9,8.9l1.6,1.6&#10;&#9;l1.1-1.1c0.1-0.1,0.2-0.1,0.3,0c0,0,0.1,0.1,0.1,0.1v3.3c0,0.1-0.1,0.2-0.2,0.2H9.5c-0.1,0-0.2-0.1-0.2-0.2c0-0.1,0-0.1,0.1-0.1&#10;&#9;l1.1-1.1L9,10C8.7,9.7,8.7,9.3,9,9C9.2,8.7,9.7,8.7,9.9,8.9z M6.5,3c0.1,0,0.2,0.1,0.2,0.2c0,0.1,0,0.1-0.1,0.1L5.5,4.5L7,6&#10;&#9;C7.3,6.3,7.3,6.7,7,7c-0.3,0.3-0.7,0.3-1,0.1L6,7L4.5,5.5L3.3,6.7c-0.1,0.1-0.2,0.1-0.3,0C3,6.6,3,6.6,3,6.5V3.3C3,3.1,3.1,3,3.3,3&#10;&#9;H6.5z" />
</svg>
