<?xml version="1.0" encoding="UTF-8"?>
<svg width="18px" height="18px" viewBox="0 0 18 18" version="1.1" xmlns="http://www.w3.org/2000/svg" xmlns:xlink="http://www.w3.org/1999/xlink">
    <title>画板</title>
    <g id="画板" stroke="none" stroke-width="1" fill="none" fill-rule="evenodd">
        <g id="编组" transform="translate(1.061998, 0.242121)" fill="#5E7CE0">
            <path d="M12.5702015,5.90177917 C12.2172015,5.90177917 11.9402015,6.16477917 11.8902015,6.50277917 L8.61620155,8.30877917 C8.45120155,8.18777917 8.25820155,8.10177917 8.03720155,8.10177917 C7.80620155,8.10177917 7.60420155,8.19277917 7.43420155,8.32377917 L4.25920155,6.54677917 C4.22920155,6.18777917 3.93720155,5.90177917 3.57020155,5.90177917 C3.18220155,5.90177917 2.87020155,6.21577917 2.87020155,6.60277917 C2.87020155,6.98877917 3.18220155,7.30177917 3.57020155,7.30177917 C3.67320155,7.30177917 3.76820155,7.27777917 3.85620155,7.23777917 L7.05220155,9.02677917 C7.05020155,9.05277917 7.03720155,9.07577917 7.03720155,9.10277917 C7.03720155,9.51277917 7.28520155,9.86277917 7.63720155,10.0177792 L7.63720155,13.5427792 C7.46120155,13.6697792 7.33720155,13.8667792 7.33720155,14.1017792 C7.33720155,14.4887792 7.65120155,14.8027792 8.03720155,14.8027792 C8.42420155,14.8027792 8.73820155,14.4887792 8.73820155,14.1017792 C8.73820155,13.8677792 8.61520155,13.6707792 8.43820155,13.5437792 L8.43820155,10.0157792 C8.79020155,9.86077917 9.03720155,9.51177917 9.03720155,9.10277917 C9.03720155,9.06677917 9.02020155,9.03677917 9.01620155,9.00177917 L12.2522015,7.21677917 C12.3482015,7.26677917 12.4542015,7.30177917 12.5702015,7.30177917 C12.9572015,7.30177917 13.2702015,6.98877917 13.2702015,6.60277917 C13.2702015,6.21577917 12.9572015,5.90177917 12.5702015,5.90177917 M15.936,5.12375 L15.936,12.25875 C15.936,12.85275 15.499,13.56675 14.983,13.84475 L8.919,17.21375 C8.642,17.37175 8.324,17.45175 7.967,17.45175 C7.61,17.45175 7.294,17.37175 7.017,17.21375 L0.951,13.84475 C0.396,13.52675 0,12.85275 0,12.25875 L0,5.12375 C0,4.52875 0.396,3.85475 0.951,3.57775 L7.017,0.20775 C7.531,-0.06925 8.364,-0.06925 8.879,0.20775 L14.904,3.57775 C15.459,3.85475 15.855,4.52875 15.936,5.12375 Z" id="Fill-1"></path>
        </g>
    </g>
</svg>
