<?xml version="1.0" encoding="utf-8"?>
<svg version="1.1" id="图层_1" xmlns="http://www.w3.org/2000/svg" xmlns:xlink="http://www.w3.org/1999/xlink" x="0px" y="0px"
	 viewBox="0 0 132 132" style="enable-background:new 0 0 132 132;" xml:space="preserve">
<style type="text/css">
	.st0{fill:none;}
	.st1{fill:currentColor;}
</style>
<rect id="size" class="st0" width="132" height="132"/>
<path id="形状结合" class="st1" d="M33,82.5c0-6.8,5.5-12.4,12.4-12.4h61.9c6.8,0,12.4,5.5,12.4,12.4V99
	c0,6.8-5.5,12.4-12.4,12.4H45.4c-6.8,0-12.4-5.5-12.4-12.4V82.5z M41.2,82.5V99c0,2.3,1.8,4.1,4.1,4.1h61.9c2.3,0,4.1-1.8,4.1-4.1
	V82.5c0-2.3-1.8-4.1-4.1-4.1H45.4C43.1,78.4,41.2,80.2,41.2,82.5z M33,33c0-6.8,5.5-12.4,12.4-12.4h33c6.8,0,12.4,5.5,12.4,12.4
	v16.5c0,6.8-5.5,12.4-12.4,12.4h-33c-6.8,0-12.4-5.5-12.4-12.4V33z M41.2,33v16.5c0,2.3,1.8,4.1,4.1,4.1h33c2.3,0,4.1-1.8,4.1-4.1
	V33c0-2.3-1.8-4.1-4.1-4.1h-33C43.1,28.9,41.2,30.7,41.2,33z M24.8,115.5c0,2.3-1.8,4.1-4.1,4.1s-4.1-1.8-4.1-4.1v-99
	c0-2.3,1.8-4.1,4.1-4.1s4.1,1.8,4.1,4.1V115.5z"/>
</svg>
