<svg version="1.1" id="图层_1" xmlns="http://www.w3.org/2000/svg" xmlns:xlink="http://www.w3.org/1999/xlink" x="0px" y="0px" viewBox="0 0 16 16" style="enable-background:new 0 0 16 16;" xml:space="preserve" width="132px" height="132px">
<style type="text/css">
	.st0{fill:currentcolor;}
</style>
<path id="形状结合" class="st0" d="M8,3c0.4,0,0.8,0.3,0.8,0.8l0,3.5h3.5C12.7,7.2,13,7.6,13,8c0,0.4-0.3,0.8-0.8,0.8H8.7l0,3.5&#10;&#9;C8.8,12.7,8.4,13,8,13c-0.4,0-0.8-0.3-0.8-0.8l0-3.5l-3.5,0C3.3,8.8,3,8.4,3,8c0-0.4,0.3-0.8,0.8-0.8l3.5,0l0-3.5C7.2,3.3,7.6,3,8,3&#10;&#9;z"/>
</svg>