<?xml version="1.0" encoding="utf-8"?>
<!-- Generator: Adobe Illustrator 26.0.2, SVG Export Plug-In . SVG Version: 6.00 Build 0)  -->
<svg version="1.1" id="图层_1" xmlns="http://www.w3.org/2000/svg" xmlns:xlink="http://www.w3.org/1999/xlink" x="0px" y="0px"
	 viewBox="0 0 16 16" style="enable-background:new 0 0 16 16;" xml:space="preserve">
<style type="text/css">
	.st0{fill:currentColor;}
</style>
<desc>Created with Sketch.</desc>
<g id="页面-3-紫色">
	<g id="icon" transform="translate(462.000000, 60.000000)">
		<g id="编组-7">
			<path id="形状" class="st0" d="M-448.4-55.9l-11.4-2.9c-0.5-0.1-1,0.4-0.9,0.9l2.9,11.4l0,0.1c0.2,0.5,0.9,0.6,1.3,0.2l2-2.7
				l3.6,3.6c0.3,0.3,0.8,0.3,1.1,0l2.6-2.6c0.3-0.3,0.3-0.8,0-1.1l-3.6-3.6l2.7-2C-447.6-54.9-447.8-55.7-448.4-55.9z M-459-57
				l8.7,2.2l-2.1,1.6c-0.4,0.3-0.4,0.8-0.1,1.1l3.7,3.7l-1.5,1.5l-3.7-3.7l-0.1-0.1c-0.3-0.2-0.8-0.2-1.1,0.2l-1.6,2.1L-459-57z"/>
		</g>
	</g>
</g>
</svg>
