<?xml version="1.0" encoding="utf-8"?>
<svg version="1.1" id="图层_1" xmlns="http://www.w3.org/2000/svg" xmlns:xlink="http://www.w3.org/1999/xlink" x="0px" y="0px"
	 viewBox="0 0 132 132" style="enable-background:new 0 0 132 132;" xml:space="preserve">
<style type="text/css">
	.st0{fill:none;}
	.st1{fill:currentColor;}
</style>
<rect id="size" class="st0" width="132" height="132"/>
<path id="形状结合" class="st1" d="M49.5,30.9c6.8,0,12.4,5.5,12.4,12.4v61.9c0,6.8-5.5,12.4-12.4,12.4H33
	c-6.8,0-12.4-5.5-12.4-12.4V43.3c0-6.8,5.5-12.4,12.4-12.4H49.5z M49.5,39.2H33c-2.3,0-4.1,1.8-4.1,4.1v61.9c0,2.3,1.8,4.1,4.1,4.1
	h16.5c2.3,0,4.1-1.8,4.1-4.1V43.3C53.6,41,51.8,39.2,49.5,39.2z M99,30.9c6.8,0,12.4,5.5,12.4,12.4v33c0,6.8-5.5,12.4-12.4,12.4
	H82.5c-6.8,0-12.4-5.5-12.4-12.4v-33c0-6.8,5.5-12.4,12.4-12.4H99z M99,39.2H82.5c-2.3,0-4.1,1.8-4.1,4.1v33c0,2.3,1.8,4.1,4.1,4.1
	H99c2.3,0,4.1-1.8,4.1-4.1v-33C103.1,41,101.3,39.2,99,39.2z M16.5,22.7c-2.3,0-4.1-1.8-4.1-4.1s1.8-4.1,4.1-4.1h99
	c2.3,0,4.1,1.8,4.1,4.1s-1.8,4.1-4.1,4.1H16.5z"/>
</svg>
