<?xml version="1.0" encoding="utf-8"?>
<svg version="1.1" id="图层_1" xmlns="http://www.w3.org/2000/svg" xmlns:xlink="http://www.w3.org/1999/xlink" x="0px" y="0px"
	 viewBox="0 0 132 132" style="enable-background:new 0 0 132 132;" xml:space="preserve">
<style type="text/css">
	.st0{fill:none;}
	.st1{fill:currentColor;}
</style>
<rect id="size" class="st0" width="132" height="132"/>
<path id="形状结合" class="st1" d="M97.4,22.7c22.7,16.4,28.6,47.1,14.4,70.5l14-3.7c1.9-0.5,3.8,0.4,4.6,2.1l0.2,0.7
	c0.6,2.1-0.7,4.3-2.8,4.8l-23.9,6.4c-2.1,0.6-4.3-0.7-4.8-2.8l-6.4-23.9c-0.6-2.1,0.7-4.3,2.8-4.9c2.1-0.6,4.3,0.7,4.9,2.8l4.1,15.2
	c12.9-20,8-46.8-11.6-60.9c-20.4-14.7-48.8-10.2-63.6,10c-14.8,20.2-10.2,48.5,10.1,63.2c13.7,9.9,29.1,12,46.5,6.4
	c2.1-0.7,4.3,0.5,5,2.5c0.7,2.1-0.5,4.3-2.5,5c-19.8,6.4-37.8,3.9-53.5-7.5C10.8,91.4,5.4,58.2,22.8,34.4
	C40.1,10.7,73.5,5.5,97.4,22.7z"/>
</svg>
