<?xml version="1.0" encoding="utf-8"?>
<!-- Generator: Adobe Illustrator 26.0.2, SVG Export Plug-In . SVG Version: 6.00 Build 0)  -->
<svg version="1.1" id="flow-align-left" xmlns="http://www.w3.org/2000/svg" xmlns:xlink="http://www.w3.org/1999/xlink" x="0px" y="0px"
	 viewBox="0 0 16 16" style="enable-background:new 0 0 16 16;" xml:space="preserve">
<path id="flow-align-left-path" fill="currentColor" d="M2,1.5c0.3,0,0.7,0.2,0.7,0.7v11.8
	c0,0.3-0.2,0.6-0.7,0.6s-0.6-0.3-0.6-0.7V2.1C1.4,1.7,1.6,1.5,2,1.5z M13.5,8.8c0.5,0,0.8,0.3,0.8,0.8v3.2c0,0.5-0.3,0.8-0.8,0.8
	H4.6c-0.5,0-0.8-0.3-0.8-0.8V9.6c0-0.5,0.3-0.8,0.8-0.8H13.5z M13.1,10H5v2.4h8.1V10z M10.3,2.3c0.5,0,0.8,0.3,0.8,0.8v3.3
	c0,0.5-0.3,0.8-0.8,0.8H4.6c-0.5,0-0.8-0.3-0.8-0.8V3.1c0-0.5,0.3-0.8,0.8-0.8H10.3z M9.9,3.5H5v2.4h4.9V3.5z"/>
</svg>
