<?xml version="1.0" encoding="utf-8"?>
<svg version="1.1" id="图层_1" xmlns="http://www.w3.org/2000/svg" xmlns:xlink="http://www.w3.org/1999/xlink" x="0px" y="0px"
	 viewBox="0 0 132 132" style="enable-background:new 0 0 132 132;" xml:space="preserve">
<style type="text/css">
	.st0{fill:none;}
	.st1{fill:currentColor;}
</style>
<rect id="size" class="st0" width="132" height="132"/>
<path id="形状结合" class="st1" d="M115.5,86.6c2.3,0,4.1,1.8,4.1,4.1v10.6c0,10.1-8.2,18.3-18.3,18.3H30.7
	c-10.1,0-18.3-8.2-18.3-18.3V90.8c0-2.3,1.8-4.1,4.1-4.1s4.1,1.8,4.1,4.1v10.6c0,5.5,4.5,10,10,10h70.7c5.5,0,10-4.5,10-10V90.8
	C111.4,88.5,113.2,86.6,115.5,86.6z M66.4,17.3c2.3,0,4.1,1.8,4.1,4.1l0,68.3l15.9-15.9c1.4-1.4,3.7-1.6,5.3-0.5l0.6,0.5
	c1.6,1.6,1.6,4.2,0,5.8L68.9,103c-1.6,1.6-4.2,1.6-5.8,0L39.7,79.7c-1.6-1.6-1.6-4.2,0-5.8c1.6-1.6,4.2-1.6,5.8,0l16.7,16.7l0-69
	C62.2,19.2,64.1,17.3,66.4,17.3z"/>
</svg>
