<?xml version="1.0" encoding="utf-8"?>
<!-- Generator: Adobe Illustrator 26.0.2, SVG Export Plug-In . SVG Version: 6.00 Build 0)  -->
<svg version="1.1" id="flow-align-level" xmlns="http://www.w3.org/2000/svg" xmlns:xlink="http://www.w3.org/1999/xlink" x="0px" y="0px"
	 viewBox="0 0 16 16" style="enable-background:new 0 0 16 16;" xml:space="preserve">
<path id="flow-align-level-path" fill="currentColor" d="M7.2,12.5c0,0.5-0.3,0.8-0.8,0.8H3.2
	c-0.5,0-0.8-0.3-0.8-0.8V8.7H2.2C1.8,8.7,1.5,8.3,1.5,8c0-0.3,0.2-0.7,0.7-0.7h0.2V3.5c0-0.5,0.3-0.8,0.8-0.8h3.2
	c0.5,0,0.8,0.3,0.8,0.8v3.9h1.6V5.2c0-0.5,0.3-0.8,0.8-0.8h3.2c0.5,0,0.8,0.3,0.8,0.8v2.3h0.2c0.4-0.1,0.7,0.2,0.7,0.6
	c0,0.3-0.2,0.7-0.7,0.7h-0.2v2.3c0,0.5-0.3,0.8-0.8,0.8H9.7c-0.5,0-0.8-0.3-0.8-0.8V8.7H7.2V12.5z M6,3.9H3.6v8.1H6V3.9z M12.5,5.6
	h-2.4v4.9h2.4V5.6z"/>
</svg>
