<?xml version="1.0" encoding="utf-8"?>
<svg version="1.1" id="图层_1" xmlns="http://www.w3.org/2000/svg" xmlns:xlink="http://www.w3.org/1999/xlink" x="0px" y="0px"
	 viewBox="0 0 132 132" style="enable-background:new 0 0 132 132;" xml:space="preserve">
<style type="text/css">
	.st0{fill:none;}
	.st1{fill:currentColor;}
</style>
<rect id="size" class="st0" width="132" height="132"/>
<path id="形状结合" class="st1" d="M66,8.2c31.9,0,57.8,25.9,57.8,57.8S97.9,123.8,66,123.8S8.2,97.9,8.2,66S34.1,8.2,66,8.2z
	 M66,16.5c-27.3,0-49.5,22.2-49.5,49.5s22.2,49.5,49.5,49.5s49.5-22.2,49.5-49.5S93.3,16.5,66,16.5z M65.5,87.4
	c2.6,0,4.6,2.1,4.6,4.6c0,2.6-2.1,4.6-4.6,4.6c-2.6,0-4.6-2.1-4.6-4.6C60.8,89.5,62.9,87.4,65.5,87.4z M65.8,37.1
	c10.1,0,18.4,8.2,18.4,18.3c0,8.4-5.6,15.4-13.3,17.6l-1,0.2l0,6.5c0,2-1.5,3.7-3.4,4.1l-0.7,0.1c-2.3,0-4.1-1.8-4.1-4.1V69.6
	c0-2.3,1.8-4.1,4.1-4.1C71.4,65.5,76,61,76,55.4s-4.5-10.1-10.1-10.1s-10.1,4.5-10.1,10.1c0,2.3-1.8,4.1-4.1,4.1s-4.1-1.8-4.1-4.1
	C47.4,45.3,55.7,37.1,65.8,37.1z"/>
</svg>
