<?xml version="1.0" encoding="utf-8"?>
<!-- Generator: Adobe Illustrator 26.0.2, SVG Export Plug-In . SVG Version: 6.00 Build 0)  -->
<svg version="1.1" id="flow-view" xmlns="http://www.w3.org/2000/svg" xmlns:xlink="http://www.w3.org/1999/xlink" x="0px" y="0px"
	 viewBox="0 0 16 16" style="enable-background:new 0 0 16 16;" xml:space="preserve">
<path fill="currentColor" d="M6.3,8c0.4,0,0.8,0.3,0.8,0.8c0,0.5-0.4,0.7-0.8,0.7H4.9c-0.4,0-0.8-0.3-0.8-0.8C4.1,8.2,4.5,8,4.9,8H6.3z
	 M9.2,5.1c0.4,0,0.8,0.3,0.8,0.8S9.6,6.6,9.2,6.6H4.9c-0.4,0-0.8-0.3-0.8-0.8s0.4-0.7,0.8-0.7H9.2z M12.3,4.2V2.2
	c0-0.1-0.1-0.2-0.2-0.2H2.5C2.4,2,2.3,2.1,2.3,2.2v11.5c0,0.1,0.1,0.2,0.2,0.2h1.9c0.4,0,0.8,0.3,0.8,0.8c0,0.5-0.4,0.8-0.8,0.8H2.5
	c-1,0-1.7-0.8-1.7-1.7V2.2c0-1,0.8-1.7,1.7-1.7h9.6c1,0,1.7,0.8,1.7,1.7v1.9c0,0.4-0.3,0.8-0.8,0.8C12.6,4.9,12.3,4.5,12.3,4.2z
	 M11.9,8.2c1.8,0,3.4,1.5,3.4,3.4c0,0.7-0.2,1.2-0.5,1.8l0.8,0.8c0.3,0.3,0.3,0.8,0,1.1s-0.8,0.3-1.1,0l-0.8-0.8
	c-0.6,0.4-1.2,0.6-1.8,0.6c-1.8,0-3.4-1.5-3.4-3.4S10,8.2,11.9,8.2z M11.9,9.7c-1.1,0-1.9,0.9-1.9,1.9s0.9,1.9,1.9,1.9
	s1.9-0.9,1.9-1.9S13,9.7,11.9,9.7z"/>
</svg>
