<?xml version="1.0" encoding="UTF-8"?>
<svg width="16px" height="16px" viewBox="0 0 16 16" version="1.1" xmlns="http://www.w3.org/2000/svg" xmlns:xlink="http://www.w3.org/1999/xlink">
    <title>编组 31</title>
    <g id="页面-2" stroke="none" stroke-width="1" fill="none" fill-rule="evenodd">
        <g id="定稿11-11备份" transform="translate(-68.000000, -60.000000)">
            <g id="编组-2" transform="translate(68.000000, 60.000000)">
                <path d="M6.625,0.75 C7.03921356,0.75 7.375,1.08578644 7.375,1.5 C7.375,1.87969577 7.09284612,2.19349096 6.72677056,2.24315338 L6.625,2.25 L2.249,2.25 L2.249,13.75 L11.764,13.75 L11.7649065,8.5059201 C11.7649065,8.12622434 12.0470604,7.81242914 12.4131359,7.76276672 L12.5149065,7.7559201 C12.8946023,7.7559201 13.2083975,8.03807398 13.2580599,8.40414955 L13.2649065,8.5059201 L13.2649065,14.5 C13.2649065,14.8796958 12.9827526,15.193491 12.6166771,15.2431534 L12.5149065,15.25 L1.5,15.25 C1.12030423,15.25 0.806509039,14.9678461 0.756846616,14.6017706 L0.75,14.5 L0.75,1.5 C0.75,1.12030423 1.03215388,0.806509039 1.39822944,0.756846616 L1.5,0.75 L6.625,0.75 Z" id="路径-5" fill="currentColor" fill-rule="nonzero" transform="translate(7.007453, 8.000000) scale(1, -1) translate(-7.007453, -8.000000) "></path>
                <path d="M14.4671616,10.2356163 C14.7613908,9.94406515 15.2362596,9.94623616 15.5278107,10.2404654 C15.7928572,10.5079464 15.8151581,10.9247164 15.5959636,11.2173289 L15.5229616,11.3011144 L11.4814731,15.3058173 C11.2126474,15.5721962 10.7933584,15.5932047 10.5007817,15.3710946 L10.4170873,15.2971703 L8.4635145,13.2974374 C8.17406093,13.0011445 8.17960533,12.5263031 8.47589826,12.2368496 C8.74525548,11.97371 9.16217338,11.9543703 9.45322129,12.175638 L9.53648614,12.2492333 L10.9623082,13.708 L14.4671616,10.2356163 Z" id="路径-6" fill="currentColor" fill-rule="nonzero"></path>
                <rect id="矩形" fill="currentColor" opacity="0" x="0" y="0" width="16" height="16"></rect>
            </g>
        </g>
    </g>
</svg>