<?xml version="1.0" encoding="UTF-8"?>
<svg width="16px" height="16px" viewBox="0 0 16 16" version="1.1" xmlns="http://www.w3.org/2000/svg"
    xmlns:xlink="http://www.w3.org/1999/xlink">
    <title>xiugai111</title>
    <g id="页面-2" stroke="none" stroke-width="1" fill="none" fill-rule="evenodd">
        <g id="定稿11-11备份" transform="translate(-611.000000, -60.000000)">
            <g id="xiugai111"
                transform="translate(619.000000, 68.000000) scale(-1, 1) translate(-619.000000, -68.000000) translate(611.000000, 60.000000)">
                <rect id="矩形" opacity="0" x="0" y="0" width="16" height="16"></rect>
                <path
                    d="M9.00520382,3.21966991 C9.27147038,2.95340335 9.68813407,2.9291973 9.98174556,3.14705176 L10.065864,3.21966991 L13.6013979,6.75520382 C13.8676645,7.02147038 13.8918705,7.43813407 13.6740161,7.73174556 L13.6013979,7.81586399 L10.065864,11.3513979 C9.77297077,11.6442911 9.29809704,11.6442911 9.00520382,11.3513979 C8.73893726,11.0851313 8.71473121,10.6684677 8.93258567,10.3748562 L9.00520382,10.2907377 L11.265,8.03 L6.8,8.03 C5.1651063,8.03 3.84718872,9.2066648 3.75513707,10.666658 L3.75,10.83 C3.75,11.2442136 3.41421356,11.58 3,11.58 C2.58578644,11.58 2.25,11.2442136 2.25,10.83 C2.25,8.51152935 4.18271991,6.63972004 6.58669844,6.53465214 L6.8,6.53 L11.255,6.53 L9.00520382,4.28033009 C8.73893726,4.01406352 8.71473121,3.59739984 8.93258567,3.30378835 L9.00520382,3.21966991 Z"
                    id="路径" fill="currentColor" fill-rule="nonzero"></path>
            </g>
        </g>
    </g>
</svg>