<?xml version="1.0" encoding="UTF-8"?>
<svg width="16px" height="16px" viewBox="0 0 16 16" version="1.1" xmlns="http://www.w3.org/2000/svg" xmlns:xlink="http://www.w3.org/1999/xlink">
    <title>icon4</title>
    <g id="页面-2" stroke="none" stroke-width="1" fill="none" fill-rule="evenodd">
        <g id="定稿11-11备份" fill="currentColor">
            <g id="zoom-in">
                <path d="M8,-2.13162821e-14 C11.8659932,-2.13162821e-14 15,3.13400675 15,7 C15,8.91748863 14.2290196,10.6549051 12.9801426,11.9191657 L15.5306203,14.47289 C15.8233532,14.7659435 15.8230932,15.2408171 15.5300397,15.53355 C15.2369862,15.8262828 14.7621125,15.8260229 14.4693797,15.5329694 L14.4693797,15.5329694 L11.8121202,12.871901 C10.715275,13.5854481 9.40604941,14 8,14 C4.13400675,14 1,10.8659932 1,7 C1,3.13400675 4.13400675,-2.13162821e-14 8,-2.13162821e-14 Z M8,1.5 C4.96243388,1.5 2.5,3.96243388 2.5,7 C2.5,10.0375661 4.96243388,12.5 8,12.5 C11.0375661,12.5 13.5,10.0375661 13.5,7 C13.5,3.96243388 11.0375661,1.5 8,1.5 Z M8,4 C8.41421356,4 8.75,4.33578644 8.75,4.75 L8.75,6.25 L10.25,6.25 C10.6642136,6.25 11,6.58578644 11,7 C11,7.41421356 10.6642136,7.75 10.25,7.75 L8.75,7.75 L8.75,9.25 C8.75,9.66421356 8.41421356,10 8,10 C7.58578644,10 7.25,9.66421356 7.25,9.25 L7.25,7.75 L5.75,7.75 C5.33578644,7.75 5,7.41421356 5,7 C5,6.58578644 5.33578644,6.25 5.75,6.25 L7.25,6.25 L7.25,4.75 C7.25,4.33578644 7.58578644,4 8,4 Z" id="形状结合" fill-rule="nonzero"></path>
                <rect id="矩形" opacity="0" x="0" y="0" width="16" height="16"></rect>
            </g>
        </g>
    </g>
</svg>