<svg version="1.1" id="图层_1" xmlns="http://www.w3.org/2000/svg" xmlns:xlink="http://www.w3.org/1999/xlink" x="0px" y="0px" viewBox="0 0 16 16" style="enable-background:new 0 0 16 16;" xml:space="preserve" width="132px" height="132px">
<style type="text/css">
	.st0{fill:#575D6C;}
</style>
<path class="st0" d="M7.8,4c0.4,0,0.8,0.3,0.8,0.8S8.2,5.5,7.8,5.5H4.3c-0.4,0-0.8-0.3-0.8-0.8S3.8,4,4.3,4H7.8z M6.5,7.8&#10;&#9;C6.5,7.3,6.2,7,5.8,7H4.3C3.8,7,3.5,7.3,3.5,7.8s0.3,0.8,0.8,0.8h1.5C6.2,8.5,6.5,8.2,6.5,7.8z M4,13.6H2.1V2h10.6v1.5&#10;&#9;c0,0.4,0.3,0.7,0.7,0.7s0.7-0.3,0.7-0.7V1.8c0-0.7-0.5-1.2-1.2-1.2h-11c-0.7,0-1.2,0.5-1.2,1.2v12c0,0.7,0.5,1.2,1.2,1.2H4&#10;&#9;c0.4,0,0.7-0.3,0.7-0.7S4.4,13.6,4,13.6z M15.4,6.4l-2.3,5c-0.2,0.4-0.5,0.7-0.9,0.9l-5,2.3c-0.6,0.3-1.3-0.4-1-1l2.3-5&#10;&#9;C8.7,8.2,9,7.9,9.4,7.7l5-2.3C15,5.1,15.7,5.8,15.4,6.4z M11.6,10.9L9.9,9.2l-1.4,3.2L11.6,10.9z"/>
</svg>