<?xml version="1.0" encoding="utf-8"?>
<svg version="1.1" id="图层_1" xmlns="http://www.w3.org/2000/svg" xmlns:xlink="http://www.w3.org/1999/xlink" x="0px" y="0px"
	 viewBox="0 0 132 132" style="enable-background:new 0 0 132 132;" xml:space="preserve">
<style type="text/css">
	.st0{fill:none;}
	.st1{fill:currentColor;}
</style>
<rect id="size" class="st0" width="132" height="132"/>
<path id="形状结合备份-2" class="st1" d="M93,26l21.3,21.5l0.3,0.3l0.3,0.5l0.2,0.5l0.2,0.5l0.1,0.5l0,0.6
	c0,0.3,0,0.6-0.1,0.9l-0.2,0.6l-0.4,0.8l-0.3,0.5l-0.3,0.3l-0.3,0.2l-0.5,0.4l-0.6,0.3l-0.4,0.1l-0.4,0.1l-0.6,0h-64
	c-12.5,0-22.6,10.1-22.6,22.6s10.1,22.6,22.6,22.6h48.9c2.3,0,4.1,1.8,4.1,4.1s-1.8,4.1-4.1,4.1H47.4c-17.1,0-30.9-13.8-30.9-30.9
	s13.8-30.9,30.9-30.9l54.1,0L87.2,31.8c-1.6-1.6-1.6-4.2,0-5.8C88.8,24.3,91.4,24.4,93,26z"/>
</svg>
