<?xml version="1.0" encoding="utf-8"?>
<!-- Generator: Adobe Illustrator 26.0.2, SVG Export Plug-In . SVG Version: 6.00 Build 0)  -->
<svg version="1.1" id="图层_1" xmlns="http://www.w3.org/2000/svg" xmlns:xlink="http://www.w3.org/1999/xlink" x="0px" y="0px"
	 viewBox="0 0 132 132" style="enable-background:new 0 0 132 132;" xml:space="preserve">
<style type="text/css">
	.st0{fill:currentColor;}
</style>
<g>
	<path class="st0" d="M119.6,4.1H12.4c-5,0-8.2,3.3-8.2,8.2v107.2c0,5,3.3,8.2,8.2,8.2h107.2c5,0,8.2-3.3,8.2-8.2V12.4
		C127.9,7.4,124.6,4.1,119.6,4.1z M115.5,111.4c0,2.5-1.7,4.1-4.1,4.1H20.6c-2.5,0-4.1-1.7-4.1-4.1V20.6c0-2.5,1.6-4.1,4.1-4.1h90.8
		c2.5,0,4.1,1.6,4.1,4.1V111.4z"/>
	<path class="st0" d="M97.1,105.4c2.5,2.5,5.8,2.5,8.2,0c2.5-2.5,2.5-6.6,0-9.1L90.5,81.5l12.4-11.5H74c-2.5,0-4.1,1.7-4.1,4.1v28.9
		l12.4-12.4L97.1,105.4z"/>
	<path class="st0" d="M42.3,49.7L29.9,62.1h28.9c2.5,0,4.1-1.7,4.1-4.1V29.1L50.5,41.5L35.7,26.6c-2.5-2.5-6.6-2.5-9.1,0
		s-2.5,6.6,0,9.1L42.3,49.7z"/>
</g>
</svg>
