<?xml version="1.0" encoding="utf-8"?>
<svg version="1.1" id="图层_1" xmlns="http://www.w3.org/2000/svg" xmlns:xlink="http://www.w3.org/1999/xlink" x="0px" y="0px"
	 viewBox="0 0 132 132" style="enable-background:new 0 0 132 132;" xml:space="preserve">
<style type="text/css">
	.st0{fill:none;}
	.st1{fill:currentColor;}
</style>
<rect id="size" class="st0" width="132" height="132"/>
<path id="形状结合" class="st1" d="M12.4,82.5c0-6.8,5.5-12.4,12.4-12.4h61.9c6.8,0,12.4,5.5,12.4,12.4V99
	c0,6.8-5.5,12.4-12.4,12.4H24.8c-6.8,0-12.4-5.5-12.4-12.4V82.5z M20.6,82.5V99c0,2.3,1.8,4.1,4.1,4.1h61.9c2.3,0,4.1-1.8,4.1-4.1
	V82.5c0-2.3-1.8-4.1-4.1-4.1H24.8C22.5,78.4,20.6,80.2,20.6,82.5z M41.2,33c0-6.8,5.5-12.4,12.4-12.4h33C93.5,20.6,99,26.2,99,33
	v16.5c0,6.8-5.5,12.4-12.4,12.4h-33c-6.8,0-12.4-5.5-12.4-12.4V33z M49.5,33v16.5c0,2.3,1.8,4.1,4.1,4.1h33c2.3,0,4.1-1.8,4.1-4.1
	V33c0-2.3-1.8-4.1-4.1-4.1h-33C51.3,28.9,49.5,30.7,49.5,33z M115.5,115.5c0,2.3-1.8,4.1-4.1,4.1s-4.1-1.8-4.1-4.1v-99
	c0-2.3,1.8-4.1,4.1-4.1s4.1,1.8,4.1,4.1V115.5z"/>
</svg>
