<?xml version="1.0" encoding="utf-8"?>
<svg version="1.1" id="图层_1" xmlns="http://www.w3.org/2000/svg" xmlns:xlink="http://www.w3.org/1999/xlink" x="0px" y="0px"
	 viewBox="0 0 132 132" style="enable-background:new 0 0 132 132;" xml:space="preserve">
<style type="text/css">
	.st0{fill:none;}
	.st1{fill:currentColor;}
</style>
<rect id="size" class="st0" width="132" height="132"/>
<path id="形状结合_00000112621971751877734840000008362683014857461932_" class="st1" d="M97,20.3c6.3,0,11.9,4.8,11.9,11.1
	v30.2h5.6c2.3,0,4,1.6,4,4c0,2.3-1.6,4-4,4h-5.6v30.2c0,6.3-5.6,11.9-11.9,11.9H81.1c-6.3,0-11.9-5.6-11.9-11.9V69.6h-8l-0.8,14.3
	c0,6.3-5.6,11.9-11.9,11.9h-15c-6.3,0-11.9-5.6-11.9-11.9V69.6h-4c-2.3,0-4-1.6-4-4c0-2.3,1.6-4,4-4h4V48.1
	c0-6.3,5.6-11.9,11.9-11.9h15.9c6.3,0,11.9,5.6,11.9,11.9v14.3h8V32.2c0-6.3,5.6-11.9,11.9-11.9H97L97,20.3z M97,27.4H81.1
	c-2.3,0-4,1.6-4,4V99c0,2.3,1.6,4,4,4H97c2.3,0,4-1.6,4-4V32.2C101,29.8,98.5,27.4,97,27.4z M48.5,43.3H33.4c-2.3,0-4,1.6-4,4v35.8
	c0,2.3,1.6,4,4,4h15.9c2.3,0,4-1.6,4-4v-35C53.2,44.5,50.8,43.3,48.5,43.3z"/>
</svg>
