<?xml version="1.0" encoding="utf-8"?>
<!-- Generator: Adobe Illustrator 26.0.2, SVG Export Plug-In . SVG Version: 6.00 Build 0)  -->
<svg version="1.1" id="图层_1" xmlns="http://www.w3.org/2000/svg" xmlns:xlink="http://www.w3.org/1999/xlink" x="0px" y="0px" viewBox="0 0 16 16" style="enable-background:new 0 0 16 16;" xml:space="preserve">
	<style type="text/css">
		.st0 {
			fill: currentColor;
		}

	</style>
	<g>
		<path class="st0" d="M8,0.5C3.9,0.5,0.5,3.9,0.5,8s3.4,7.5,7.5,7.5s7.5-3.4,7.5-7.5S12.1,0.5,8,0.5z M8,14.1
		c-3.4,0-6.1-2.7-6.1-6.1S4.6,1.9,8,1.9s6.1,2.7,6.1,6.1S11.4,14.1,8,14.1z" />
		<g>
			<path class="st0" d="M8.7,10.8H7.3c-0.1,0-0.3,0.1-0.3,0.3v1.3c0,0.1,0.1,0.3,0.3,0.3h1.3c0.1,0,0.3-0.1,0.3-0.3v-1.3
			C8.9,11,8.8,10.8,8.7,10.8z" />
			<path class="st0" d="M10.3,3.7C9.7,3.2,8.9,3.1,8,3.1c-0.8,0-1.6,0.3-2.2,0.8c-0.6,0.4-0.8,1-0.9,2v0.3L5,6.2l1.6,0.2V6.2V6
			C6.7,5.4,6.9,5,7.1,4.8C7.3,4.7,7.6,4.5,8,4.5s0.8,0.1,0.9,0.4c0.3,0.3,0.4,0.6,0.4,0.8c0,0.2,0,0.3-0.1,0.5S8.9,6.6,8.6,6.9
			S8,7.5,7.8,7.7C7.6,7.9,7.4,8.1,7.3,8.4C7.2,8.8,7.2,9.2,7.2,9.6c0,0.1,0,0.1,0,0.3L7.2,10h1.5l0.1-0.1c0-0.4,0-0.7,0.1-0.8
			C8.9,9,9,8.8,9.1,8.7S9.4,8.4,9.8,8c0.6-0.5,0.9-0.8,1.1-1.2s0.3-0.8,0.3-1.2C11.2,4.8,10.9,4.2,10.3,3.7z" />
		</g>
	</g>
</svg>
