<svg version="1.1" id="图层_1" xmlns="http://www.w3.org/2000/svg" xmlns:xlink="http://www.w3.org/1999/xlink" x="0px" y="0px" viewBox="0 0 16 16" style="enable-background:new 0 0 16 16;" xml:space="preserve" width="132px" height="132px">
<style type="text/css">
	.st0{fill:#FFFFFF;fill-opacity:0;}
	.st1{fill:currentcolor;}
</style>
<g id="编组-13">
	<rect id="矩形" class="st0" width="16" height="16"/>
	<path id="形状结合" class="st1" d="M2,14.5h3L1.5,11v3C1.5,14.3,1.7,14.5,2,14.5z"/>
	<path id="形状结合_1_" class="st1" d="M12.5,1.3l2.1,2.1c0.4,0.4,0.4,1,0,1.4l-7.8,7.8c-0.4,0.4-1,0.4-1.4,0l-2.1-2.1&#10;&#9;&#9;c-0.4-0.4-0.4-1,0-1.4l7.8-7.8C11.5,1,12.1,1,12.5,1.3z M12.2,3.1c-0.2-0.2-0.5-0.2-0.7,0L5.1,9.5c-0.2,0.2-0.2,0.5,0,0.7l0.7,0.7&#10;&#9;&#9;c0.2,0.2,0.5,0.2,0.7,0l6.4-6.4c0.2-0.2,0.2-0.5,0-0.7L12.2,3.1z"/>
</g>
</svg>