<?xml version="1.0" encoding="utf-8"?>
<!-- Generator: Adobe Illustrator 26.0.2, SVG Export Plug-In . SVG Version: 6.00 Build 0)  -->
<svg version="1.1" id="flow-download" xmlns="http://www.w3.org/2000/svg" xmlns:xlink="http://www.w3.org/1999/xlink" x="0px" y="0px" viewBox="0 0 16 16" style="enable-background:new 0 0 16 16;" xml:space="preserve">
	<path id="flow-download-path" fill="currentColor" d="M8.7,9.9l2.4-1.8
	c0.3-0.2,0.7-0.2,1,0.1c0.2,0.3,0.2,0.7-0.1,1l-3.5,2.6c-0.2,0.2-0.6,0.2-0.8,0L4.1,9.2C3.8,9,3.7,8.6,3.9,8.3
	c0.2-0.3,0.7-0.4,1-0.1l2.4,1.8V1.5c0-0.4,0.3-0.7,0.7-0.7c0.4,0,0.7,0.3,0.7,0.7V9.9z M13.4,12.2c0-0.4,0.3-0.7,0.7-0.7
	c0.4,0,0.7,0.3,0.7,0.7v2c0,0.4-0.3,0.7-0.7,0.7H1.9c-0.4,0-0.7-0.3-0.7-0.7v-2c0-0.4,0.3-0.7,0.7-0.7s0.7,0.3,0.7,0.7v1.3h10.8
	V12.2z" />
</svg>
