<svg version="1.1" id="folder" xmlns="http://www.w3.org/2000/svg" xmlns:xlink="http://www.w3.org/1999/xlink" x="0px" y="0px" viewBox="0 0 16 16" style="enable-background:new 0 0 16 16;" xml:space="preserve" width="132px" height="132px">
<style type="text/css">
	.st0{fill:currentcolor;}
</style>
<path id="形状结合" class="st0" d="M4.4,7.9C4,7.9,3.7,7.5,3.7,7.1S4,6.3,4.4,6.3h4c0.4,0,0.8,0.3,0.8,0.8&#10;&#9;c0,0.4-0.3,0.8-0.8,0.8H4.4L4.4,7.9z M8.3,2.2H15c0.4,0,0.8,0.3,0.8,0.8v12c0,0.4-0.3,0.8-0.8,0.8H1c-0.4,0-0.8-0.3-0.8-0.8V1&#10;&#9;c0-0.4,0.3-0.8,0.8-0.8h5c0.2,0,0.4,0.1,0.5,0.2L8.3,2.2z M1.8,14.2h12.5V3.7H8c-0.2,0-0.4-0.1-0.5-0.2L5.7,1.8H1.8V14.2z"/>
</svg>