<svg version="1.1" id="fold-wold" xmlns="http://www.w3.org/2000/svg" xmlns:xlink="http://www.w3.org/1999/xlink" x="0px" y="0px" viewBox="0 0 16 16" style="enable-background:new 0 0 16 16;" xml:space="preserve" width="132px" height="132px">
<style type="text/css">
	.st0{fill:currentcolor;}
</style>
<path id="path-1_1_" class="st0" d="M14.2,6V3c0-0.6-0.4-1-1-1H8.4C8.1,2,7.9,1.9,7.7,1.7L6.3,0.3C6.1,0.1,5.9,0,5.6,0H1&#10;&#9;C0.4,0,0,0.4,0,1v14c0,0.6,0.4,1,1,1h12.4c0.5,0,0.9-0.3,1-0.8l1.6-8c0.1-0.5-0.3-1.1-0.8-1.2c-0.1,0-0.1,0-0.2,0H14.2z M1.5,11V1.5&#10;&#9;h3.7l1.4,1.4l0.6,0.6h5.5V6h-9c-0.4,0-0.8,0.3-1,0.7L1.5,11z M13,14.5H2l2.2-7h10.2L13,14.5z"/>
</svg>