<?xml version="1.0" encoding="utf-8"?>
<svg version="1.1" id="图层_1" xmlns="http://www.w3.org/2000/svg" xmlns:xlink="http://www.w3.org/1999/xlink" x="0px" y="0px"
	 viewBox="0 0 132 132" style="enable-background:new 0 0 132 132;" xml:space="preserve">
<style type="text/css">
	.st0{fill:none;}
	.st1{fill:currentColor;}
</style>
<rect id="size" class="st0" width="132" height="132"/>
<path id="形状结合" class="st1" d="M43.3,18c1.4,0,2.8,0.5,3.8,1.4l18.1,15.3l40.6,0c6.8,0,12.5,5.2,13.1,11.9l0.1,1.2l0,5
	l5.3,0l0.1,0c0,0,0.1,0,0.1,0l0.7,0.1c2.2,0.4,3.7,2.6,3.3,4.8l-9.5,49.5c-0.1,0.5-0.3,1-0.5,1.4c0,0.1-0.1,0.2-0.1,0.3
	c-2.4,4.5-7.3,6.8-12.6,6.8H34c-12.2,0-22.1-9.9-22.1-22.1l0-62.4C11.8,23.9,17.7,18,25,18H43.3z M119.6,61.1H37.9l-8.7,45.5
	c1.5,0.6,3.1,0.9,4.8,0.9h71.9c2.2,0,4-0.8,5-2l0.3-0.5L119.6,61.1z M42.5,26.3H25c-2.4,0-4.4,1.8-4.8,4.1l-0.1,0.8l0,62.4
	c0,2.5,0.7,4.8,1.8,6.9l8.5-44.2l0-0.1c0-0.1,0.1-0.3,0.1-0.4l-0.1,0.5c0-0.2,0.1-0.5,0.2-0.7c0-0.1,0.1-0.2,0.1-0.3
	c0-0.1,0.1-0.2,0.1-0.3c0-0.1,0.1-0.1,0.1-0.2c0.1-0.1,0.1-0.2,0.2-0.2c0.1-0.1,0.2-0.2,0.2-0.3c0,0,0.1-0.1,0.1-0.1
	c0.1-0.1,0.2-0.2,0.3-0.3c0,0,0.1-0.1,0.2-0.1c0.1-0.1,0.2-0.1,0.3-0.2c0.1,0,0.1-0.1,0.2-0.1c0.6-0.4,1.3-0.6,2.1-0.6l76.3,0l0-5
	c0-2.7-2.2-4.9-4.9-4.9H64.4c-1.4,0-2.8-0.5-3.8-1.4L42.5,26.3z"/>
</svg>
