<svg version="1.1" id="图层_1"
  xmlns="http://www.w3.org/2000/svg"
  xmlns:xlink="http://www.w3.org/1999/xlink" x="0px" y="0px" viewBox="0 0 64 64" style="enable-background:new 0 0 64 64;" xml:space="preserve">
  <style type="text/css">
  .st0{fill:currentcolor;}
  </style>
  <g>
    <path class="st0" d="M57.2,15.5H24c-1.1,0-2,0.9-2,2v9c0,1.1,0.9,2,2,2h33.3c1.1,0,2-0.9,2-2v-9C59.2,16.4,58.3,15.5,57.2,15.5z
     M55.2,24.5H26v-5h29.3L55.2,24.5L55.2,24.5z"/>
    <path class="st0" d="M57.2,33.6H24c-1.1,0-2,0.9-2,2v9c0,1.1,0.9,2,2,2h33.3c1.1,0,2-0.9,2-2v-9C59.2,34.5,58.3,33.6,57.2,33.6z
     M55.2,42.6H26v-5h29.3L55.2,42.6L55.2,42.6z"/>
    <path class="st0" d="M15.1,15.5H8c-1.1,0-2,0.9-2,2v9c0,1.1,0.9,2,2,2h7.1c1.1,0,2-0.9,2-2v-9C17.1,16.4,16.2,15.5,15.1,15.5z"/>
    <path class="st0" d="M15.1,33.6H8c-1.1,0-2,0.9-2,2v9c0,1.1,0.9,2,2,2h7.1c1.1,0,2-0.9,2-2v-9C17.1,34.5,16.2,33.6,15.1,33.6z"/>
  </g>
</svg>
