<?xml version="1.0" encoding="utf-8"?>
<!-- Generator: Adobe Illustrator 26.0.2, SVG Export Plug-In . SVG Version: 6.00 Build 0)  -->
<svg version="1.1" id="图层_1" xmlns="http://www.w3.org/2000/svg" xmlns:xlink="http://www.w3.org/1999/xlink" x="0px" y="0px"
	 viewBox="0 0 44 44" style="enable-background:new 0 0 44 44;" xml:space="preserve">
<style type="text/css">
	.st0{fill-rule:evenodd;clip-rule:evenodd;fill:currentColor;}
</style>
<desc>Created with Pixso.</desc>
<path id="矢量_72" class="st0" d="M35,6c1.1,0,2,0.9,2,2v27c0,1.1-0.9,2-2,2H9c-1.1,0-2-0.9-2-2V8c0-1.1,0.9-2,2-2H35z M35,7
	c0.5,0,1,0.4,1,1v27c0,0.5-0.5,1-1,1H9c-0.6,0-1-0.5-1-1V8c0-0.6,0.4-1,1-1H35z M13.5,15c0-0.3,0.2-0.5,0.5-0.5h16
	c0.3,0,0.5,0.2,0.5,0.5c0,0.3-0.2,0.5-0.5,0.5H14C13.7,15.5,13.5,15.3,13.5,15z M14,20.5c-0.3,0-0.5,0.2-0.5,0.5
	c0,0.3,0.2,0.5,0.5,0.5h16c0.3,0,0.5-0.2,0.5-0.5c0-0.3-0.2-0.5-0.5-0.5H14z M13.5,27c0-0.3,0.2-0.5,0.5-0.5h16
	c0.3,0,0.5,0.2,0.5,0.5c0,0.3-0.2,0.5-0.5,0.5H14C13.7,27.5,13.5,27.3,13.5,27z"/>
</svg>
