<svg class="icon" style="width: 1.25em;height: 1em;vertical-align: middle;fill: currentColor;overflow: hidden;" viewBox="0 0 1280 1024" version="1.1" xmlns="http://www.w3.org/2000/svg" p-id="6354"><path d="M0 512a64 64 0 1 0 128 0 64 64 0 0 0-128 0zM0 64a64 64 0 1 0 128 0 64 64 0 0 0-128 0zM0 960a64 64 0 1 0 128 0 64 64 0 0 0-128 0zM320 448h896c42.688 0 64 21.312 64 64s-21.312 64-64 64H320c-42.688 0-64-21.312-64-64s21.312-64 64-64zM320 0h896c42.688 0 64 21.312 64 64s-21.312 64-64 64H320c-42.688 0-64-21.312-64-64s21.312-64 64-64zM320 896h896c42.688 0 64 21.312 64 64s-21.312 64-64 64H320c-42.688 0-64-21.312-64-64s21.312-64 64-64z" p-id="6355"></path></svg>

