<svg width="16.000000" height="16.000000" viewBox="0 0 16 16" fill="none" xmlns="http://www.w3.org/2000/svg" xmlns:xlink="http://www.w3.org/1999/xlink">
	<desc>
			Created with Pixso.
	</desc>
	<defs/>
	<mask id="mask413_9851" mask-type="alpha" maskUnits="userSpaceOnUse" x="0.000000" y="0.000000" width="16.000000" height="16.000000">
		<rect id="全屏-full-screen" width="16.000000" height="16.000000" fill="#000000" fill-opacity="1.000000"/>
	</mask>
	<g mask="url(#mask413_9851)">
		<path id="path" d="M9 3.5C8.71 3.5 8.5 3.71 8.5 4C8.5 4.27 8.71 4.5 9 4.5L10.81 4.5L8.31 7C8.13 7.17 8.09 7.44 8.26 7.65C8.45 7.83 8.82 7.9 9.02 7.7L11.5 5.21L11.5 7C11.5 7.23 11.67 7.44 11.91 7.48C12.17 7.48 12.5 7.27 12.5 6.98L12.5 4.4C12.5 3.9 12.1 3.5 11.6 3.5L9 3.5ZM7.67 8.28C7.48 8.09 7.17 8.09 6.97 8.28L4.5 10.77L4.5 9C4.5 8.76 4.32 8.55 4.08 8.51C3.81 8.51 3.5 8.72 3.5 9.01L3.5 11.6C3.5 12.1 3.9 12.51 4.4 12.51L7 12.51C7.27 12.51 7.5 12.28 7.5 12.01C7.5 11.73 7.27 11.51 7 11.51L5.17 11.51L7.67 9C7.84 8.8 7.84 8.47 7.67 8.28ZM4 2.5L12 2.5C12.83 2.5 13.5 3.17 13.5 4L13.5 12C13.5 12.83 12.83 13.5 12 13.5L4 13.5C3.17 13.5 2.5 12.83 2.5 12L2.5 4C2.5 3.17 3.17 2.5 4 2.5ZM4 1.5C2.6 1.5 1.5 2.6 1.5 4L1.5 12C1.5 13.38 2.6 14.5 4 14.5L12 14.5C13.38 14.5 14.5 13.38 14.5 12L14.5 4C14.5 2.6 13.38 1.5 12 1.5L4 1.5Z" fill="#191919" fill-opacity="1.000000" fill-rule="nonzero"/>
	</g>
</svg>
