<svg viewBox="0 0 1024 1024" version="1.1" xmlns="http://www.w3.org/2000/svg" p-id="5006">
  <path d="M662.667636 930.909091a203.776 203.776 0 0 1 52.130909-139.310546 667.787636 667.787636 0 0 1 118.225455-96.954181 547.467636 547.467636 0 0 0 74.891636-61.021091 130.653091 130.653091 0 0 0 35.979637-87.179637 86.946909 86.946909 0 0 0-24.250182-67.025454 102.4 102.4 0 0 0-71.214546-22.341818 86.853818 86.853818 0 0 0-74.938181 34.257454 163.607273 163.607273 0 0 0-27.927273 97.745455h-80.058182a206.196364 206.196364 0 0 1 50.688-143.034182 170.402909 170.402909 0 0 1 134.981818-57.344 176.267636 176.267636 0 0 1 124.136728 43.938909 150.807273 150.807273 0 0 1 47.662545 114.734545 185.530182 185.530182 0 0 1-51.2 125.952 740.864 740.864 0 0 1-108.683636 85.690182 258.513455 258.513455 0 0 0-101.329455 100.538182H1024V930.909091z m-216.482909 0v-372.363636H93.090909v372.363636H0V93.090909h93.090909v372.363636h353.047273V93.090909h93.090909v837.818182z" p-id="5007"></path>
</svg>