<?xml version="1.0" encoding="utf-8"?>
<!-- Generator: Adobe Illustrator 26.0.2, SVG Export Plug-In . SVG Version: 6.00 Build 0)  -->
<svg version="1.1" id="home-outline" xmlns="http://www.w3.org/2000/svg" xmlns:xlink="http://www.w3.org/1999/xlink" x="0px" y="0px"
	 viewBox="0 0 132 132" style="enable-background:new 0 0 132 132;" xml:space="preserve">
<style type="text/css">
	.st0{fill:none;stroke:currentcolor;stroke-width:10.8706;stroke-miterlimit:31.0588;}
</style>
<path class="st0" d="M65.6,8.7l-54.3,53c-1.1,1-0.3,2.9,1.2,2.9h13.2c0.9,0,1.7,0.7,1.7,1.7v53.3c0,0.9,0.7,1.7,1.7,1.7h23.2
	c0.9,0,1.7-0.7,1.7-1.7V93.1c0-0.9,0.7-1.7,1.7-1.7h23.3c0.9,0,1.7,0.7,1.7,1.7v26.4c0,0.9,0.8,1.7,1.7,1.7l22.8-0.5
	c0.9,0,1.6-0.8,1.6-1.7v-52c0-0.9,0.7-1.7,1.7-1.7h13.4c1.5,0,2.2-1.8,1.2-2.9L68,8.7C67.3,8.1,66.3,8.1,65.6,8.7z"/>
</svg>
