<?xml version="1.0" encoding="utf-8"?>
<svg version="1.1" id="图层_1" xmlns="http://www.w3.org/2000/svg" xmlns:xlink="http://www.w3.org/1999/xlink" x="0px" y="0px"
	 viewBox="0 0 132 132" style="enable-background:new 0 0 132 132;" xml:space="preserve">
<style type="text/css">
	.st0{fill:none;}
	.st1{fill:currentColor;}
</style>
<rect id="size" class="st0" width="132" height="132"/>
<path id="形状结合" class="st1" d="M99,12.4c11.4,0,20.6,9.2,20.6,20.6v66c0,11.4-9.2,20.6-20.6,20.6H33
	c-11.4,0-20.6-9.2-20.6-20.6V33c0-11.4,9.2-20.6,20.6-20.6H99z M99,20.6H33c-6.8,0-12.4,5.5-12.4,12.4v66c0,6.8,5.5,12.4,12.4,12.4
	h66c6.8,0,12.4-5.5,12.4-12.4V33C111.4,26.2,105.8,20.6,99,20.6z M81.2,42.2c10.3,0,18.6,8.3,18.6,18.6c0,9.2-6.7,16.8-15.4,18.3
	l4.1,7.2c1.6,2.8-0.4,6.2-3.6,6.2H36.4c-3.2,0-5.2-3.4-3.6-6.2l24.2-41.9c1.6-2.7,5.6-2.7,7.1,0l2.7,4.6
	C70.3,44.7,75.5,42.2,81.2,42.2z M60.6,54.5L43.5,84.1h34.2L60.6,54.5z M81.2,50.4c-4.3,0-8.1,2.6-9.6,6.5l8.1,14
	c0.5,0.1,1,0.1,1.5,0.1c5.7,0,10.3-4.6,10.3-10.3S86.9,50.4,81.2,50.4z"/>
</svg>
