<svg version="1.1" id="图层_1"
  xmlns="http://www.w3.org/2000/svg"
  xmlns:xlink="http://www.w3.org/1999/xlink" x="0px" y="0px" viewBox="0 0 64 64" style="enable-background:new 0 0 64 64;" xml:space="preserve">
  <style type="text/css">
  .st0{fill:currentcolor;}
  </style>
  <g>
    <path class="st0" d="M23,9.8H11.5c-1.1,0-2,0.9-2,2v11.5c0,3.4,2.7,6.1,6.1,6.1H27c1.1,0,2-0.9,2-2V15.9C29,12.5,26.3,9.8,23,9.8z
     M25,25.3h-9.5c-1.1,0-2.1-0.9-2.1-2.1v-9.5H23c1.1,0,2.1,0.9,2.1,2.1v9.5H25z"/>
    <path class="st0" d="M52.5,9.8H41c-3.4,0-6.1,2.7-6.1,6.1v11.5c0,1.1,0.9,2,2,2h11.5c3.4,0,6.1-2.7,6.1-6.1V11.8
    C54.5,10.7,53.6,9.8,52.5,9.8z M50.5,23.2c0,1.1-0.9,2.1-2.1,2.1H39v-9.5c0-1.1,0.9-2.1,2.1-2.1h9.5L50.5,23.2L50.5,23.2z"/>
    <path class="st0" d="M27,34.7H15.6c-3.4,0-6.1,2.7-6.1,6.1v11.5c0,1.1,0.9,2,2,2H23c3.4,0,6.1-2.7,6.1-6.1V36.7
    C29,35.6,28.1,34.7,27,34.7z M25,48.1c0,1.1-0.9,2.1-2.1,2.1h-9.5v-9.5c0-1.1,0.9-2.1,2.1-2.1H25V48.1z"/>
    <path class="st0" d="M48.4,34.7H37c-1.1,0-2,0.9-2,2v11.5c0,3.4,2.7,6.1,6.1,6.1h11.5c1.1,0,2-0.9,2-2V40.8
    C54.5,37.4,51.8,34.7,48.4,34.7z M50.5,50.2H41c-1.1,0-2.1-0.9-2.1-2.1v-9.5h9.5c1.1,0,2.1,0.9,2.1,2.1V50.2z"/>
  </g>
</svg>
