<?xml version="1.0" encoding="utf-8"?>
<svg version="1.1" id="图层_1" xmlns="http://www.w3.org/2000/svg" xmlns:xlink="http://www.w3.org/1999/xlink" x="0px" y="0px"
	 viewBox="0 0 132 132" style="enable-background:new 0 0 132 132;" xml:space="preserve">
<style type="text/css">
	.st0{fill:none;}
	.st1{fill:currentColor;}
</style>
<rect id="size" class="st0" width="132" height="132"/>
<path id="形状结合" class="st1" d="M99,12.4c11.4,0,20.6,9.2,20.6,20.6v66c0,11.4-9.2,20.6-20.6,20.6H33
	c-11.4,0-20.6-9.2-20.6-20.6V33c0-11.4,9.2-20.6,20.6-20.6H99z M44.7,64L20.8,87.2l-0.2,0.1V99c0,6.5,5.1,11.9,11.5,12.3l0.8,0h66
	c5.7,0,10.5-3.8,11.9-9.1l0.1-0.3L87.7,79.5c-0.3-0.3-0.7-0.2-0.9,0l-6.2,6.3c-3.5,3.5-9.1,3.5-12.6,0.1L45.7,64
	C45.4,63.7,45,63.7,44.7,64z M99,20.6H33c-6.8,0-12.4,5.5-12.4,12.4v42.8L39,58c3.5-3.4,9-3.3,12.4,0L73.7,80c0.3,0.3,0.7,0.3,0.9,0
	l6.2-6.3c3.4-3.5,9-3.5,12.5-0.1l17.9,17.3V33c0-6.5-5.1-11.9-11.5-12.3L99,20.6z M82.7,33c6.8,0,12.4,5.5,12.4,12.4
	s-5.5,12.4-12.4,12.4c-6.8,0-12.4-5.5-12.4-12.4S75.9,33,82.7,33z M82.7,41.2c-2.3,0-4.1,1.8-4.1,4.1c0,2.3,1.8,4.1,4.1,4.1
	c2.3,0,4.1-1.8,4.1-4.1C86.8,43.1,85,41.2,82.7,41.2z"/>
</svg>
