<?xml version="1.0" encoding="utf-8"?>
<svg version="1.1" id="图层_1" xmlns="http://www.w3.org/2000/svg" xmlns:xlink="http://www.w3.org/1999/xlink" x="0px" y="0px"
	 viewBox="0 0 132 132" style="enable-background:new 0 0 132 132;" xml:space="preserve">
<style type="text/css">
	.st0{fill:none;}
	.st1{fill:currentColor;}
</style>
<rect id="size" class="st0" width="132" height="132"/>
<path id="形状" class="st1" d="M66,16.5c-27.3,0-49.5,22.2-49.5,49.5s22.2,49.5,49.5,49.5s49.5-22.2,49.5-49.5S93.3,16.5,66,16.5z
	 M66,8.2c31.9,0,57.8,25.8,57.8,57.8S97.9,123.8,66,123.8S8.2,97.9,8.2,66S34.1,8.2,66,8.2z M66,16.5c-10.5,0-20.6,21.9-20.6,49.5
	s10.1,49.5,20.6,49.5S86.6,93.6,86.6,66S76.5,16.5,66,16.5z M66,8.2c16.8,0,28.9,26.1,28.9,57.8s-12,57.8-28.9,57.8
	S37.1,97.6,37.1,66S49.2,8.2,66,8.2z M119.6,61.9c2.3,0,4.1,1.9,4.1,4.1s-1.9,4.1-4.1,4.1H12.4c-2.3,0-4.1-1.9-4.1-4.1
	s1.9-4.1,4.1-4.1H119.6z"/>
</svg>
