<?xml version="1.0" encoding="UTF-8"?>
<svg width="16px" height="16px" viewBox="0 0 16 16" version="1.1" xmlns="http://www.w3.org/2000/svg" xmlns:xlink="http://www.w3.org/1999/xlink">
    <title>国际化</title>
    <g id="国际化" stroke="none" stroke-width="1" fill="none" fill-rule="evenodd">
        <g id="编组" transform="translate(2.000000, 2.000000)" stroke="#191919">
            <circle id="椭圆形" cx="6" cy="6" r="6"></circle>
            <path d="M1.61538462,6.69230769 C3.61538462,5.76923077 5.61538462,5.30769231 7.61538462,5.30769231 C9.61538462,5.30769231 11.6153846,5.76923077 13.6153846,6.69230769" id="直线" transform="translate(7.615385, 6.000000) rotate(90.000000) translate(-7.615385, -6.000000) "></path>
            <path d="M-1.61538462,6.69230769 C0.384615385,5.76923077 2.38461538,5.30769231 4.38461538,5.30769231 C6.38461538,5.30769231 8.38461538,5.76923077 10.3846154,6.69230769" id="直线备份" transform="translate(4.384615, 6.000000) scale(-1, 1) rotate(90.000000) translate(-4.384615, -6.000000) "></path>
            <path d="M0.461538462,4.61538462 C2.30769231,4.30769231 4.15384615,4.15384615 6,4.15384615 C7.84615385,4.15384615 9.69230769,4.30769231 11.5384615,4.61538462" id="直线-13" stroke-linecap="round" transform="translate(6.000000, 4.384615) scale(1, -1) translate(-6.000000, -4.384615) "></path>
            <path d="M0.461538462,7.84615385 C2.30769231,7.53846154 4.15384615,7.38461538 6,7.38461538 C7.84615385,7.38461538 9.69230769,7.53846154 11.5384615,7.84615385" id="直线-13备份" stroke-linecap="round"></path>
        </g>
    </g>
</svg>