<?xml version="1.0" encoding="utf-8"?>
<!-- Generator: Adobe Illustrator 26.0.2, SVG Export Plug-In . SVG Version: 6.00 Build 0)  -->
<svg version="1.1" id="图层_1" xmlns="http://www.w3.org/2000/svg" xmlns:xlink="http://www.w3.org/1999/xlink" x="0px" y="0px"
	 viewBox="0 0 24 24" style="enable-background:new 0 0 24 24;" xml:space="preserve">
<g>
	<path class="st0" d="M6.8,12.6c0,1.9-0.5,2.9-1.5,3c-0.8,0-1.4-0.9-1.6-3l-3.5,0.9c0.6,3.6,2.2,5.3,5.1,5.2c3.5,0,5.2-1.9,5.1-6
		V4.1H6.8V12.6z"/>
	<path class="st0" d="M21.6,10.6c-0.8-0.5-1.9-0.9-3.2-1.1c-1.4-0.3-2.1-0.8-2-1.5s0.6-1.1,1.5-1.1c1.2,0,2,0.7,2.4,2.3l3.4-0.9
		C23,5.5,21.1,4,17.9,4c-3.2,0.1-5,1.5-5.2,4.1c-0.1,2.1,1.2,3.4,3.7,4c1.1,0.2,1.9,0.5,2.6,0.8c0.8,0.3,1.2,0.8,1.2,1.5
		c0,0.9-0.7,1.4-1.9,1.4c-1.5,0-2.4-1-2.8-2.9l-3.4,0.7c0.7,3.5,2.8,5.2,6.3,5.1c3.6-0.1,5.4-1.6,5.5-4.4
		C23.8,12.7,23.1,11.4,21.6,10.6z"/>
</g>
</svg>
