<?xml version="1.0" encoding="utf-8"?>
<svg version="1.1" id="图层_1" xmlns="http://www.w3.org/2000/svg" xmlns:xlink="http://www.w3.org/1999/xlink" x="0px" y="0px"
	 viewBox="0 0 132 132" style="enable-background:new 0 0 132 132;" xml:space="preserve">
<style type="text/css">
	.st0{fill:none;}
	.st1{fill-rule:evenodd;clip-rule:evenodd;fill:currentColor;}
</style>
<rect id="size" class="st0" width="132" height="132"/>
<path id="合并" class="st1" d="M40.7,28.9h5.6c2.3,0,4.1-1.8,4.1-4.1s-1.8-4.1-4.1-4.1h-5.6c-1.4,0-2.7,0.1-4.1,0.4
	c-1.1,0.2-2.2,0.6-3.3,1c-1.1,0.5-2.1,1-3,1.6l0,0c-1.1,0.7-2,1.5-2.9,2.4c-0.9,0.9-1.7,1.9-2.4,2.9l0,0c-0.6,1-1.2,2-1.6,3
	c-0.5,1.1-0.8,2.2-1,3.3l0,0c-0.3,1.3-0.4,2.7-0.4,4.1v11.2c0,0.9-0.1,1.7-0.3,2.6c-0.1,0.6-0.3,1.2-0.6,1.8
	c-0.3,0.6-0.6,1.2-0.9,1.7h0l0,0c-0.4,0.7-0.9,1.3-1.5,1.8c-0.6,0.6-1.2,1.1-1.8,1.5c-0.5,0.4-1.1,0.7-1.7,0.9
	c-0.6,0.2-1.2,0.4-1.8,0.6h0h0h0c-0.4,0.1-0.8,0.2-1.2,0.2c-0.4,0-0.9,0-1.3,0c-2.3,0-4.1,1.8-4.1,4.1l0,0.1v0
	c0,2.3,1.8,4.1,4.1,4.1c0.4,0,0.9,0,1.3,0c0.4,0,0.8,0.1,1.2,0.2h0c0.6,0.1,1.2,0.3,1.8,0.6c0.6,0.3,1.2,0.6,1.7,0.9
	c0.7,0.4,1.3,0.9,1.8,1.5c0.6,0.6,1.1,1.2,1.5,1.8l0,0h0c0.4,0.5,0.7,1.1,0.9,1.7c0.2,0.6,0.4,1.2,0.6,1.8c0.2,0.8,0.3,1.7,0.3,2.6
	v11.2c0,1.4,0.1,2.7,0.4,4.1c0.2,1.1,0.6,2.2,1,3.3c0.5,1.1,1,2.1,1.6,3c0.7,1.1,1.5,2,2.4,2.9c0.9,0.9,1.9,1.7,2.9,2.4
	c1,0.6,2,1.2,3,1.6c1.1,0.5,2.2,0.8,3.3,1l0,0c1.3,0.3,2.7,0.4,4.1,0.4h5.6c2.3,0,4.1-1.8,4.1-4.1c0-2.3-1.8-4.1-4.1-4.1h-5.6
	c-0.8,0-1.6-0.1-2.4-0.3l0,0c-0.6-0.1-1.1-0.3-1.7-0.6c-0.6-0.2-1.1-0.5-1.6-0.9c-0.6-0.4-1.2-0.9-1.7-1.4c-1-1-1.7-2.1-2.3-3.4
	c-0.2-0.6-0.4-1.1-0.6-1.7c-0.2-0.8-0.3-1.6-0.3-2.4V81.3c0-1.4-0.1-2.8-0.5-4.2c-0.3-1.2-0.6-2.3-1.1-3.4c-1-2.3-2.4-4.4-4.2-6.2
	c-0.5-0.5-1.1-1-1.7-1.5c0.6-0.5,1.2-1,1.7-1.5c1.8-1.8,3.2-3.9,4.2-6.2c0.5-1.1,0.8-2.2,1.1-3.4c0.3-1.4,0.5-2.8,0.5-4.2V39.5
	c0-0.8,0.1-1.6,0.3-2.4c0.1-0.6,0.3-1.2,0.6-1.7c0.5-1.3,1.3-2.4,2.3-3.4c0.5-0.5,1.1-1,1.7-1.4c0.5-0.3,1.1-0.6,1.6-0.9
	c0.6-0.2,1.1-0.4,1.7-0.6l0,0C39.1,29,39.9,28.9,40.7,28.9z M85.7,28.9h5.6c0.8,0,1.6,0.1,2.4,0.3h0l0,0c0.6,0.1,1.1,0.3,1.7,0.6
	c0.6,0.2,1.1,0.5,1.6,0.9c0.6,0.4,1.2,0.9,1.7,1.4c1,1,1.7,2.1,2.3,3.4c0.2,0.6,0.4,1.1,0.6,1.7c0.2,0.8,0.3,1.6,0.3,2.4v11.2
	c0,1.4,0.2,2.8,0.4,4.2l0,0c0.3,1.2,0.6,2.3,1.1,3.4c1,2.3,2.4,4.4,4.2,6.2c0.5,0.5,1.1,1,1.7,1.5c-0.6,0.5-1.2,1-1.7,1.5
	c-1.8,1.8-3.2,3.9-4.2,6.2c-0.5,1.1-0.8,2.2-1.1,3.4v0c-0.3,1.4-0.5,2.8-0.5,4.2v11.2c0,0.8-0.1,1.6-0.3,2.4
	c-0.1,0.6-0.3,1.2-0.6,1.7c-0.5,1.3-1.3,2.4-2.3,3.4c-0.5,0.5-1.1,1-1.7,1.4c-0.5,0.3-1.1,0.6-1.6,0.9c-0.6,0.2-1.1,0.4-1.7,0.6l0,0
	l0,0h0c-0.8,0.2-1.6,0.3-2.4,0.3h-5.6c-2.3,0-4.1,1.8-4.1,4.1c0,2.3,1.8,4.1,4.1,4.1h5.6c1.4,0,2.7-0.1,4.1-0.4l0,0
	c1.1-0.2,2.2-0.6,3.3-1c1.1-0.5,2.1-1,3-1.6c1.1-0.7,2-1.5,2.9-2.4c0.9-0.9,1.7-1.9,2.4-2.9c0.6-1,1.2-2,1.6-3
	c0.5-1.1,0.8-2.2,1-3.3c0.3-1.3,0.4-2.7,0.4-4.1V81.3c0-0.9,0.1-1.7,0.3-2.6c0.1-0.6,0.3-1.2,0.6-1.8c0.3-0.6,0.6-1.2,0.9-1.7
	c0.4-0.7,0.9-1.3,1.5-1.8c0.6-0.6,1.2-1.1,1.8-1.5c0.6-0.4,1.1-0.7,1.7-0.9c0.6-0.2,1.2-0.4,1.8-0.6c0.4-0.1,0.8-0.2,1.2-0.2
	c0.4,0,0.9,0,1.3,0c2.3,0,4.1-1.8,4.1-4.1v0l0-0.1c0-2.3-1.8-4.1-4.1-4.1c-0.4,0-0.9,0-1.3,0c-0.4,0-0.8-0.1-1.2-0.2l0,0
	c-0.6-0.1-1.2-0.3-1.8-0.6c-0.6-0.3-1.2-0.6-1.7-0.9c-0.7-0.4-1.3-0.9-1.8-1.5c-0.6-0.6-1.1-1.2-1.5-1.8c-0.4-0.5-0.7-1.1-0.9-1.7
	c-0.3-0.6-0.4-1.2-0.6-1.8c-0.2-0.8-0.3-1.7-0.3-2.6V39.5c0-1.4-0.1-2.7-0.4-4.1c-0.2-1.1-0.6-2.2-1-3.3c-0.5-1.1-1-2.1-1.6-3l0,0h0
	c-0.7-1.1-1.5-2-2.4-2.9c-0.9-0.9-1.9-1.7-2.9-2.4l0,0l0,0c-1-0.6-2-1.2-3-1.6s-2.2-0.8-3.3-1h0c-1.3-0.3-2.7-0.4-4.1-0.4h-5.6
	c-2.3,0-4.1,1.8-4.1,4.1S83.4,28.9,85.7,28.9z M52.7,81.6c0,2.7-2.2,5-4.9,5c-2.7,0-5-2.2-5-5c0-2.7,2.2-4.9,5-4.9
	C50.5,76.7,52.7,78.9,52.7,81.6z M71.7,81.6c0,2.7-2.2,5-4.9,5c-2.7,0-4.9-2.2-4.9-5c0-2.7,2.2-4.9,4.9-4.9
	C69.5,76.7,71.7,78.9,71.7,81.6z M90.6,81.6c0,2.7-2.2,5-5,5c-2.7,0-4.9-2.2-4.9-5c0-2.7,2.2-4.9,4.9-4.9
	C88.4,76.7,90.6,78.9,90.6,81.6z"/>
</svg>
