<?xml version="1.0" encoding="utf-8"?>
<!-- Generator: Adobe Illustrator 26.0.2, SVG Export Plug-In . SVG Version: 6.00 Build 0)  -->
<svg version="1.1" id="图层_1" xmlns="http://www.w3.org/2000/svg" xmlns:xlink="http://www.w3.org/1999/xlink" x="0px" y="0px"
	 viewBox="0 0 24 24" style="enable-background:new 0 0 24 24;" xml:space="preserve">
<style type="text/css">
	.st0{fill:currentColor;}
</style>
<path class="st0" d="M12,0.8c-6.1,0-11,4.9-11,11s4.9,11,11,11s11-4.9,11-11S18.2,0.8,12,0.8z M12,21h-0.2c-0.1-0.5-0.2-1.1-0.1-1.5
	c0.2-1.3,0.8-2.4,1.7-3.3c1-0.7,2.6-0.1,3.1-0.8c0.5-0.7-0.1-1.9-1.3-2.8s-1.8-0.3-3.4-0.7s-1.3-1.4-2.5-1.8c-1.2-0.4-1.3,0.8-3,1.3
	c-1.2,0.1-2.4-0.1-3.5-0.7c0.7-4.6,4.6-8,9.1-8h0.7c-0.1,0.7-0.4,2.6,0.3,3.1c0.7,0.4,1.5,0.6,1.5,1c0,0.3-0.5,1.9-0.1,2.4
	c0.7,0.8,1.8,1.3,3,1.3c0.8-0.3,1.3-1.7,1.3-1.7s1.2,1.4,1.8-0.7c2.2,4.6,0.2,10.1-4.3,12.3C14.8,20.7,13.4,21,12,21z"/>
</svg>
