<?xml version="1.0" encoding="utf-8"?>
<svg version="1.1" id="图层_1" xmlns="http://www.w3.org/2000/svg" xmlns:xlink="http://www.w3.org/1999/xlink" x="0px" y="0px"
	 viewBox="0 0 132 132" style="enable-background:new 0 0 132 132;" xml:space="preserve">
<style type="text/css">
	.st0{fill:none;}
	.st1{fill-rule:evenodd;clip-rule:evenodd;fill:currentColor;}
</style>
<rect id="size" class="st0" width="132" height="132"/>
<path class="st1" d="M126.8,90.2c-0.7-0.7-1.7-1-3.1-1h-3v-61c0-0.8-0.1-1.6-0.2-2.5c-0.2-0.7-0.3-1.5-0.7-2.1
	c-0.3-0.7-0.7-1.3-1.1-2c-0.4-0.7-0.9-1.2-1.5-1.8c-0.6-0.6-1.2-1.1-1.8-1.5c-0.7-0.4-1.3-0.7-2-1.1c-0.7-0.2-1.4-0.5-2.1-0.7
	c-0.9-0.2-1.7-0.2-2.6-0.2H23c-0.8,0-1.7,0.1-2.6,0.2c-0.7,0.2-1.4,0.4-2.1,0.7c-0.7,0.3-1.3,0.7-2,1.1c-0.7,0.4-1.2,0.9-1.8,1.5
	s-1.1,1.2-1.5,1.8c-0.4,0.7-0.7,1.3-1.1,2c-0.3,0.7-0.5,1.4-0.7,2.1c-0.2,0.8-0.2,1.7-0.2,2.5v61H8.2c-1.4,0-2.5,0.3-3.1,1
	c-0.7,0.7-1,1.7-1,3.1v7.8c0,1.1,0.1,2.1,0.3,3.1c0.2,0.8,0.4,1.7,0.7,2.6c0.4,0.8,0.8,1.6,1.3,2.3c0.5,0.8,1.2,1.6,1.8,2.3
	c0.7,0.7,1.5,1.3,2.2,1.8s1.6,0.9,2.4,1.2c0.8,0.4,1.7,0.7,2.6,0.8c1,0.2,2.1,0.3,3.1,0.3h94.6c1.1,0,2.1-0.1,3.1-0.3
	c0.9-0.2,1.7-0.4,2.6-0.8c1.7-0.7,3.3-1.7,4.6-3.1c1.3-1.4,2.4-2.9,3.1-4.6c0.3-0.8,0.6-1.7,0.7-2.6c0.2-1,0.4-2.1,0.4-3.1v-7.8
	C127.9,91.9,127.5,90.9,126.8,90.2z M19.4,28.3c0-0.5,0.1-1,0.2-1.4c0.2-0.4,0.4-0.8,0.8-1.2c0.3-0.4,0.7-0.7,1.2-0.8
	c0.4-0.2,0.9-0.2,1.4-0.2h85.9c0.5,0,1,0.1,1.4,0.2c0.4,0.2,0.8,0.4,1.2,0.8c0.4,0.3,0.7,0.7,0.8,1.2c0.2,0.4,0.2,0.9,0.2,1.4v61
	H19.4V28.3z M119.6,101.1c0,0.9-0.2,1.6-0.5,2.4c-0.3,0.7-0.7,1.5-1.4,2.1c-1.2,1.2-2.7,1.8-4.5,1.8H18.6c-0.9,0-1.7-0.2-2.5-0.4
	c-0.7-0.3-1.4-0.8-2-1.4c-0.7-0.6-1.1-1.3-1.4-2.1c-0.3-0.7-0.4-1.5-0.4-2.4v-3.6h107.2V101.1z"/>
</svg>
