<svg width="16.000000" height="16.000000" viewBox="0 0 16 16" fill="none" xmlns="http://www.w3.org/2000/svg" xmlns:xlink="http://www.w3.org/1999/xlink">
	<desc>
			Created with Pixso.
	</desc>
	<defs/>
	<rect id="矩形 195" width="16.000000" height="16.000000" fill="#C4C4C4" fill-opacity="0"/>
	<path id="矢量 3" d="M13.2 2.49C13.3 2.49 13.4 2.51 13.51 2.53Q13.51 2.53 13.52 2.53Q13.64 2.56 13.76 2.61C13.84 2.64 13.92 2.69 14 2.73C14.08 2.79 14.15 2.85 14.22 2.92C14.29 2.99 14.35 3.06 14.4 3.14C14.45 3.22 14.49 3.29 14.53 3.38C14.57 3.46 14.59 3.55 14.61 3.63C14.63 3.73 14.64 3.84 14.64 3.94L14.64 11.32L15 11.32C15.13 11.32 15.25 11.37 15.35 11.47C15.45 11.57 15.5 11.69 15.5 11.82L15.5 12.77C15.5 12.9 15.48 13.02 15.45 13.15C15.43 13.25 15.4 13.35 15.36 13.46C15.31 13.56 15.26 13.65 15.2 13.74C15.14 13.84 15.06 13.93 14.98 14.02C14.89 14.1 14.8 14.17 14.71 14.24C14.62 14.3 14.52 14.35 14.42 14.39C14.32 14.44 14.22 14.47 14.11 14.49C13.99 14.52 13.86 14.53 13.73 14.53L2.26 14.53C2.13 14.53 2 14.52 1.88 14.49C1.77 14.47 1.67 14.44 1.57 14.39C1.47 14.35 1.37 14.3 1.28 14.24C1.19 14.17 1.1 14.1 1.01 14.02C0.93 13.93 0.85 13.84 0.79 13.74C0.73 13.65 0.68 13.56 0.63 13.46C0.59 13.35 0.56 13.25 0.54 13.15C0.51 13.02 0.5 12.9 0.5 12.77L0.5 11.82C0.5 11.69 0.54 11.57 0.64 11.47C0.74 11.37 0.86 11.32 1 11.32L1.35 11.32L1.35 3.94C1.35 3.84 1.36 3.73 1.38 3.63Q1.38 3.62 1.39 3.6Q1.41 3.49 1.46 3.38C1.5 3.29 1.54 3.22 1.59 3.14C1.64 3.06 1.7 2.99 1.77 2.92C1.84 2.85 1.91 2.79 1.99 2.73C2.07 2.69 2.15 2.64 2.23 2.61C2.31 2.57 2.4 2.55 2.48 2.53C2.58 2.51 2.69 2.49 2.79 2.49L13.2 2.49ZM2.35 11.32L13.64 11.32L13.64 3.94C13.64 3.88 13.63 3.82 13.61 3.77C13.59 3.72 13.56 3.67 13.51 3.63C13.47 3.58 13.42 3.55 13.37 3.53C13.32 3.51 13.26 3.49 13.2 3.49L2.79 3.49C2.73 3.49 2.67 3.51 2.62 3.53C2.57 3.55 2.52 3.58 2.48 3.63C2.43 3.67 2.4 3.72 2.38 3.77C2.36 3.82 2.35 3.88 2.35 3.94L2.35 11.32ZM1.85 12.32L1.5 12.32L1.5 12.77C1.5 12.87 1.51 12.97 1.55 13.06C1.59 13.15 1.64 13.23 1.72 13.31C1.79 13.38 1.87 13.44 1.96 13.48C2.05 13.51 2.15 13.53 2.26 13.53L13.73 13.53C13.84 13.53 13.94 13.51 14.03 13.48C14.12 13.44 14.2 13.38 14.27 13.31C14.35 13.23 14.4 13.15 14.44 13.06C14.48 12.97 14.5 12.87 14.5 12.77L14.5 12.32L1.85 12.32Z" fill="#191919" fill-opacity="1.000000" fill-rule="evenodd"/>
	<path id="path6" d="M1 12.58L15 12.58L15 12.77C15 13.47 14.43 14.03 13.73 14.03L2.26 14.03C1.56 14.03 1 13.47 1 12.77L1 12.58Z" fill="#FFFFFF" fill-opacity="0" fill-rule="evenodd"/>
	<path id="path6" d="M15 12.58L15 12.77C15 13.47 14.43 14.03 13.73 14.03L2.26 14.03C1.56 14.03 1 13.47 1 12.77L1 12.58L15 12.58Z" stroke="#FFFFFF" stroke-opacity="0" stroke-width="1.200000"/>
	<path id="path7" d="M2.79 3L13.2 3C13.72 3 14.14 3.42 14.14 3.94L14.14 10.69L1.85 10.69L1.85 3.94C1.85 3.42 2.27 3 2.79 3Z" fill="#FFFFFF" fill-opacity="0" fill-rule="evenodd"/>
	<path id="path7" d="M13.2 3C13.72 3 14.14 3.42 14.14 3.94L14.14 10.69L1.85 10.69L1.85 3.94C1.85 3.42 2.27 3 2.79 3L13.2 3Z" stroke="#FFFFFF" stroke-opacity="0" stroke-width="1.200000"/>
</svg>
