<?xml version="1.0" encoding="utf-8"?>
<svg version="1.1" id="图层_1" xmlns="http://www.w3.org/2000/svg" xmlns:xlink="http://www.w3.org/1999/xlink" x="0px" y="0px"
	 viewBox="0 0 132 132" style="enable-background:new 0 0 132 132;" xml:space="preserve">
<style type="text/css">
	.st0{fill:none;}
	.st1{fill-rule:evenodd;clip-rule:evenodd;fill:url(#矢量_7_00000019667587233821677610000014889201827060906664_);}
	.st2{fill-rule:evenodd;clip-rule:evenodd;fill:#191919;}
</style>
<rect id="size" class="st0" width="132" height="132"/>
<linearGradient id="矢量_7_00000048464460440692461810000007260895784164668549_" gradientUnits="userSpaceOnUse" x1="66" y1="119.0396" x2="66" y2="11.7896" gradientTransform="matrix(1 0 0 -1 0 132)">
	<stop  offset="0" style="stop-color:#C2C2C2;stop-opacity:0"/>
	<stop  offset="0.9847" style="stop-color:#C2C2C2"/>
</linearGradient>
<path id="矢量_7" style="fill-rule:evenodd;clip-rule:evenodd;fill:url(#矢量_7_00000048464460440692461810000007260895784164668549_);" d="
	M37.1,13h57.8c13.6,0,24.8,11.1,24.8,24.8v57.8c0,13.6-11.1,24.8-24.8,24.8H37.1c-13.7,0-24.8-11.1-24.8-24.8V37.7
	C12.4,24,23.4,13,37.1,13z"/>
<path id="矢量_7__x28_边框_x29_" class="st2" d="M37.1,13h57.8c13.6,0,24.8,11.1,24.8,24.8v57.8c0,13.6-11.1,24.8-24.8,24.8
	H37.1c-13.7,0-24.8-11.1-24.8-24.8V37.7C12.4,24,23.4,13,37.1,13z M94.9,21.2H37.1c-1.3,0-2.6,0.1-3.9,0.4c-0.8,0.2-1.7,0.5-2.6,0.8
	c-0.9,0.4-1.7,0.8-2.6,1.4c-1,0.6-1.9,1.3-2.7,2.1c-0.8,0.8-1.6,1.7-2.1,2.7c-0.6,0.8-1,1.6-1.4,2.6c-0.3,0.8-0.7,1.7-0.8,2.6
	c-0.3,1.2-0.4,2.6-0.4,3.9v57.8c0,1.2,0.1,2.6,0.4,3.8c0.2,0.8,0.5,1.7,0.8,2.6c0.4,0.9,0.8,1.7,1.4,2.6c0.6,1,1.3,1.9,2.1,2.7
	c0.8,0.8,1.7,1.6,2.7,2.1c0.8,0.6,1.6,1,2.6,1.4c0.8,0.3,1.7,0.7,2.6,0.8c1.2,0.3,2.6,0.5,3.9,0.5h57.8c1.2,0,2.6-0.2,3.8-0.5
	c0.8-0.2,1.7-0.5,2.6-0.8c0.9-0.4,1.7-0.8,2.6-1.4c1-0.6,1.9-1.3,2.7-2.1c0.8-0.8,1.6-1.7,2.1-2.7c0.6-0.8,1-1.7,1.4-2.6
	c0.3-0.8,0.7-1.7,0.8-2.6c0.3-1.2,0.5-2.6,0.5-3.8V37.7c0-1.3-0.2-2.6-0.5-3.9c-0.2-0.8-0.5-1.7-0.8-2.6c-0.4-0.9-0.8-1.7-1.4-2.6
	c-0.6-1-1.3-1.9-2.1-2.7c-0.8-0.8-1.7-1.6-2.7-2.1c-0.8-0.6-1.6-1-2.6-1.4c-0.8-0.3-1.7-0.7-2.6-0.8C97.4,21.3,96.1,21.2,94.9,21.2z
	"/>
</svg>
