<svg width="20.000000" height="20.661133" viewBox="0 0 20 20.6611" fill="none" xmlns="http://www.w3.org/2000/svg" xmlns:xlink="http://www.w3.org/1999/xlink">
	<desc>
			Created with Pixso.
	</desc>
	<defs/>
	<rect id="矩形 28" width="20.000000" height="20.661156" fill="#C4C4C4" fill-opacity="0"/>
	<path id="形状结合" d="M12.78 3.71C14.23 2.2 16.58 2.2 18.03 3.71C19.49 5.21 19.49 7.64 18.03 9.13L16.28 10.94C14.98 12.29 12.95 12.43 11.5 11.37L11 11.88C12.03 13.38 11.89 15.47 10.59 16.82L8.84 18.63C7.39 20.14 5.04 20.14 3.59 18.63C2.13 17.13 2.13 14.7 3.59 13.2L5.34 11.39C6.64 10.05 8.67 9.91 10.12 10.97L10.62 10.45C9.59 8.95 9.73 6.86 11.03 5.52L12.78 3.71ZM9.22 11.91C8.27 11.33 7.03 11.46 6.22 12.3L4.47 14.11C3.5 15.1 3.5 16.73 4.47 17.72C5.43 18.72 6.99 18.72 7.97 17.72L9.72 15.91C10.52 15.07 10.65 13.8 10.1 12.81L9.5 13.43C9.25 13.68 8.87 13.68 8.62 13.43C8.38 13.18 8.38 12.78 8.62 12.52L9.22 11.91ZM17.15 4.61C16.19 3.62 14.62 3.62 13.65 4.61L11.9 6.42C11.09 7.26 10.97 8.54 11.53 9.52L12.12 8.9C12.37 8.66 12.75 8.66 13 8.9C13.24 9.16 13.24 9.56 13 9.82L12.4 10.44C13.35 11.01 14.59 10.86 15.4 10.04L17.15 8.23C18.12 7.22 18.12 5.61 17.15 4.61Z" fill="#808080" fill-opacity="1.000000" fill-rule="nonzero"/>
</svg>
