<svg version="1.1" id="图层_1"
  xmlns="http://www.w3.org/2000/svg"
  xmlns:xlink="http://www.w3.org/1999/xlink" x="0px" y="0px" viewBox="0 0 64 64" style="enable-background:new 0 0 64 64;" xml:space="preserve">
  <style type="text/css">
	.st0{fill:currentcolor;}
  </style>
  <g>
    <path class="st0" d="M50.4,13.7c-4.1-4.1-10.5-4.3-14.3-0.5L28,21.3c-3.8,3.8-3.6,10.2,0.5,14.3c0.4,0.4,1,0.6,1.6,0.6
		s1.1-0.2,1.6-0.6c0.9-0.9,0.9-2.3,0-3.1c-2.4-2.4-2.6-6-0.5-8.1l8.1-8.1c2.1-2.1,5.7-1.9,8.1,0.5c2.4,2.4,2.6,6,0.5,8.1l-6.5,6.5
		c-0.9,0.9-0.9,2.3,0,3.1s2.3,0.9,3.1,0L51,28C54.8,24.2,54.5,17.7,50.4,13.7z"/>
    <path class="st0" d="M33.1,27.9c-0.9,0.9-0.9,2.3,0,3.1c2.4,2.4,2.6,6,0.5,8.1l-8.1,8.1c-1,1-2.3,1.5-3.8,1.4
		c-1.6-0.1-3.1-0.8-4.2-1.9c-1.2-1.2-1.9-2.7-1.9-4.2C15.5,41,16,39.6,17,38.7l6.5-6.5c0.9-0.9,0.9-2.3,0-3.1s-2.3-0.9-3.1,0
		l-6.5,6.5c-1.9,1.9-2.8,4.4-2.7,7.2c0.1,2.7,1.3,5.2,3.2,7.2s4.5,3.1,7.2,3.2c0.2,0,0.3,0,0.5,0c2.6,0,4.9-1,6.7-2.7l8.1-8.1
		c3.8-3.8,3.6-10.2-0.5-14.3C35.3,27.1,33.9,27.1,33.1,27.9z"/>
  </g>
</svg>
