<?xml version="1.0" encoding="utf-8"?>
<svg version="1.1" id="图层_1" xmlns="http://www.w3.org/2000/svg" xmlns:xlink="http://www.w3.org/1999/xlink" x="0px" y="0px"
	 viewBox="0 0 132 132" style="enable-background:new 0 0 132 132;" xml:space="preserve">
<style type="text/css">
	.st0{fill:none;}
	.st1{fill:#808080;}
</style>
<rect id="size" class="st0" width="132" height="132"/>
<path id="形状结合" class="st1" d="M77.9,16.8c9.6-10,25.1-10,34.6,0c9.7,9.9,9.7,25.9,0,35.8L101,64.5
	c-8.6,8.8-21.9,9.8-31.5,2.8l-3.3,3.4c6.7,9.9,5.9,23.7-2.7,32.5L52,115.2c-9.6,10-25.1,10-34.6,0c-9.7-9.9-9.7-25.9,0-35.8
	l11.6-11.9c8.6-8.8,21.9-9.8,31.5-2.8l3.3-3.4c-6.7-9.9-5.9-23.7,2.7-32.5L77.9,16.8z M54.4,70.9c-6.3-3.8-14.5-3-19.8,2.6
	L23.1,85.4c-6.3,6.6-6.3,17.3,0,23.9c6.3,6.5,16.7,6.5,23.1,0l11.5-11.9c5.3-5.5,6.2-14,2.6-20.5l-4,4.1c-1.6,1.7-4.2,1.7-5.9,0
	c-1.6-1.7-1.6-4.4,0-6.1L54.4,70.9z M106.8,22.7c-6.3-6.5-16.8-6.5-23.1,0L72.2,34.7c-5.3,5.5-6.2,14-2.5,20.5l3.9-4.1
	c1.7-1.7,4.2-1.7,5.9,0c1.6,1.7,1.6,4.4,0,6.1l-4,4.1c6.3,3.7,14.5,2.8,19.8-2.6l11.5-11.9C113.2,39.9,113.2,29.3,106.8,22.7z"/>
</svg>
