<?xml version="1.0" encoding="UTF-8"?>
<svg width="24px" height="24px" viewBox="0 0 24 24" version="1.1" xmlns="http://www.w3.org/2000/svg" xmlns:xlink="http://www.w3.org/1999/xlink">
    <title>ic_locked_lined</title>
    <g id="ic_locked_lined" stroke="none" stroke-width="1" fill="none" fill-rule="evenodd">
        <g id="编组">
            <rect id="矩形" fill="currentColor" opacity="0" x="0" y="0" width="24" height="24"></rect>
            <path d="M12.0003,2.00015 C14.6848308,2.00015 16.8613,4.17625357 16.8613,6.86115 L16.8613,6.86115 L16.861,9.24915 L17,9.24985 C18.5970631,9.24985 19.9036168,10.4993657 19.9949049,12.073641 L20,12.24985 L20,18.99985 C20,20.6567698 18.6565074,21.99985 17,21.99985 L17,21.99985 L7,21.99985 C5.34349256,21.99985 4,20.6567698 4,18.99985 L4,18.99985 L4,12.24985 C4,10.5936364 5.34378644,9.24985 7,9.24985 L7,9.24985 L7.138,9.24915 L7.1383,6.86115 C7.1383,4.24864046 9.19888513,2.11813926 11.7837168,2.00488536 Z M7.87310737,10.7499992 L7,10.74985 C6.17221356,10.74985 5.5,11.4220636 5.5,12.24985 L5.5,12.24985 L5.5,18.99985 C5.5,19.8282396 6.17181662,20.49985 7,20.49985 L7,20.49985 L17,20.49985 C17.8281834,20.49985 18.5,19.8282396 18.5,18.99985 L18.5,18.99985 L18.5,12.24985 C18.5,11.4220636 17.8277864,10.74985 17,10.74985 L17,10.74985 L16.126,10.74915 L16.1113,10.75015 L7.8883,10.75015 C7.88322385,10.75015 7.87815949,10.7500996 7.87310737,10.7499992 Z M12,13.00475 C12.3796958,13.00475 12.693491,13.2869039 12.7431534,13.6529794 L12.75,13.75475 L12.7517468,15.7512935 C13.0543061,15.9794977 13.25,16.3419594 13.25,16.74985 C13.25,17.43985 12.69,17.99985 12,17.99985 C11.31,17.99985 10.75,17.43985 10.75,16.74985 C10.75,16.3415102 10.9461252,15.9786994 11.2492532,15.75054 L11.25,13.75475 C11.25,13.3405364 11.5857864,13.00475 12,13.00475 Z M12.0003,3.50015 C10.1432663,3.50015 8.6383,5.00461073 8.6383,6.86115 L8.6383,6.86115 L8.638,9.24925 L15.361,9.24925 L15.3613,6.86115 C15.3613,5.06661755 13.9551107,3.60084673 12.1847022,3.5051226 L12.1847022,3.5051226 Z" id="形状结合" fill="currentColor"></path>
        </g>
    </g>
</svg>