<?xml version="1.0" encoding="utf-8"?>
<svg version="1.1" id="图层_1" xmlns="http://www.w3.org/2000/svg" xmlns:xlink="http://www.w3.org/1999/xlink" x="0px" y="0px"
	 viewBox="0 0 132 132" style="enable-background:new 0 0 132 132;" xml:space="preserve">
<style type="text/css">
	.st0{fill:none;}
	.st1{fill-rule:evenodd;clip-rule:evenodd;fill:currentColor;}
</style>
<rect id="size" class="st0" width="132" height="132"/>
<path id="合并" class="st1" d="M37.3,37.3v8.4C27.1,47,19.2,55.7,19.2,66.2v33c0,11.4,9.2,20.6,20.6,20.6h54.4
	c11.4,0,20.6-9.2,20.6-20.6v-33c0-11.1-8.8-20.2-19.8-20.6v-8.3c0-2.1-0.2-4.2-0.7-6.3c-0.4-1.7-0.9-3.4-1.6-5
	c-0.7-1.6-1.5-3.2-2.5-4.6l0,0c-1.1-1.6-2.3-3.1-3.7-4.5c-1.4-1.4-2.9-2.6-4.5-3.7l0,0h0c-1.5-1-3-1.8-4.6-2.5
	c-1.6-0.7-3.3-1.2-5-1.6l0,0h0c-2-0.5-4.1-0.7-6.3-0.7c-2.1,0-4.2,0.2-6.3,0.7c-1.7,0.4-3.4,0.9-5,1.6c-1.6,0.7-3.2,1.5-4.6,2.5l0,0
	c-1.6,1.1-3.1,2.3-4.5,3.7c-1.4,1.4-2.6,2.9-3.7,4.5c-1,1.5-1.8,3-2.5,4.6c-0.7,1.6-1.2,3.3-1.6,5C37.6,33.1,37.3,35.2,37.3,37.3z
	 M86.8,37.3v8.2H45.6v-8.2c0-1.6,0.2-3.1,0.5-4.6c0.3-1.2,0.6-2.3,1.1-3.4c0.5-1.1,1.1-2.2,1.7-3.2l0,0v0h0l0,0
	c0.8-1.2,1.7-2.3,2.7-3.3c1-1,2.1-1.9,3.3-2.7c1-0.7,2.1-1.2,3.2-1.7c1.1-0.5,2.2-0.8,3.4-1.1h0c1.5-0.3,3-0.5,4.6-0.5
	c1.6,0,3.1,0.2,4.6,0.5c1.2,0.3,2.3,0.6,3.4,1.1c1.1,0.5,2.2,1.1,3.2,1.7c1.2,0.8,2.3,1.7,3.3,2.7c1,1,1.9,2.1,2.7,3.3
	c0.7,1,1.2,2.1,1.7,3.2c0.5,1.1,0.8,2.2,1.1,3.4C86.7,34.2,86.8,35.8,86.8,37.3z M106.6,66.2c0-6.8-5.5-12.4-12.4-12.4H39.8
	c-6.8,0-12.4,5.5-12.4,12.4v33c0,6.8,5.5,12.4,12.4,12.4h54.4c6.8,0,12.4-5.5,12.4-12.4V66.2z M68.7,71.2c2.3,0,4.1,1.8,4.1,4.1
	v12.4c0,2.3-1.8,4.1-4.1,4.1c-2.3,0-4.1-1.8-4.1-4.1V75.3C64.6,73,66.4,71.2,68.7,71.2z"/>
</svg>
