<svg version="1.1" id="locked-outline" xmlns="http://www.w3.org/2000/svg" xmlns:xlink="http://www.w3.org/1999/xlink" x="0px" y="0px" viewBox="0 0 16 16" style="enable-background:new 0 0 16 16;" xml:space="preserve" width="132px" height="132px">
<style type="text/css">
	.st0{fill:currentcolor;}
</style>
<path class="st0" d="M7,11.2c0-0.6,0.4-1,1-1s1,0.4,1,1c0,0.6-0.4,1-1,1S7,11.8,7,11.2z M13.7,7.6v0.1v5c0,1.5-1.2,2.8-2.8,2.8H5&#10;&#9;c-1.5,0-2.8-1.2-2.8-2.8v-5C2.2,7.3,2.6,7,3,7h1.2V4.2c0-2,1.7-3.7,3.8-3.7s3.8,1.7,3.8,3.7V7H13C13.4,7,13.7,7.3,13.7,7.6z M5.8,7&#10;&#9;h4.4V4.3V4.1C10.2,2.9,9.2,2,8,2S5.8,2.9,5.8,4.1v0.2V7z M12.2,8.5H3.8v4.2C3.8,13.3,4.4,14,5,14h6c0.7,0,1.2-0.6,1.2-1.2V8.5z"/>
</svg>