<svg width="16.000000" height="16.000000" viewBox="0 0 16 16" fill="none" xmlns="http://www.w3.org/2000/svg" xmlns:xlink="http://www.w3.org/1999/xlink">
	<desc>
			Created with Pixso.
	</desc>
	<defs/>
	<mask id="mask439_9288" mask-type="alpha" maskUnits="userSpaceOnUse" x="0.000000" y="0.000000" width="16.000000" height="16.000000">
		<rect id="手机-phone" width="16.000000" height="16.000000" fill="#000000" fill-opacity="1.000000"/>
	</mask>
	<g mask="url(#mask439_9288)">
		<path id="形状结合" d="M11 1C12.38 1 13.5 2.1 13.5 3.5L13.5 12.5C13.5 13.88 12.38 15 11 15L5 15C3.6 15 2.5 13.88 2.5 12.5L2.5 3.5C2.5 2.1 3.6 1 5 1L11 1ZM11 2L5 2C4.17 2 3.5 2.66 3.5 3.5L3.5 12.5C3.5 13.32 4.17 14 5 14L11 14C11.82 14 12.5 13.32 12.5 12.5L12.5 3.5C12.5 2.66 11.82 2 11 2ZM8 11.18C8.39 11.18 8.71 11.52 8.71 11.91C8.71 12.32 8.39 12.64 8 12.64C7.59 12.64 7.27 12.32 7.27 11.91C7.27 11.52 7.59 11.18 8 11.18ZM9.5 3.5C9.77 3.5 10 3.71 10 4C10 4.27 9.77 4.5 9.5 4.5L6.5 4.5C6.21 4.5 6 4.27 6 4C6 3.71 6.21 3.5 6.5 3.5L9.5 3.5Z" fill="#191919" fill-opacity="1.000000" fill-rule="nonzero"/>
	</g>
</svg>
