<svg width="16.000000" height="16.000000" viewBox="0 0 16 16" fill="none" xmlns="http://www.w3.org/2000/svg" xmlns:xlink="http://www.w3.org/1999/xlink">
	<desc>
			Created with Pixso.
	</desc>
	<defs/>
	<rect id="矩形 196" width="16.000000" height="16.000000" fill="#C4C4C4" fill-opacity="0"/>
	<path id="矢量 6" d="M1.8 13L2.53 13C2.81 13 3.03 12.78 3.03 12.5C3.03 12.22 2.81 12 2.53 12L1.8 12C1.68 12 1.58 11.98 1.49 11.94Q1.49 11.94 1.49 11.94L1.48 11.94Q1.35 11.88 1.23 11.76C1.07 11.6 1 11.42 1 11.2L1 3.8C1 3.68 1.01 3.58 1.05 3.49Q1.11 3.35 1.23 3.23Q1.35 3.11 1.49 3.05Q1.49 3.05 1.49 3.05C1.58 3.01 1.68 3 1.8 3L6.07 3C6.18 3 6.28 3.01 6.38 3.05L6.38 3.05L6.38 3.05L6.38 3.05Q6.52 3.11 6.64 3.23C6.79 3.39 6.87 3.57 6.87 3.8L6.87 5.06C6.87 5.34 7.08 5.56 7.36 5.57C7.64 5.57 7.87 5.35 7.87 5.07L7.87 3.8C7.87 3.66 7.86 3.54 7.83 3.41C7.81 3.3 7.77 3.2 7.73 3.09Q7.66 2.94 7.57 2.8L7.57 2.8L7.57 2.8Q7.47 2.65 7.34 2.52Q7.21 2.39 7.06 2.29C6.97 2.23 6.87 2.18 6.77 2.14C6.67 2.09 6.56 2.06 6.46 2.04Q6.27 2 6.07 2L1.8 2Q1.6 2 1.41 2.04C1.3 2.06 1.2 2.09 1.09 2.14C0.99 2.18 0.89 2.23 0.8 2.29Q0.65 2.39 0.52 2.52C0.44 2.61 0.36 2.7 0.29 2.8C0.23 2.89 0.18 2.99 0.14 3.09C0.09 3.2 0.06 3.3 0.04 3.41C0.01 3.54 0 3.66 0 3.8L0 11.2C0 11.44 0.04 11.67 0.14 11.9Q0.2 12.05 0.29 12.19Q0.39 12.34 0.52 12.47C0.61 12.55 0.7 12.63 0.8 12.7C0.89 12.76 0.99 12.81 1.09 12.85C1.2 12.9 1.3 12.93 1.41 12.95Q1.6 13 1.8 13ZM9.37 2.5C9.37 2.78 9.59 3 9.87 3C10.04 3 10.2 3.01 10.36 3.05C10.47 3.07 10.59 3.1 10.7 3.15C10.81 3.19 10.92 3.24 11.03 3.31C11.14 3.37 11.24 3.44 11.34 3.52C11.23 3.55 11.14 3.61 11.06 3.71C10.9 3.93 10.94 4.24 11.16 4.41L12.35 5.3C12.49 5.4 12.61 5.44 12.73 5.43C12.84 5.41 12.95 5.34 13.05 5.2C13.14 5.09 13.17 4.97 13.15 4.83C13.09 4.43 12.97 4.06 12.77 3.71C12.68 3.55 12.58 3.39 12.46 3.25C12.34 3.09 12.2 2.95 12.05 2.81C11.89 2.67 11.72 2.55 11.54 2.45C11.39 2.36 11.22 2.28 11.05 2.21C10.89 2.15 10.71 2.1 10.54 2.06C10.32 2.02 10.1 2 9.87 2C9.59 2 9.37 2.21 9.37 2.5ZM13.64 6.41Q13.45 6.37 13.26 6.37L5.55 6.37Q5.35 6.37 5.16 6.41C5.05 6.43 4.95 6.47 4.84 6.51C4.74 6.56 4.64 6.61 4.55 6.67C4.45 6.73 4.36 6.81 4.27 6.9C4.19 6.98 4.11 7.08 4.04 7.18C3.98 7.27 3.93 7.37 3.89 7.47C3.84 7.57 3.81 7.68 3.79 7.78C3.76 7.91 3.75 8.04 3.75 8.17L3.75 12.45C3.75 12.58 3.76 12.7 3.79 12.83C3.81 12.94 3.84 13.04 3.89 13.15C3.93 13.25 3.98 13.35 4.04 13.44C4.11 13.54 4.19 13.63 4.27 13.72C4.36 13.8 4.45 13.88 4.55 13.95C4.64 14.01 4.74 14.06 4.84 14.1C4.95 14.15 5.05 14.18 5.16 14.2Q5.35 14.25 5.55 14.25L13.26 14.25Q13.45 14.25 13.64 14.2C13.75 14.18 13.86 14.15 13.96 14.1C14.06 14.06 14.16 14.01 14.25 13.95C14.35 13.88 14.44 13.8 14.53 13.72C14.62 13.63 14.69 13.54 14.76 13.44C14.82 13.35 14.87 13.25 14.92 13.15C14.96 13.04 14.99 12.94 15.02 12.83C15.04 12.7 15.06 12.58 15.06 12.45L15.06 8.17C15.06 8.04 15.04 7.91 15.02 7.78C14.99 7.68 14.96 7.57 14.92 7.47C14.87 7.37 14.82 7.27 14.76 7.18C14.69 7.08 14.62 6.98 14.53 6.9C14.44 6.81 14.35 6.73 14.25 6.67C14.16 6.61 14.06 6.56 13.96 6.51C13.86 6.47 13.75 6.43 13.64 6.41ZM5.55 7.37L13.26 7.37C13.37 7.37 13.47 7.39 13.56 7.43C13.66 7.47 13.75 7.53 13.82 7.6C13.9 7.68 13.96 7.77 14 7.86C14.04 7.96 14.06 8.06 14.06 8.17L14.06 12.45C14.06 12.56 14.04 12.66 14 12.75C13.96 12.85 13.9 12.93 13.82 13.01C13.75 13.09 13.66 13.15 13.56 13.19C13.47 13.23 13.37 13.25 13.26 13.25L5.55 13.25C5.43 13.25 5.33 13.23 5.24 13.19Q5.24 13.19 5.24 13.19L5.24 13.19Q5.1 13.13 4.98 13.01Q4.86 12.89 4.8 12.75C4.76 12.66 4.75 12.56 4.75 12.45L4.75 8.17C4.75 8.06 4.76 7.96 4.8 7.86Q4.86 7.72 4.98 7.6Q5.1 7.49 5.24 7.43L5.24 7.43Q5.24 7.43 5.24 7.43C5.33 7.39 5.43 7.37 5.55 7.37ZM5.65 8.56C5.93 8.56 6.15 8.78 6.15 9.06L6.15 10.93C6.15 11.21 5.93 11.43 5.65 11.43C5.37 11.43 5.15 11.21 5.15 10.93L5.15 9.06C5.15 8.78 5.37 8.56 5.65 8.56ZM12.03 10.32C12.03 9.93 12.34 9.62 12.73 9.62C13.11 9.62 13.43 9.93 13.43 10.32C13.43 10.71 13.11 11.02 12.73 11.02C12.34 11.02 12.03 10.71 12.03 10.32Z" fill="#191919" fill-opacity="1.000000" fill-rule="evenodd"/>
</svg>
