<?xml version="1.0" encoding="utf-8"?>
<svg version="1.1" id="图层_1" xmlns="http://www.w3.org/2000/svg" xmlns:xlink="http://www.w3.org/1999/xlink" x="0px" y="0px"
	 viewBox="0 0 132 132" style="enable-background:new 0 0 132 132;" xml:space="preserve">
<style type="text/css">
	.st0{fill:none;}
	.st1{fill-rule:evenodd;clip-rule:evenodd;fill:currentColor;}
</style>
<rect id="size" class="st0" width="132" height="132"/>
<path id="合并" class="st1" d="M81.2,18.6c0,2.3,1.8,4.1,4.1,4.1c1.4,0,2.7,0.1,4,0.4c0.9,0.2,1.9,0.5,2.8,0.8
	c1,0.4,1.9,0.8,2.7,1.3c0.9,0.5,1.7,1.1,2.6,1.8c-0.9,0.2-1.7,0.7-2.3,1.5c-1.4,1.8-1,4.4,0.8,5.8l9.8,7.4c1.1,0.8,2.1,1.2,3.1,1
	c1-0.1,1.9-0.8,2.7-1.9c0.7-0.9,0.9-1.9,0.8-3.1c-0.2-1.6-0.6-3.2-1.1-4.7l0,0c-0.5-1.5-1.2-3-2-4.5c-0.7-1.4-1.6-2.6-2.5-3.8
	c-1-1.3-2.2-2.5-3.4-3.6c-1.3-1.1-2.7-2.1-4.1-3c-1.3-0.8-2.6-1.4-4.1-1.9c-1.4-0.5-2.8-0.9-4.2-1.2c-1.8-0.4-3.7-0.6-5.5-0.6
	C83,14.5,81.2,16.3,81.2,18.6z M28.9,105.3H18.7c-1.1,0-2.1-0.1-3.2-0.3h0h0c-0.9-0.2-1.8-0.5-2.6-0.8c-0.8-0.4-1.7-0.8-2.4-1.3
	c-0.8-0.5-1.6-1.2-2.3-1.9c-0.7-0.7-1.3-1.5-1.9-2.3C5.8,97.8,5.4,97,5,96.2c-0.4-0.8-0.6-1.7-0.8-2.6v0c-0.2-1-0.3-2.1-0.3-3.2
	V29.4c0-1.1,0.1-2.1,0.3-3.2l0,0v0l0,0l0,0c0.2-0.9,0.5-1.8,0.8-2.6c0.4-0.8,0.8-1.7,1.3-2.4l0,0c0.5-0.8,1.2-1.6,1.9-2.3
	c0.7-0.7,1.5-1.3,2.3-1.9v0l0,0c0.8-0.5,1.6-0.9,2.4-1.3c0.8-0.4,1.7-0.6,2.6-0.8l0,0l0,0l0,0l0,0l0,0l0,0l0,0
	c1-0.2,2.1-0.3,3.2-0.3H54c1.1,0,2.1,0.1,3.2,0.3c0.9,0.2,1.8,0.5,2.6,0.8c0.8,0.4,1.7,0.8,2.4,1.3c0.8,0.5,1.6,1.2,2.3,1.9
	c0.7,0.7,1.3,1.5,1.9,2.3c0.5,0.8,0.9,1.6,1.3,2.4c0.4,0.8,0.6,1.7,0.8,2.6c0.2,1,0.3,2.1,0.3,3.2v15.1h-8.2V29.4
	c0-0.9-0.2-1.8-0.5-2.5c-0.3-0.8-0.8-1.5-1.5-2.1c-0.6-0.6-1.4-1.1-2.1-1.5c-0.8-0.3-1.6-0.5-2.5-0.5H18.7c-0.9,0-1.8,0.2-2.5,0.5
	l0,0l0,0l0,0c-0.8,0.3-1.5,0.8-2.1,1.5c-0.6,0.6-1.1,1.4-1.5,2.1l0,0c-0.3,0.8-0.5,1.6-0.5,2.5v61.1c0,0.9,0.2,1.8,0.5,2.5
	c0.3,0.8,0.8,1.5,1.5,2.1c0.6,0.6,1.4,1.1,2.1,1.5c0.8,0.3,1.6,0.5,2.5,0.5h10.2V105.3z M119.1,51.8c-1.8-0.8-3.8-1.2-5.8-1.2H49.7
	c-1.1,0-2.1,0.1-3.2,0.3c-0.9,0.2-1.8,0.5-2.6,0.8c-0.8,0.4-1.7,0.8-2.4,1.3c-0.8,0.5-1.6,1.2-2.3,1.9c-0.7,0.7-1.3,1.5-1.9,2.3
	c-0.5,0.8-0.9,1.6-1.3,2.4c-0.4,0.8-0.6,1.7-0.8,2.6c-0.2,1-0.3,2.1-0.3,3.2v35.3c0,1.1,0.1,2.1,0.3,3.2c0.2,0.9,0.5,1.8,0.8,2.6
	c0.4,0.8,0.8,1.7,1.3,2.4c0.5,0.8,1.2,1.6,1.9,2.3c1.4,1.4,2.9,2.4,4.7,3.2c0.8,0.4,1.7,0.6,2.6,0.8c1,0.2,2.1,0.3,3.2,0.3h63.6
	c2,0,3.9-0.4,5.8-1.2c1.8-0.8,3.4-1.8,4.7-3.2c1.4-1.4,2.4-2.9,3.2-4.7c0.8-1.8,1.2-3.8,1.2-5.8V65.4c0-1.1-0.1-2.1-0.3-3.2v0
	c-0.2-0.9-0.5-1.8-0.8-2.6c-0.8-1.8-1.8-3.3-3.2-4.7C122.4,53.6,120.8,52.5,119.1,51.8z M49.7,58.8h63.6c1.8,0,3.4,0.6,4.7,1.9
	c0.6,0.6,1.1,1.4,1.5,2.1c0.3,0.8,0.5,1.6,0.5,2.5v35.3c0,0.9-0.2,1.8-0.5,2.5l0,0c-0.3,0.8-0.8,1.5-1.5,2.1
	c-1.3,1.3-2.8,1.9-4.7,1.9H49.7c-0.9,0-1.8-0.2-2.5-0.5c-0.8-0.3-1.5-0.8-2.1-1.5c-1.3-1.3-1.9-2.8-1.9-4.7V65.4
	c0-0.9,0.2-1.8,0.5-2.5c0.3-0.8,0.8-1.5,1.5-2.1c0.6-0.6,1.4-1.1,2.1-1.5C47.9,59,48.7,58.8,49.7,58.8z M53.6,69.2
	c-2.3,0-4.1,1.8-4.1,4.1v16.5c0,2.3,1.8,4.1,4.1,4.1c2.3,0,4.1-1.8,4.1-4.1V73.3C57.8,71,55.9,69.2,53.6,69.2z M99,81.5
	c0-3.6,3-6.6,6.6-6.6c3.6,0,6.6,3,6.6,6.6c0,3.6-3,6.6-6.6,6.6C102,88.1,99,85.2,99,81.5z"/>
</svg>
