<?xml version="1.0" encoding="utf-8"?>
<svg version="1.1" id="图层_1" xmlns="http://www.w3.org/2000/svg" xmlns:xlink="http://www.w3.org/1999/xlink" x="0px" y="0px"
	 viewBox="0 0 132 132" style="enable-background:new 0 0 132 132;" xml:space="preserve">
<style type="text/css">
	.st0{fill:none;}
	.st1{fill:currentColor;}
</style>
<rect id="size" class="st0" width="132" height="132"/>
<path id="形状结合" class="st1" d="M93,7.8c0.9,0,2,0.3,2.6,1.1l18.4,16.7c0.3,0.6,1.2,2.2,1.2,2.9v37.1c0,2.2-1.9,4.1-4.1,4.1
	c-2.3,0-4.1-1.9-4.1-4.1V30.2L91.4,16.1h-53c-7.3,0-13.2,4.9-13.9,11.1v1.2v74.2c0,6.7,6.2,12.4,13.9,12.4h27.4
	c2.2,0,4.1,1.8,4.1,4.1c0,2.2-1.9,4.1-4.1,4.1H38.4c-12.2,0-22.1-9.2-22.1-20.6V28.5c0-11.6,9.9-20.6,22.1-20.6H93z M98.8,82.1
	c2.2,0,4.1,1.8,4.1,4.1v12.4h12.4c2.2,0,4.1,1.8,4.1,4.1c0,2.2-1.9,4.1-4.1,4.1h-12.4v12.4c0,2.2-1.9,4.1-4.1,4.1
	c-2.3,0-4.1-1.9-4.1-4.1v-12.4H82.3c-2.4,0-4.1-1.9-4.1-4.1c0-2.3,1.7-4.1,4.1-4.1h12.4V86.2C94.7,83.9,96.5,82.1,98.8,82.1z"/>
</svg>
