<svg width="16.000000" height="16.000000" viewBox="0 0 16 16" fill="none" xmlns="http://www.w3.org/2000/svg" xmlns:xlink="http://www.w3.org/1999/xlink">
	<desc>
			Created with Pixso.
	</desc>
	<defs/>
	<mask id="mask413_9431" mask-type="alpha" maskUnits="userSpaceOnUse" x="0.000000" y="0.000000" width="16.000000" height="16.000000">
		<rect id="定位到面板-locate-panel" width="16.000000" height="16.000000" fill="#000000" fill-opacity="1.000000"/>
	</mask>
	<g mask="url(#mask413_9431)">
		<path id="形状结合" d="M11.3 1C11.42 1 11.54 1.04 11.63 1.13L13.85 3.15C13.89 3.22 14 3.42 14 3.5L14 8C14 8.27 13.77 8.5 13.5 8.5C13.22 8.5 13 8.27 13 8L13 3.71L11.1 2L4.68 2C3.8 2 3.07 2.59 3 3.35L3 3.5L3 12.5C3 13.3 3.75 14 4.68 14L8 14C8.27 14 8.5 14.22 8.5 14.5C8.5 14.77 8.27 15 8 15L4.68 15C3.2 15 2 13.89 2 12.5L2 3.5C2 2.09 3.2 1 4.68 1L11.3 1ZM12 10C12.27 10 12.5 10.22 12.5 10.5L12.5 12L14 12C14.27 12 14.5 12.22 14.5 12.5C14.5 12.77 14.27 13 14 13L12.5 13L12.5 14.5C12.5 14.77 12.27 15 12 15C11.72 15 11.5 14.77 11.5 14.5L11.5 13L10 13C9.71 13 9.5 12.77 9.5 12.5C9.5 12.22 9.71 12 10 12L11.5 12L11.5 10.5C11.5 10.22 11.72 10 12 10Z" fill="#191919" fill-opacity="1.000000" fill-rule="nonzero"/>
	</g>
</svg>
