<?xml version="1.0" encoding="utf-8"?>
<svg version="1.1" id="图层_1" xmlns="http://www.w3.org/2000/svg" xmlns:xlink="http://www.w3.org/1999/xlink" x="0px" y="0px"
	 viewBox="0 0 132 132" style="enable-background:new 0 0 132 132;" xml:space="preserve">
<style type="text/css">
	.st0{fill:none;}
	.st1{fill:currentColor;}
</style>
<rect id="size" class="st0" width="132" height="132"/>
<path id="形状结合" class="st1" d="M108.5,15.3c4.9,0,8.9,4.3,8.3,9.4l-11.3,82.2c-0.4,3.3-3.1,5.7-6.4,5.7
	c-0.8,0-1.5-0.1-2.2-0.4L59.8,99.9l0,16.4c0,2.2-1.6,4-3.7,4.4l-0.7,0.1c-2.4,0-4.4-2-4.4-4.4L51,97L16.1,85.5
	c-4.8-1.8-5.6-8.1-1.7-11.1l90.1-58c1-0.5,2-0.9,3.1-1L108.5,15.3z M106.7,33.4L61.1,91l36,11.9L106.7,33.4z M96.2,32.3L24,78.7
	L52.1,88L96.2,32.3z"/>
</svg>
