<?xml version="1.0" encoding="utf-8"?>
<svg version="1.1" id="图层_1"
  xmlns="http://www.w3.org/2000/svg"
  xmlns:xlink="http://www.w3.org/1999/xlink" x="0px" y="0px" viewBox="0 0 64 64" style="enable-background:new 0 0 64 64;" xml:space="preserve">
  <style type="text/css">
	.st0{fill:currentcolor;}
  </style>
  <g id="Clip-30">
  </g>
  <g id="Clip-30_00000082359790372202237170000007339004850009255582_">
  </g>
  <g>
    <path class="st0" d="M56.9,29.9c-2.4-2.6-5.7-4-9.3-4.1c-1.3-8.1-8.4-14.1-16.5-14.1c-4.9,0-9.5,2.1-12.6,5.7l-1.3,1.5l3,2.6
		l1.3-1.5c2.4-2.7,5.9-4.3,9.6-4.3c6.2,0,11.7,4.7,12.6,10.8c0.2,1.9,1.8,3.3,3.8,3.3c2.5,0,4.8,1,6.5,2.8c1.7,1.8,2.5,4.2,2.4,6.7
		c-0.2,2.2-1.1,4.2-2.7,5.7l-1.5,1.4l2.8,2.9l1.5-1.4c2.3-2.2,3.7-5.1,3.9-8.3C60.6,35.9,59.4,32.5,56.9,29.9z"/>
    <path class="st0" d="M18.8,24.5L18.8,24.5L10,17.7l-2.5,3.2l7,5.4c-0.1,0.7-0.2,1.4-0.2,2.2c0,0.3,0,0.5,0,0.8
		C9,30.2,4.9,34.8,4.9,40.4c0,6.2,5.1,11.3,11.3,11.3h30.9l6.9,5.4l2.5-3.2L18.8,24.5L18.8,24.5z M16.2,47.7c-4,0-7.3-3.3-7.3-7.3
		s3.3-7.3,7.3-7.3h0.3c0.6,0,1.1-0.2,1.5-0.7s0.6-1,0.5-1.6l0-0.2c-0.1-0.5-0.1-0.9-0.1-1.3L42,47.7H16.2z"/>
  </g>
</svg>
