<?xml version="1.0" standalone="no"?><!DOCTYPE svg PUBLIC "-//W3C//DTD SVG 1.1//EN" "http://www.w3.org/Graphics/SVG/1.1/DTD/svg11.dtd"><svg t="1666923773102" class="icon" viewBox="0 0 1024 1024" version="1.1" xmlns="http://www.w3.org/2000/svg" p-id="2345" xmlns:xlink="http://www.w3.org/1999/xlink" width="200" height="200"><path d="M787.692308 590.769231a78.769231 78.769231 0 0 1 78.76923 78.769231v118.153846a78.769231 78.769231 0 0 1-78.76923 78.76923H236.307692a78.769231 78.769231 0 0 1-78.76923-78.76923v-118.153846a78.769231 78.769231 0 0 1 78.76923-78.769231h551.384616z m0 31.507692H236.307692a47.261538 47.261538 0 0 0-47.02523 42.417231L189.046154 669.538462v118.153846a47.261538 47.261538 0 0 0 42.417231 47.02523L236.307692 834.953846h551.384616a47.261538 47.261538 0 0 0 47.02523-42.417231L834.953846 787.692308v-118.153846a47.261538 47.261538 0 0 0-42.417231-47.025231L787.692308 622.276923z m-98.461539 11.815385a15.753846 15.753846 0 0 1 15.438769 12.603077l0.315077 3.150769-0.039384 62.976 63.054769 0.039384a15.753846 15.753846 0 0 1 3.150769 31.192616l-3.150769 0.315077-63.054769-0.039385 0.039384 63.054769a15.753846 15.753846 0 0 1-31.192615 3.15077l-0.315077-3.15077-0.039385-63.054769-62.976 0.039385a15.753846 15.753846 0 0 1-3.150769-31.192616l3.150769-0.315077 62.976-0.039384 0.039385-62.976c0-8.664615 7.089231-15.753846 15.753846-15.753846zM787.692308 157.538462a78.769231 78.769231 0 0 1 78.76923 78.76923v118.153846a78.769231 78.769231 0 0 1-78.76923 78.769231H236.307692a78.769231 78.769231 0 0 1-78.76923-78.769231V236.307692a78.769231 78.769231 0 0 1 78.76923-78.76923h551.384616z m0 31.507692H236.307692a47.261538 47.261538 0 0 0-47.02523 42.417231L189.046154 236.307692v118.153846a47.261538 47.261538 0 0 0 42.417231 47.025231L236.307692 401.723077h551.384616a47.261538 47.261538 0 0 0 47.02523-42.417231L834.953846 354.461538V236.307692a47.261538 47.261538 0 0 0-42.417231-47.02523L787.692308 189.046154z m-354.461539 90.584615a15.753846 15.753846 0 0 1 3.150769 31.192616L433.230769 311.138462H275.692308a15.753846 15.753846 0 0 1-3.15077-31.192616L275.692308 279.630769h157.538461z" fill="currentcolor" p-id="2346"></path></svg>