<svg width="20.000000" height="20.661133" viewBox="0 0 20 20.6611" fill="none" xmlns="http://www.w3.org/2000/svg" xmlns:xlink="http://www.w3.org/1999/xlink">
	<desc>
			Created with Pixso.
	</desc>
	<defs/>
	<rect id="矩形 31" width="20.000000" height="20.661156" fill="#C4C4C4" fill-opacity="0"/>
	<path id="矢量 10" d="M17 3.09C18.1 3.09 19 3.99 19 5.09L19 8.33C19 9.43 18.1 10.33 17 10.33L3 10.33C1.89 10.33 1 9.43 1 8.33L1 5.09C1 3.99 1.89 3.09 3 3.09L17 3.09ZM17 4.29C17.44 4.29 17.79 4.65 17.79 5.09L17.79 8.33C17.79 8.77 17.44 9.13 17 9.13L3 9.13C2.55 9.13 2.19 8.77 2.19 8.33L2.19 5.09C2.19 4.65 2.55 4.29 3 4.29L17 4.29ZM4 6.9L7 6.9C7.25 6.9 7.45 6.7 7.45 6.45C7.45 6.2 7.25 6 7 6L4 6C3.74 6 3.55 6.2 3.55 6.45C3.55 6.7 3.74 6.9 4 6.9ZM17 11.36C18.1 11.36 19 12.25 19 13.36L19 16.59C19 17.69 18.1 18.59 17 18.59L3 18.59C1.89 18.59 1 17.69 1 16.59L1 13.36C1 12.25 1.89 11.36 3 11.36L17 11.36ZM17 12.56C17.44 12.56 17.79 12.92 17.79 13.36L17.79 16.59C17.79 17.03 17.44 17.39 17 17.39L3 17.39C2.55 17.39 2.19 17.03 2.19 16.59L2.19 13.36C2.19 12.92 2.55 12.56 3 12.56L17 12.56ZM14.93 12.97C15.17 12.97 15.38 13.19 15.38 13.44L15.37 14.5L16.46 14.5C16.7 14.5 16.91 14.72 16.91 14.97C16.91 15.24 16.7 15.44 16.46 15.44L15.37 15.44L15.38 16.52C15.38 16.78 15.17 16.99 14.92 16.99C14.67 16.99 14.47 16.78 14.47 16.52L14.46 15.44L13.37 15.44C13.11 15.44 12.91 15.24 12.91 14.97C12.91 14.72 13.11 14.5 13.37 14.5L14.46 14.5L14.47 13.44C14.47 13.19 14.67 12.97 14.93 12.97Z" fill="#808080" fill-opacity="1.000000" fill-rule="evenodd"/>
</svg>
