<?xml version="1.0" encoding="utf-8"?>
<!-- Generator: Adobe Illustrator 26.0.2, SVG Export Plug-In . SVG Version: 6.00 Build 0)  -->
<svg version="1.1" id="图层_1" xmlns="http://www.w3.org/2000/svg" xmlns:xlink="http://www.w3.org/1999/xlink" x="0px" y="0px"
	 viewBox="0 0 44 44" style="enable-background:new 0 0 44 44;" xml:space="preserve">
<style type="text/css">
	.st0{fill-rule:evenodd;clip-rule:evenodd;fill:currentColor;}
</style>
<desc>Created with Pixso.</desc>
<path id="矢量_79" class="st0" d="M39,10.5c0-1.1-0.9-2-2-2H7c-1.1,0-2,0.9-2,2v8c0,1.1,0.9,2,2,2h30c1.1,0,2-0.9,2-2V10.5z
	 M38,10.5c0-0.6-0.5-1-1-1H7c-0.6,0-1,0.4-1,1v8c0,0.5,0.4,1,1,1h30c0.5,0,1-0.5,1-1V10.5z M10.5,14.5c0-0.3,0.2-0.5,0.5-0.5h6
	c0.3,0,0.5,0.2,0.5,0.5c0,0.3-0.2,0.5-0.5,0.5h-6C10.7,15,10.5,14.8,10.5,14.5z M39,25.5c0-1.1-0.9-2-2-2H7c-1.1,0-2,0.9-2,2v8
	c0,1.1,0.9,2,2,2h30c1.1,0,2-0.9,2-2V25.5z M38,25.5c0-0.6-0.5-1-1-1H7c-0.6,0-1,0.4-1,1v8c0,0.5,0.4,1,1,1h30c0.5,0,1-0.5,1-1V25.5
	z M30,26c0.3,0,0.5,0.2,0.5,0.5V29H33c0.3,0,0.5,0.2,0.5,0.5c0,0.3-0.2,0.5-0.5,0.5h-2.5v2.5c0,0.3-0.2,0.5-0.5,0.5
	s-0.5-0.2-0.5-0.5V30H27c-0.3,0-0.5-0.2-0.5-0.5c0-0.3,0.2-0.5,0.5-0.5h2.5v-2.5C29.5,26.2,29.7,26,30,26z"/>
</svg>
