<?xml version="1.0" encoding="utf-8"?>
<svg version="1.1" id="图层_1" xmlns="http://www.w3.org/2000/svg" xmlns:xlink="http://www.w3.org/1999/xlink" x="0px" y="0px"
	 viewBox="0 0 132 132" style="enable-background:new 0 0 132 132;" xml:space="preserve">
<style type="text/css">
	.st0{fill:none;}
	.st1{fill-rule:evenodd;clip-rule:evenodd;fill:#808080;}
</style>
<rect id="size" class="st0" width="132" height="132"/>
<path id="矢量_10" class="st1" d="M112.2,14.9c7.3,0,13.2,5.9,13.2,13.2v21.3c0,7.3-5.9,13.2-13.2,13.2H19.8
	c-7.3,0-13.2-5.9-13.2-13.2V28.1c0-7.3,5.9-13.2,13.2-13.2H112.2z M112.2,22.8c2.9,0,5.2,2.4,5.2,5.3v21.3c0,2.9-2.3,5.3-5.2,5.3
	H19.8c-3,0-5.3-2.4-5.3-5.3V28.1c0-2.9,2.4-5.3,5.3-5.3H112.2z M26.4,40h19.8c1.6,0,3-1.3,3-3c0-1.7-1.3-3-3-3H26.4
	c-1.7,0-3,1.3-3,3C23.4,38.7,24.7,40,26.4,40z M112.2,69.4c7.3,0,13.2,5.9,13.2,13.2v21.3c0,7.3-5.9,13.2-13.2,13.2H19.8
	c-7.3,0-13.2-5.9-13.2-13.2V82.6c0-7.3,5.9-13.2,13.2-13.2H112.2z M112.2,77.3c2.9,0,5.2,2.4,5.2,5.3v21.3c0,2.9-2.3,5.3-5.2,5.3
	H19.8c-3,0-5.3-2.4-5.3-5.3V82.6c0-2.9,2.4-5.3,5.3-5.3H112.2z M98.5,80c1.6,0,3,1.5,3,3.1l-0.1,7.1h7.2c1.6,0,3,1.4,3,3.1
	s-1.4,3.1-3,3.1h-7.2l0.1,7.1c0,1.7-1.4,3.1-3,3.1s-3-1.4-3-3.1l-0.1-7.1h-7.2c-1.7,0-3-1.4-3-3.1s1.3-3.1,3-3.1h7.2l0.1-7.1
	C95.5,81.5,96.8,80,98.5,80z"/>
</svg>
