<svg
  data-icon="OverflowScroll"
  aria-hidden="true"
  focusable="false"
  width="16"
  height="16"
  viewBox="0 0 16 16"
  version="1.1"
  xmlns="http://www.w3.org/2000/svg"
  style="display: block"
>
  <path
    fill-rule="evenodd"
    clip-rule="evenodd"
    d="M13 2v1l-1-1h1zM9 3l1-1H0v1h9zm0 10H0v1h10l-1-1zm4 0l-1 1h1v-1z"
    fill="currentColor"
  ></path>
  <path
    opacity=".6"
    fill-rule="evenodd"
    clip-rule="evenodd"
    d="M2 4h7v2H2V4zm0 3h7v2H2V7zm7 3H2v2h7v-2z"
    fill="currentColor"
  ></path>
  <path
    fill-rule="evenodd"
    clip-rule="evenodd"
    d="M10 4h2v8h-2l3 3 3-3h-2V4h2l-3-3-3 3z"
    fill="currentColor"
  ></path>
</svg>