<?xml version="1.0" encoding="utf-8"?>
<svg version="1.1" id="图层_1" xmlns="http://www.w3.org/2000/svg" xmlns:xlink="http://www.w3.org/1999/xlink" x="0px" y="0px"
	 viewBox="0 0 132 132" style="enable-background:new 0 0 132 132;" xml:space="preserve">
<style type="text/css">
	.st0{fill:none;}
	.st1{fill-rule:evenodd;clip-rule:evenodd;fill:currentColor;}
</style>
<rect id="size" class="st0" width="132" height="132"/>
<path class="st1" d="M34.8,97.5L22.9,87.4c-1.7-1.5-4.3-1.3-5.8,0.4c-1.5,1.8-1.3,4.4,0.4,5.9l18.6,15.9c0.9,0.7,1.9,1.1,3,1
	c1.2-0.1,2.1-0.6,2.9-1.4c0.2-0.4,0.5-0.8,0.7-1.2c0.2-0.5,0.3-1,0.3-1.5V25.5c0-1.2-0.4-2.1-1.2-3c-0.8-0.8-1.8-1.2-2.9-1.2
	c-0.5,0-1,0.1-1.5,0.2c-0.4,0.2-0.8,0.4-1.2,0.7L17.5,38.3c-1.7,1.5-1.9,4-0.4,5.8c1.5,1.8,4,2,5.8,0.5l11.9-10.1V97.5z M53.1,32.9
	c-2.3,0-4.1,1.8-4.1,4.1c0,2.3,1.8,4.1,4.1,4.1h59.2c2.3,0,4.1-1.8,4.1-4.1c0-2.3-1.8-4.1-4.1-4.1H53.1z M53.1,61.8h59.2
	c2.3,0,4.1,1.8,4.1,4.1c0,2.3-1.8,4.1-4.1,4.1H53.1c-2.3,0-4.1-1.8-4.1-4.1C49,63.6,50.8,61.8,53.1,61.8z M53.1,90.8h59.2
	c2.3,0,4.1,1.8,4.1,4.1s-1.8,4.1-4.1,4.1H53.1c-2.3,0-4.1-1.8-4.1-4.1S50.8,90.8,53.1,90.8z"/>
</svg>
