<svg
  viewBox="0 0 1024 1024"
  version="1.1"
  xmlns="http://www.w3.org/2000/svg"
  >
  <path
  d="M682.666667 256 341.333333 256C315.733333 256 298.666667 238.933333 298.666667 213.333333s17.066667-42.666667 42.666667-42.666667l341.333333 0c25.6 0 42.666667 17.066667 42.666667 42.666667S708.266667 256 682.666667 256zM682.666667 853.333333 341.333333 853.333333c-25.6 0-42.666667-17.066667-42.666667-42.666667s17.066667-42.666667 42.666667-42.666667l341.333333 0c25.6 0 42.666667 17.066667 42.666667 42.666667S708.266667 853.333333 682.666667 853.333333zM810.666667 725.333333c-25.6 0-42.666667-17.066667-42.666667-42.666667L768 341.333333c0-25.6 17.066667-42.666667 42.666667-42.666667s42.666667 17.066667 42.666667 42.666667l0 341.333333C853.333333 708.266667 836.266667 725.333333 810.666667 725.333333zM213.333333 725.333333c-25.6 0-42.666667-17.066667-42.666667-42.666667L170.666667 341.333333c0-25.6 17.066667-42.666667 42.666667-42.666667s42.666667 17.066667 42.666667 42.666667l0 341.333333C256 708.266667 238.933333 725.333333 213.333333 725.333333zM981.333333 1024 42.666667 1024c-25.6 0-42.666667-17.066667-42.666667-42.666667L0 42.666667c0-25.6 17.066667-42.666667 42.666667-42.666667l938.666667 0c25.6 0 42.666667 17.066667 42.666667 42.666667l0 938.666667C1024 1006.933333 1006.933333 1024 981.333333 1024zM85.333333 938.666667l853.333333 0L938.666667 85.333333 85.333333 85.333333 85.333333 938.666667z"
  ></path>
</svg>