<svg version="1.1" id="图层_1"
  xmlns="http://www.w3.org/2000/svg"
  xmlns:xlink="http://www.w3.org/1999/xlink" x="0px" y="0px" viewBox="0 0 64 64" style="enable-background:new 0 0 64 64;" xml:space="preserve">
  <style type="text/css">
	.st0{fill:currentcolor;}
  </style>
  <g>
    <polygon class="st0" points="12.8,24.5 10,21.7 0.1,31.6 10.4,41.9 13.2,39.1 5.8,31.6 	"/>
    <polygon class="st0" points="53.6,21.5 50.8,24.4 58.2,31.8 50.8,39.2 53.6,42.1 63.9,31.8 	"/>
    <path class="st0" d="M17.8,26.7v2.4c0.5-0.1,1.1-0.2,1.7-0.5c0.6-0.2,1.1-0.5,1.4-0.8v10.7h2.9V24.7H22
		C20.8,25.6,19.4,26.3,17.8,26.7z"/>
    <polygon class="st0" points="26.8,38.9 29.4,38.9 35,25 32.4,25 	"/>
    <path class="st0" d="M43.5,31.4c0.7-0.3,1.3-0.7,1.7-1.3c0.4-0.5,0.6-1.1,0.6-1.8c0-0.7-0.2-1.3-0.6-1.8c-0.4-0.6-0.9-1-1.6-1.3
		c-0.7-0.3-1.4-0.5-2.3-0.5c-0.8,0-1.6,0.2-2.2,0.5c-0.7,0.3-1.2,0.7-1.6,1.3c-0.4,0.6-0.6,1.2-0.6,1.9c0,0.7,0.2,1.2,0.6,1.8
		c0.4,0.5,0.9,1,1.6,1.3c-0.9,0.3-1.5,0.7-2,1.4s-0.7,1.3-0.7,2.1c0,1.1,0.4,2.1,1.3,2.8s2.1,1.1,3.5,1.1s2.6-0.4,3.5-1.1
		S46,36.1,46,35c0-0.8-0.2-1.5-0.7-2.1S44.3,31.7,43.5,31.4z M40.2,27.4c0.3-0.4,0.7-0.5,1.2-0.5s0.9,0.2,1.2,0.5
		c0.3,0.4,0.5,0.8,0.5,1.3s-0.2,0.9-0.5,1.3s-0.7,0.5-1.2,0.5s-0.9-0.2-1.2-0.5c-0.3-0.4-0.5-0.8-0.5-1.3
		C39.8,28.2,39.9,27.7,40.2,27.4z M42.8,36.2c-0.4,0.4-0.9,0.6-1.4,0.6c-0.6,0-1.1-0.2-1.5-0.6s-0.5-0.9-0.5-1.5s0.2-1.1,0.6-1.5
		c0.4-0.4,0.9-0.6,1.4-0.6c0.6,0,1.1,0.2,1.4,0.6c0.4,0.4,0.6,0.9,0.6,1.5C43.4,35.3,43.2,35.8,42.8,36.2z"/>
  </g>
</svg>
