<?xml version="1.0" encoding="utf-8"?>
<!-- Generator: Adobe Illustrator 26.0.2, SVG Export Plug-In . SVG Version: 6.00 Build 0)  -->
<svg version="1.1" id="图层_1" xmlns="http://www.w3.org/2000/svg" xmlns:xlink="http://www.w3.org/1999/xlink" x="0px" y="0px"
	 viewBox="0 0 44 44" style="enable-background:new 0 0 44 44;" xml:space="preserve">
<style type="text/css">
	.st0{fill-rule:evenodd;clip-rule:evenodd;fill:currentColor;}
</style>
<desc>Created with Pixso.</desc>
<path id="矢量_111" class="st0" d="M23,16c0.3,0.1,0.4,0.4,0.3,0.6l-3.5,11.5c-0.1,0.3-0.4,0.4-0.6,0.3c-0.3-0.1-0.4-0.4-0.3-0.6
	l3.5-11.5C22.5,16.1,22.7,15.9,23,16z M17.3,27.5V16.7h-1.4c-0.9,0.7-2,1.2-3.2,1.6v1.9c0.4,0,0.8-0.2,1.3-0.4
	c0.5-0.2,0.8-0.4,1.1-0.6v8.3H17.3z M27.4,25.7h4.5v1.8h-7v-0.8c0-0.5,0.1-1,0.3-1.5c0.2-0.5,0.5-0.9,0.8-1.3
	c0.3-0.4,0.9-0.9,1.6-1.4c0.7-0.5,1.2-1,1.4-1.4c0.2-0.3,0.3-0.6,0.4-0.9c0-0.1,0-0.2,0-0.4c0-0.4-0.1-0.8-0.3-1
	c-0.3-0.3-0.7-0.4-1.2-0.4c-0.9,0-1.8,0.4-2.6,1.1v-2c0.9-0.6,2-0.9,3.1-0.9c1.1,0,1.9,0.3,2.5,0.8c0.2,0.2,0.3,0.3,0.5,0.5
	c0.3,0.5,0.5,1,0.5,1.7c0,0.5-0.1,1-0.3,1.4c-0.2,0.4-0.4,0.8-0.8,1.2c-0.3,0.4-0.9,0.8-1.6,1.4c-0.7,0.5-1.2,0.9-1.5,1.2
	C27.6,25.2,27.4,25.5,27.4,25.7z M38,17.7c-0.2-0.2-0.5-0.2-0.7,0c-0.2,0.2-0.2,0.5,0,0.7l3.9,3.9l-3.9,3.9c-0.2,0.2-0.2,0.5,0,0.7
	c0.2,0.2,0.5,0.2,0.7,0l4.2-4.2c0.1-0.1,0.2-0.2,0.2-0.4c0-0.1-0.1-0.2-0.2-0.4L38,17.7z M5.4,17.9c0.2-0.2,0.5-0.2,0.7,0
	c0.2,0.2,0.2,0.5,0,0.7l-3.9,3.9l3.9,3.9c0.2,0.2,0.2,0.5,0,0.7c-0.2,0.2-0.5,0.2-0.7,0l-4.2-4.2C1,22.7,1,22.6,1,22.5
	c0-0.1,0-0.2,0.2-0.4L5.4,17.9z"/>
</svg>
