<?xml version="1.0" encoding="utf-8"?>
<!-- Generator: Adobe Illustrator 26.0.2, SVG Export Plug-In . SVG Version: 6.00 Build 0)  -->
<svg version="1.1" id="图层_1" xmlns="http://www.w3.org/2000/svg" xmlns:xlink="http://www.w3.org/1999/xlink" x="0px" y="0px"
	 viewBox="0 0 24 24" style="enable-background:new 0 0 24 24;" xml:space="preserve">
<g>
	<path d="M9.6,14.2c0,1.5-0.4,2.4-1,3.1c-0.6,0.6-1.4,0.9-2.5,0.9s-1.9-0.3-2.5-0.9c-0.4-0.5-0.7-1.1-0.8-2c0-0.4,0.2-0.8,0.7-0.9
		l0,0c0.4-0.1,0.8,0.2,0.9,0.6c0.1,0.4,0.2,0.9,0.4,1.1c0.3,0.4,0.8,0.6,1.4,0.6c0.5,0,1-0.1,1.2-0.4c0.3-0.3,0.4-0.6,0.5-0.9
		C8,15.1,8,14.6,8,14.1V6.7c0-0.4,0.4-0.8,0.8-0.8l0,0c0.4,0,0.8,0.4,0.8,0.8V14.2L9.6,14.2z"/>
	<path d="M20.1,9.4c-0.4,0-0.7-0.2-0.8-0.6c-0.1-0.5-0.4-0.8-0.7-1.1c-0.5-0.4-1.2-0.6-2.1-0.6c-0.8,0-1.5,0.2-2,0.5
		S13.7,8.4,13.7,9c0,0.5,0.2,0.9,0.6,1.2c0.4,0.3,1.2,0.5,2.3,0.8c1,0.2,1.8,0.4,2.5,0.7c0.6,0.2,1.2,0.6,1.6,1.1
		c0.5,0.5,0.7,1.1,0.7,2c0,1-0.4,1.9-1.2,2.6c-0.8,0.7-1.9,1-3.3,1c-1.7,0-3-0.4-3.8-1.1c-0.6-0.6-1-1.3-1.2-2.1
		c-0.1-0.5,0.2-0.9,0.7-1l0,0c0.4,0,0.7,0.2,0.8,0.6c0.2,0.7,0.5,1.1,1,1.5c0.7,0.4,1.5,0.7,2.5,0.7c0.9,0,1.6-0.2,2.2-0.6
		s0.8-0.9,0.8-1.5c0-0.7-0.3-1.1-0.9-1.5c-0.6-0.3-1.6-0.6-2.9-0.9c-1.4-0.3-2.4-0.7-3-1.2s-0.9-1.2-0.9-2.1c0-1,0.4-1.8,1.1-2.4
		s1.8-1,3.1-1c1.4,0,2.4,0.3,3.3,1c0.6,0.5,1,1.1,1.2,1.8C20.9,8.9,20.6,9.3,20.1,9.4L20.1,9.4z"/>
</g>
</svg>
