<?xml version="1.0" encoding="utf-8"?>
<svg version="1.1" id="图层_1" xmlns="http://www.w3.org/2000/svg" xmlns:xlink="http://www.w3.org/1999/xlink" x="0px" y="0px"
	 viewBox="0 0 132 132" style="enable-background:new 0 0 132 132;" xml:space="preserve">
<style type="text/css">
	.st0{fill:none;}
	.st1{fill-rule:evenodd;clip-rule:evenodd;fill:currentColor;}
</style>
<rect id="size" x="-1" class="st0" width="132" height="132"/>
<path id="矢量_11" class="st1" d="M92.9,14.1c-0.7-0.1-1.5-0.2-2.2-0.2H18.2c-0.7,0-1.5,0.1-2.3,0.2c-0.7,0.1-1.2,0.4-1.9,0.6
	c-0.6,0.3-1.2,0.6-1.8,1c-0.6,0.4-1.1,0.9-1.6,1.4c-0.5,0.5-1,1-1.4,1.6c-0.4,0.6-0.7,1.2-1,1.8c-0.2,0.6-0.4,1.2-0.6,1.9
	c-0.1,0.7-0.2,1.5-0.2,2.3V30c0,0.8,0.1,1.5,0.2,2.3c0.1,0.7,0.3,1.3,0.6,1.9c0.3,0.7,0.6,1.2,1,1.8c0.4,0.6,0.9,1.2,1.4,1.7
	c0.5,0.5,1,1,1.6,1.3c0.6,0.4,1.2,0.7,1.8,1c0.7,0.3,1.2,0.5,1.9,0.6c0.7,0.2,1.5,0.3,2.3,0.3h72.5c0.7,0,1.5-0.1,2.2-0.3
	c0.7-0.1,1.3-0.3,1.9-0.6c0.7-0.2,1.2-0.6,1.8-1c0.6-0.4,1.2-0.8,1.7-1.3s1-1.1,1.3-1.7c0.4-0.5,0.7-1.1,1-1.8
	c0.3-0.6,0.5-1.2,0.6-1.9c0.2-0.7,0.3-1.5,0.3-2.3v-5.4c0-0.8-0.1-1.5-0.3-2.3c-0.1-0.7-0.3-1.3-0.6-1.9c-0.2-0.6-0.6-1.2-1-1.8
	s-0.8-1.1-1.3-1.6c-0.5-0.5-1.1-1-1.7-1.4c-0.5-0.4-1.1-0.7-1.8-1C94.2,14.5,93.5,14.3,92.9,14.1z M18.2,22.1h72.5
	c0.3,0,0.6,0.1,0.9,0.2c0.3,0.2,1.2,1,1.4,1.3l0,0c0.1,0.3,0.1,0.6,0.1,1V30c0,0.4-0.1,0.7-0.1,1c-0.3,0.3-1.1,1.2-1.4,1.4
	c-0.3,0.1-0.6,0.1-0.9,0.1H18.2c-0.3,0-0.7-0.1-1-0.1c-0.2-0.3-1.2-1.1-1.3-1.4l0,0c-0.1-0.3-0.2-0.6-0.2-1v-5.4
	c0-0.3,0.1-0.7,0.2-1l0,0c0.2-0.2,1-1.2,1.3-1.3C17.6,22.2,17.9,22.1,18.2,22.1z M114,52.8c-0.7-0.1-1.5-0.2-2.3-0.2H39.3
	c-0.8,0-1.5,0.1-2.3,0.2c-0.7,0.1-1.3,0.4-1.9,0.6c-0.7,0.3-1.2,0.6-1.8,1c-0.6,0.4-1.2,0.9-1.7,1.4c-0.5,0.5-1,1-1.3,1.6
	c-0.4,0.6-0.7,1.2-1,1.8c-0.3,0.7-0.5,1.2-0.6,1.9c-0.2,0.7-0.3,1.5-0.3,2.3v5.5c0,0.7,0.1,1.5,0.3,2.3c0.1,0.7,0.3,1.2,0.6,1.9
	c0.2,0.6,0.6,1.2,1,1.8c0.4,0.6,0.8,1.1,1.3,1.6c0.5,0.5,1.1,1,1.7,1.4c0.5,0.4,1.1,0.7,1.8,1c0.6,0.2,1.2,0.4,1.9,0.6
	c0.7,0.1,1.5,0.2,2.3,0.2h72.4c0.7,0,1.5-0.1,2.3-0.2c0.7-0.1,1.2-0.4,1.9-0.6c0.6-0.3,1.2-0.6,1.8-1c0.6-0.4,1.1-0.9,1.6-1.4
	c0.5-0.5,1-1,1.4-1.6c0.4-0.6,0.7-1.2,1-1.8c0.2-0.7,0.4-1.2,0.6-1.9c0.1-0.7,0.2-1.5,0.2-2.3v-5.5c0-0.7-0.1-1.5-0.2-2.3
	c-0.1-0.7-0.4-1.2-0.6-1.9c-0.3-0.6-0.6-1.2-1-1.8c-0.4-0.6-0.9-1.1-1.4-1.6c-0.5-0.5-1-1-1.6-1.4c-0.6-0.4-1.2-0.7-1.8-1
	C115.2,53.1,114.7,52.9,114,52.8z M39.3,60.8h72.4c0.4,0,0.7,0.1,1,0.2c0.2,0.2,1.2,1,1.3,1.3l0,0c0.1,0.3,0.2,0.6,0.2,1v5.5
	c0,0.3-0.1,0.7-0.2,1c-0.2,0.2-1,1.2-1.3,1.3c-0.3,0.1-0.6,0.2-1,0.2H39.3c-0.4,0-0.7-0.1-1-0.2c-0.3-0.2-1.2-1-1.4-1.3
	c-0.1-0.3-0.1-0.7-0.1-1v-5.5c0-0.3,0-0.7,0.1-1l0,0c0.3-0.2,1.1-1.2,1.4-1.3C38.7,60.8,39,60.8,39.3,60.8z M111.7,91.2
	c0.7,0,1.5,0.1,2.3,0.3c0.7,0.1,1.2,0.3,1.9,0.6c0.6,0.2,1.2,0.6,1.8,1c0.6,0.4,1.1,0.8,1.6,1.3c0.5,0.5,1,1.1,1.4,1.7
	c0.4,0.5,0.7,1.1,1,1.8c0.2,0.6,0.4,1.2,0.6,1.9c0.1,0.7,0.2,1.5,0.2,2.3v5.4c0,0.8-0.1,1.5-0.2,2.3c-0.1,0.7-0.4,1.3-0.6,1.9
	c-0.3,0.6-0.6,1.2-1,1.8c-0.4,0.6-0.9,1.2-1.4,1.6c-0.5,0.6-1,1-1.6,1.4c-0.6,0.4-1.2,0.7-1.8,1c-0.7,0.2-1.2,0.4-1.9,0.6
	c-0.7,0.1-1.5,0.2-2.3,0.2H39.3c-0.8,0-1.5-0.1-2.3-0.2c-0.7-0.1-1.3-0.4-1.9-0.6c-0.7-0.3-1.2-0.6-1.8-1c-0.6-0.4-1.2-0.8-1.7-1.4
	c-0.5-0.4-1-1-1.3-1.6c-0.4-0.6-0.7-1.2-1-1.8c-0.3-0.6-0.5-1.2-0.6-1.9c-0.2-0.7-0.3-1.5-0.3-2.3V102c0-0.8,0.1-1.5,0.3-2.3
	c0.1-0.7,0.3-1.3,0.6-1.9c0.2-0.7,0.6-1.2,1-1.8c0.4-0.6,0.8-1.2,1.3-1.7c0.5-0.5,1.1-1,1.7-1.3c0.5-0.4,1.1-0.7,1.8-1
	c0.6-0.3,1.2-0.5,1.9-0.6c0.7-0.2,1.5-0.3,2.3-0.3H111.7z M111.7,99.5H39.3c-0.4,0-0.7,0.1-1,0.1c-0.3,0.1-1.1,1.1-1.4,1.4
	c-0.1,0.3-0.1,0.6-0.1,1v5.4c0,0.3,0,0.7,0.1,1l0,0c0.1,0.3,1.1,1.1,1.4,1.3c0.3,0.1,0.6,0.2,1,0.2h72.4c0.4,0,0.7-0.1,1-0.2
	c0.3-0.1,1.1-1.1,1.3-1.3c0.1-0.3,0.2-0.6,0.2-1V102c0-0.4-0.1-0.7-0.2-1c-0.1-0.3-1.1-1.1-1.3-1.4
	C112.4,99.5,112.1,99.5,111.7,99.5z"/>
</svg>
