<svg width="18.000000" height="18.000000" viewBox="0 0 18 18" fill="none" xmlns="http://www.w3.org/2000/svg" xmlns:xlink="http://www.w3.org/1999/xlink">
	<desc>
			Created with Pixso.
	</desc>
	<defs/>
	<mask id="mask439_9971" mask-type="alpha" maskUnits="userSpaceOnUse" x="0.000000" y="0.000000" width="18.000000" height="18.000000">
		<rect id="帮助-help" width="18.000000" height="18.000000" fill="#000000" fill-opacity="1.000000"/>
	</mask>
	<g mask="url(#mask439_9971)">
		<path id="形状结合" d="M9 1.12C13.34 1.12 16.87 4.64 16.87 9C16.87 13.34 13.34 16.87 9 16.87C4.64 16.87 1.12 13.34 1.12 9C1.12 4.64 4.64 1.12 9 1.12ZM9 2.25C5.26 2.25 2.25 5.26 2.25 9C2.25 12.72 5.26 15.75 9 15.75C12.72 15.75 15.75 12.72 15.75 9C15.75 5.26 12.72 2.25 9 2.25ZM8.92 11.91C9.27 11.91 9.56 12.19 9.56 12.54C9.56 12.89 9.27 13.17 8.92 13.17C8.57 13.17 8.29 12.89 8.29 12.54C8.29 12.19 8.57 11.91 8.92 11.91ZM8.96 5.06C10.35 5.06 11.47 6.17 11.47 7.55C11.47 8.69 10.71 9.65 9.66 9.95L9.52 9.98L9.52 10.86C9.52 11.13 9.33 11.37 9.06 11.41C8.76 11.41 8.4 11.17 8.4 10.86L8.4 9.48C8.4 9.17 8.66 8.92 8.96 8.92C9.73 8.92 10.35 8.31 10.35 7.55C10.35 6.79 9.73 6.18 8.96 6.18C8.2 6.18 7.59 6.79 7.59 7.55C7.59 7.86 7.33 8.12 7.03 8.12C6.71 8.12 6.46 7.86 6.46 7.55C6.46 6.17 7.58 5.06 8.96 5.06Z" fill="#191919" fill-opacity="1.000000" fill-rule="nonzero"/>
	</g>
</svg>
