<svg width="18.000000" height="18.000000" viewBox="0 0 18 18" fill="none" xmlns="http://www.w3.org/2000/svg" xmlns:xlink="http://www.w3.org/1999/xlink">
	<desc>
			Created with Pixso.
	</desc>
	<defs/>
	<rect id="矩形 288" width="18.000000" height="18.000000" fill="#C4C4C4" fill-opacity="0"/>
	<path id="矢量 12" d="M5.99 1.19C5.8 1.14 5.59 1.12 5.39 1.12L3.93 1.12C3.73 1.12 3.52 1.14 3.33 1.19C3.16 1.22 3 1.27 2.84 1.34C2.68 1.41 2.53 1.49 2.38 1.58Q2.37 1.6 2.35 1.61L2.35 1.61L2.35 1.61L2.35 1.61Q2.13 1.75 1.94 1.94C1.81 2.08 1.69 2.23 1.58 2.38C1.49 2.53 1.41 2.68 1.34 2.84C1.27 3 1.22 3.16 1.19 3.33C1.14 3.52 1.12 3.73 1.12 3.93L1.12 5.39C1.12 5.59 1.14 5.79 1.19 5.99C1.22 6.16 1.27 6.32 1.34 6.48C1.41 6.64 1.49 6.79 1.58 6.93C1.69 7.09 1.81 7.24 1.94 7.37C2.08 7.51 2.23 7.63 2.38 7.73C2.53 7.83 2.68 7.91 2.84 7.98C3 8.04 3.16 8.1 3.33 8.13C3.52 8.18 3.73 8.2 3.93 8.2L5.39 8.2C5.59 8.2 5.8 8.18 5.99 8.13C6.16 8.1 6.32 8.04 6.48 7.98C6.64 7.91 6.79 7.83 6.94 7.73C7.09 7.63 7.24 7.51 7.38 7.37C7.51 7.24 7.63 7.09 7.73 6.93C7.83 6.79 7.91 6.64 7.98 6.48C8.05 6.32 8.1 6.16 8.13 5.99C8.18 5.79 8.2 5.59 8.2 5.39L8.2 3.93C8.2 3.73 8.18 3.52 8.13 3.33C8.1 3.16 8.05 3 7.98 2.84C7.91 2.68 7.83 2.53 7.73 2.38C7.63 2.23 7.51 2.08 7.38 1.94C7.24 1.81 7.09 1.69 6.94 1.58C6.79 1.49 6.64 1.41 6.48 1.34C6.32 1.27 6.16 1.22 5.99 1.19ZM13.16 1.12C11.21 1.12 9.63 2.7 9.63 4.66C9.63 6.61 11.21 8.2 13.16 8.2C15.12 8.2 16.7 6.61 16.7 4.66C16.7 2.7 15.12 1.12 13.16 1.12ZM3.93 2.25L5.39 2.25C5.52 2.25 5.64 2.26 5.77 2.29C5.86 2.31 5.95 2.34 6.04 2.38C6.14 2.42 6.22 2.46 6.31 2.52C6.4 2.58 6.5 2.65 6.58 2.74C6.66 2.82 6.74 2.91 6.8 3.01C6.86 3.1 6.9 3.18 6.94 3.28C6.98 3.37 7.01 3.46 7.03 3.55C7.06 3.67 7.07 3.8 7.07 3.93L7.07 5.39C7.07 5.52 7.06 5.64 7.03 5.77C7.01 5.86 6.98 5.95 6.94 6.04C6.9 6.14 6.86 6.22 6.8 6.31C6.74 6.4 6.66 6.49 6.58 6.58C6.5 6.66 6.4 6.74 6.31 6.8C6.22 6.86 6.14 6.9 6.04 6.94C5.95 6.98 5.86 7.01 5.77 7.03C5.64 7.06 5.52 7.07 5.39 7.07L3.93 7.07C3.8 7.07 3.67 7.06 3.55 7.03C3.46 7.01 3.37 6.98 3.28 6.94C3.18 6.9 3.1 6.86 3.01 6.8C2.92 6.74 2.82 6.66 2.74 6.58C2.66 6.49 2.58 6.4 2.52 6.31C2.46 6.22 2.42 6.14 2.38 6.04C2.34 5.95 2.31 5.86 2.29 5.77C2.26 5.64 2.25 5.52 2.25 5.39L2.25 3.93C2.25 3.8 2.26 3.67 2.29 3.55C2.31 3.46 2.34 3.37 2.38 3.28C2.42 3.18 2.46 3.1 2.52 3.01C2.58 2.91 2.66 2.82 2.74 2.74C2.82 2.65 2.92 2.58 3.01 2.52C3.1 2.46 3.18 2.42 3.28 2.38C3.37 2.34 3.46 2.31 3.55 2.29C3.67 2.26 3.8 2.25 3.93 2.25ZM13.16 2.25C11.83 2.25 10.75 3.33 10.75 4.66C10.75 5.99 11.83 7.07 13.16 7.07C14.5 7.07 15.58 5.99 15.58 4.66C15.58 3.33 14.5 2.25 13.16 2.25ZM15.95 11.4C15.84 11.22 15.71 11.07 15.56 10.92L14.9 10.25Q14.68 10.04 14.43 9.88L14.43 9.88Q14.43 9.87 14.42 9.87C14.28 9.78 14.13 9.7 13.97 9.64C13.81 9.57 13.64 9.52 13.47 9.49C13.29 9.45 13.1 9.43 12.91 9.43C12.72 9.43 12.53 9.45 12.34 9.49C12.18 9.52 12.01 9.57 11.85 9.64C11.69 9.7 11.54 9.78 11.4 9.87Q11.39 9.87 11.39 9.88L11.39 9.88Q11.14 10.04 10.92 10.25L10.25 10.92C10.11 11.07 9.98 11.22 9.87 11.4C9.78 11.54 9.7 11.69 9.64 11.85C9.57 12.01 9.52 12.18 9.49 12.34C9.45 12.53 9.43 12.72 9.43 12.91C9.43 13.1 9.45 13.29 9.49 13.47C9.52 13.64 9.57 13.81 9.64 13.97C9.7 14.13 9.78 14.28 9.87 14.42C9.98 14.59 10.11 14.75 10.25 14.9L10.92 15.56C11.07 15.71 11.22 15.84 11.4 15.95C11.54 16.04 11.69 16.12 11.85 16.18C12.01 16.25 12.18 16.3 12.34 16.33C12.53 16.37 12.72 16.39 12.91 16.39C13.1 16.39 13.29 16.37 13.47 16.33C13.64 16.3 13.81 16.25 13.97 16.18C14.13 16.12 14.28 16.04 14.42 15.95C14.59 15.84 14.75 15.71 14.9 15.56L15.56 14.9C15.71 14.75 15.84 14.59 15.95 14.42C16.04 14.28 16.12 14.13 16.18 13.97C16.25 13.81 16.3 13.64 16.33 13.47C16.37 13.29 16.39 13.1 16.39 12.91C16.39 12.72 16.37 12.53 16.33 12.34C16.3 12.18 16.25 12.01 16.18 11.85C16.12 11.69 16.04 11.54 15.95 11.4ZM5.22 10.19C5.22 9.87 4.97 9.62 4.66 9.62C4.34 9.62 4.1 9.87 4.1 10.19L4.1 12.6L1.68 12.6C1.37 12.6 1.12 12.85 1.12 13.16C1.12 13.48 1.37 13.73 1.68 13.73L4.1 13.73L4.1 16.14C4.1 16.46 4.34 16.7 4.66 16.7C4.97 16.7 5.22 16.46 5.22 16.14L5.22 13.73L7.64 13.73C7.95 13.73 8.2 13.48 8.2 13.16C8.2 12.85 7.95 12.6 7.64 12.6L5.22 12.6L5.22 10.19ZM14.1 11.05L14.77 11.72C14.86 11.81 14.94 11.91 15.01 12.02C15.06 12.1 15.1 12.18 15.14 12.27C15.18 12.37 15.21 12.46 15.23 12.56C15.25 12.67 15.26 12.79 15.26 12.91C15.26 13.03 15.25 13.14 15.23 13.26C15.21 13.36 15.18 13.45 15.14 13.54C15.1 13.63 15.06 13.72 15.01 13.8C14.94 13.91 14.86 14.01 14.77 14.1L14.1 14.77Q13.96 14.91 13.8 15.01C13.72 15.06 13.63 15.1 13.54 15.14C13.45 15.18 13.36 15.21 13.26 15.23C13.15 15.25 13.03 15.26 12.91 15.26C12.79 15.26 12.67 15.25 12.56 15.23C12.46 15.21 12.37 15.18 12.27 15.14C12.18 15.1 12.1 15.06 12.02 15.01C11.91 14.94 11.81 14.86 11.72 14.77L11.05 14.1C10.96 14.01 10.88 13.91 10.81 13.8C10.76 13.72 10.71 13.63 10.68 13.54C10.64 13.45 10.61 13.36 10.59 13.26C10.57 13.14 10.55 13.03 10.55 12.91C10.55 12.79 10.57 12.67 10.59 12.56C10.61 12.46 10.64 12.37 10.68 12.27C10.71 12.18 10.76 12.1 10.81 12.02C10.88 11.91 10.96 11.81 11.05 11.72L11.72 11.05C11.81 10.96 11.91 10.88 12.02 10.81C12.1 10.76 12.18 10.71 12.27 10.68Q12.38 10.63 12.49 10.61Q12.53 10.6 12.56 10.59C12.67 10.57 12.79 10.55 12.91 10.55C13.03 10.55 13.14 10.57 13.26 10.59C13.36 10.61 13.45 10.64 13.54 10.68C13.63 10.71 13.72 10.76 13.8 10.81C13.91 10.88 14.01 10.96 14.1 11.05Z" fill="#191919" fill-opacity="1.000000" fill-rule="evenodd"/>
</svg>
