<svg width="18.000000" height="18.000000" viewBox="0 0 18 18" fill="none" xmlns="http://www.w3.org/2000/svg" xmlns:xlink="http://www.w3.org/1999/xlink">
	<desc>
			Created with Pixso.
	</desc>
	<defs/>
	<rect id="矩形 25" width="18.000000" height="18.000000" fill="#C4C4C4" fill-opacity="0"/>
	<path id="矢量 7 (边框)" d="M10.86 2.35L8.23 15.85C8.17 16.16 7.88 16.36 7.58 16.3C7.27 16.24 7.07 15.95 7.13 15.64L9.76 2.14C9.82 1.83 10.11 1.63 10.41 1.69C10.72 1.75 10.92 2.04 10.86 2.35ZM5.46 5.34L1.9 9L5.46 12.65C5.68 12.88 5.68 13.23 5.45 13.45C5.22 13.67 4.87 13.66 4.65 13.44L0.87 9.54C0.79 9.47 0.74 9.38 0.7 9.29C0.66 9.2 0.65 9.1 0.65 9C0.65 8.89 0.66 8.79 0.7 8.7C0.74 8.61 0.79 8.52 0.87 8.45L4.65 4.55C4.87 4.33 5.22 4.32 5.45 4.54C5.68 4.76 5.68 5.11 5.46 5.34ZM13.34 4.55C13.12 4.33 12.77 4.32 12.54 4.54C12.31 4.76 12.31 5.11 12.53 5.34L16.09 9L12.53 12.65C12.31 12.88 12.31 13.23 12.54 13.45C12.77 13.67 13.12 13.66 13.34 13.44L17.12 9.54C17.2 9.47 17.25 9.38 17.29 9.29C17.33 9.2 17.34 9.1 17.34 9C17.34 8.89 17.33 8.79 17.29 8.7C17.25 8.61 17.2 8.52 17.12 8.45L13.34 4.55Z" fill="#191919" fill-opacity="1.000000" fill-rule="evenodd"/>
</svg>
