<?xml version="1.0" encoding="utf-8"?>
<!-- Generator: Adobe Illustrator 26.0.2, SVG Export Plug-In . SVG Version: 6.00 Build 0)  -->
<svg version="1.1" id="图层_1" xmlns="http://www.w3.org/2000/svg" xmlns:xlink="http://www.w3.org/1999/xlink" x="0px" y="0px"
	 viewBox="0 0 24 24" style="enable-background:new 0 0 24 24;" xml:space="preserve">
<style type="text/css">
	.st0{fill-rule:evenodd;clip-rule:evenodd;}
</style>
<g>
	<polygon class="st0" points="8.3,9.4 7.1,13.3 6,9.4 4.6,9.4 6.3,15 7.7,15 9.3,9.4 	"/>
	<path class="st0" d="M10.8,9.4L9,15h1.2l0.4-1.2h1.8l0.4,1.2h1.4l-1.8-5.6H10.8z M10.8,12.9l0.6-1.9l0.6,1.9H10.8z"/>
	<path class="st0" d="M19.1,11.1c0-0.4,0-0.6-0.2-1c-0.2-0.4-0.5-0.5-0.7-0.6s-0.6-0.1-1.1-0.1h-2.5v5.5h1.3v-2h1.1l0.8,2.1h1.4
		l-1.1-2.5C18.7,12.3,19.1,11.8,19.1,11.1z M17.7,11.6c-0.1,0.1-0.2,0.2-0.4,0.2s-0.4,0-0.6,0h-0.8v-1.3h0.8c0.2,0,0.5,0,0.6,0
		s0.2,0.1,0.4,0.2s0.1,0.2,0.1,0.4C17.8,11.3,17.8,11.4,17.7,11.6z"/>
	<path class="st0" d="M21.8,7.7c0-0.6-0.2-1.2-0.5-1.7c0,0,0-0.1,0-0.1c0-0.1-0.1-0.1-0.1-0.1c0,0-0.1-0.1-0.1-0.1
		c-0.1-0.2-0.3-0.3-0.4-0.5c0,0,0,0,0,0c-0.1-0.1-0.3-0.3-0.5-0.4c0,0-0.1-0.1-0.1-0.1c-0.2-0.1-0.3-0.2-0.5-0.3c0,0,0,0,0,0
		c-0.2-0.1-0.4-0.1-0.6-0.2c-0.1,0-0.1,0-0.2,0c-0.2,0-0.4-0.1-0.6-0.1H5.6l-0.2,0c-2,0.1-3.6,1.7-3.6,3.7v7.5v1l0,0.2
		c0,0.6,0.2,1.2,0.5,1.7c0,0,0,0.1,0,0.1c0,0.1,0.1,0.1,0.1,0.1c0,0,0.1,0.1,0.1,0.1c0.1,0.2,0.3,0.3,0.4,0.5c0,0,0,0,0,0
		c0.1,0.1,0.3,0.3,0.5,0.4c0,0,0.1,0.1,0.1,0.1c0.2,0.1,0.3,0.2,0.5,0.3c0,0,0,0,0,0C4.4,19.9,4.6,20,4.8,20c0.1,0,0.1,0,0.2,0
		c0.2,0,0.4,0.1,0.6,0.1h12.5l0.2,0c2-0.1,3.6-1.7,3.6-3.7V8.9v-1L21.8,7.7z M20.3,8.9v7.5l0,0.2c-0.1,1.2-1.1,2.1-2.2,2.1H5.6
		l-0.2,0c0,0-0.1,0-0.1,0c-0.1,0-0.3,0-0.4-0.1c-0.1,0-0.1,0-0.1-0.1c-0.1,0-0.2-0.1-0.3-0.1c0,0-0.1-0.1-0.1-0.1
		c-0.1-0.1-0.2-0.1-0.3-0.2C4.1,18,4,18,4,17.9c-0.1-0.1-0.2-0.2-0.3-0.4c-0.2-0.3-0.3-0.8-0.3-1.2v-1V7.9l0-0.2
		c0.1-1.2,1.1-2.1,2.2-2.1h12.5l0.2,0c0,0,0.1,0,0.1,0c0.1,0,0.3,0,0.4,0.1c0.1,0,0.1,0,0.1,0.1c0.1,0,0.2,0.1,0.3,0.1
		c0,0,0.1,0.1,0.1,0.1c0.1,0.1,0.2,0.1,0.3,0.2c0,0,0.1,0.1,0.1,0.1c0.1,0.1,0.2,0.2,0.3,0.4c0.2,0.3,0.3,0.8,0.3,1.2V8.9z"/>
</g>
</svg>
