<?xml version="1.0" encoding="utf-8"?>
<svg version="1.1" id="图层_1" xmlns="http://www.w3.org/2000/svg" xmlns:xlink="http://www.w3.org/1999/xlink" x="0px" y="0px"
	 viewBox="0 0 132 132" style="enable-background:new 0 0 132 132;" xml:space="preserve">
<style type="text/css">
	.st0{fill:none;}
	.st1{fill:currentColor;}
</style>
<rect id="size" class="st0" width="132" height="132"/>
<path id="形状结合" class="st1" d="M82,28.9c9.5,0,17.2,7.7,17.2,17.2v41.8c0,9.5-7.7,17.2-17.2,17.2H25.5
	c-9.5,0-17.2-7.7-17.2-17.2V46.1c0-9.5,7.7-17.2,17.2-17.2H82z M82,37.1H25.5c-4.9,0-9,4-9,9v41.8c0,4.9,4,9,9,9H82c4.9,0,9-4,9-9
	V46.1C90.9,41.1,86.9,37.1,82,37.1z M114.7,40.8c4.4-2.3,9.9-0.6,12.2,3.8c0.7,1.3,1,2.7,1,4.2v36.3c0,5-4,9-9,9
	c-1.5,0-2.9-0.4-4.2-1l-9.9-5.2c-2-1.1-2.8-3.5-1.8-5.6s3.5-2.8,5.6-1.8l9.9,5.2c0.1,0.1,0.2,0.1,0.4,0.1c0.4,0,0.8-0.4,0.8-0.8
	V48.8c0-0.1,0-0.3-0.1-0.4c-0.2-0.4-0.7-0.5-1.1-0.3l-9.9,5.2c-2,1.1-4.5,0.3-5.6-1.8c-1.1-2-0.3-4.5,1.8-5.6L114.7,40.8z"/>
</svg>
