<?xml version="1.0" encoding="utf-8"?>
<svg version="1.1" id="图层_1" xmlns="http://www.w3.org/2000/svg" xmlns:xlink="http://www.w3.org/1999/xlink" x="0px" y="0px"
	 viewBox="0 0 132 132" style="enable-background:new 0 0 132 132;" xml:space="preserve">
<style type="text/css">
	.st0{fill:none;}
	.st1{fill-rule:evenodd;clip-rule:evenodd;fill:currentColor;}
</style>
<rect id="size" class="st0" width="132" height="132"/>
<path id="矢量_7__x28_边框_x29_" class="st1" d="M79.1,17.3l-19.3,99c-0.4,2.3-2.6,3.7-4.8,3.3c-2.3-0.4-3.7-2.6-3.3-4.8
	l19.3-99c0.4-2.3,2.6-3.7,4.8-3.3C78.1,12.9,79.5,15,79.1,17.3z M39.5,39.2L13.4,66l26.1,26.8c1.6,1.7,1.6,4.3-0.1,5.9
	c-1.7,1.6-4.3,1.5-5.9-0.1L5.8,70c-0.6-0.5-1-1.2-1.2-1.8c-0.3-0.7-0.4-1.4-0.4-2.1c0-0.8,0.1-1.5,0.4-2.2s0.7-1.3,1.2-1.8
	l27.7-28.6c1.6-1.6,4.2-1.7,5.9-0.1C41.1,34.9,41.1,37.5,39.5,39.2z M97.3,33.4c-1.6-1.6-4.2-1.7-5.9-0.1c-1.7,1.6-1.7,4.2-0.1,5.9
	L117.4,66L91.3,92.8c-1.6,1.7-1.6,4.3,0.1,5.9s4.3,1.5,5.9-0.1L125,70c0.6-0.5,1-1.2,1.2-1.8c0.3-0.7,0.4-1.4,0.4-2.1
	c0-0.8-0.1-1.5-0.4-2.2s-0.7-1.3-1.2-1.8L97.3,33.4z"/>
</svg>
