<?xml version="1.0" encoding="utf-8"?>
<svg version="1.1" id="图层_1" xmlns="http://www.w3.org/2000/svg" xmlns:xlink="http://www.w3.org/1999/xlink" x="0px" y="0px"
	 viewBox="0 0 132 132" style="enable-background:new 0 0 132 132;" xml:space="preserve">
<style type="text/css">
	.st0{fill:none;}
	.st1{fill:currentColor;}
</style>
<rect id="size" x="-1" class="st0" width="132" height="132"/>
<path id="形状结合" class="st1" d="M64.5,8.2c31.8,0,57.7,25.8,57.7,57.8c0,31.8-25.9,57.7-57.7,57.7c-32,0-57.8-25.9-57.8-57.7
	C6.7,34.1,32.5,8.2,64.5,8.2z M64.5,16.5C37.1,16.5,15,38.6,15,66c0,27.3,22.1,49.5,49.5,49.5c27.3,0,49.5-22.2,49.5-49.5
	C114,38.6,91.8,16.5,64.5,16.5z M63.9,87.4c2.6,0,4.7,2.1,4.7,4.6c0,2.6-2.1,4.6-4.7,4.6s-4.6-2.1-4.6-4.6
	C59.3,89.4,61.3,87.4,63.9,87.4z M64.2,37.1c10.2,0,18.4,8.1,18.4,18.3c0,8.4-5.6,15.4-13.3,17.6l-1,0.2v6.5c0,2-1.4,3.7-3.4,4
	c-2.2,0-4.8-1.8-4.8-4V69.6c0-2.3,1.9-4.1,4.1-4.1c5.6,0,10.2-4.5,10.2-10s-4.5-10-10.2-10c-5.6,0-10,4.5-10,10
	c0,2.3-1.9,4.2-4.1,4.2c-2.3,0-4.2-1.9-4.2-4.2C45.9,45.3,54.1,37.1,64.2,37.1z"/>
</svg>
