<?xml version="1.0" encoding="utf-8"?>
<!-- Generator: Adobe Illustrator 26.0.2, SVG Export Plug-In . SVG Version: 6.00 Build 0)  -->
<svg version="1.1" id="图层_1" xmlns="http://www.w3.org/2000/svg" xmlns:xlink="http://www.w3.org/1999/xlink" x="0px" y="0px"
	 viewBox="0 0 24 24" style="enable-background:new 0 0 24 24;" xml:space="preserve">
<path id="形状" d="M19,16c1.2,0,2.2,0.9,2.2,2.1v0.2v0.5c0,1.2-0.9,2.2-2.1,2.2L19,21H8.5c-1.2,0-2.2-0.9-2.2-2.1v-0.2v-0.5
	C6.2,17,7.2,16,8.3,16h0.2H19z M19,17.5H8.5c-0.4,0-0.7,0.3-0.7,0.6v0.1v0.5c0,0.4,0.3,0.7,0.6,0.7h0.1H19c0.4,0,0.7-0.3,0.7-0.6
	v-0.1v-0.5c0-0.4-0.3-0.7-0.6-0.7H19z M19,9.5c1.2,0,2.2,0.9,2.2,2.1v0.2v0.5c0,1.2-0.9,2.2-2.1,2.2h-0.2H8.5
	c-1.2,0-2.2-0.9-2.2-2.1v-0.2v-0.5c0-1.2,0.9-2.2,2.1-2.2h0.2H19z M19,11H8.5c-0.4,0-0.7,0.3-0.7,0.6v0.1v0.5c0,0.4,0.3,0.7,0.6,0.7
	h0.1H19c0.4,0,0.7-0.3,0.7-0.6v-0.1v-0.5c0-0.4-0.3-0.7-0.6-0.7H19z M15.5,3c1.2,0,2.2,0.9,2.2,2.1v0.2v0.5C17.7,7,16.8,8,15.6,8
	h-0.2H5C3.8,8,2.8,7,2.8,5.9V5.7V5.2C2.8,4,3.7,3,4.9,3H5H15.5z M15.5,4.5H5c-0.4,0-0.7,0.3-0.7,0.6v0.1v0.5c0,0.4,0.3,0.7,0.6,0.7
	H5h10.5c0.4,0,0.7-0.3,0.7-0.6V5.7V5.2c0-0.4-0.3-0.7-0.6-0.7H15.5z"/>
</svg>
