<svg width="18.000000" height="18.000000" viewBox="0 0 18 18" fill="none" xmlns="http://www.w3.org/2000/svg" xmlns:xlink="http://www.w3.org/1999/xlink">
	<desc>
			Created with Pixso.
	</desc>
	<defs/>
	<rect id="矩形 66" width="18.000000" height="18.000000" fill="#C4C4C4" fill-opacity="0"/>
	<path id="JS" d="M10.11 14.56Q11.09 14.83 12.15 14.83Q13.38 14.83 14.34 14.43C14.98 14.16 15.47 13.78 15.82 13.3C16.17 12.81 16.35 12.25 16.35 11.61Q16.35 10.76 15.94 10.2Q15.87 10.1 15.79 10.01C15.42 9.61 14.95 9.31 14.39 9.11C13.83 8.91 13.05 8.69 12.07 8.45C11.16 8.23 10.49 7.98 10.05 7.7C9.62 7.41 9.4 6.98 9.4 6.41Q9.4 5.81 9.67 5.37Q9.84 5.07 10.14 4.85C10.64 4.47 11.34 4.29 12.23 4.29Q13.19 4.29 13.87 4.55Q14.55 4.8 15.35 5.45C15.54 5.57 15.7 5.63 15.82 5.63Q15.87 5.63 15.91 5.62Q16.03 5.58 16.12 5.46Q16.17 5.4 16.2 5.32Q16.25 5.21 16.25 5.07Q16.25 4.99 16.24 4.93Q16.19 4.7 15.99 4.5C15.55 4.07 15 3.74 14.35 3.5C13.69 3.27 12.99 3.16 12.23 3.16Q11.02 3.16 10.07 3.57Q9.25 3.92 8.75 4.54Q8.67 4.63 8.6 4.73Q8.42 4.99 8.3 5.27Q8.07 5.81 8.07 6.46Q8.07 7.4 8.52 8.02Q8.56 8.06 8.6 8.11Q8.64 8.16 8.68 8.21Q9.19 8.77 9.97 9.08C10.54 9.31 11.27 9.53 12.15 9.73C12.81 9.88 13.34 10.03 13.72 10.17C14.11 10.31 14.43 10.49 14.67 10.73C14.9 10.96 15.02 11.26 15.02 11.64Q15.02 12.22 14.76 12.65Q14.58 12.95 14.27 13.17C13.78 13.52 13.07 13.7 12.14 13.7Q11.11 13.7 10.2 13.37Q9.41 13.08 8.7 12.53C8.54 12.41 8.39 12.35 8.25 12.35C8.13 12.35 8.03 12.41 7.94 12.52Q7.89 12.59 7.86 12.66Q7.81 12.78 7.81 12.92Q7.81 13.1 7.88 13.24Q7.94 13.38 8.06 13.49Q8.72 14.1 9.83 14.47Q9.97 14.52 10.11 14.56ZM1.85 14.67C1.99 14.77 2.2 14.81 2.47 14.78L2.95 14.75Q4.28 14.68 4.96 13.97Q4.99 13.95 5.01 13.92Q5.69 13.17 5.69 11.67L5.69 3.88Q5.69 3.63 5.57 3.46Q5.55 3.42 5.51 3.39C5.39 3.26 5.23 3.2 5.03 3.2Q4.87 3.2 4.74 3.26Q4.64 3.31 4.55 3.39C4.43 3.51 4.36 3.68 4.36 3.88L4.36 11.66Q4.36 12.68 3.95 13.14C3.68 13.45 3.27 13.62 2.72 13.65L2.24 13.68C1.84 13.69 1.64 13.88 1.64 14.23C1.64 14.43 1.71 14.58 1.85 14.67Z" fill="#191919" fill-opacity="1.000000" fill-rule="evenodd"/>
</svg>
