<svg width="18.000000" height="18.000000" viewBox="0 0 18 18" fill="none" xmlns="http://www.w3.org/2000/svg" xmlns:xlink="http://www.w3.org/1999/xlink">
	<desc>
			Created with Pixso.
	</desc>
	<defs/>
	<mask id="mask439_9957" mask-type="alpha" maskUnits="userSpaceOnUse" x="0.000000" y="0.000000" width="18.000000" height="18.000000">
		<rect id="对象-object" width="18.000000" height="18.000000" fill="#000000" fill-opacity="1.000000"/>
	</mask>
	<g mask="url(#mask439_9957)">
		<path id="形状结合" d="M14.62 10.93L3.37 10.93C2.44 10.93 1.68 11.68 1.68 12.62L1.68 14.52C1.68 15.45 2.44 16.21 3.37 16.21L14.62 16.21C15.54 16.21 16.31 15.45 16.31 14.52L16.31 12.62C16.31 11.68 15.54 10.93 14.62 10.93ZM14.62 12.05C14.92 12.05 15.18 12.3 15.18 12.62L15.18 14.52C15.18 14.83 14.92 15.08 14.62 15.08L3.37 15.08C3.06 15.08 2.81 14.83 2.81 14.52L2.81 12.62C2.81 12.3 3.06 12.05 3.37 12.05L14.62 12.05ZM12.38 1.77L5.6 1.77C4.88 1.77 4.24 2.23 4 2.91L2.22 8.09C2.16 8.26 2.13 8.45 2.13 8.64C2.13 9.57 2.89 10.32 3.82 10.32L14.16 10.32C14.35 10.32 14.53 10.3 14.71 10.23C15.59 9.93 16.06 8.97 15.76 8.09L13.98 2.91C13.74 2.23 13.1 1.77 12.38 1.77ZM12.38 2.9C12.62 2.9 12.83 3.04 12.91 3.28L14.7 8.45C14.8 8.75 14.64 9.07 14.35 9.17C14.28 9.2 14.23 9.2 14.16 9.2L3.82 9.2C3.51 9.2 3.26 8.95 3.26 8.64C3.26 8.58 3.27 8.51 3.28 8.45L5.07 3.28C5.15 3.04 5.36 2.9 5.6 2.9L12.38 2.9Z" fill="#191919" fill-opacity="1.000000" fill-rule="nonzero"/>
	</g>
</svg>
