<?xml version="1.0" encoding="utf-8"?>
<svg version="1.1" id="图层_1" xmlns="http://www.w3.org/2000/svg" xmlns:xlink="http://www.w3.org/1999/xlink" x="0px" y="0px"
	 viewBox="0 0 132 132" style="enable-background:new 0 0 132 132;" xml:space="preserve">
<style type="text/css">
	.st0{fill:none;}
	.st1{fill-rule:evenodd;clip-rule:evenodd;fill:currentColor;}
</style>
<rect id="size" class="st0" width="132" height="132"/>
<path id="合并" class="st1" d="M124.7,36.7c0-9.3-7.5-16.8-16.8-16.8H24.1c-9.3,0-16.8,7.5-16.8,16.8v58.7
	c0,9.3,7.5,16.8,16.8,16.8h83.8c9.3,0,16.8-7.5,16.8-16.8V36.7z M116.3,36.7c0-4.6-3.8-8.4-8.4-8.4H24.1c-4.6,0-8.4,3.8-8.4,8.4
	v58.7c0,4.6,3.8,8.4,8.4,8.4h83.8c4.6,0,8.4-3.8,8.4-8.4V36.7z M38.7,75.8l-7.5-22.1c-0.5-1.5-1-2.6-1.5-3.3c-0.5-0.7-1.3-1-2.4-1
	c-0.9,0-1.7,0.3-2.3,0.9c-0.5,0.5-0.7,1-0.9,1.5l0,0c0,0.2-0.1,0.4-0.1,0.6c0,0.3,0,0.7,0.1,1.1c0.1,0.4,0.2,0.8,0.4,1.2
	c0.1,0.4,0.3,0.8,0.4,1.1l7.8,21.4c0.3,0.8,0.6,1.6,0.9,2.3c0.3,0.7,0.6,1.4,1,2c0.4,0.6,0.9,1,1.5,1.4c0.6,0.4,1.4,0.5,2.3,0.5
	c0.9,0,1.7-0.2,2.3-0.5c0.6-0.4,1.1-0.8,1.5-1.4c0.4-0.6,0.7-1.2,1-2c0.3-0.7,0.6-1.5,0.9-2.4l8-21.5c0.1-0.4,0.3-0.8,0.4-1.1
	c0.1-0.4,0.2-0.7,0.3-1.1C53,53,53,52.7,53,52.3l0-0.1l0,0c0-0.5-0.2-0.9-0.4-1.4c-0.3-0.5-0.7-0.9-1.1-1.1c-0.5-0.3-1-0.4-1.6-0.4
	c-0.8,0-1.4,0.2-1.8,0.6c-0.5,0.4-0.8,0.8-1,1.2c-0.2,0.5-0.5,1.3-0.9,2.4L38.7,75.8z M73.6,79.1L72,75H58.6l-1.6,4.2
	c-0.6,1.7-1.1,2.8-1.6,3.3c-0.1,0.1-0.1,0.2-0.2,0.2c-0.4,0.4-1.1,0.6-1.9,0.6c-0.3,0-0.6,0-0.9-0.1c-0.5-0.1-0.9-0.4-1.3-0.8
	c-0.6-0.6-1-1.3-1-2.1c0-0.5,0.1-0.9,0.2-1.4c0.2-0.5,0.4-1.1,0.7-2l8.4-21.4c0.2-0.6,0.5-1.4,0.9-2.2c0.3-0.9,0.7-1.6,1.1-2.1
	c0.1-0.2,0.2-0.3,0.4-0.5c0.3-0.3,0.7-0.6,1.1-0.9c0.6-0.4,1.4-0.5,2.3-0.5c0.9,0,1.7,0.2,2.3,0.5c0.6,0.4,1.1,0.8,1.5,1.4
	c0.4,0.6,0.7,1.2,1,1.8c0.3,0.6,0.6,1.5,1,2.6l8.6,21.3c0.7,1.6,1,2.8,1,3.5c0,0.8-0.3,1.5-1,2.1c-0.6,0.6-1.4,1-2.3,1
	c-0.5,0-1-0.1-1.3-0.3c-0.4-0.2-0.7-0.4-0.9-0.8c-0.3-0.3-0.5-0.8-0.8-1.5C74.1,80.2,73.8,79.6,73.6,79.1z M89.1,68.8h2.3
	c1.2,0,2.2,0.2,2.9,0.5c0.8,0.3,1.5,0.9,2.3,1.8s1.6,2.1,2.6,3.7l2.7,4.5c0.6,1,1.1,1.8,1.5,2.4c0.4,0.5,0.8,1,1.3,1.3c0,0,0,0,0,0
	c0.5,0.3,1.1,0.5,1.9,0.5c0.6,0,1.2-0.1,1.7-0.4c0.5-0.2,0.9-0.6,1.1-1c0.3-0.4,0.4-0.9,0.4-1.3c0-0.4-0.2-1.2-0.7-2.3
	c-0.5-1.1-1.1-2.4-2-3.8c-0.2-0.4-0.5-0.8-0.7-1.1c-0.7-1-1.4-1.9-2.2-2.8c-1.1-1.2-2.2-2.2-3.4-2.8c2.8-0.6,4.9-1.7,6.3-3.1
	c0.2-0.2,0.4-0.5,0.6-0.8c1-1.4,1.5-3.1,1.5-5.1c0-1-0.1-1.9-0.4-2.8l0,0c-0.1-0.2-0.1-0.4-0.2-0.6c-0.2-0.6-0.5-1.2-0.9-1.7
	c-0.3-0.4-0.6-0.8-0.9-1.1c-0.5-0.5-0.9-0.9-1.5-1.2l0,0c-0.4-0.3-0.8-0.5-1.3-0.7c-0.9-0.4-1.8-0.6-2.9-0.8
	c-1.1-0.1-2.3-0.2-3.8-0.2H86.5c-1.4,0-2.5,0.3-3.1,1c-0.6,0.6-1,1.7-1,3.1v25.4c0,1.3,0.3,2.3,0.9,3c0.2,0.2,0.3,0.4,0.5,0.5
	c0.5,0.4,1.2,0.5,1.9,0.5c0.6,0,1.2-0.1,1.7-0.4c0.3-0.2,0.5-0.3,0.7-0.6c0.6-0.7,0.9-1.7,0.9-3.1V68.8z M95.3,54.9h-6.2V64h6
	c1.6,0,3-0.1,4-0.4c1.1-0.3,1.9-0.8,2.5-1.4c0.6-0.7,0.9-1.6,0.9-2.8c0-0.9-0.2-1.7-0.7-2.4c-0.5-0.7-1.1-1.2-1.9-1.6
	C99.1,55.1,97.6,54.9,95.3,54.9z M60.4,70l4.9-13.6l5,13.6H60.4z"/>
</svg>
