<?xml version="1.0" encoding="utf-8"?>
<svg version="1.1" id="图层_1" xmlns="http://www.w3.org/2000/svg" xmlns:xlink="http://www.w3.org/1999/xlink" x="0px" y="0px"
	 viewBox="0 0 132 132" style="enable-background:new 0 0 132 132;" xml:space="preserve">
<style type="text/css">
	.st0{fill:none;}
	.st1{fill-rule:evenodd;clip-rule:evenodd;fill:currentColor;}
</style>
<rect id="size" x="-1" class="st0" width="132" height="132"/>
<path id="矢量_12" class="st1" d="M43.6,9.3c-1.5-0.3-2.9-0.5-4.5-0.5H28.5c-1.5,0-3,0.2-4.5,0.5c-1.2,0.3-2.4,0.7-3.6,1.1
	c-1.2,0.5-2.3,1.1-3.3,1.8c-0.1,0-0.2,0.1-0.3,0.1l0,0l0,0l0,0c-1,0.7-2,1.6-2.9,2.5c-1,1-1.9,2.1-2.6,3.2c-0.7,1-1.3,2.1-1.8,3.3
	C9,22.6,8.6,23.8,8.3,25C8,26.5,7.8,28,7.8,29.5v10.6c0,1.5,0.2,3,0.5,4.5C8.6,45.8,9,47,9.5,48.1c0.4,1.2,1,2.3,1.8,3.4
	c0.7,1.2,1.6,2.2,2.6,3.2c1,1,2.1,1.8,3.2,2.6c1,0.7,2.1,1.2,3.3,1.8c1.2,0.5,2.3,0.9,3.6,1.2c1.5,0.3,2.9,0.4,4.5,0.4h10.6
	c1.5,0,3-0.1,4.5-0.4c1.2-0.3,2.4-0.7,3.5-1.2c1.2-0.5,2.3-1.1,3.4-1.8c1.2-0.8,2.2-1.7,3.2-2.6c1-1,1.8-2.1,2.6-3.2
	c0.7-1,1.2-2.2,1.8-3.4c0.5-1.2,0.9-2.3,1.2-3.5c0.3-1.5,0.4-2.9,0.4-4.5V29.5c0-1.5-0.1-3-0.4-4.5c-0.3-1.2-0.7-2.4-1.2-3.6
	c-0.5-1.2-1.1-2.3-1.8-3.3c-0.8-1.2-1.7-2.3-2.6-3.2c-1-1-2.1-1.9-3.2-2.6c-1-0.7-2.2-1.3-3.4-1.8C46,10,44.8,9.6,43.6,9.3z
	 M96.2,8.8c-14.4,0-26,11.7-26,26c0,14.4,11.6,26,26,26c14.3,0,26-11.6,26-26C122.1,20.5,110.5,8.8,96.2,8.8z M28.5,17.1h10.6
	c1,0,1.9,0.1,2.8,0.3c0.7,0.1,1.4,0.4,2.1,0.7s1.3,0.7,1.9,1c0.7,0.4,1.4,1,2,1.6c0.7,0.7,1.2,1.3,1.6,2.1c0.4,0.6,0.8,1.2,1,1.9
	c0.3,0.7,0.5,1.3,0.7,2c0.2,1,0.4,1.9,0.4,2.9v10.6c0,1-0.1,1.9-0.4,2.8c-0.1,0.7-0.4,1.4-0.7,2.1c-0.2,0.7-0.6,1.3-1,1.9
	c-0.4,0.7-1,1.4-1.6,2c-0.6,0.7-1.2,1.2-2,1.6c-0.6,0.4-1.2,0.8-1.9,1c-0.7,0.3-1.3,0.5-2.1,0.7c-0.9,0.2-1.8,0.4-2.8,0.4H28.5
	c-1,0-1.9-0.1-2.9-0.4c-0.7-0.1-1.3-0.4-2-0.7c-0.7-0.2-1.3-0.6-1.9-1c-0.7-0.4-1.4-1-2.1-1.6c-0.6-0.6-1.2-1.2-1.6-2
	c-0.4-0.6-0.7-1.2-1-1.9c-0.3-0.7-0.5-1.3-0.7-2.1c-0.2-0.9-0.3-1.8-0.3-2.8V29.5c0-1,0.1-1.9,0.3-2.9c0.1-0.7,0.4-1.3,0.7-2
	c0.3-0.7,0.7-1.3,1-1.9c0.4-0.7,1-1.4,1.6-2.1c0.7-0.6,1.3-1.2,2.1-1.6c0.6-0.4,1.2-0.7,1.9-1c0.7-0.3,1.3-0.5,2-0.7
	C26.6,17.2,27.5,17.1,28.5,17.1z M96.2,17.1c-9.8,0-17.7,7.9-17.7,17.7c0,9.8,7.9,17.7,17.7,17.7c9.8,0,17.7-7.9,17.7-17.7
	C113.9,25,105.9,17.1,96.2,17.1z M116.6,84.2c-0.8-1.2-1.8-2.4-2.8-3.5l-4.9-4.8c-1-1.1-2.2-2-3.4-2.8l0,0c0,0-0.1,0-0.1-0.1
	c-1.1-0.7-2.2-1.2-3.4-1.7c-1.2-0.5-2.3-0.9-3.6-1.1c-1.4-0.3-2.8-0.4-4.2-0.4c-1.4,0-2.8,0.1-4.1,0.4c-1.2,0.2-2.4,0.6-3.7,1.1
	c-1.2,0.4-2.3,1-3.3,1.7c0,0-0.1,0.1-0.1,0.1l0,0c-1.2,0.8-2.4,1.7-3.4,2.8l-4.8,4.8c-1.1,1.1-2.1,2.3-2.9,3.5
	c-0.7,1-1.2,2.1-1.7,3.3c-0.5,1.2-0.9,2.4-1.1,3.7c-0.3,1.3-0.4,2.7-0.4,4.1c0,1.4,0.1,2.8,0.4,4.2c0.2,1.2,0.6,2.4,1.1,3.6
	c0.4,1.2,1,2.3,1.7,3.4c0.8,1.2,1.8,2.3,2.9,3.4l4.8,4.9c1.1,1,2.3,2,3.5,2.8c1,0.7,2.1,1.2,3.3,1.8c1.2,0.4,2.4,0.8,3.7,1
	c1.3,0.3,2.7,0.4,4.1,0.4c1.4,0,2.8-0.1,4.2-0.4c1.2-0.2,2.4-0.6,3.6-1c1.2-0.5,2.3-1.1,3.4-1.8c1.2-0.8,2.3-1.8,3.4-2.8l4.9-4.9
	c1-1.1,2-2.2,2.8-3.4c0.7-1.1,1.2-2.2,1.8-3.4c0.4-1.2,0.8-2.3,1-3.6c0.3-1.4,0.4-2.8,0.4-4.2c0-1.4-0.1-2.8-0.4-4.1
	c-0.2-1.2-0.6-2.4-1-3.7C117.8,86.3,117.2,85.2,116.6,84.2z M37.9,75.3c0-2.3-1.8-4.1-4.1-4.1c-2.3,0-4.1,1.8-4.1,4.1V93H12
	c-2.3,0-4.2,1.8-4.2,4.2c0,2.3,1.8,4.1,4.2,4.1h17.7V119c0,2.3,1.8,4.2,4.1,4.2c2.3,0,4.2-1.8,4.2-4.2l-0.1-17.7h17.7
	c2.3,0,4.1-1.8,4.1-4.1c0-2.3-1.8-4.2-4.1-4.2H37.9V75.3z M103.1,81.7l4.8,4.9c0.7,0.7,1.2,1.4,1.8,2.2c0.4,0.6,0.7,1.2,1,1.9
	c0.3,0.7,0.5,1.4,0.7,2.1c0.1,0.9,0.3,1.7,0.3,2.6s-0.1,1.8-0.3,2.6c-0.1,0.7-0.4,1.4-0.7,2.1c-0.2,0.7-0.6,1.2-1,1.8
	c-0.5,0.8-1,1.5-1.8,2.3l-4.8,4.8c-0.7,0.7-1.4,1.3-2.3,1.8c-0.6,0.4-1.2,0.7-1.8,1c-0.7,0.3-1.4,0.5-2.1,0.7
	c-0.8,0.1-1.7,0.3-2.6,0.3s-1.7-0.1-2.6-0.3c-0.7-0.1-1.4-0.4-2.1-0.7c-0.7-0.2-1.3-0.6-1.9-1c-0.8-0.4-1.5-1-2.2-1.8l-4.9-4.8
	c-0.7-0.7-1.2-1.5-1.8-2.3c-0.4-0.6-0.7-1.2-1-1.8c-0.3-0.7-0.5-1.4-0.7-2.1c-0.1-0.8-0.2-1.7-0.2-2.6s0.1-1.7,0.2-2.6
	c0.1-0.7,0.4-1.4,0.7-2.1c0.3-0.7,0.6-1.3,1-1.9c0.5-0.8,1.1-1.5,1.8-2.2l4.9-4.9c0.7-0.7,1.4-1.2,2.2-1.8c0.6-0.4,1.2-0.7,1.9-1
	c0.5-0.2,1-0.4,1.6-0.5c0.1,0,0.3-0.1,0.4-0.1c0.9-0.1,1.7-0.2,2.6-0.2s1.8,0.1,2.6,0.2c0.7,0.1,1.4,0.4,2.1,0.7
	c0.7,0.3,1.2,0.6,1.8,1C101.6,80.4,102.3,81,103.1,81.7z"/>
</svg>
