<svg width="18.000000" height="18.000000" viewBox="0 0 18 18" fill="none" xmlns="http://www.w3.org/2000/svg" xmlns:xlink="http://www.w3.org/1999/xlink">
	<desc>
			Created with Pixso.
	</desc>
	<defs/>
	<rect id="矩形 268" width="18.000000" height="18.000000" fill="#C4C4C4" fill-opacity="0"/>
	<path id="矩形 269 (边框)" d="M17.12 4.53C17.12 3.27 16.1 2.25 14.83 2.25L3.41 2.25C2.14 2.25 1.12 3.27 1.12 4.53L1.12 12.53C1.12 13.79 2.14 14.82 3.41 14.82L14.83 14.82C16.1 14.82 17.12 13.79 17.12 12.53L17.12 4.53ZM15.98 4.53C15.98 3.9 15.47 3.39 14.83 3.39L3.41 3.39C2.77 3.39 2.26 3.9 2.26 4.53L2.26 12.53C2.26 13.16 2.77 13.67 3.41 13.67L14.83 13.67C15.47 13.67 15.98 13.16 15.98 12.53L15.98 4.53Z" fill="#191919" fill-opacity="1.000000" fill-rule="evenodd"/>
	<path id="路径" d="M4.38 6.86L5.4 9.87L6.42 6.83C6.47 6.67 6.51 6.56 6.54 6.5C6.57 6.44 6.61 6.38 6.67 6.33C6.73 6.28 6.82 6.26 6.92 6.26C7 6.26 7.07 6.28 7.14 6.32C7.2 6.35 7.26 6.41 7.29 6.47C7.33 6.54 7.35 6.6 7.35 6.67C7.35 6.71 7.35 6.76 7.33 6.81C7.32 6.86 7.31 6.91 7.29 6.96C7.27 7.01 7.25 7.07 7.23 7.12L6.14 10.06C6.1 10.17 6.07 10.28 6.03 10.38C5.99 10.48 5.94 10.57 5.89 10.64C5.84 10.72 5.77 10.78 5.69 10.83C5.6 10.88 5.5 10.91 5.38 10.91C5.25 10.91 5.15 10.88 5.07 10.84C4.98 10.79 4.91 10.72 4.86 10.64C4.81 10.57 4.76 10.48 4.72 10.38C4.68 10.28 4.65 10.17 4.61 10.06L3.54 7.14C3.52 7.09 3.5 7.04 3.48 6.99C3.46 6.94 3.44 6.88 3.43 6.82C3.42 6.76 3.41 6.71 3.41 6.67C3.41 6.57 3.45 6.47 3.54 6.39C3.62 6.3 3.73 6.26 3.85 6.26C4.01 6.26 4.12 6.31 4.18 6.4C4.25 6.5 4.31 6.65 4.38 6.86Z" fill="#191919" fill-opacity="1.000000" fill-rule="evenodd"/>
	<path id="形状" d="M10.1646 10.3263L9.94983 9.76196L8.12207 9.76196L7.90735 10.3385C7.82349 10.5635 7.75195 10.7152 7.69263 10.7939C7.6842 10.8053 7.67493 10.8158 7.66479 10.8254C7.60474 10.8832 7.51685 10.9121 7.40137 10.9121C7.3562 10.9121 7.31323 10.9055 7.27234 10.8926C7.20923 10.8726 7.151 10.8372 7.09766 10.7863C7.00977 10.7025 6.96582 10.6074 6.96582 10.5011C6.96582 10.4398 6.97607 10.3763 6.99646 10.3109C7.01697 10.2455 7.05066 10.1545 7.09766 10.038L8.2478 7.11841C8.28052 7.03455 8.31982 6.93384 8.36584 6.81628C8.41187 6.69873 8.46094 6.60107 8.51306 6.52344C8.52905 6.49951 8.54663 6.47717 8.56567 6.45605L8.56567 6.45605C8.60876 6.40857 8.65967 6.36804 8.71851 6.33472C8.80334 6.28674 8.9082 6.2627 9.03284 6.2627C9.15967 6.2627 9.2655 6.28674 9.35034 6.33472C9.43518 6.38281 9.50366 6.4447 9.55579 6.52026C9.60791 6.59595 9.65186 6.67725 9.68762 6.76416C9.72339 6.85107 9.76892 6.96704 9.8241 7.11218L10.9988 10.0134C11.0907 10.2343 11.1367 10.3948 11.1367 10.495C11.1367 10.5992 11.0933 10.6948 11.0065 10.7817C10.9196 10.8687 10.8147 10.9121 10.692 10.9121C10.6205 10.9121 10.5592 10.8993 10.5081 10.8738C10.4569 10.8481 10.4139 10.8134 10.3793 10.7694C10.3445 10.7255 10.3071 10.658 10.2673 10.567C10.2274 10.4761 10.1932 10.3958 10.1646 10.3263ZM9.70447 9.07812L8.36121 9.07812L9.02673 7.22266L9.70447 9.07812Z" clip-rule="evenodd" fill="#191919" fill-opacity="1.000000" fill-rule="evenodd"/>
	<path id="形状" d="M12.5955 8.91248L12.2765 8.91248L12.2765 10.3569C12.2765 10.5471 12.2345 10.6871 12.1508 10.7771C12.1208 10.8091 12.0879 10.8354 12.0515 10.8561C11.9858 10.8934 11.9095 10.912 11.8225 10.912C11.7175 10.912 11.6296 10.8875 11.5588 10.8381C11.5317 10.8193 11.5072 10.797 11.4852 10.771C11.4055 10.6769 11.3656 10.5389 11.3656 10.3569L11.3656 6.89758C11.3656 6.70129 11.4095 6.5592 11.4974 6.47119C11.5854 6.3833 11.7275 6.33936 11.9238 6.33936L13.405 6.33936C13.6095 6.33936 13.7843 6.34802 13.9294 6.36548C14.0747 6.38281 14.2056 6.41809 14.322 6.47119C14.3827 6.4967 14.4404 6.52698 14.495 6.56189L14.495 6.56189C14.5674 6.60828 14.6345 6.66284 14.6962 6.72583C14.7423 6.77271 14.7836 6.82288 14.8202 6.87622C14.8699 6.94849 14.9108 7.02661 14.9431 7.11072C14.9531 7.13684 14.9623 7.16333 14.9706 7.19006L14.9706 7.19006C15.0085 7.31262 15.0275 7.44104 15.0275 7.57532C15.0275 7.85632 14.9609 8.09009 14.8281 8.27637C14.8025 8.31226 14.7743 8.34644 14.7438 8.37878C14.5546 8.57922 14.2678 8.72131 13.8835 8.80505C14.045 8.89099 14.1993 9.0177 14.3466 9.18542C14.4537 9.30737 14.5524 9.43506 14.6427 9.56836L14.6427 9.56836C14.6765 9.61829 14.7092 9.66907 14.7407 9.72058C14.8562 9.90967 14.9462 10.0804 15.0106 10.2328C15.075 10.385 15.1072 10.4899 15.1072 10.5471C15.1072 10.6063 15.0883 10.6652 15.0504 10.7234C15.0126 10.7817 14.9609 10.8278 14.8955 10.8615C14.8301 10.8951 14.7545 10.912 14.6686 10.912C14.5674 10.912 14.4823 10.8885 14.4131 10.8414C14.4124 10.8409 14.4117 10.8405 14.411 10.84C14.3414 10.7919 14.2816 10.7311 14.2316 10.6575C14.1815 10.5839 14.1135 10.4756 14.0276 10.3324L13.6627 9.72522C13.5319 9.50232 13.4148 9.33264 13.3115 9.21606C13.2083 9.09949 13.1035 9.01978 12.9972 8.97681C12.8909 8.93396 12.757 8.91248 12.5955 8.91248ZM12.2765 7.02332L13.1168 7.02332C13.4296 7.02332 13.6392 7.04578 13.7455 7.0907C13.8579 7.13782 13.9458 7.20886 14.0093 7.30383C14.0726 7.39893 14.1042 7.50891 14.1042 7.63354C14.1042 7.79309 14.0649 7.91833 13.9862 8.00928C13.9075 8.10022 13.7936 8.16467 13.6443 8.20251C13.495 8.24036 13.311 8.25916 13.0923 8.25916L12.2765 8.25916L12.2765 7.02332Z" clip-rule="evenodd" fill="#191919" fill-opacity="1.000000" fill-rule="evenodd"/>
</svg>
