<?xml version="1.0" encoding="utf-8"?>
<!-- Generator: Adobe Illustrator 26.0.2, SVG Export Plug-In . SVG Version: 6.00 Build 0)  -->
<svg version="1.1" id="图层_1" xmlns="http://www.w3.org/2000/svg" xmlns:xlink="http://www.w3.org/1999/xlink" x="0px" y="0px"
	 viewBox="0 0 24 24" style="enable-background:new 0 0 24 24;" xml:space="preserve">
<style type="text/css">
	.st0{fill-rule:evenodd;clip-rule:evenodd;}
</style>
<path id="形状结合" class="st0" d="M14.6,5.5C14.9,5.7,15.1,6,15,6.4l0,0.1l-4.6,11.6c-0.2,0.4-0.6,0.6-1,0.4
	C9.1,18.3,8.9,18,9,17.6l0-0.1l4.6-11.6C13.8,5.5,14.2,5.4,14.6,5.5z M7.6,5.7c0.3,0.3,0.3,0.7,0.1,1L7.6,6.7L3,11.3
	c-0.4,0.4-0.4,0.9-0.1,1.3L3,12.7l4.5,4.5c0.3,0.3,0.3,0.8,0,1.1c-0.3,0.3-0.7,0.3-1,0.1l-0.1-0.1L2,13.8c-0.9-0.9-1-2.4-0.1-3.4
	L2,10.3l4.6-4.6C6.8,5.4,7.3,5.4,7.6,5.7z M17.4,5.6L17.4,5.6l4.7,4.7c0.9,0.9,1,2.4,0.1,3.4L22,13.8l-4.5,4.5
	c-0.3,0.3-0.8,0.3-1.1,0c-0.3-0.3-0.3-0.7-0.1-1l0.1-0.1l4.5-4.5c0.4-0.4,0.4-0.9,0.1-1.3L21,11.3l-4.6-4.6c-0.3-0.3-0.3-0.8,0-1.1
	C16.7,5.4,17.1,5.4,17.4,5.6z"/>
</svg>
