<svg width="18.000000" height="18.000000" viewBox="0 0 18 18" fill="none" xmlns="http://www.w3.org/2000/svg" xmlns:xlink="http://www.w3.org/1999/xlink">
	<desc>
			Created with Pixso.
	</desc>
	<defs/>
	<mask id="mask439_9963" mask-type="alpha" maskUnits="userSpaceOnUse" x="0.000000" y="0.000000" width="18.000000" height="18.000000">
		<rect id="服务-services-ingresses" width="18.000000" height="18.000000" fill="#000000" fill-opacity="1.000000"/>
	</mask>
	<g mask="url(#mask439_9963)">
		<path id="形状" d="M9 2.25C5.26 2.25 2.25 5.26 2.25 9C2.25 12.72 5.26 15.75 9 15.75C12.72 15.75 15.75 12.72 15.75 9C15.75 5.26 12.72 2.25 9 2.25ZM9 1.12C13.34 1.12 16.87 4.64 16.87 9C16.87 13.34 13.34 16.87 9 16.87C4.64 16.87 1.12 13.34 1.12 9C1.12 4.64 4.64 1.12 9 1.12ZM9 2.25C7.56 2.25 6.18 5.23 6.18 9C6.18 12.75 7.56 15.75 9 15.75C10.42 15.75 11.81 12.75 11.81 9C11.81 5.23 10.42 2.25 9 2.25ZM9 1.12C11.28 1.12 12.93 4.67 12.93 9C12.93 13.3 11.28 16.87 9 16.87C6.7 16.87 5.06 13.3 5.06 9C5.06 4.67 6.7 1.12 9 1.12ZM16.31 8.43C16.61 8.43 16.87 8.68 16.87 9C16.87 9.3 16.61 9.56 16.31 9.56L1.68 9.56C1.37 9.56 1.12 9.3 1.12 9C1.12 8.68 1.37 8.43 1.68 8.43L16.31 8.43Z" fill="#191919" fill-opacity="1.000000" fill-rule="nonzero"/>
	</g>
</svg>
