<?xml version="1.0" encoding="utf-8"?>
<!-- Generator: Adobe Illustrator 26.0.2, SVG Export Plug-In . SVG Version: 6.00 Build 0)  -->
<svg version="1.1" id="图层_1"
     xmlns="http://www.w3.org/2000/svg"
     xmlns:xlink="http://www.w3.org/1999/xlink" x="0px" y="0px" viewBox="0 0 24 24" style="enable-background:new 0 0 24 24;" xml:space="preserve">
	<style type="text/css">
	.st0{fill:currentColor;}
	</style>
    <path class="st0" d="M20.2,8.6l-5.7-6.2c-0.3-0.3-0.7-0.5-1.2-0.5H5.9C4.5,1.9,3.4,3,3.4,4.4v15.1c0,1.4,1.1,2.5,2.5,2.5h12.3
	c1.4,0,2.5-1.1,2.5-2.5V9.6C20.6,9.2,20.5,8.9,20.2,8.6z M7.3,9.1c-0.8,0-1.5-0.7-1.5-1.5l0,0c0-0.8,0.7-1.5,1.5-1.5h4.6
	c0.8,0,1.5,0.7,1.5,1.5l0,0c0,0.8-0.7,1.5-1.5,1.5H7.3z M15,17.8c-1.5,0-2.6-1.2-2.5-2.8c0.1-1.1,1.1-2.1,2.2-2.2
	c1.5-0.2,2.8,1,2.8,2.5C17.5,16.7,16.3,17.8,15,17.8z"/>
</svg>
