<?xml version="1.0" encoding="utf-8"?>
<svg version="1.1" id="图层_1" xmlns="http://www.w3.org/2000/svg" xmlns:xlink="http://www.w3.org/1999/xlink" x="0px" y="0px"
	 viewBox="0 0 132 132" style="enable-background:new 0 0 132 132;" xml:space="preserve">
<style type="text/css">
	.st0{fill:none;}
	.st1{fill:currentColor;}
</style>
<rect id="size" class="st0" width="132" height="132"/>
<path id="形状" class="st1" d="M68.7,121.2c-2.6,0-5.2-0.7-7.6-2l-37-21.3c-4.7-2.7-7.6-7.7-7.6-13.1V42c0-5.4,2.9-10.4,7.6-13.1
	l37-21.3c4.7-2.7,10.5-2.7,15.1,0l37,21.3c4.7,2.7,7.6,7.7,7.6,13.1v42.7c0,5.4-2.9,10.4-7.6,13.1l-37,21.3
	C73.9,120.4,71.3,121.2,68.7,121.2L68.7,121.2z M24.8,42.8v41.9c0,2.4,1.3,4.7,3.4,5.9l36.4,21V65.5c-0.7-0.2-1.3-0.6-1.9-0.9
	L24.8,42.8z M72.9,65.5v46l36.2-20.9c2.1-1.2,3.4-3.5,3.4-5.9V42.8L74.7,64.6C74.1,64.9,73.5,65.3,72.9,65.5z M28.9,35.6l37.9,21.8
	c1.2,0.7,2.6,0.7,3.8,0l37.7-21.8l-36.3-21c-2.1-1.2-4.8-1.2-6.9,0L28.9,35.6z"/>
</svg>
