<svg xmlns="http://www.w3.org/2000/svg" viewBox="0 0 16 16" width="132px" height="132px" fill="currentColor"><defs><style>.cls-1{fill:currentColor;}.cls-2{fill:none;}</style></defs><title>帮助中心</title><g id="图层_2" data-name="图层 2"><g id="图层_1-2" data-name="图层 1"><g id="帮助中心"><path id="合并形状" class="cls-1" d="M8,15a7,7,0,1,1,7-7A7,7,0,0,1,8,15Zm-.83-4v1.5h1.5V11Zm.95-7.86A3.15,3.15,0,0,0,5.84,4,3,3,0,0,0,5,6.22H6.48a2.14,2.14,0,0,1,.33-1.28A1.36,1.36,0,0,1,8,4.41a1.45,1.45,0,0,1,1,.36,1.46,1.46,0,0,1,.36,1,1.4,1.4,0,0,1-.35.92l-.15.18A6.87,6.87,0,0,0,7.41,8.54a2.66,2.66,0,0,0-.27,1.28V10h1.5V9.82A1.75,1.75,0,0,1,8.84,9a2,2,0,0,1,.51-.65,14.55,14.55,0,0,0,1.12-1A2.62,2.62,0,0,0,11,5.7a2.34,2.34,0,0,0-.78-1.87A2.93,2.93,0,0,0,8.12,3.14Z"/></g><rect class="cls-2" width="16" height="16"/></g></g></svg>