<svg width="18.000000" height="18.000000" viewBox="0 0 18 18" fill="none" xmlns="http://www.w3.org/2000/svg" xmlns:xlink="http://www.w3.org/1999/xlink">
	<desc>
			Created with Pixso.
	</desc>
	<defs/>
	<rect id="矩形 63" width="18.000000" height="18.000000" fill="#C4C4C4" fill-opacity="0"/>
	<path id="合并" d="M2.25818 5.23596C2.59302 3.2428 5.3728 1.6875 8.75244 1.6875C12.1321 1.6875 14.9119 3.2428 15.2467 5.23596C15.2686 5.29675 15.2805 5.36255 15.2805 5.43164L15.2805 5.6377L15.2805 5.64099L15.2805 5.64417L15.2805 9.4071L15.2805 9.40869L15.2805 9.41211L15.2805 13.3857C15.2805 13.4508 15.2699 13.5131 15.2504 13.5708C15.2489 13.5806 15.2473 13.5903 15.2457 13.6001C15.1742 14.0292 14.9924 14.4398 14.7004 14.8322C14.3516 15.301 13.8677 15.7114 13.2487 16.0632C12.6522 16.4023 11.9713 16.6638 11.2061 16.8479C10.4238 17.0359 9.60608 17.1299 8.75244 17.1299C7.89893 17.1299 7.08105 17.0359 6.29883 16.8479C5.53357 16.6638 4.85266 16.4023 4.25623 16.0632C3.63721 15.7114 3.15332 15.301 2.80444 14.8322C2.51245 14.4398 2.33069 14.0292 2.25916 13.6001C2.25757 13.5903 2.25598 13.5806 2.25452 13.5708C2.23499 13.5131 2.22437 13.4508 2.22437 13.3857L2.22437 9.41211L2.22437 9.40869L2.22437 9.4071L2.22437 5.6449L2.22437 5.64099L2.22437 5.63696L2.22437 5.43164C2.22437 5.36255 2.23633 5.29675 2.25818 5.23596ZM3.34937 5.64404L3.34937 5.63782C3.35254 4.07715 5.77039 2.8125 8.75244 2.8125C11.7349 2.8125 14.153 4.07751 14.1555 5.63843L14.1555 5.64355C14.153 7.20447 11.7349 8.46948 8.75244 8.46948C5.77039 8.46948 3.35254 7.20471 3.34937 5.64404ZM3.34937 7.86047L3.34937 9.40869C3.3689 9.71289 3.49011 10.1014 3.70691 10.3928C3.96179 10.7354 4.3302 11.0435 4.81213 11.3175C5.31641 11.6041 5.89966 11.827 6.56189 11.9863C7.25757 12.1536 7.98779 12.2372 8.75244 12.2372C9.51709 12.2372 10.2473 12.1536 10.943 11.9863C11.6052 11.827 12.1885 11.6041 12.6927 11.3175C13.1747 11.0435 13.5431 10.7354 13.798 10.3928C14.0148 10.1014 14.136 9.71289 14.1555 9.40881L14.1555 7.86047C12.9811 8.90698 10.9994 9.59448 8.75244 9.59448C6.50562 9.59448 4.5238 8.90698 3.34937 7.86047ZM3.34937 11.6547L3.34937 13.267L3.35229 13.2672C3.37183 13.5713 3.49011 13.8691 3.70691 14.1605C3.96179 14.5031 4.3302 14.8113 4.81213 15.0852C5.31641 15.3718 5.89966 15.5948 6.56189 15.754C7.25757 15.9213 7.98779 16.0049 8.75244 16.0049C9.51709 16.0049 10.2473 15.9213 10.943 15.754C11.6052 15.5948 12.1885 15.3718 12.6927 15.0852C13.1747 14.8113 13.5431 14.5031 13.798 14.1605C14.0148 13.8691 14.136 13.4806 14.1555 13.1765L14.1555 11.6547C13.8949 11.8864 13.5927 12.1 13.2487 12.2955C12.6522 12.6345 11.9713 12.8961 11.2061 13.0801C10.4238 13.2682 9.60608 13.3622 8.75244 13.3622C7.89893 13.3622 7.08105 13.2682 6.29883 13.0801C5.53357 12.8961 4.85266 12.6345 4.25623 12.2955C3.91223 12.1 3.60999 11.8864 3.34937 11.6547Z" clip-rule="evenodd" fill="#191919" fill-opacity="1.000000" fill-rule="evenodd"/>
</svg>
