<?xml version="1.0" encoding="utf-8"?>
<svg version="1.1" id="图层_1" xmlns="http://www.w3.org/2000/svg" xmlns:xlink="http://www.w3.org/1999/xlink" x="0px" y="0px"
	 viewBox="0 0 132 132" style="enable-background:new 0 0 132 132;" xml:space="preserve">
<style type="text/css">
	.st0{fill:none;}
	.st1{fill:currentColor;}
</style>
<rect id="size" class="st0" width="132" height="132"/>
<path id="形状结合" class="st1" d="M107.2,80.2H24.8c-6.8,0-12.4,5.5-12.4,12.4v14c0,6.8,5.5,12.4,12.4,12.4h82.5
	c6.8,0,12.4-5.5,12.4-12.4v-14C119.6,85.8,114.1,80.2,107.2,80.2z M107.2,88.5c2.3,0,4.1,1.8,4.1,4.1v14c0,2.3-1.8,4.1-4.1,4.1H24.8
	c-2.3,0-4.1-1.8-4.1-4.1v-14c0-2.3,1.8-4.1,4.1-4.1H107.2z M90.9,13.1H41.1c-5.3,0-10,3.4-11.7,8.4l-13.1,38c-0.4,1.3-0.7,2.7-0.7,4
	c0,6.8,5.5,12.4,12.4,12.4h75.9c1.4,0,2.7-0.2,4-0.7c6.5-2.2,9.9-9.3,7.7-15.7l-13.1-38C100.9,16.4,96.2,13.1,90.9,13.1z M90.9,21.3
	c1.8,0,3.3,1.1,3.9,2.8l13.1,38c0.7,2.2-0.4,4.5-2.6,5.2c-0.4,0.1-0.9,0.2-1.3,0.2H28.1c-2.3,0-4.1-1.8-4.1-4.1
	c0-0.5,0.1-0.9,0.2-1.3l13.1-38c0.6-1.7,2.1-2.8,3.9-2.8H90.9z"/>
</svg>
