<svg width="18.000000" height="18.000000" viewBox="0 0 18 18" fill="none" xmlns="http://www.w3.org/2000/svg" xmlns:xlink="http://www.w3.org/1999/xlink">
	<desc>
			Created with Pixso.
	</desc>
	<defs/>
	<mask id="mask439_9942" mask-type="alpha" maskUnits="userSpaceOnUse" x="0.000000" y="0.000000" width="18.000000" height="18.000000">
		<rect id="命名空间-namespaces" width="18.000000" height="18.000000" fill="#000000" fill-opacity="1.000000"/>
	</mask>
	<g mask="url(#mask439_9942)">
		<path id="形状" d="M9.35 16.51C9 16.51 8.65 16.42 8.32 16.23L3.27 13.33C2.64 12.96 2.25 12.27 2.25 11.54L2.25 5.71C2.25 4.98 2.64 4.29 3.27 3.92L8.32 1.02C8.96 0.65 9.75 0.65 10.39 1.02L15.43 3.92C16.07 4.29 16.46 4.98 16.46 5.71L16.46 11.54C16.46 12.27 16.07 12.96 15.43 13.33L10.39 16.23C10.08 16.41 9.71 16.51 9.35 16.51ZM3.37 5.82L3.37 11.54C3.37 11.86 3.55 12.18 3.83 12.35L8.8 15.22L8.8 8.92C8.71 8.89 8.62 8.85 8.55 8.8L3.37 5.82ZM9.93 8.92L9.93 15.19L14.87 12.35C15.16 12.18 15.33 11.86 15.33 11.54L15.33 5.82L10.19 8.8C10.1 8.85 10.01 8.89 9.93 8.92ZM3.93 4.84L9.11 7.83C9.27 7.92 9.47 7.92 9.63 7.83L14.78 4.84L9.83 1.99C9.54 1.83 9.18 1.83 8.88 1.99L3.93 4.84Z" fill="#191919" fill-opacity="1.000000" fill-rule="nonzero"/>
	</g>
</svg>
