<svg width="18.000000" height="18.000000" viewBox="0 0 18 18" fill="none" xmlns="http://www.w3.org/2000/svg" xmlns:xlink="http://www.w3.org/1999/xlink">
	<desc>
			Created with Pixso.
	</desc>
	<defs/>
	<rect id="矩形 267" width="18.000000" height="18.000000" fill="#C4C4C4" fill-opacity="0"/>
	<path id="矢量 11" d="M12.76 2.28C12.66 2.26 12.56 2.25 12.46 2.25L2.58 2.25C2.48 2.25 2.37 2.26 2.27 2.28C2.18 2.3 2.1 2.32 2.01 2.36C1.93 2.4 1.85 2.44 1.77 2.49C1.69 2.54 1.62 2.6 1.55 2.67C1.48 2.74 1.42 2.82 1.36 2.9C1.31 2.97 1.27 3.05 1.24 3.14C1.2 3.22 1.17 3.31 1.15 3.4C1.13 3.5 1.12 3.6 1.12 3.71L1.12 4.45C1.12 4.56 1.13 4.66 1.15 4.76Q1.18 4.9 1.24 5.02C1.27 5.11 1.31 5.19 1.36 5.26C1.42 5.34 1.48 5.42 1.55 5.49C1.62 5.56 1.69 5.62 1.77 5.67C1.85 5.72 1.93 5.76 2.01 5.8C2.1 5.84 2.18 5.86 2.27 5.88C2.37 5.9 2.48 5.92 2.58 5.92L12.46 5.92C12.56 5.92 12.66 5.9 12.76 5.88C12.85 5.86 12.94 5.84 13.02 5.8C13.11 5.76 13.19 5.72 13.26 5.67C13.34 5.62 13.42 5.56 13.49 5.49C13.56 5.42 13.62 5.34 13.67 5.26C13.72 5.19 13.77 5.11 13.8 5.02C13.84 4.94 13.87 4.85 13.89 4.76C13.91 4.66 13.92 4.56 13.92 4.45L13.92 3.71C13.92 3.6 13.91 3.5 13.89 3.4C13.87 3.31 13.84 3.22 13.8 3.14C13.77 3.05 13.72 2.97 13.67 2.9C13.62 2.82 13.56 2.74 13.49 2.67C13.42 2.6 13.34 2.54 13.26 2.49C13.19 2.44 13.11 2.4 13.02 2.36C12.94 2.32 12.85 2.3 12.76 2.28ZM2.58 3.37L12.46 3.37C12.5 3.37 12.55 3.38 12.59 3.39C12.62 3.43 12.75 3.54 12.77 3.58L12.77 3.58Q12.79 3.64 12.79 3.71L12.79 4.45C12.79 4.5 12.78 4.54 12.77 4.58C12.74 4.62 12.62 4.75 12.59 4.77C12.55 4.78 12.5 4.79 12.46 4.79L2.58 4.79C2.54 4.79 2.49 4.78 2.45 4.77C2.42 4.73 2.29 4.62 2.27 4.58L2.27 4.58Q2.24 4.52 2.24 4.45L2.24 3.71Q2.24 3.64 2.27 3.58L2.27 3.58C2.3 3.54 2.41 3.41 2.45 3.39C2.49 3.38 2.54 3.37 2.58 3.37ZM15.64 7.55C15.54 7.53 15.43 7.52 15.33 7.52L5.46 7.52C5.35 7.52 5.25 7.53 5.15 7.55C5.06 7.57 4.97 7.6 4.89 7.63C4.8 7.67 4.72 7.71 4.65 7.76C4.57 7.81 4.49 7.88 4.42 7.95C4.35 8.02 4.29 8.09 4.24 8.17C4.19 8.25 4.14 8.33 4.11 8.41C4.07 8.5 4.04 8.58 4.03 8.67C4 8.77 3.99 8.87 3.99 8.98L3.99 9.73C3.99 9.83 4 9.93 4.03 10.04C4.04 10.12 4.07 10.21 4.11 10.3C4.14 10.38 4.19 10.46 4.24 10.53C4.29 10.62 4.35 10.69 4.42 10.76C4.49 10.83 4.57 10.89 4.65 10.95C4.72 11 4.8 11.04 4.89 11.07C4.97 11.11 5.06 11.14 5.15 11.16C5.25 11.18 5.35 11.19 5.46 11.19L15.33 11.19C15.43 11.19 15.54 11.18 15.64 11.16C15.73 11.14 15.81 11.11 15.9 11.07C15.98 11.04 16.06 11 16.14 10.95C16.22 10.89 16.29 10.83 16.36 10.76C16.43 10.69 16.49 10.62 16.55 10.53C16.6 10.46 16.64 10.38 16.68 10.3C16.71 10.21 16.74 10.12 16.76 10.04C16.78 9.93 16.79 9.83 16.79 9.73L16.79 8.98C16.79 8.87 16.78 8.77 16.76 8.67C16.74 8.58 16.71 8.5 16.68 8.41C16.64 8.33 16.6 8.25 16.55 8.17C16.49 8.09 16.43 8.02 16.36 7.95C16.29 7.88 16.22 7.81 16.14 7.76C16.06 7.71 15.98 7.67 15.9 7.63C15.81 7.6 15.73 7.57 15.64 7.55ZM5.46 8.64L15.33 8.64C15.38 8.64 15.42 8.65 15.46 8.67C15.49 8.7 15.63 8.81 15.64 8.85L15.64 8.85Q15.67 8.91 15.67 8.98L15.67 9.73C15.67 9.77 15.66 9.82 15.64 9.86C15.61 9.89 15.5 10.02 15.46 10.04C15.42 10.06 15.38 10.06 15.33 10.06L5.46 10.06C5.41 10.06 5.37 10.06 5.33 10.04C5.29 10.01 5.16 9.9 5.14 9.86C5.13 9.82 5.12 9.77 5.12 9.73L5.12 8.98Q5.12 8.91 5.14 8.85L5.14 8.85C5.18 8.82 5.29 8.68 5.33 8.67C5.37 8.65 5.41 8.64 5.46 8.64ZM15.33 12.79C15.43 12.79 15.54 12.8 15.64 12.82C15.73 12.84 15.81 12.87 15.9 12.91C15.98 12.94 16.06 12.98 16.14 13.03C16.22 13.09 16.29 13.15 16.36 13.22C16.43 13.29 16.49 13.36 16.55 13.45C16.6 13.52 16.64 13.6 16.68 13.68C16.71 13.77 16.74 13.86 16.76 13.94C16.78 14.04 16.79 14.15 16.79 14.25L16.79 15C16.79 15.1 16.78 15.21 16.76 15.31C16.74 15.4 16.71 15.48 16.68 15.57C16.64 15.65 16.6 15.73 16.55 15.81C16.49 15.89 16.43 15.96 16.36 16.03C16.29 16.1 16.22 16.17 16.14 16.22C16.06 16.27 15.98 16.31 15.9 16.35C15.81 16.38 15.73 16.41 15.64 16.43C15.54 16.45 15.43 16.46 15.33 16.46L5.46 16.46C5.35 16.46 5.25 16.45 5.15 16.43C5.06 16.41 4.97 16.38 4.89 16.35C4.8 16.31 4.72 16.27 4.65 16.22C4.57 16.17 4.49 16.1 4.42 16.03C4.35 15.96 4.29 15.89 4.24 15.81C4.19 15.73 4.14 15.65 4.11 15.57C4.07 15.48 4.04 15.4 4.03 15.31C4 15.21 3.99 15.1 3.99 15L3.99 14.25C3.99 14.15 4 14.04 4.03 13.94C4.04 13.86 4.07 13.77 4.11 13.68C4.14 13.6 4.19 13.52 4.24 13.45C4.29 13.36 4.35 13.29 4.42 13.22C4.49 13.15 4.57 13.09 4.65 13.03C4.72 12.98 4.8 12.94 4.89 12.91C4.97 12.87 5.06 12.84 5.15 12.82C5.25 12.8 5.35 12.79 5.46 12.79L15.33 12.79ZM15.33 13.92L5.46 13.92C5.41 13.92 5.37 13.92 5.33 13.94C5.29 13.96 5.18 14.09 5.14 14.12C5.13 14.16 5.12 14.21 5.12 14.25L5.12 15Q5.12 15.07 5.14 15.13L5.14 15.13C5.16 15.17 5.29 15.28 5.33 15.31C5.37 15.33 5.41 15.34 5.46 15.34L15.33 15.34C15.38 15.34 15.42 15.33 15.46 15.31C15.5 15.3 15.61 15.16 15.64 15.13C15.66 15.09 15.67 15.05 15.67 15L15.67 14.25C15.67 14.21 15.66 14.16 15.64 14.12C15.63 14.08 15.49 13.97 15.46 13.94C15.42 13.92 15.38 13.92 15.33 13.92Z" fill="#191919" fill-opacity="1.000000" fill-rule="evenodd"/>
</svg>
