<?xml version="1.0" encoding="utf-8"?>
<svg version="1.1" id="_层_1" xmlns="http://www.w3.org/2000/svg" xmlns:xlink="http://www.w3.org/1999/xlink" x="0px" y="0px"
	 viewBox="0 0 132 132" style="enable-background:new 0 0 132 132;" xml:space="preserve">
<style type="text/css">
	.st0{fill:none;}
	.st1{fill:currentColor;}
</style>
<rect id="_形备份" class="st0" width="132" height="132"/>
<path class="st1" d="M94.9,123.8H37.1c-11.4,0-20.6-9.2-20.6-20.6V28.9c0-11.4,9.2-20.6,20.6-20.6h41.2c1.1,0,2.1,0.4,2.9,1.2l33,33
	c0.7,0.7,1.2,1.8,1.2,2.9v57.8C115.5,114.5,106.3,123.8,94.9,123.8z M37.1,16.5c-6.8,0-12.4,5.5-12.4,12.4v74.2
	c0,6.8,5.5,12.4,12.4,12.4h57.8c6.8,0,12.4-5.5,12.4-12.4v-56L76.6,16.5H37.1z"/>
</svg>
