<?xml version="1.0" encoding="utf-8"?>
<!-- Generator: Adobe Illustrator 26.0.2, SVG Export Plug-In . SVG Version: 6.00 Build 0)  -->
<svg version="1.1" id="图层_1" xmlns="http://www.w3.org/2000/svg" xmlns:xlink="http://www.w3.org/1999/xlink" x="0px" y="0px"
	 viewBox="0 0 16 16" style="enable-background:new 0 0 16 16;" xml:space="preserve">
<g id="类型_x2F_对象">
	<path d="M13,14.4H3c-0.8,0-1.5-0.7-1.5-1.5v-1.7c0-0.8,0.7-1.5,1.5-1.5h10c0.8,0,1.5,0.7,1.5,1.5v1.7C14.5,13.7,13.8,14.4,13,14.4z
		 M3,10.7c-0.3,0-0.5,0.2-0.5,0.5v1.7c0,0.3,0.2,0.5,0.5,0.5h10c0.3,0,0.5-0.2,0.5-0.5v-1.7c0-0.3-0.2-0.5-0.5-0.5H3z"/>
	<path d="M12.6,9.2H3.4c-0.8,0-1.5-0.7-1.5-1.5c0-0.2,0-0.3,0.1-0.5l1.6-4.6c0.2-0.6,0.8-1,1.4-1h6c0.6,0,1.2,0.4,1.4,1L14,7.2
		c0.3,0.8-0.1,1.6-0.9,1.9C12.9,9.2,12.8,9.2,12.6,9.2z M5,2.6c-0.2,0-0.4,0.1-0.5,0.3L2.9,7.5c0,0.1,0,0.1,0,0.2
		c0,0.3,0.2,0.5,0.5,0.5h9.2c0.1,0,0.1,0,0.2,0C12.9,8.1,13,8,13,7.9c0.1-0.1,0.1-0.3,0-0.4l-1.6-4.6c-0.1-0.2-0.3-0.3-0.5-0.3H5z"
		/>
</g>
</svg>
