<?xml version="1.0" encoding="utf-8"?>
<svg version="1.1" id="图层_1" xmlns="http://www.w3.org/2000/svg" xmlns:xlink="http://www.w3.org/1999/xlink" x="0px" y="0px"
	 viewBox="0 0 132 132" style="enable-background:new 0 0 132 132;" xml:space="preserve">
<style type="text/css">
	.st0{fill:none;}
	.st1{fill-rule:evenodd;clip-rule:evenodd;fill:currentColor;}
</style>
<rect id="size" class="st0" width="132" height="132"/>
<path id="合并" class="st1" d="M18.4,35.4c2.5-14.6,22.8-26,47.6-26c24.8,0,45.2,11.4,47.6,26c0.2,0.4,0.2,0.9,0.2,1.4v1.5v0v0V66
	v0v0v29.1c0,0.5-0.1,0.9-0.2,1.4c0,0.1,0,0.1,0,0.2c-0.5,3.1-1.9,6.2-4,9c-2.6,3.4-6.1,6.4-10.6,9c-4.4,2.5-9.4,4.4-15,5.8
	c-5.7,1.4-11.7,2.1-18,2.1c-6.3,0-12.3-0.7-18-2.1c-5.6-1.4-10.6-3.3-15-5.8c-4.5-2.6-8.1-5.6-10.6-9c-2.1-2.9-3.5-5.9-4-9
	c0-0.1,0-0.1,0-0.2c-0.1-0.4-0.2-0.9-0.2-1.4V66v0v0V38.4v0v0v-1.5C18.1,36.3,18.2,35.8,18.4,35.4z M26.4,38.4L26.4,38.4
	c0-11.5,17.8-20.8,39.6-20.8c21.9,0,39.6,9.3,39.6,20.7v0c0,11.4-17.8,20.7-39.6,20.7C44.1,59.1,26.4,49.8,26.4,38.4z M26.4,54.6V66
	c0.1,2.2,1,5.1,2.6,7.2c1.9,2.5,4.6,4.8,8.1,6.8c3.7,2.1,8,3.7,12.8,4.9c5.1,1.2,10.5,1.8,16.1,1.8s11-0.6,16.1-1.8
	c4.9-1.2,9.1-2.8,12.8-4.9c3.5-2,6.2-4.3,8.1-6.8c1.6-2.1,2.5-5,2.6-7.2V54.6C97,62.3,82.5,67.4,66,67.4
	C49.5,67.4,35,62.3,26.4,54.6z M26.4,82.5v11.8l0,0c0.1,2.2,1,4.4,2.6,6.6c1.9,2.5,4.6,4.8,8.1,6.8c3.7,2.1,8,3.7,12.8,4.9
	c5.1,1.2,10.5,1.8,16.1,1.8s11-0.6,16.1-1.8c4.9-1.2,9.1-2.8,12.8-4.9c3.5-2,6.2-4.3,8.1-6.8c1.6-2.1,2.5-5,2.6-7.2V82.5
	c-1.9,1.7-4.1,3.3-6.7,4.7c-4.4,2.5-9.4,4.4-15,5.8C78.3,94.3,72.3,95,66,95c-6.3,0-12.3-0.7-18-2.1c-5.6-1.3-10.6-3.3-15-5.8
	C30.5,85.7,28.3,84.2,26.4,82.5z"/>
</svg>
