<svg version="1.1" id="图层_1"
  xmlns="http://www.w3.org/2000/svg"
  xmlns:xlink="http://www.w3.org/1999/xlink" x="0px" y="0px" viewBox="0 0 64 64" style="enable-background:new 0 0 64 64;" xml:space="preserve">
  <style type="text/css">
	.st0{fill:currentcolor;}
  </style>
  <g>
    <path class="st0" d="M55.8,7.6H8.5c-1.1,0-2,0.9-2,2v44.3c0,1.1,0.9,2,2,2h47.2c1.1,0,2-0.9,2-2V9.6C57.8,8.5,56.9,7.6,55.8,7.6z
		 M53.8,11.6v19.7H10.5V11.6H53.8z M10.5,34.3h20.1v7.2H10.5V34.3z M33.7,34.3h20.1v7.2H33.7V34.3z M10.5,44.5h20.1v7.4H10.5V44.5z
		 M33.7,51.9v-7.4h20.1v7.4H33.7z"/>
    <path class="st0" d="M27.2,29c0.1,0,0.2,0,0.3,0l4.5-0.9c0.3-0.1,0.5-0.2,0.7-0.4l7.7-7.7c0.2-0.2,0.4-0.6,0.4-0.9
		s-0.1-0.7-0.4-0.9l-3.6-3.6c-0.5-0.5-1.3-0.5-1.8,0l-7.7,7.7c-0.2,0.2-0.3,0.4-0.4,0.7L26,27.5c-0.1,0.4,0,0.9,0.4,1.2
		C26.5,28.9,26.8,29,27.2,29z M29.3,23.8l6.5-6.5l1.8,1.8l-6.5,6.5L28.9,26L29.3,23.8z"/>
  </g>
</svg>
