<svg version="1.1" id="图层_1"
  xmlns="http://www.w3.org/2000/svg"
  xmlns:xlink="http://www.w3.org/1999/xlink" x="0px" y="0px" viewBox="0 0 64 64" style="enable-background:new 0 0 64 64;" xml:space="preserve">
  <style type="text/css">
	.st0{fill:currentcolor;}
	.st1{opacity:0.7;fill:#ADB0B8;enable-background:new    ;}
  </style>
  <g>
    <g>
      <path class="st0" d="M56.2,10H6.6c-1.1,0-2,0.9-2,2v25c0,1.1,0.9,2,2,2h5.7l4.8,5.6c0.4,0.4,0.9,0.7,1.4,0.7c0,0,0,0,0.1,0
			c0.5,0,1-0.2,1.4-0.6l5.6-5.7h30.6c1.1,0,2-0.9,2-2V12C58.2,10.9,57.4,10,56.2,10z M54.2,35H24.8c-0.5,0-1,0.2-1.4,0.6l-4.7,4.7
			l-4-4.6c-0.4-0.4-0.9-0.7-1.5-0.7H8.6V14h45.7v21H54.2z"/>
      <rect x="14.7" y="22.5" class="st0" width="33.3" height="3"/>
    </g>
    <path class="st1" d="M26.5,57.1h-14c-0.4,0-0.7-0.3-0.7-0.7v-5.2c0-0.4,0.3-0.7,0.7-0.7h14c0.4,0,0.7,0.3,0.7,0.7v5.2
		C27.2,56.8,26.9,57.1,26.5,57.1z"/>
  </g>
</svg>
