<?xml version="1.0" encoding="utf-8"?>
<!-- Generator: Adobe Illustrator 26.0.2, SVG Export Plug-In . SVG Version: 6.00 Build 0)  -->
<svg version="1.1" id="图层_1" xmlns="http://www.w3.org/2000/svg" xmlns:xlink="http://www.w3.org/1999/xlink" x="0px" y="0px"
	 viewBox="0 0 64 64" style="enable-background:new 0 0 64 64;" xml:space="preserve">
<style type="text/css">
	.st0{fill:currentColor;}
</style>
<path class="st0" d="M31.9,9.4l-24,17.4L17.1,55h29.7L56,26.8L31.9,9.4z M43.9,29.5l-11.1-8v-6.6l17.4,12.7L43.9,29.5z M13.5,27.5
	l17.4-12.7v6.6l-11.1,8L13.5,27.5z M31.9,35.9l5,7.1H26.8L31.9,35.9z M30.9,25.1v7.8l-7.6-2.3L30.9,25.1z M30.3,34.7l-4.9,6.9
	l-3-9.4L30.3,34.7z M24.8,45.9H39l3.7,5.3H21L24.8,45.9z M33.5,34.7l7.9-2.4l-3,9.3L33.5,34.7z M32.9,32.9v-7.8l7.6,5.5L32.9,32.9z
	 M12.8,29.4l6.2,1.9l4.3,13.4L19.5,50L12.8,29.4z M44.3,50l-3.8-5.4l4.3-13.3l6.2-1.9L44.3,50z"/>
</svg>
