<?xml version="1.0" encoding="utf-8"?>
<!-- Generator: Adobe Illustrator 26.0.2, SVG Export Plug-In . SVG Version: 6.00 Build 0)  -->
<svg version="1.1" id="图层_1" xmlns="http://www.w3.org/2000/svg" xmlns:xlink="http://www.w3.org/1999/xlink" x="0px" y="0px"
	 viewBox="0 0 44 44" style="enable-background:new 0 0 44 44;" xml:space="preserve">
<style type="text/css">
	.st0{fill-rule:evenodd;clip-rule:evenodd;fill:currentColor;}
</style>
<desc>Created with Pixso.</desc>
<path id="矢量_91" class="st0" d="M39,10H5c-1.7,0-3,1.3-3,3v18c0,1.7,1.3,3,3,3h34c1.7,0,3-1.3,3-3V13C42,11.3,40.7,10,39,10z
	 M39,11H5c-0.7,0-1.2,0.2-1.5,0.5C3.2,11.8,3,12.3,3,13v18c0,0.7,0.2,1.2,0.5,1.5C3.8,32.8,4.3,33,5,33h34c0.7,0,1.2-0.2,1.5-0.5
	c0.3-0.3,0.5-0.8,0.5-1.5V13c0-0.7-0.2-1.2-0.5-1.5C40.2,11.2,39.7,11,39,11z M8,22.2c0-3.4,2.8-6.2,6.2-6.2c3.4,0,6.2,2.8,6.2,6.2
	c0,3.4-2.8,6.2-6.2,6.2C10.8,28.4,8,25.6,8,22.2z M9,22.2c0-2.9,2.3-5.2,5.2-5.2c2.9,0,5.2,2.3,5.2,5.2s-2.3,5.2-5.2,5.2
	C11.3,27.4,9,25,9,22.2z M24,18.5c-0.3,0-0.5,0.2-0.5,0.5c0,0.3,0.2,0.5,0.5,0.5h12c0.3,0,0.5-0.2,0.5-0.5c0-0.3-0.2-0.5-0.5-0.5H24
	z M14.1,19c-1.7,0-3.1,1.4-3.1,3.1c0,1.7,1.4,3.1,3.1,3.1c1.7,0,3.1-1.4,3.1-3.1C17.2,20.4,15.8,19,14.1,19z M23.5,24.2
	c0-0.3,0.2-0.5,0.5-0.5h8c0.3,0,0.5,0.2,0.5,0.5c0,0.3-0.2,0.5-0.5,0.5h-8C23.7,24.7,23.5,24.5,23.5,24.2z"/>
</svg>
