<svg version="1.1" id="图层_1" xmlns="http://www.w3.org/2000/svg" xmlns:xlink="http://www.w3.org/1999/xlink" x="0px" y="0px" viewBox="0 0 16 16" style="enable-background:new 0 0 16 16;" xml:space="preserve" width="132px" height="132px">
<style type="text/css">
	.st0{fill:#575D6C;}
</style>
<path id="蒙版" class="st0" d="M8.4,0c0.2,0,0.3,0.1,0.3,0.3l0,1.7C12.3,2.4,15,5.4,15,9c0,3.9-3.1,7-7,7s-7-3.1-7-7&#10;&#9;c0-3.6,2.7-6.6,6.3-7l0-1.7C7.2,0.1,7.4,0,7.6,0H8.4z M8,3.5C5,3.5,2.5,6,2.5,9S5,14.5,8,14.5S13.5,12,13.5,9S11,3.5,8,3.5z&#10;&#9; M11.1,7.3c0.3,0.3,0.3,0.8,0,1.1l-1.8,1.8c-0.3,0.3-0.7,0.3-1,0.1c0,0-0.1-0.1-0.1-0.1L7.3,9.2L6,10.5c-0.3,0.3-0.8,0.3-1.1,0&#10;&#9;c-0.3-0.3-0.3-0.8,0-1.1l1.8-1.8c0,0,0,0,0,0C6.9,7.5,7,7.4,7.2,7.4h0.1c0.2,0,0.3,0.1,0.5,0.2l0,0l0.9,0.9L10,7.3&#10;&#9;C10.3,7,10.8,7,11.1,7.3z M13.9,1.7l1,1C15,2.9,15,3,14.9,3.2l-0.6,0.6c-0.1,0.1-0.3,0.1-0.4,0l-1-1c-0.1-0.1-0.1-0.3,0-0.4l0.6-0.6&#10;&#9;C13.6,1.6,13.7,1.6,13.9,1.7z"/>
</svg>