<svg width="16.000000" height="16.000000" viewBox="0 0 16 16" fill="none" xmlns="http://www.w3.org/2000/svg" xmlns:xlink="http://www.w3.org/1999/xlink">
	<desc>
			Created with Pixso.
	</desc>
	<defs/>
	<mask id="mask413_10001" mask-type="alpha" maskUnits="userSpaceOnUse" x="0.000000" y="0.000000" width="16.000000" height="16.000000">
		<rect id="刷新-refresh" width="16.000000" height="16.000000" fill="#000000" fill-opacity="1.000000"/>
	</mask>
	<g mask="url(#mask413_10001)">
		<path id="形状结合" d="M11.79 2.74C14.54 4.72 15.26 8.45 13.53 11.29L15.24 10.84C15.47 10.77 15.7 10.89 15.79 11.09C15.87 11.35 15.75 11.69 15.49 11.76L12.59 12.53C12.34 12.6 12.08 12.45 12 12.19L11.23 9.3C11.15 9.05 11.3 8.78 11.56 8.71C11.81 8.64 12.09 8.8 12.15 9.05L12.64 10.9C14.21 8.48 13.62 5.23 11.24 3.51C8.76 1.73 5.31 2.27 3.52 4.72C1.73 7.17 2.28 10.6 4.75 12.38C6.41 13.59 8.27 13.84 10.38 13.15C10.63 13.08 10.9 13.21 11 13.46C11.08 13.71 10.93 13.98 10.68 14.06C8.28 14.84 6.1 14.54 4.19 13.16C1.29 11.06 0.64 7.03 2.75 4.16C4.85 1.28 8.9 0.64 11.79 2.74Z" fill="#191919" fill-opacity="1.000000" fill-rule="nonzero"/>
	</g>
</svg>
