<svg width="16.000000" height="16.000000" viewBox="0 0 16 16" fill="currentColor" xmlns="http://www.w3.org/2000/svg" xmlns:xlink="http://www.w3.org/1999/xlink">
	<desc>
			Created with Pixso.
	</desc>
	<defs/>
	<mask id="mask1188_13252" mask-type="alpha" maskUnits="userSpaceOnUse" x="0.000000" y="0.000000" width="16.000000" height="16.000000">
		<rect id="开发文档-development" width="16.000000" height="16.000000" fill="currentColor" stroke="currentColor" fill-opacity="1.000000"/>
	</mask>
	<g mask="url(#mask1188_13252)">
		<path id="path" d="M11.5 15L4.5 15C3.11 15 2 13.87 2 12.5L2 3.5C2 2.1 3.11 1 4.5 1L9.5 1C9.62 1 9.75 1.04 9.84 1.14L13.84 5.14C13.92 5.24 14 5.35 14 5.5L14 12.5C14 13.87 12.87 15 11.5 15ZM4.5 2C3.66 2 3 2.66 3 3.5L3 12.5C3 13.33 3.66 14 4.5 14L11.5 14C12.33 14 13 13.33 13 12.5L13 5.7L9.28 2L4.5 2Z" fill="currentColor" fill-opacity="1.000000" fill-rule="nonzero"/>
	</g>
	<path id="直线-14备份" d="M10.5 8C10.76 8 11 8.21 11 8.5C11 8.77 10.76 9 10.5 9L5.5 9C5.21 9 5 8.77 5 8.5C5 8.21 5.21 8 5.5 8L10.5 8Z" fill="currentColor" fill-opacity="1.000000" fill-rule="nonzero"/>
</svg>
