<svg version="1.1" id="report" xmlns="http://www.w3.org/2000/svg" xmlns:xlink="http://www.w3.org/1999/xlink" x="0px" y="0px" viewBox="0 0 14 16" style="enable-background:new 0 0 14 16;" xml:space="preserve" width="132px" height="132px">
<style type="text/css">
	.st0{fill:currentcolor;}
</style>
<path id="形状结合" class="st0" d="M12.5,0c0.6,0,1,0.4,1,1v10l0,0h0l-0.2,0.2L8.5,16h-7c-0.6,0-1-0.4-1-1V1c0-0.6,0.4-1,1-1&#10;&#9;H12.5z M12,1.5H2v13h6.5V12c0-0.6,0.4-1,1-1H12V1.5z M5.8,11c0.4,0,0.8,0.3,0.8,0.8s-0.3,0.8-0.8,0.8H4.3c-0.4,0-0.8-0.3-0.8-0.8&#10;&#9;S3.8,11,4.3,11H5.8z M8.8,7c0.4,0,0.8,0.3,0.8,0.8c0,0.4-0.3,0.8-0.8,0.8H4.3c-0.4,0-0.8-0.3-0.8-0.8C3.5,7.3,3.8,7,4.3,7H8.8z&#10;&#9; M9.8,3c0.4,0,0.8,0.3,0.8,0.8s-0.3,0.8-0.8,0.8H4.3c-0.4,0-0.8-0.3-0.8-0.8S3.8,3,4.3,3H9.8z"/>
</svg>