<?xml version="1.0" encoding="utf-8"?>
<!-- Generator: Adobe Illustrator 26.0.2, SVG Export Plug-In . SVG Version: 6.00 Build 0)  -->
<svg version="1.1" id="图层_1" xmlns="http://www.w3.org/2000/svg" xmlns:xlink="http://www.w3.org/1999/xlink" x="0px" y="0px"
	 viewBox="0 0 16 16" style="enable-background:new 0 0 16 16;" xml:space="preserve">
<style type="text/css">
	.st0{fill:none;stroke:currentColor;stroke-miterlimit:10;}
	.st1{fill:currentColor;}
</style>
<g>
	<path class="st0" d="M11.7,4.9H4.3c-0.8,0-1.4-0.6-1.4-1.4v0c0-0.8,0.6-1.4,1.4-1.4h7.4c0.8,0,1.4,0.6,1.4,1.4v0
		C13.1,4.3,12.5,4.9,11.7,4.9z"/>
	<circle class="st1" cx="11.3" cy="3.5" r="0.5"/>
</g>
<g>
	<path class="st0" d="M11.7,9.4H4.3C3.5,9.4,2.9,8.8,2.9,8v0c0-0.8,0.6-1.4,1.4-1.4h7.4c0.8,0,1.4,0.6,1.4,1.4v0
		C13.1,8.8,12.5,9.4,11.7,9.4z"/>
	<circle class="st1" cx="11.3" cy="8" r="0.5"/>
</g>
<g>
	<path class="st0" d="M11.7,13.8H4.3c-0.8,0-1.4-0.6-1.4-1.4v0c0-0.8,0.6-1.4,1.4-1.4h7.4c0.8,0,1.4,0.6,1.4,1.4v0
		C13.1,13.2,12.5,13.8,11.7,13.8z"/>
	<circle class="st1" cx="11.3" cy="12.5" r="0.5"/>
</g>
</svg>
