<svg version="1.1" id="图层_1"
  xmlns="http://www.w3.org/2000/svg"
  xmlns:xlink="http://www.w3.org/1999/xlink" x="0px" y="0px" viewBox="0 0 64 64" style="enable-background:new 0 0 64 64;" xml:space="preserve">
  <style type="text/css">
	.st0{fill:currentcolor;}
  </style>
  <g>
    <path class="st0" d="M59.4,16.1h-54c-1.1,0-2,0.9-2,2v26c0,1.1,0.9,2,2,2h54c1.1,0,2-0.9,2-2v-26C61.4,17,60.5,16.1,59.4,16.1z
		 M57.4,42.1h-50v-22h50V42.1z"/>
    <path class="st0" d="M44.1,36.9c1.5,0,3-0.5,4.1-1.4l3.6,3l1.9-2.3l-3.6-3c0.5-0.9,0.8-2,0.8-3.1c0-3.8-3.1-6.8-6.8-6.8
		s-6.8,3.1-6.8,6.8S40.4,36.9,44.1,36.9z M44.1,26.3c2.1,0,3.8,1.7,3.8,3.8s-1.7,3.8-3.8,3.8s-3.8-1.7-3.8-3.8S42,26.3,44.1,26.3z" />
  </g>
</svg>
