<svg version="1.1" id="图层_1"
  xmlns="http://www.w3.org/2000/svg"
  xmlns:xlink="http://www.w3.org/1999/xlink" x="0px" y="0px" viewBox="0 0 64 64" style="enable-background:new 0 0 64 64;" xml:space="preserve">
  <style type="text/css">
	.st0{fill:currentcolor;}
  </style>
  <g>
    <path class="st0" d="M58.5,17.3h-53c-1.1,0-2,0.9-2,2v24c0,1.1,0.9,2,2,2h53c1.1,0,2-0.9,2-2v-24C60.5,18.2,59.6,17.3,58.5,17.3z
		 M56.5,41.3h-49v-20h49V41.3z"/>
    <path class="st0" d="M43.9,35.3c0.6,0.9,1.9,0.9,2.5,0l4.5-6.3c0.7-1,0-2.4-1.2-2.4h-9c-1.2,0-2,1.4-1.2,2.4L43.9,35.3z"/>
  </g>
</svg>
