<svg version="1.1" id="setting-outline" xmlns="http://www.w3.org/2000/svg" xmlns:xlink="http://www.w3.org/1999/xlink" x="0px" y="0px" viewBox="0 0 16 16" style="enable-background:new 0 0 16 16;" xml:space="preserve" width="132px" height="132px">
<style type="text/css">
	.st0{fill:currentcolor;}
</style>
<g id="编组-19">
	<path id="Path" class="st0" d="M5.2,1.1C5.4,0.4,6.1,0,6.8,0h2.4c0.7,0,1.3,0.4,1.6,1.1l0.4,1.1c0.1,0.1,0.3,0.1,0.4,0.2l1.2-0.2&#10;&#9;&#9;C13.5,2,14.2,2.4,14.5,3l1.2,2c0.4,0.6,0.3,1.4-0.2,1.9l-0.7,0.9c0,0.1,0,0.3,0,0.4l0.7,0.9c0.5,0.5,0.5,1.3,0.2,1.9l-1.2,2&#10;&#9;&#9;c-0.4,0.6-1.1,0.9-1.8,0.8l-1.2-0.2c-0.1,0.1-0.3,0.1-0.4,0.2l-0.4,1.1C10.6,15.6,9.9,16,9.2,16H6.8c-0.7,0-1.3-0.4-1.6-1.1&#10;&#9;&#9;l-0.4-1.1c-0.1-0.1-0.3-0.1-0.4-0.2l-1.2,0.2c-0.7,0.1-1.4-0.2-1.8-0.8l-1.2-2c-0.4-0.6-0.3-1.4,0.2-1.9l0.7-0.9c0-0.1,0-0.3,0-0.4&#10;&#9;&#9;L0.4,6.9C-0.1,6.4-0.1,5.6,0.2,5l1.2-2c0.4-0.6,1.1-0.9,1.8-0.8l1.2,0.2c0.1-0.1,0.3-0.1,0.4-0.2L5.2,1.1z M9.2,1.5l-2.4,0&#10;&#9;&#9;c-0.1,0-0.1,0-0.2,0.1L6,3.3L5.7,3.4C5.5,3.5,5.2,3.7,5,3.8L4.7,4l-0.3,0L3,3.7c-0.1,0-0.1,0-0.2,0.1l-1.2,2c0,0,0,0.1,0,0.1&#10;&#9;&#9;l1.2,1.4l0,0.3c0,0.3,0,0.5,0,0.8l0,0.3L2.5,9l-0.9,1.1c0,0,0,0.1,0,0.1l1.2,2c0,0.1,0.1,0.1,0.2,0.1L4.7,12L5,12.2&#10;&#9;&#9;c0.2,0.2,0.5,0.3,0.7,0.4L6,12.7L6.1,13l0.5,1.3c0,0.1,0.1,0.1,0.2,0.1h2.4c0.1,0,0.1,0,0.2-0.1l0.6-1.6l0.3-0.1&#10;&#9;&#9;c0.3-0.1,0.5-0.2,0.7-0.4l0.3-0.2l0.3,0l1.5,0.2c0.1,0,0.1,0,0.2-0.1l1.2-2c0,0,0-0.1,0-0.1l-1.2-1.3l0-0.3c0-0.3,0-0.5,0-0.8&#10;&#9;&#9;l0-0.3L13.5,7l0.9-1.1c0,0,0-0.1,0-0.1l-1.2-2c0-0.1-0.1-0.1-0.2-0.1L11.3,4L11,3.8c-0.2-0.2-0.5-0.3-0.7-0.4L10,3.3L9.9,3L9.4,1.6&#10;&#9;&#9;C9.4,1.6,9.3,1.5,9.2,1.5z"/>
	<path id="Path_1_" class="st0" d="M8,11c-1.7,0-3-1.3-3-3c0-1.7,1.3-3,3-3c1.7,0,3,1.3,3,3C11,9.7,9.7,11,8,11z M8,9.5&#10;&#9;&#9;c0.8,0,1.5-0.7,1.5-1.5c0-0.8-0.7-1.5-1.5-1.5C7.2,6.5,6.5,7.2,6.5,8C6.5,8.8,7.2,9.5,8,9.5z"/>
</g>
</svg>