<?xml version="1.0" encoding="UTF-8"?>
<svg width="16px" height="16px" viewBox="0 0 16 16" version="1.1" xmlns="http://www.w3.org/2000/svg" xmlns:xlink="http://www.w3.org/1999/xlink">
    <title>操作/设置 2</title>
    <g id="操作/设置" stroke="none" stroke-width="1" fill="none" fill-rule="evenodd">
        <g id="编组">
            <polygon id="Fill-1" points="0 16 16 16 16 0 0 0"></polygon>
            <g transform="translate(2.519118, 2.300100)" stroke="currentColor">
                <path d="M6.27318153,0 C6.64618153,0 6.98218153,0.221 7.12918153,0.563 L7.56618153,1.583 L8.01918153,1.844 L9.12718153,1.71 C9.48518153,1.667 9.83518153,1.834 10.0261815,2.136 L10.0451815,2.167 L10.8361815,3.531 C11.0231815,3.854 10.9991815,4.256 10.7741815,4.553 L10.1061815,5.441 L10.1061815,5.959 L10.7741815,6.846 C10.9921815,7.134 11.0221815,7.52 10.8551815,7.836 L10.8361815,7.869 L10.0451815,9.232 C9.85818153,9.554 9.49818153,9.734 9.12718153,9.689 L8.01918153,9.556 L7.56618153,9.816 L7.12918153,10.837 C6.98718153,11.167 6.66718153,11.385 6.30918153,11.399 L6.27318153,11.4 L4.68918153,11.4 C4.31518153,11.4 3.97918153,11.178 3.83318153,10.837 L3.39518153,9.816 L2.94218153,9.556 L1.83418153,9.689 C1.47618153,9.732 1.12718153,9.565 0.935181531,9.263 L0.917181531,9.232 L0.125181531,7.869 C-0.0618184694,7.546 -0.0378184694,7.144 0.187181531,6.846 L0.856181531,5.959 L0.856181531,5.441 L0.187181531,4.553 C-0.0298184694,4.266 -0.0598184694,3.88 0.107181531,3.564 L0.125181531,3.531 L0.917181531,2.167 C1.10318153,1.846 1.46418153,1.666 1.83418153,1.71 L2.94218153,1.844 L3.39518153,1.583 L3.83318153,0.563 C3.97418153,0.232 4.29418153,0.014 4.65218153,0 L4.68918153,0 L6.27318153,0 Z" id="Stroke-2" stroke-linecap="round" stroke-linejoin="round"></path>
                <path d="M5.48068153,3.5073 C4.27068153,3.5073 3.28868153,4.4893 3.28868153,5.6993 C3.28868153,6.9103 4.27068153,7.8923 5.48068153,7.8923 C6.69168153,7.8923 7.67268153,6.9103 7.67268153,5.6993 C7.67268153,4.4893 6.69168153,3.5073 5.48068153,3.5073 Z" id="Stroke-4"></path>
            </g>
        </g>
    </g>
</svg>