<?xml version="1.0" encoding="utf-8"?>
<svg version="1.1" id="图层_1" xmlns="http://www.w3.org/2000/svg" xmlns:xlink="http://www.w3.org/1999/xlink" x="0px" y="0px"
	 viewBox="0 0 132 132" style="enable-background:new 0 0 132 132;" xml:space="preserve">
<style type="text/css">
	.st0{fill:none;}
	.st1{fill:currentColor;}
</style>
<rect id="size" class="st0" width="132" height="132"/>
<path id="形状结合" class="st1" d="M73.2,9.9c4.5,0,8.7,2.4,11,6.5l0.6,1.1l3.4,8l1.7,1l8.8-1c3.8-0.5,7.7,0.9,10.5,3.7l0.9,1
	l0.8,1.2l7.4,12.8c2.2,3.9,2.3,8.6-0.1,12.7l-0.8,1.2l-5.3,7v2l5.3,7c2.3,3.1,3.1,7.1,2.1,10.9l-0.4,1.3l-0.6,1.3l-7.4,12.8
	c-2.3,3.9-6.4,6.3-11.2,6.3l-1.3-0.1l-8.8-1.1l-1.7,1l-3.4,8c-1.5,3.6-4.6,6.2-8.5,7.2L75,122l-1.4,0.1l-14.9,0
	c-4.5,0-8.7-2.4-11-6.5l-0.6-1.1l-3.5-8l-1.7-1l-8.7,1.1c-3.8,0.5-7.7-0.9-10.5-3.7l-0.9-1l-0.8-1.2l-7.4-12.8
	c-2.2-3.9-2.3-8.6,0.1-12.7l0.8-1.2l5.3-7v-2l-5.3-7c-2.3-3.1-3.1-7.1-2.1-10.9l0.4-1.3l0.6-1.3l0.2-0.4l7.2-12.4
	c2.3-3.9,6.4-6.3,11.2-6.3l1.3,0.1l8.7,1l1.7-1l3.5-8c1.5-3.6,4.6-6.2,8.5-7.2L57,10l1.5-0.1L73.2,9.9z M58.9,18.1L58,18.2
	c-1.5,0.2-2.7,1.2-3.3,2.6l-4,9.3c-0.4,0.8-1,1.5-1.7,1.9l-4.1,2.4c-0.8,0.4-1.7,0.6-2.5,0.5l-9.9-1.2l-0.8-0.1
	c-1.6,0-3,0.8-3.8,2.2l-7.2,12.4l-0.4,0.7c-0.5,1.4-0.3,2.9,0.6,4.1l6.1,8.1c0.5,0.7,0.8,1.6,0.8,2.5v4.7c0,0.9-0.3,1.8-0.8,2.5
	l-5.9,7.9l-0.5,0.7c-0.8,1.3-0.7,3,0,4.3l7.2,12.4l0.5,0.7c0.9,1.1,2.4,1.7,3.9,1.5l10.1-1.2c0.9-0.1,1.8,0.1,2.5,0.5L49,100
	c0.8,0.4,1.4,1.1,1.7,1.9l3.9,9.1l0.3,0.7c0.8,1.3,2.2,2.2,3.8,2.2h14.4l0.8-0.1c1.5-0.2,2.7-1.2,3.3-2.6l4-9.3
	c0.4-0.8,1-1.5,1.7-1.9l4.1-2.4c0.8-0.4,1.7-0.6,2.5-0.5l9.9,1.2l0.8,0.1c1.6,0,3-0.8,3.8-2.2l7.2-12.4l0.4-0.7
	c0.5-1.4,0.3-2.9-0.6-4.1l-6.1-8.1c-0.5-0.7-0.8-1.6-0.8-2.5v-4.7c0-0.9,0.3-1.8,0.8-2.5l5.9-7.9l0.5-0.7c0.8-1.3,0.7-3,0-4.3
	l-7.2-12.4l-0.5-0.7c-0.9-1.1-2.4-1.7-3.9-1.5l-10.1,1.2c-0.9,0.1-1.8-0.1-2.5-0.5L83,32c-0.8-0.4-1.4-1.1-1.7-1.9L77.3,21L77,20.3
	c-0.8-1.3-2.2-2.2-3.8-2.2L58.9,18.1z M66.3,44.4c11.9,0,21.6,9.7,21.6,21.6s-9.7,21.6-21.6,21.6S44.7,77.9,44.7,66
	S54.4,44.4,66.3,44.4z M66.3,52.7C59,52.7,53,58.6,53,66s6,13.3,13.3,13.3c7.4,0,13.3-6,13.3-13.3S73.7,52.7,66.3,52.7z"/>
</svg>
