<svg version="1.1" id="图层_1"
  xmlns="http://www.w3.org/2000/svg"
  xmlns:xlink="http://www.w3.org/1999/xlink" x="0px" y="0px" viewBox="0 0 64 64" style="enable-background:new 0 0 64 64;" xml:space="preserve">
  <style type="text/css">
	.st0{fill:currentcolor;}
  </style>
  <path class="st0" d="M51.2,56.1H12.8c-1.1,0-2-0.9-2-2V9.6c0-1.1,0.9-2,2-2h38.4c1.1,0,2,0.9,2,2v44.5
	C53.2,55.2,52.3,56.1,51.2,56.1z M14.8,52.1h34.4V11.6H14.8V52.1z"/>
  <g>
    <path class="st0" d="M43.9,39.4h-23c-0.3,0-0.5,0.2-0.5,0.5v5c0,0.3,0.2,0.5,0.5,0.5h23c0.3,0,0.5-0.2,0.5-0.5v-5
		C44.4,39.6,44.2,39.4,43.9,39.4z"/>
    <path class="st0" d="M57.3,28.9h-23c-0.3,0-0.5,0.2-0.5,0.5v5c0,0.3,0.2,0.5,0.5,0.5h23c0.3,0,0.5-0.2,0.5-0.5v-5
		C57.8,29.1,57.5,28.9,57.3,28.9z"/>
    <path class="st0" d="M20.9,24.3h23c0.3,0,0.5-0.2,0.5-0.5v-5c0-0.3-0.2-0.5-0.5-0.5h-23c-0.3,0-0.5,0.2-0.5,0.5v5
		C20.4,24.1,20.6,24.3,20.9,24.3z"/>
    <path class="st0" d="M30.3,30.9H24l1.4-1.4L24,28.1l-3,3c-0.2,0.2-0.3,0.4-0.3,0.7s0.1,0.5,0.3,0.7l3.2,3.2l1.4-1.4l-1.4-1.4h6.2
		v-2H30.3z"/>
  </g>
</svg>
