<?xml version="1.0" encoding="utf-8"?>
<!-- Generator: Adobe Illustrator 26.0.2, SVG Export Plug-In . SVG Version: 6.00 Build 0)  -->
<svg version="1.1" id="图层_1" xmlns="http://www.w3.org/2000/svg" xmlns:xlink="http://www.w3.org/1999/xlink" x="0px" y="0px"
	 viewBox="0 0 16 16" style="enable-background:new 0 0 16 16;" xml:space="preserve">
<g>
	<path d="M6.5,3.4h6.6c0.3,0,0.5-0.2,0.5-0.5s-0.2-0.5-0.5-0.5H6.5C6.2,2.4,6,2.6,6,2.9S6.2,3.4,6.5,3.4z"/>
	<path d="M4.1,2.4H3.2c-0.3,0-0.5,0.2-0.5,0.5s0.2,0.5,0.5,0.5h0.9c0.3,0,0.5-0.2,0.5-0.5S4.4,2.4,4.1,2.4z"/>
	<path d="M13.1,5.6H6.5C6.2,5.6,6,5.8,6,6.1s0.2,0.5,0.5,0.5h6.6c0.3,0,0.5-0.2,0.5-0.5S13.4,5.6,13.1,5.6z"/>
	<path d="M4.1,5.6H3.2c-0.3,0-0.5,0.2-0.5,0.5s0.2,0.5,0.5,0.5h0.9c0.3,0,0.5-0.2,0.5-0.5S4.4,5.6,4.1,5.6z"/>
	<path d="M13.1,8.9H6.5C6.2,8.9,6,9.1,6,9.4s0.2,0.5,0.5,0.5h6.6c0.3,0,0.5-0.2,0.5-0.5S13.4,8.9,13.1,8.9z"/>
	<path d="M4.1,8.9H3.2c-0.3,0-0.5,0.2-0.5,0.5s0.2,0.5,0.5,0.5h0.9c0.3,0,0.5-0.2,0.5-0.5S4.4,8.9,4.1,8.9z"/>
	<path d="M13.1,12.2H6.5c-0.3,0-0.5,0.2-0.5,0.5s0.2,0.5,0.5,0.5h6.6c0.3,0,0.5-0.2,0.5-0.5S13.4,12.2,13.1,12.2z"/>
	<path d="M4.1,12.2H3.2c-0.3,0-0.5,0.2-0.5,0.5s0.2,0.5,0.5,0.5h0.9c0.3,0,0.5-0.2,0.5-0.5S4.4,12.2,4.1,12.2z"/>
</g>
</svg>
