<svg version="1.1" id="图层_1" xmlns="http://www.w3.org/2000/svg" xmlns:xlink="http://www.w3.org/1999/xlink" x="0px" y="0px" viewBox="0 0 16 16" style="enable-background:new 0 0 16 16;" xml:space="preserve" width="132px" height="132px">
<style type="text/css">
	.st0{fill:currentcolor;}
</style>
<path id="start-开始" class="st0" d="M8,0c4.4,0,8,3.6,8,8s-3.6,8-8,8s-8-3.6-8-8S3.6,0,8,0z M8,1.5C4.4,1.5,1.5,4.4,1.5,8&#10;&#9;s2.9,6.5,6.5,6.5s6.5-2.9,6.5-6.5S11.6,1.5,8,1.5z M6.5,5.4c0.1,0,0.2,0,0.3,0.1l3.5,2.1c0.2,0.1,0.3,0.4,0.2,0.7&#10;&#9;c0,0.1-0.1,0.1-0.2,0.2l-3.5,2.1c-0.2,0.1-0.5,0.1-0.7-0.2C6,10.3,6,10.2,6,10.1V5.9C6,5.6,6.2,5.4,6.5,5.4z"/>
</svg>