<svg clip-rule="evenodd" fill-rule="evenodd" height="125" stroke-linejoin="round" stroke-miterlimit="2" viewBox="0 0 125 125" width="125" xmlns="http://www.w3.org/2000/svg"><path d="m-34.738 60.172h84.001v72.445h-84.001z" fill="#e0e0e0" transform="matrix(1.48807306692 0 0 1.72543738752 51.693113736 -103.823282376)"/><g fill="#c2c2c2"><path d="m.072 0v-.727h.278c.053 0 .096.008.131.024.035.017.061.039.079.068.017.028.026.06.026.096 0 .03-.006.055-.017.076s-.027.038-.046.051-.041.022-.064.028v.007c.026.002.05.01.074.024s.043.034.059.06c.015.026.022.058.022.095s-.009.071-.027.101-.046.054-.082.071c-.037.017-.083.026-.139.026zm.131-.11h.142c.048 0 .082-.009.104-.028.021-.018.031-.042.031-.07 0-.022-.005-.041-.016-.059-.01-.017-.025-.031-.045-.041s-.043-.015-.07-.015h-.146zm0-.308h.131c.023 0 .043-.004.061-.013.018-.008.033-.02.043-.035.011-.016.016-.034.016-.056 0-.028-.01-.051-.029-.069-.02-.018-.05-.028-.088-.028h-.134z" fill-rule="nonzero" transform="matrix(13.9999958208 0 0 13.9999958208 22.9360381866 58.0945343022)"/><path d="m.223.011c-.035 0-.066-.006-.093-.019-.028-.012-.05-.03-.066-.055-.016-.024-.024-.054-.024-.09 0-.031.006-.056.018-.076.011-.021.026-.037.046-.049s.042-.021.067-.027c.024-.006.05-.011.077-.014.031-.003.057-.006.077-.009s.035-.007.044-.013.013-.015.013-.027v-.002c0-.027-.007-.047-.023-.062s-.039-.022-.069-.022c-.031 0-.056.007-.075.02-.018.014-.03.03-.037.049l-.12-.017c.01-.033.025-.061.047-.083.022-.023.049-.039.08-.051.032-.011.066-.017.104-.017.027 0 .053.004.079.01s.05.016.071.03c.022.014.039.033.052.057.013.025.02.055.02.091v.365h-.124v-.075h-.004c-.008.015-.019.029-.033.043-.014.013-.031.023-.053.031-.021.008-.046.012-.074.012zm.033-.094c.026 0 .049-.006.068-.016.018-.01.033-.024.043-.041.011-.017.016-.036.016-.056v-.064c-.004.003-.011.006-.021.009-.009.003-.02.006-.032.008s-.023.004-.035.005c-.012.002-.022.004-.03.005-.019.002-.036.007-.052.012-.015.006-.027.015-.035.025-.009.011-.014.024-.014.041 0 .023.009.041.026.053.018.013.04.019.066.019z" fill-rule="nonzero" transform="matrix(13.9999958208 0 0 13.9999958208 32.0439855186 58.0945343022)"/><path d="m.304.011c-.054 0-.101-.012-.14-.036s-.069-.057-.09-.099c-.021-.043-.031-.091-.031-.147 0-.055.01-.104.032-.146.021-.043.051-.076.09-.1s.085-.036.138-.036c.045 0 .084.009.118.025s.061.039.082.068c.02.03.032.064.035.103h-.123c-.005-.026-.017-.048-.036-.065-.018-.018-.043-.027-.074-.027-.026 0-.049.007-.069.021s-.036.035-.047.061-.016.058-.016.094c0 .037.005.069.016.096s.026.047.046.061c.02.015.043.022.07.022.019 0 .036-.004.051-.011s.028-.018.038-.031c.01-.014.017-.031.021-.05h.123c-.003.038-.015.072-.034.102-.02.03-.047.053-.081.07-.034.016-.073.025-.119.025z" fill-rule="nonzero" transform="matrix(13.9999958208 0 0 13.9999958208 39.938858289 58.0945343022)"/><path d="m.183-.171v-.155h.02l.197-.219h.15l-.241.268h-.027zm-.117.171v-.727h.129v.727zm.342 0-.177-.248.086-.091.245.339z" fill-rule="nonzero" transform="matrix(13.9999958208 0 0 13.9999958208 47.754181134 58.0945343022)"/><path d="m.303.214c-.046 0-.086-.006-.119-.019-.033-.012-.059-.028-.08-.049-.02-.021-.034-.043-.041-.068l.115-.028c.005.01.013.02.023.03s.023.019.04.026.039.01.064.01c.037 0 .067-.008.091-.026.024-.017.036-.046.036-.085v-.103h-.007c-.006.013-.016.027-.029.041-.012.014-.029.026-.05.035-.02.009-.046.014-.078.014-.041 0-.079-.01-.113-.029-.034-.02-.061-.05-.081-.089-.02-.04-.03-.089-.03-.149 0-.059.01-.11.03-.151.02-.042.047-.073.081-.094.034-.022.072-.033.114-.033.032 0 .058.006.079.017.021.01.037.023.049.038.013.015.022.029.028.043h.008v-.09h.126v.554c0 .046-.011.084-.033.114s-.053.053-.091.068c-.039.015-.083.023-.132.023zm.001-.323c.028 0 .051-.006.07-.02.019-.013.034-.032.044-.057s.015-.054.015-.089-.005-.065-.015-.09c-.01-.026-.024-.046-.044-.061-.019-.014-.042-.021-.07-.021s-.052.007-.071.022c-.02.015-.034.036-.044.062-.009.025-.014.055-.014.088s.005.062.014.087c.01.025.025.045.044.059.019.013.043.02.071.02z" fill-rule="nonzero" transform="matrix(13.9999958208 0 0 13.9999958208 55.0525036248 58.0945343022)"/><path d="m.066 0v-.545h.125v.09h.005c.01-.031.027-.055.052-.073.024-.017.052-.025.083-.025.007 0 .015 0 .024.001.009 0 .016.001.022.002v.119c-.005-.002-.014-.004-.026-.006-.011-.001-.023-.002-.034-.002-.023 0-.044.005-.063.015-.018.01-.033.024-.043.042-.011.018-.016.038-.016.061v.321z" fill-rule="nonzero" transform="matrix(13.9999958208 0 0 13.9999958208 63.5837263578 58.0945343022)"/><path d="m.304.011c-.053 0-.099-.012-.139-.036-.039-.023-.069-.056-.09-.098-.022-.042-.032-.091-.032-.148 0-.056.01-.105.032-.148.021-.042.051-.075.09-.098.04-.024.086-.036.139-.036s.099.012.138.036c.04.023.07.056.091.098.022.043.032.092.032.148 0 .057-.01.106-.032.148-.021.042-.051.075-.091.098-.039.024-.085.036-.138.036zm.001-.103c.029 0 .053-.008.072-.024.02-.016.034-.038.044-.065.009-.027.014-.057.014-.09s-.005-.064-.014-.091c-.01-.027-.024-.048-.044-.064-.019-.017-.043-.025-.072-.025-.03 0-.054.008-.074.025-.02.016-.034.037-.044.064-.009.027-.014.058-.014.091s.005.063.014.09c.01.027.024.049.044.065s.044.024.074.024z" fill-rule="nonzero" transform="matrix(13.9999958208 0 0 13.9999958208 68.555324772 58.0945343022)"/><path d="m.414-.229v-.316h.128v.545h-.124v-.097h-.006c-.012.031-.033.056-.061.075-.028.019-.062.029-.103.029-.036 0-.067-.008-.095-.024-.027-.016-.048-.039-.064-.07-.015-.03-.023-.068-.023-.111v-.347h.129v.327c0 .035.009.062.028.082.019.021.044.031.075.031.019 0 .037-.005.055-.014.017-.009.032-.023.043-.041.012-.019.018-.042.018-.069z" fill-rule="nonzero" transform="matrix(13.9999958208 0 0 13.9999958208 76.907572533 58.0945343022)"/><path d="m.195-.32v.32h-.129v-.545h.123v.092h.006c.013-.03.033-.055.061-.073.027-.018.061-.027.102-.027.038 0 .07.008.098.025.029.016.05.039.066.07.015.03.023.067.023.111v.347h-.129v-.327c0-.037-.009-.065-.028-.086s-.045-.031-.078-.031c-.022 0-.042.005-.06.015-.017.01-.031.024-.041.042-.009.019-.014.041-.014.067z" fill-rule="nonzero" transform="matrix(13.9999958208 0 0 13.9999958208 85.041045639 58.0945343022)"/><path d="m.268.01c-.042 0-.081-.011-.115-.033-.033-.022-.06-.054-.08-.096-.019-.042-.029-.093-.029-.153 0-.061.01-.112.03-.154.02-.041.047-.073.081-.094.034-.022.072-.033.114-.033.032 0 .058.006.079.017.02.01.037.023.049.038s.021.029.028.043h.005v-.272h.129v.727h-.126v-.086h-.008c-.007.013-.017.027-.029.042-.013.015-.029.028-.05.038-.02.01-.046.016-.078.016zm.036-.106c.028 0 .051-.007.07-.022s.034-.036.044-.062c.01-.027.015-.057.015-.093 0-.035-.005-.066-.015-.092s-.024-.046-.044-.06c-.019-.015-.042-.022-.07-.022s-.052.007-.071.022c-.02.015-.034.036-.044.062-.009.026-.014.056-.014.09s.005.065.014.091c.01.027.025.048.044.063s.043.023.071.023z" fill-rule="nonzero" transform="matrix(13.9999958208 0 0 13.9999958208 93.234341871 58.0945343022)"/><path d="m43.2139072605 63.91650431248h1.84799944835v10.17799696172h-1.84799944835z" fill-rule="nonzero" stroke-width="13.9999958208"/><path d="m.066 0v-.545h.123v.092h.006c.012-.031.03-.055.057-.073.026-.018.057-.027.094-.027s.068.009.093.027c.026.018.044.042.054.073h.006c.012-.03.032-.054.061-.072.029-.019.063-.028.103-.028.05 0 .091.016.123.048.031.032.047.078.047.139v.366h-.129v-.346c0-.034-.009-.059-.027-.075-.018-.015-.04-.023-.066-.023-.031 0-.055.009-.072.029-.018.019-.027.044-.027.075v.34h-.126v-.352c0-.028-.008-.05-.025-.067s-.039-.025-.066-.025c-.019 0-.036.004-.051.014-.015.009-.027.022-.036.039s-.013.037-.013.059v.332z" fill-rule="nonzero" transform="matrix(13.9999958208 0 0 13.9999958208 45.9047566098 74.0945012742)"/><path d="m.223.011c-.035 0-.066-.006-.093-.019-.028-.012-.05-.03-.066-.055-.016-.024-.024-.054-.024-.09 0-.031.006-.056.018-.076.011-.021.026-.037.046-.049s.042-.021.067-.027c.024-.006.05-.011.077-.014.031-.003.057-.006.077-.009s.035-.007.044-.013.013-.015.013-.027v-.002c0-.027-.007-.047-.023-.062s-.039-.022-.069-.022c-.031 0-.056.007-.075.02-.018.014-.03.03-.037.049l-.12-.017c.01-.033.025-.061.047-.083.022-.023.049-.039.08-.051.032-.011.066-.017.104-.017.027 0 .053.004.079.01s.05.016.071.03c.022.014.039.033.052.057.013.025.02.055.02.091v.365h-.124v-.075h-.004c-.008.015-.019.029-.033.043-.014.013-.031.023-.053.031-.021.008-.046.012-.074.012zm.033-.094c.026 0 .049-.006.068-.016.018-.01.033-.024.043-.041.011-.017.016-.036.016-.056v-.064c-.004.003-.011.006-.021.009-.009.003-.02.006-.032.008s-.023.004-.035.005c-.012.002-.022.004-.03.005-.019.002-.036.007-.052.012-.015.006-.027.015-.035.025-.009.011-.014.024-.014.041 0 .023.009.041.026.053.018.013.04.019.066.019z" fill-rule="nonzero" transform="matrix(13.9999958208 0 0 13.9999958208 58.0752030276 74.0945012742)"/><path d="m.303.214c-.046 0-.086-.006-.119-.019-.033-.012-.059-.028-.08-.049-.02-.021-.034-.043-.041-.068l.115-.028c.005.01.013.02.023.03s.023.019.04.026.039.01.064.01c.037 0 .067-.008.091-.026.024-.017.036-.046.036-.085v-.103h-.007c-.006.013-.016.027-.029.041-.012.014-.029.026-.05.035-.02.009-.046.014-.078.014-.041 0-.079-.01-.113-.029-.034-.02-.061-.05-.081-.089-.02-.04-.03-.089-.03-.149 0-.059.01-.11.03-.151.02-.042.047-.073.081-.094.034-.022.072-.033.114-.033.032 0 .058.006.079.017.021.01.037.023.049.038.013.015.022.029.028.043h.008v-.09h.126v.554c0 .046-.011.084-.033.114s-.053.053-.091.068c-.039.015-.083.023-.132.023zm.001-.323c.028 0 .051-.006.07-.02.019-.013.034-.032.044-.057s.015-.054.015-.089-.005-.065-.015-.09c-.01-.026-.024-.046-.044-.061-.019-.014-.042-.021-.07-.021s-.052.007-.071.022c-.02.015-.034.036-.044.062-.009.025-.014.055-.014.088s.005.062.014.087c.01.025.025.045.044.059.019.013.043.02.071.02z" fill-rule="nonzero" transform="matrix(13.9999958208 0 0 13.9999958208 65.970075798 74.0945012742)"/><path d="m.308.011c-.055 0-.102-.012-.142-.035-.04-.022-.07-.055-.091-.097-.022-.042-.032-.091-.032-.149 0-.056.01-.105.032-.147.021-.043.051-.076.09-.1.038-.024.084-.036.136-.036.033 0 .065.006.095.017.03.01.057.027.08.049.023.023.041.052.054.086.013.035.02.076.02.124v.039h-.447v-.086h.324c0-.025-.006-.047-.016-.066-.011-.019-.025-.035-.044-.046-.018-.011-.04-.016-.064-.016-.027 0-.05.006-.07.019-.02.012-.035.029-.046.049-.011.021-.017.043-.017.068v.075c0 .032.006.059.018.082.011.022.027.04.048.052s.045.018.073.018c.019 0 .036-.003.051-.008.015-.006.028-.014.04-.024.011-.011.019-.023.025-.039l.12.014c-.008.031-.022.059-.043.083-.022.023-.049.041-.082.054-.032.013-.07.02-.112.02z" fill-rule="nonzero" transform="matrix(13.9999958208 0 0 13.9999958208 74.501298531 74.0945012742)"/><path d="m85.156 13.795h-50.976l-.895 2.571.895 2.571h50.976z" transform="matrix(.79066396332 .79066396332 -.27506030607 .27506030607 -21.815911953 -30.8191935348)"/><path d="m85.156 13.795h-50.976l-.895 2.571.895 2.571h50.976z" transform="matrix(.79066396332 -.79066396332 -.27506030607 -.27506030607 -21.815911953 155.818972584)"/><path d="m85.156 13.795h-50.976l-.895 2.571.895 2.571h50.976z" transform="matrix(-.79066396332 .79066396332 .27506030607 .27506030607 146.815839324 -30.8191935348)"/><path d="m85.156 13.795h-50.976l-.895 2.571.895 2.571h50.976z" transform="matrix(-.79066396332 -.79066396332 .27506030607 -.27506030607 146.815839324 155.818972584)"/></g></svg>