<svg width="20.000000" height="20.661133" viewBox="0 0 20 20.6611" fill="none" xmlns="http://www.w3.org/2000/svg" xmlns:xlink="http://www.w3.org/1999/xlink">
	<desc>
			Created with Pixso.
	</desc>
	<defs/>
	<rect id="矩形 29" width="20.000000" height="20.661156" fill="#C4C4C4" fill-opacity="0"/>
	<path id="矢量 9" d="M13.5 4.24C17.08 4.24 20 7.15 20 10.74C20 14.33 17.08 17.24 13.5 17.24L6.5 17.24C2.91 17.24 0 14.33 0 10.74C0 7.15 2.91 4.24 6.5 4.24L13.5 4.24ZM13.5 5.54C16.37 5.54 18.7 7.87 18.7 10.74C18.7 13.61 16.37 15.94 13.5 15.94L6.5 15.94C3.62 15.94 1.3 13.61 1.3 10.74C1.3 7.87 3.62 5.54 6.5 5.54L13.5 5.54ZM13 6.74C10.79 6.74 9 8.53 9 10.74C9 12.95 10.79 14.74 13 14.74C15.2 14.74 17 12.95 17 10.74C17 8.53 15.2 6.74 13 6.74Z" fill="#808080" fill-opacity="1.000000" fill-rule="evenodd"/>
</svg>
