<svg viewBox="0 0 1024 1024" version="1.1" xmlns="http://www.w3.org/2000/svg" p-id="105848">
  <path d="M484.760612 871.013677c0 46.681182-37.861306 84.877109-84.130096 84.877109L148.255579 955.890786c-46.269813 0-84.122933-38.195927-84.122933-84.877109L64.132646 616.382349c0-46.683229 37.85312-84.884272 84.122933-84.884272l252.380054 0c46.267766 0 84.124979 38.201044 84.124979 84.884272L484.760612 871.013677 484.760612 871.013677zM484.760612 404.183436c0 46.683229-37.861306 84.877109-84.130096 84.877109L148.255579 489.060545c-46.269813 0-84.122933-38.193881-84.122933-84.877109L64.132646 149.554154c0-46.683229 37.85312-84.878133 84.122933-84.878133l252.380054 0c46.267766 0 84.124979 38.195927 84.124979 84.878133L484.760612 404.183436 484.760612 404.183436zM947.44237 404.183436c0 46.683229-37.855166 84.877109-84.122933 84.877109L610.9445 489.060545c-46.267766 0-84.122933-38.193881-84.122933-84.877109L526.821567 149.554154c0-46.683229 37.855166-84.878133 84.122933-84.878133l252.374938 0c46.267766 0 84.122933 38.195927 84.122933 84.878133L947.44237 404.183436 947.44237 404.183436zM946.31571 946.724009c-15.517415 15.662725-40.681538 15.662725-56.199976 0l-70.146617-70.774927c-28.834722 18.651802-62.927191 29.792537-99.730399 29.792537-102.426811 0-185.459922-83.775009-185.459922-187.118702s83.032088-187.118702 185.459922-187.118702c102.428857 0 185.460945 83.775009 185.460945 187.118702 0 37.129642-11.036357 71.520917-29.523407 100.625792l70.139453 70.771857C961.841312 905.678174 961.841312 931.066401 946.31571 946.724009L946.31571 946.724009 946.31571 946.724009zM720.238718 584.963779c-73.15616 0-132.468011 59.841923-132.468011 133.660162 0 73.814146 59.312874 133.656069 132.468011 133.656069 73.16537 0 132.472104-59.841923 132.472104-133.656069C852.710822 644.805702 793.404088 584.963779 720.238718 584.963779L720.238718 584.963779 720.238718 584.963779zM720.238718 584.963779" p-id="105849"></path>
</svg>