<svg width="16.000000" height="16.000000" viewBox="0 0 16 16" fill="none" xmlns="http://www.w3.org/2000/svg" xmlns:xlink="http://www.w3.org/1999/xlink">
	<desc>
			Created with Pixso.
	</desc>
	<defs/>
	<rect id="矩形 197" width="16.000000" height="16.000000" fill="#C4C4C4" fill-opacity="0"/>
	<path id="矢量 5" d="M2.77 14.07C2.92 14.1 3.09 14.12 3.25 14.12L12.74 14.12C12.9 14.12 13.07 14.1 13.22 14.07C13.36 14.04 13.49 14 13.62 13.94C13.75 13.89 13.87 13.82 13.98 13.75L13.98 13.75L13.98 13.75Q14.17 13.62 14.33 13.46C14.44 13.35 14.54 13.23 14.62 13.11C14.7 12.99 14.76 12.87 14.82 12.74C14.87 12.61 14.91 12.48 14.94 12.35C14.98 12.19 15 12.03 15 11.86L15 4.25C15 4.09 14.98 3.92 14.94 3.77C14.91 3.63 14.87 3.5 14.82 3.37C14.76 3.24 14.7 3.12 14.62 3.01C14.54 2.88 14.44 2.76 14.33 2.66C14.23 2.55 14.11 2.45 13.98 2.37C13.87 2.29 13.75 2.23 13.62 2.17C13.49 2.12 13.36 2.08 13.22 2.05L13.22 2.05L13.22 2.05Q12.99 1.99 12.74 1.99L3.25 1.99Q3 1.99 2.77 2.05L2.77 2.05L2.77 2.05C2.63 2.08 2.5 2.12 2.37 2.17C2.24 2.23 2.12 2.29 2.01 2.37C1.88 2.45 1.77 2.55 1.66 2.66C1.55 2.76 1.45 2.88 1.37 3.01C1.29 3.12 1.23 3.24 1.17 3.37C1.12 3.5 1.08 3.63 1.05 3.77C1.01 3.92 1 4.09 1 4.25L1 11.86C1 12.03 1.01 12.19 1.05 12.35C1.08 12.48 1.12 12.61 1.17 12.74C1.23 12.87 1.29 12.99 1.37 13.11C1.45 13.23 1.55 13.35 1.66 13.46Q1.82 13.62 2.01 13.75L2.01 13.75C2.12 13.82 2.24 13.89 2.37 13.94C2.5 14 2.63 14.04 2.77 14.07ZM12.74 13.12L3.25 13.12C3.15 13.12 3.06 13.11 2.96 13.09C2.9 13.07 2.83 13.05 2.76 13.02C2.69 12.99 2.63 12.96 2.57 12.92C2.49 12.87 2.43 12.82 2.36 12.75Q2.27 12.66 2.21 12.56L2.21 12.56Q2.2 12.55 2.2 12.55C2.16 12.49 2.12 12.42 2.09 12.35C2.07 12.29 2.04 12.22 2.03 12.15C2.01 12.06 2 11.96 2 11.86L2 4.25C2 4.15 2.01 4.06 2.03 3.96C2.04 3.9 2.07 3.83 2.09 3.76C2.12 3.69 2.16 3.63 2.2 3.57Q2.2 3.56 2.2 3.56L2.21 3.56Q2.27 3.45 2.36 3.36C2.43 3.3 2.49 3.24 2.57 3.2C2.63 3.16 2.69 3.12 2.76 3.09C2.83 3.07 2.9 3.04 2.96 3.03C3.06 3.01 3.15 2.99 3.25 2.99L12.74 2.99C12.84 2.99 12.93 3.01 13.03 3.03C13.09 3.04 13.16 3.07 13.23 3.09C13.3 3.12 13.36 3.16 13.42 3.2C13.5 3.24 13.56 3.3 13.63 3.36C13.69 3.43 13.75 3.49 13.79 3.57C13.83 3.63 13.87 3.69 13.9 3.76C13.92 3.83 13.95 3.9 13.96 3.96C13.98 4.06 14 4.15 14 4.25L14 11.86C14 11.96 13.98 12.06 13.96 12.15C13.95 12.22 13.92 12.29 13.9 12.35C13.87 12.42 13.83 12.49 13.79 12.55Q13.79 12.55 13.79 12.56Q13.79 12.56 13.78 12.56L13.78 12.56Q13.72 12.66 13.63 12.75C13.56 12.82 13.5 12.87 13.42 12.92C13.36 12.96 13.3 12.99 13.23 13.02C13.16 13.05 13.09 13.07 13.03 13.09C12.93 13.11 12.84 13.12 12.74 13.12ZM8 4.15C7.56 4.15 7.21 4.5 7.21 4.93C7.21 5.37 7.56 5.72 8 5.72C8.43 5.72 8.78 5.37 8.78 4.93C8.78 4.5 8.43 4.15 8 4.15ZM6.24 11.07C5.96 11.07 5.74 11.29 5.74 11.57C5.74 11.85 5.96 12.07 6.24 12.07L9.75 12.07C10.03 12.07 10.25 11.85 10.25 11.57C10.25 11.29 10.03 11.07 9.75 11.07L6.24 11.07Z" fill="#191919" fill-opacity="1.000000" fill-rule="evenodd"/>
</svg>
