<?xml version="1.0" encoding="utf-8"?>
<svg version="1.1" id="图层_1" xmlns="http://www.w3.org/2000/svg" xmlns:xlink="http://www.w3.org/1999/xlink" x="0px" y="0px"
	 viewBox="0 0 132 132" style="enable-background:new 0 0 132 132;" xml:space="preserve">
<style type="text/css">
	.st0{fill:none;}
	.st1{fill-rule:evenodd;clip-rule:evenodd;fill:currentColor;}
</style>
<rect id="size" class="st0" width="132" height="132"/>
<path id="合并" class="st1" d="M24.9,118.3c-1.4,0-2.8-0.1-4.2-0.4c-1.1-0.3-2.3-0.6-3.4-1.1c-1.1-0.5-2.1-1-3.1-1.7
	c-1.1-0.7-2.1-1.5-3-2.5c-0.9-0.9-1.8-1.9-2.5-3l0,0c-0.6-1-1.2-2-1.7-3.1c-0.5-1.1-0.8-2.2-1.1-3.4c-0.3-1.4-0.4-2.7-0.4-4.2V33
	c0-1.4,0.1-2.8,0.4-4.2l0,0c0.3-1.1,0.6-2.3,1.1-3.4c0.5-1.1,1-2.1,1.7-3.1l0,0l0,0c0.7-1.1,1.5-2.1,2.5-3c0.9-0.9,1.9-1.8,3-2.5
	l0,0c1-0.6,2-1.2,3.1-1.7c1.1-0.5,2.2-0.8,3.4-1.1l0,0c1.4-0.3,2.7-0.4,4.2-0.4h82.2c1.4,0,2.8,0.1,4.2,0.4c1.1,0.3,2.3,0.6,3.4,1.1
	c1.1,0.5,2.1,1,3.1,1.7c1.1,0.7,2.1,1.5,3,2.5c0.9,0.9,1.8,1.9,2.5,3l0,0l0,0c0.6,1,1.2,2,1.7,3.1c0.5,1.1,0.8,2.2,1.1,3.4l0,0
	c0.3,1.4,0.4,2.7,0.4,4.2V99c0,1.4-0.1,2.8-0.4,4.2c-0.3,1.1-0.6,2.3-1.1,3.4c-0.5,1.1-1,2.1-1.7,3.1c-0.7,1.1-1.5,2.1-2.5,3
	c-0.9,0.9-1.9,1.8-3,2.5l0,0c-1,0.6-2,1.2-3.1,1.7c-1.1,0.5-2.2,0.8-3.4,1.1l0,0c-1.4,0.3-2.7,0.4-4.2,0.4H24.9z M24.9,110.1h82.2
	c0.9,0,1.7-0.1,2.5-0.3c0.6-0.1,1.2-0.3,1.8-0.6c0.6-0.3,1.2-0.6,1.7-0.9l0,0c0.6-0.4,1.2-0.9,1.8-1.5c0.6-0.6,1-1.2,1.5-1.8
	c0.4-0.5,0.7-1.1,0.9-1.7c0.2-0.6,0.4-1.2,0.6-1.8c0.2-0.8,0.3-1.7,0.3-2.5V33c0-0.9-0.1-1.7-0.3-2.5c-0.1-0.6-0.3-1.2-0.6-1.8
	c-0.3-0.6-0.6-1.2-0.9-1.7c-0.4-0.6-0.9-1.2-1.5-1.8c-0.6-0.6-1.2-1-1.8-1.5c-0.5-0.4-1.1-0.7-1.7-0.9c-0.6-0.2-1.2-0.4-1.8-0.6
	c-0.8-0.2-1.7-0.3-2.5-0.3H24.9c-0.9,0-1.7,0.1-2.5,0.3c-0.6,0.1-1.2,0.3-1.8,0.6c-0.6,0.3-1.2,0.6-1.7,0.9
	c-0.6,0.4-1.2,0.9-1.8,1.5c-0.6,0.6-1,1.2-1.5,1.8c-0.4,0.5-0.7,1.1-0.9,1.7c-0.2,0.6-0.4,1.2-0.6,1.8c-0.2,0.8-0.3,1.7-0.3,2.5V99
	c0,0.9,0.1,1.7,0.3,2.5c0.1,0.6,0.3,1.2,0.6,1.8c0.3,0.6,0.6,1.2,0.9,1.7c0.4,0.6,0.9,1.2,1.5,1.8c0.6,0.6,1.2,1,1.8,1.5
	c0.5,0.4,1.1,0.7,1.7,0.9c0.6,0.2,1.2,0.4,1.8,0.6h0C23.2,110,24,110.1,24.9,110.1z M66,32.2c-3.7,0-6.8,3-6.8,6.8
	c0,3.7,3,6.8,6.8,6.8c3.7,0,6.8-3,6.8-6.8C72.8,35.2,69.7,32.2,66,32.2z M50.8,92.3c-2.3,0-4.1,1.8-4.1,4.1c0,2.3,1.8,4.1,4.1,4.1
	h30.4c2.3,0,4.1-1.8,4.1-4.1c0-2.3-1.8-4.1-4.1-4.1H50.8z"/>
</svg>
