<?xml version="1.0" encoding="utf-8"?>
<!-- Generator: Adobe Illustrator 26.0.2, SVG Export Plug-In . SVG Version: 6.00 Build 0)  -->
<svg version="1.1" id="图层_1" xmlns="http://www.w3.org/2000/svg" xmlns:xlink="http://www.w3.org/1999/xlink" x="0px" y="0px"
	 viewBox="0 0 24 24" style="enable-background:new 0 0 24 24;" xml:space="preserve">
<style type="text/css">
	.st0{fill-rule:evenodd;clip-rule:evenodd;fill:currentColor;fill-opacity:0;}
	.st1{fill-rule:evenodd;clip-rule:evenodd;fill:currentColor;}
</style>
<g id="ic_tablet_lined">
	<g id="编组">
		<rect id="矩形" class="st0" width="24" height="24"/>
		<path id="形状结合" class="st1" d="M19.7,4C21,4,22,5,22,6.3v11.5c0,1.2-1,2.3-2.3,2.3H4.3C3,20,2,19,2,17.7V6.3
			C2,5,3,4,4.3,4H19.7z M19.7,5.5H4.3c-0.4,0-0.8,0.3-0.8,0.8v11.5c0,0.4,0.3,0.8,0.8,0.8h15.5c0.4,0,0.8-0.3,0.8-0.8V6.3
			C20.5,5.8,20.2,5.5,19.7,5.5z M13,17c0.3,0,0.5,0.2,0.5,0.5S13.3,18,13,18h-2c-0.3,0-0.5-0.2-0.5-0.5S10.7,17,11,17H13z M12,5.8
			c0.4,0,0.8,0.3,0.8,0.8S12.4,7.2,12,7.2c-0.4,0-0.8-0.3-0.8-0.8S11.6,5.8,12,5.8z"/>
	</g>
</g>
</svg>
