<svg version="1.1" id="图层_1"
  xmlns="http://www.w3.org/2000/svg"
  xmlns:xlink="http://www.w3.org/1999/xlink" x="0px" y="0px" viewBox="0 0 64 64" style="enable-background:new 0 0 64 64;" xml:space="preserve">
  <style type="text/css">
	.st0{fill:currentcolor;}
  </style>
  <g>
    <rect x="13.5" y="32.9" class="st0" width="37.8" height="3.4"/>
    <rect x="13.4" y="40.8" class="st0" width="23.7" height="3.4"/>
    <path class="st0" d="M58.1,12.5h-30V9.3c0-1.1-0.9-2-2-2H6.6c-1.1,0-2,0.9-2,2v12.5v0.7v31.8c0,1.1,0.9,2,2,2h51.6c1.1,0,2-0.9,2-2
		V22.1v-0.3v-7.3C60.1,13.4,59.2,12.5,58.1,12.5z M39.3,16.5v6.2H28.1v-6.2H39.3z M8.6,21.8V11.3h15.6v11.3H8.6v-0.2V21.8z
		 M8.6,52.3V25.6h47.6v26.6L8.6,52.3L8.6,52.3z M56.1,22.1v0.5H43.3v-6.2h12.9v5.3L56.1,22.1L56.1,22.1z"/>
  </g>
</svg>
