<?xml version="1.0" encoding="utf-8"?>
<svg version="1.1" id="图层_1" xmlns="http://www.w3.org/2000/svg" xmlns:xlink="http://www.w3.org/1999/xlink" x="0px" y="0px"
	 viewBox="0 0 132 132" style="enable-background:new 0 0 132 132;" xml:space="preserve">
<style type="text/css">
	.st0{fill:none;}
	.st1{fill-rule:evenodd;clip-rule:evenodd;fill:currentColor;}
</style>
<rect id="size" class="st0" width="132" height="132"/>
<path id="合并" class="st1" d="M26.9,28.9c-2.3,0-4.1,1.8-4.1,4.1s1.8,4.1,4.1,4.1h82.5c2.3,0,4.1-1.8,4.1-4.1s-1.8-4.1-4.1-4.1
	H26.9z M22.8,66c0-2.3,1.8-4.1,4.1-4.1h49.5c2.3,0,4.1,1.8,4.1,4.1c0,2.3-1.8,4.1-4.1,4.1H26.9C24.6,70.1,22.8,68.3,22.8,66z
	 M26.9,94.9c-2.3,0-4.1,1.8-4.1,4.1s1.8,4.1,4.1,4.1h82.5c2.3,0,4.1-1.8,4.1-4.1s-1.8-4.1-4.1-4.1H26.9z"/>
</svg>
