<?xml version="1.0" encoding="utf-8"?>
<svg version="1.1" id="图层_1" xmlns="http://www.w3.org/2000/svg" xmlns:xlink="http://www.w3.org/1999/xlink" x="0px" y="0px"
	 viewBox="0 0 132 132" style="enable-background:new 0 0 132 132;" xml:space="preserve">
<style type="text/css">
	.st0{fill:none;}
	.st1{fill:currentColor;}
</style>
<rect id="size" class="st0" width="132" height="132"/>
<path id="形状结合" class="st1" d="M79,18.3c9.6-9.6,25.1-9.6,34.7,0s9.6,25.1,0,34.7l-11.6,11.6c-8.6,8.6-22,9.5-31.6,2.7
	l-3.3,3.3c6.8,9.6,5.9,23-2.7,31.6L53,113.7c-9.6,9.6-25.1,9.6-34.7,0s-9.6-25.1,0-34.7l11.6-11.6c8.6-8.6,22-9.5,31.5-2.7l3.3-3.3
	c-6.8-9.6-5.9-23,2.7-31.5L79,18.3z M55.5,70.7c-6.2-3.7-14.4-2.8-19.8,2.5L24.2,84.8c-6.4,6.4-6.4,16.7,0,23c6.4,6.4,16.7,6.4,23,0
	l11.6-11.6c5.4-5.4,6.2-13.5,2.5-19.8l-3.9,3.9c-1.6,1.6-4.2,1.6-5.8,0c-1.6-1.6-1.6-4.2,0-5.8L55.5,70.7z M107.8,24.2
	c-6.4-6.4-16.7-6.4-23,0L73.2,35.7c-5.4,5.4-6.2,13.5-2.5,19.8l3.9-3.9c1.6-1.6,4.2-1.6,5.8,0c1.6,1.6,1.6,4.2,0,5.8l-3.9,3.9
	c6.2,3.7,14.4,2.8,19.8-2.5l11.6-11.6C114.2,40.8,114.2,30.5,107.8,24.2z"/>
</svg>
