<?xml version="1.0" encoding="utf-8"?>
<!-- Generator: Adobe Illustrator 26.0.2, SVG Export Plug-In . SVG Version: 6.00 Build 0)  -->
<svg version="1.1" id="图层_1" xmlns="http://www.w3.org/2000/svg" xmlns:xlink="http://www.w3.org/1999/xlink" x="0px" y="0px"
	 viewBox="0 0 132 132" style="enable-background:new 0 0 132 132;" xml:space="preserve">
<style type="text/css">
	.st0{fill:none;}
	.st1{fill:currentColor;}
</style>
<rect id="size" class="st0" width="132" height="132"/>
<path id="形状结合" class="st1" d="M78.4,33C89.8,33,99,42.2,99,53.6v49.5c0,11.4-9.2,20.6-20.6,20.6H28.9
	c-11.4,0-20.6-9.2-20.6-20.6V53.6C8.2,42.2,17.5,33,28.9,33H78.4z M78.4,41.2H28.9c-6.8,0-12.4,5.5-12.4,12.4v49.5
	c0,6.8,5.5,12.4,12.4,12.4h49.5c6.8,0,12.4-5.5,12.4-12.4V53.6C90.8,46.8,85.2,41.2,78.4,41.2z M103.1,8.3
	c11.4,0,20.6,9.2,20.6,20.6v41.2c0,2.3-1.8,4.1-4.1,4.1s-4.1-1.8-4.1-4.1V28.9c0-6.8-5.5-12.4-12.4-12.4H61.9
	c-2.3,0-4.1-1.8-4.1-4.1s1.8-4.1,4.1-4.1H103.1z"/>
</svg>
