<?xml version="1.0" encoding="utf-8"?>
<svg version="1.1" id="图层_1" xmlns="http://www.w3.org/2000/svg" xmlns:xlink="http://www.w3.org/1999/xlink" x="0px" y="0px"
	 viewBox="0 0 16 16" style="enable-background:new 0 0 16 16;" xml:space="preserve">
<g>
	<path d="M9.5,4h-6C2.1,4,1,5.1,1,6.5v6C1,13.9,2.1,15,3.5,15h6c1.4,0,2.5-1.1,2.5-2.5v-6C12,5.1,10.9,4,9.5,4z M11,12.5
		c0,0.8-0.7,1.5-1.5,1.5h-6C2.7,14,2,13.3,2,12.5v-6C2,5.7,2.7,5,3.5,5h6C10.3,5,11,5.7,11,6.5V12.5z"/>
	<path d="M12.5,1h-5C7.2,1,7,1.2,7,1.5S7.2,2,7.5,2h5C13.3,2,14,2.7,14,3.5v5C14,8.8,14.2,9,14.5,9S15,8.8,15,8.5v-5
		C15,2.1,13.9,1,12.5,1z"/>
</g>
</svg>
