<?xml version="1.0" encoding="utf-8"?>
<svg version="1.1" id="图层_1" xmlns="http://www.w3.org/2000/svg" xmlns:xlink="http://www.w3.org/1999/xlink" x="0px" y="0px"
	 viewBox="0 0 132 132" style="enable-background:new 0 0 132 132;" xml:space="preserve">
<style type="text/css">
	.st0{fill:none;}
	.st1{fill-rule:evenodd;clip-rule:evenodd;fill:currentColor;}
</style>
<rect id="size" class="st0" width="132" height="132"/>
<path id="合并_00000095310995608994616840000007445319995510214566_" class="st1" d="M61.9,73.1v37.1c0,2.3,1.8,4.1,4.1,4.1
	c2.3,0,4.1-1.8,4.1-4.1V73.1h37.1c2.3,0,4.1-1.8,4.1-4.1s-1.8-4.1-4.1-4.1H70.1V23.6H99c2.3,0,4.1-1.8,4.1-4.1s-1.8-4.1-4.1-4.1H33
	c-2.3,0-4.1,1.8-4.1,4.1s1.8,4.1,4.1,4.1h28.9v41.2H24.8c-2.3,0-4.1,1.8-4.1,4.1s1.8,4.1,4.1,4.1"/>
</svg>
