<?xml version="1.0" encoding="UTF-8"?>
<svg width="16px" height="16px" viewBox="0 0 16 16" version="1.1" xmlns="http://www.w3.org/2000/svg" xmlns:xlink="http://www.w3.org/1999/xlink">
    <title>类型/文件夹展开</title>
    <g id="类型/文件夹展开" stroke="currentColor" stroke-width="1" fill="none" fill-rule="evenodd" stroke-linecap="round">
        <g id="编组" transform="translate(1.935896, 2.684234)" stroke="currentColor">
            <path d="M11.9908175,4.21663313 L11.9908175,3.11270377 C11.9908175,2.51071339 11.5028079,2.02270377 10.9008175,2.02270377 L5.87559035,2.02270377 C5.82414481,2.02270377 5.77435683,2.00450972 5.73503263,1.97133968 L3.45883669,0.0513640827 C3.41951249,0.0181940485 3.36972451,0 3.31827897,0 L1.09,0 C0.488009623,0 0,0.487919158 0,1.08990954 L0.000718307479,8.65447959 C0.000999173922,9.85838967 0.976989149,10.8342986 2.18089924,10.8344796 L10.9008175,10.8344796 C11.3386636,10.8344796 11.7813559,10.6559471 11.9902199,10.2690444" id="路径" fill-rule="nonzero"></path>
            <line x1="2.23912831" y1="4.21663313" x2="13.1391283" y2="4.21663313" id="直线"></line>
            <line x1="2.23912831" y1="4.21663313" x2="1.09040875" y2="10.2116331" id="直线-2"></line>
            <line x1="13.1684881" y1="4.21663313" x2="12.0197685" y2="10.2116331" id="直线-2备份"></line>
        </g>
    </g>
</svg>