<?xml version="1.0" encoding="UTF-8"?>
<svg width="16px" height="16px" viewBox="0 0 16 16" version="1.1" xmlns="http://www.w3.org/2000/svg" xmlns:xlink="http://www.w3.org/1999/xlink">
    <title>全局/首页</title>
    <g id="全局/首页" stroke="currentColor" stroke-width="1" fill="none" fill-rule="evenodd">
        <path d="M7.93939754,2.50039899 C8.19752598,2.49321801 8.45835865,2.58324319 8.66227616,2.77213311 L12.7644786,7.04512354 C12.9470946,7.23545725 13.0490625,7.48901764 13.0490625,7.75278935 L13.0490625,12.4778429 C13.0490625,12.7601038 12.9346537,13.015643 12.7496796,13.2006171 C12.5647055,13.3855912 12.3091663,13.5 12.0269054,13.5 L10.2639975,13.5 C9.99444769,13.5 9.74924455,13.3957129 9.56662355,13.2252145 C9.38626029,13.056824 9.26672146,12.823943 9.24531592,12.5631704 L9.24205521,10.8912764 C9.24207723,10.5726612 9.12213591,10.2820754 8.92502209,10.062125 C8.72573105,9.83974506 8.4473958,9.68988271 8.13438819,9.65594286 C7.70318312,9.64965757 7.38655998,9.78295004 7.15962263,9.9863635 C6.90488701,10.2146937 6.75692923,10.5354976 6.75690465,10.8912073 L6.756795,12.4777457 C6.75674016,12.7600368 6.64228349,13.0156138 6.45726921,13.2006153 C6.27229019,13.3855816 6.0167722,13.5 5.73453265,13.5 L3.97215714,13.5 C3.68989624,13.5 3.43435696,13.3855912 3.2493829,13.2006171 C3.06440884,13.015643 2.95,12.7601038 2.95,12.4778429 L2.95,7.74650185 C2.95,7.48524657 3.05003634,7.23390769 3.22956303,7.04410651 L7.22522825,2.81976549 C7.41918937,2.61470379 7.67790588,2.50767354 7.93939754,2.50039899 Z" id="路径备份" stroke="#191919"></path>
    </g>
</svg>