<?xml version="1.0" encoding="utf-8"?>
<svg version="1.1" id="图层_1" xmlns="http://www.w3.org/2000/svg" xmlns:xlink="http://www.w3.org/1999/xlink" x="0px" y="0px"
	 viewBox="0 0 132 132" style="enable-background:new 0 0 132 132;" xml:space="preserve">
<style type="text/css">
	.st0{fill:none;}
	.st1{fill:currentColor;}
</style>
<rect id="size" class="st0" width="132" height="132"/>
<path id="形状" class="st1" d="M115.5,89.4h-8.2V31.6c0-6.8-5.6-12.4-12.4-12.4H37.1c-6.8,0-12.4,5.6-12.4,12.4v66
	c0,6.8,5.6,12.4,12.4,12.4h49.5v8.2H37.1c-11.4,0-20.6-9.2-20.6-20.6v-66c0-11.4,9.2-20.6,20.6-20.6h57.8c11.4,0,20.6,9.2,20.6,20.6
	V89.4L115.5,89.4z M86.6,68.8c2.3,0,4.1-1.9,4.1-4.1s-1.9-4.1-4.1-4.1H45.4c-2.3,0-4.1,1.9-4.1,4.1s1.9,4.1,4.1,4.1H86.6z
	 M61.9,93.5c2.3,0,4.1-1.9,4.1-4.1s-1.9-4.1-4.1-4.1H45.4c-2.3,0-4.1,1.9-4.1,4.1s1.9,4.1,4.1,4.1H61.9z M86.6,44
	c2.3,0,4.1-1.9,4.1-4.1s-1.9-4.1-4.1-4.1H45.4c-2.3,0-4.1,1.9-4.1,4.1s1.9,4.1,4.1,4.1H86.6z M94.9,93.5h-0.7
	c-1.9,0.4-3.4,2.1-3.4,4.1v6.5l10.7-10.7H94.9z M82.5,97.6c0-6.8,5.6-12.4,12.4-12.4h16.5c3.7,0,5.5,4.5,2.9,7L89.5,117
	c-2.6,2.6-7,0.8-7-2.9V97.6L82.5,97.6z"/>
</svg>
