<?xml version="1.0" encoding="UTF-8"?>
<svg width="16px" height="16px" viewBox="0 0 16 16" version="1.1" xmlns="http://www.w3.org/2000/svg" xmlns:xlink="http://www.w3.org/1999/xlink">
    <title>类型/文件夹</title>
    <g id="类型/文件夹" stroke="currentColor" stroke-width="1" fill="none" fill-rule="evenodd">
        <g id="编组" transform="translate(1.999625, 2.679747)" stroke="currentColor">
            <path d="M3.32102764,0 L1.09090289,0 C0.488413862,-9.05393767e-05 1.48260979e-16,0.488323322 2.22044605e-16,1.09081235 C2.22048301e-16,1.09084253 1.2524885e-09,1.09087272 9.05431338e-05,1.09090289 L0.000718902483,8.66164846 C0.00100000158,9.86655579 0.97779843,10.8432731 2.18270577,10.8434542 L9.81894421,10.8434542 C11.0239223,10.8434542 12.00075,9.86662652 12.00075,8.66164845 L12.00075,3.11528215 C12.00075,2.51279312 11.5123361,2.02437926 10.9098471,2.02437926 L5.88045734,2.02437926 C5.82896919,2.02437926 5.77913997,2.00617014 5.7397832,1.97297263 L3.46170179,0.0514066298 C3.42234502,0.0182091194 3.3725158,-2.87013977e-16 3.32102764,0 Z" id="Path" fill-rule="nonzero"></path>
            <line x1="0.000409088585" y1="4.22012595" x2="12.0003409" y2="4.22012595" id="直线" stroke-linecap="round"></line>
        </g>
    </g>
</svg>