<?xml version="1.0" encoding="utf-8"?>
<svg version="1.1" id="图层_1" xmlns="http://www.w3.org/2000/svg" xmlns:xlink="http://www.w3.org/1999/xlink" x="0px" y="0px"
	 viewBox="0 0 132 132" style="enable-background:new 0 0 132 132;" xml:space="preserve">
<style type="text/css">
	.st0{fill:none;}
	.st1{fill-rule:evenodd;clip-rule:evenodd;fill:currentColor;}
</style>
<rect id="size" class="st0" width="132" height="132"/>
<path id="合并" class="st1" d="M16.5,24.8c0-4.6,3.7-8.2,8.2-8.2s8.2,3.7,8.2,8.2S29.3,33,24.8,33S16.5,29.3,16.5,24.8z
	 M57.8,24.8c0-4.6,3.7-8.2,8.2-8.2s8.2,3.7,8.2,8.2S70.6,33,66,33S57.8,29.3,57.8,24.8z M99,24.8c0-4.6,3.7-8.2,8.2-8.2
	s8.2,3.7,8.2,8.2s-3.7,8.2-8.2,8.2S99,29.3,99,24.8z M16.5,66c0-4.6,3.7-8.2,8.2-8.2S33,61.4,33,66s-3.7,8.2-8.2,8.2
	S16.5,70.6,16.5,66z M57.8,66c0-4.6,3.7-8.2,8.2-8.2s8.2,3.7,8.2,8.2s-3.7,8.2-8.2,8.2S57.8,70.6,57.8,66z M99,66
	c0-4.6,3.7-8.2,8.2-8.2s8.2,3.7,8.2,8.2s-3.7,8.2-8.2,8.2S99,70.6,99,66z M16.5,107.2c0-4.6,3.7-8.2,8.2-8.2s8.2,3.7,8.2,8.2
	s-3.7,8.2-8.2,8.2S16.5,111.8,16.5,107.2z M57.8,107.2c0-4.6,3.7-8.2,8.2-8.2s8.2,3.7,8.2,8.2s-3.7,8.2-8.2,8.2
	S57.8,111.8,57.8,107.2z M99,107.2c0-4.6,3.7-8.2,8.2-8.2s8.2,3.7,8.2,8.2s-3.7,8.2-8.2,8.2S99,111.8,99,107.2z"/>
</svg>
