<svg version="1.1" xmlns="http://www.w3.org/2000/svg" viewBox="0 0 80 52">
  <g fill-rule="nonzero" fill="none">
    <path
      d="M22.157 11.25c.78-2.148 1.884-4.232 3.443-6.055l7.407 12.89-2.014 2.02-8.836-8.855zM1.884 17.89c.715 8.204 6.433 15.495 14.88 17.774 8.446 2.279 17.023-1.172 21.766-7.943l-36.646-9.83z"
      fill="#96ADFA"
    />
    <path
      d="M21.962 23.294c-1.235-3.971-1.17-8.203.195-12.044l8.836 8.854-4.418 4.427-4.613-1.237z"
      fill="#5E7CE0"
    />
    <path
      d="M21.962 23.294l-3.639-.976c-1.494-4.558-1.17-9.57.845-13.998l2.989 2.995c-1.365 3.776-1.43 7.943-.195 11.98zM15.724 35.339l-4.093 4.101C6.498 37.292 2.469 32.995.585 27.721h4.938c2.339 3.516 5.913 6.185 10.201 7.618z"
      fill="#7693F5"
      opacity=".4"
    />
    <path
      d="M38.465 27.852C35.606 35.599 28.2 41.068 19.558 41.068c-2.794 0-5.458-.586-7.927-1.628l4.093-4.101c.325.13.715.195 1.04.325 8.381 2.214 16.958-1.172 21.701-7.812z"
      fill="#5E7CE0"
    />
    <path
      d="M44.638 19.258c.845 0 1.494-.651 1.494-1.498 0-.846-.65-1.497-1.494-1.497-.845 0-1.494.651-1.494 1.497 0 .847.65 1.498 1.494 1.498zm-6.173 8.594l.065-.13-11.955-3.19 9.421-9.44a9.279 9.279 0 0 1 6.563-2.735c1.884 0 3.638.586 5.068 1.497.065.065.195.13.26.195.455.326.844.652 1.17.977 1.364 1.367 3.313 2.214 5.457 2.214l10.916.325c.195 0 .325.13.325.326 0 .195-.13.325-.325.325l-7.277.456c-5.718.325-10.656 3.646-12.475 8.789-.455 1.172-.91 2.279-1.495 3.385C38.92 41.003 28.264 47.97 16.05 47.97c-3.834 0-7.537-.651-10.916-1.953l6.563-6.576c2.404 1.042 5.068 1.563 7.862 1.563 8.641.065 16.048-5.47 18.907-13.151z"
      fill="#7693F5"
    />
  </g>
</svg>