<svg version="1.1" id="图层_1"
  xmlns="http://www.w3.org/2000/svg"
  xmlns:xlink="http://www.w3.org/1999/xlink" x="0px" y="0px" viewBox="0 0 64 64" style="enable-background:new 0 0 64 64;" xml:space="preserve">
  <style type="text/css">
	.st0{fill:currentcolor;}
  </style>
  <g>
    <path class="st0" d="M57.3,9.9H6.4c-1.1,0-2,0.9-2,2v35c0,1.1,0.9,2,2,2h5.9l5,5.6c0.4,0.4,0.9,0.7,1.4,0.7c0,0,0,0,0.1,0
		c0.5,0,1-0.2,1.4-0.6l5.8-5.7h31.4c1.1,0,2-0.9,2-2v-35C59.3,10.8,58.4,9.9,57.3,9.9z M55.3,44.9H25.1c-0.5,0-1,0.2-1.4,0.6
		l-4.9,4.8l-4.2-4.7c-0.4-0.4-0.9-0.7-1.5-0.7H8.4v-31h46.9C55.3,13.9,55.3,44.9,55.3,44.9z"/>
    <rect x="14.5" y="20" class="st0" width="34.7" height="3"/>
    <rect x="14.5" y="27.1" class="st0" width="34.7" height="3"/>
    <rect x="14.5" y="34.2" class="st0" width="19.5" height="3"/>
  </g>
</svg>
