<svg viewBox="0 0 1024 1024" version="1.1" xmlns="http://www.w3.org/2000/svg" p-id="6090">
  <path d="M448.84 880.29H175.37c-20.14 0-36.46-16.33-36.46-36.46 0-20.14 16.33-36.46 36.46-36.46h273.48c20.14 0 36.46 16.33 36.46 36.46 0 20.14-16.33 36.46-36.47 36.46zM448.84 588.58H175.37c-20.14 0-36.46-16.33-36.46-36.46 0-20.14 16.33-36.46 36.46-36.46h273.48c20.14 0 36.46 16.33 36.46 36.46 0 20.14-16.33 36.46-36.47 36.46z" p-id="6091"></path>
  <path d="M138.9 843.83V296.88c0-20.14 16.33-36.46 36.46-36.46 20.14 0 36.46 16.33 36.46 36.46v546.95c0 20.14-16.33 36.46-36.46 36.46-20.13 0-36.46-16.32-36.46-36.46z" p-id="6092"></path>
  <path d="M211.83 348.16H138.9c-40.11 0-72.93-32.82-72.93-72.93V202.3c0-40.11 32.82-72.93 72.93-72.93h72.93c40.11 0 72.93 32.82 72.93 72.93v72.93c0 40.11-32.82 72.93-72.93 72.93zM922.87 625.05H605.12c-20.05 0-36.46-16.41-36.46-36.46v-72.93c0-20.05 16.41-36.46 36.46-36.46h317.75c20.05 0 36.46 16.41 36.46 36.46v72.93c0 20.05-16.41 36.46-36.46 36.46zM921.67 311.69h-508.1c-20.71 0-37.66-16.95-37.66-37.66V203.5c0-20.71 16.95-37.66 37.66-37.66h508.1c20.71 0 37.66 16.95 37.66 37.66v70.54c0 20.71-16.94 37.65-37.66 37.65zM922.87 916.76H605.12c-20.05 0-36.46-16.41-36.46-36.46v-72.93c0-20.05 16.41-36.46 36.46-36.46h317.75c20.05 0 36.46 16.41 36.46 36.46v72.93c0 20.05-16.41 36.46-36.46 36.46z" p-id="6093"></path>
</svg>