<svg version="1.1" id="图层_1"
  xmlns="http://www.w3.org/2000/svg"
  xmlns:xlink="http://www.w3.org/1999/xlink" x="0px" y="0px" viewBox="0 0 64 64" style="enable-background:new 0 0 64 64;" xml:space="preserve">
  <style type="text/css">
	.st0{fill:currentcolor;}
  </style>
  <path class="st0" d="M25.1,37.1h30.1c1.1,0,2-0.9,2-2v-8c0-1.1-0.9-2-2-2H25.1c-1.1,0-2,0.9-2,2v2.1h-6.7v-9h23.2c1.1,0,2-0.9,2-2
	v-8c0-1.1-0.9-2-2-2H7.8c-1.1,0-2,0.9-2,2v8c0,1.1,0.9,2,2,2h5.5v28.6c0,0.8,0.7,1.5,1.5,1.5H23v2.5c0,1.1,0.9,2,2,2h30.1
	c1.1,0,2-0.9,2-2v-8c0-1.1-0.9-2-2-2h-30c-1.1,0-2,0.9-2,2v2.5h-6.7V32.2h6.7v2.9C23.1,36.2,24,37.1,25.1,37.1z M27.1,29.1h26.1v4
	H27.1V29.1z M9.8,12.2h27.8v4H9.8V12.2z M27.1,46.8h26.1v4H27.1V46.8z"/>
</svg>
