<?xml version="1.0" encoding="utf-8"?>
<!-- Generator: Adobe Illustrator 26.0.2, SVG Export Plug-In . SVG Version: 6.00 Build 0)  -->
<svg version="1.1" id="图层_1"
	xmlns="http://www.w3.org/2000/svg"
	xmlns:xlink="http://www.w3.org/1999/xlink" x="0px" y="0px" viewBox="0 0 24 24" style="enable-background:new 0 0 24 24;" xml:space="preserve">
	<style type="text/css">
	.st0{fill:currentColor;}
	</style>
	<path class="st0" d="M24,15.6V8.4c0-0.7-0.7-1.1-1.3-0.7L18.8,10V7c0-2-1.6-3.5-3.5-3.5H3.5C1.6,3.5,0,5.1,0,7v10
	c0,2,1.6,3.5,3.5,3.5h11.7c2,0,3.5-1.6,3.5-3.5v-2.9l3.9,2.2C23.3,16.6,24,16.2,24,15.6z M7.2,14.2V9.8c0-0.4,0.5-0.7,0.8-0.5
	l3.7,2.2c0.4,0.2,0.4,0.7,0,1L8,14.7C7.6,14.9,7.2,14.6,7.2,14.2z"/>
</svg>

