<?xml version="1.0" encoding="UTF-8"?>
<svg width="24px" height="24px" viewBox="0 0 24 24" version="1.1" xmlns="http://www.w3.org/2000/svg" xmlns:xlink="http://www.w3.org/1999/xlink">
    <title>ic_lock_open_lined</title>
    <g id="ic_lock_open_lined" stroke="none" stroke-width="1" fill="none" fill-rule="evenodd">
        <g id="编组">
            <rect id="矩形" fill="currentColor" opacity="0" x="0" y="0" width="24" height="24"></rect>
            <path d="M6.8767,2.00685 C9.48836725,2.00685 11.6196652,4.06756236 11.7329628,6.65135599 L11.7377,6.86785 L11.7377,9.24285 L18.9843,9.24315 C20.5823274,9.24315 21.8879856,10.4917359 21.9792086,12.0668414 L21.9843,12.24315 L21.9843,18.99315 C21.9843,20.6496574 20.6412198,21.99315 18.9843,21.99315 L18.9843,21.99315 L8.9843,21.99315 C7.32738019,21.99315 5.9843,20.6496574 5.9843,18.99315 L5.9843,18.99315 L5.9843,12.24315 C5.9843,10.5859364 7.32708644,9.24315 8.9843,9.24315 L8.9843,9.24315 L10.2377,9.24285 L10.2377,6.86785 C10.2377,5.01206356 8.73248644,3.50685 6.8767,3.50685 C5.08216755,3.50685 3.61639673,4.91303933 3.5206726,6.68344779 L3.5157,6.86785 L3.5157,10.00785 C3.5157,10.4220636 3.17991356,10.75785 2.7657,10.75785 C2.38600423,10.75785 2.07220904,10.4756961 2.02254662,10.1096206 L2.0157,10.00785 L2.0157,6.86785 C2.0157,4.18331924 4.19180357,2.00685 6.8767,2.00685 Z M10.8515482,10.7445223 L8.9843,10.74315 C8.15551356,10.74315 7.4843,11.4143636 7.4843,12.24315 L7.4843,12.24315 L7.4843,18.99315 C7.4843,19.8213334 8.15591042,20.49315 8.9843,20.49315 L8.9843,20.49315 L18.9843,20.49315 C19.8126896,20.49315 20.4843,19.8213334 20.4843,18.99315 L20.4843,18.99315 L20.4843,12.24315 C20.4843,11.4143636 19.8130864,10.74315 18.9843,10.74315 L18.9843,10.74315 L11.1238518,10.7445223 C11.0796986,10.7526195 11.0341934,10.75685 10.9877,10.75685 C10.9412066,10.75685 10.8957014,10.7526195 10.8515482,10.7445223 Z M13.9843,12.99705 C14.3639958,12.99705 14.677791,13.2792039 14.7274534,13.6452794 L14.7343,13.74705 L14.7350468,15.74384 C15.0381748,15.9719994 15.2343,16.3348102 15.2343,16.74315 C15.2343,17.43315 14.6743,17.99315 13.9843,17.99315 C13.2943,17.99315 12.7343,17.43315 12.7343,16.74315 C12.7343,16.3348102 12.9304252,15.9719994 13.2335532,15.74384 L13.2343,13.74705 C13.2343,13.3328364 13.5700864,12.99705 13.9843,12.99705 Z" id="形状结合" fill="currentColor"></path>
        </g>
    </g>
</svg>