<svg width="16.000000" height="16.000000" viewBox="0 0 16 16" fill="none" xmlns="http://www.w3.org/2000/svg" xmlns:xlink="http://www.w3.org/1999/xlink">
	<desc>
			Created with Pixso.
	</desc>
	<defs/>
	<mask id="mask413_9686" mask-type="alpha" maskUnits="userSpaceOnUse" x="0.000000" y="0.000000" width="16.000000" height="16.000000">
		<rect id="解锁-unlock" width="16.000000" height="16.000000" fill="#000000" fill-opacity="1.000000"/>
	</mask>
	<g mask="url(#mask413_9686)">
		<path id="形状结合" d="M8 1.26C9.7 1.26 11.18 2.39 11.65 4C11.73 4.27 11.58 4.54 11.31 4.62C11.05 4.69 10.77 4.55 10.69 4.28C10.35 3.09 9.25 2.26 8 2.26C6.44 2.26 5.19 3.52 5.19 5.07L5.19 5.7L11.21 5.7C12.54 5.7 13.62 6.75 13.69 8.06L13.69 8.18L13.69 12.25C13.69 13.62 12.58 14.73 11.21 14.73L4.78 14.73C3.41 14.73 2.3 13.62 2.3 12.25L2.3 8.18C2.3 7.03 3.1 6.05 4.19 5.78L4.19 5.07C4.19 2.95 5.89 1.26 8 1.26ZM11.21 6.7L4.78 6.7C3.96 6.7 3.3 7.37 3.3 8.18L3.3 12.25C3.3 13.07 3.96 13.73 4.78 13.73L11.21 13.73C12.03 13.73 12.69 13.07 12.69 12.25L12.69 8.18C12.69 7.37 12.03 6.7 11.21 6.7ZM8 8.83C8.27 8.83 8.5 9.06 8.5 9.33L8.5 11.1C8.5 11.39 8.27 11.6 8 11.6C7.72 11.6 7.5 11.39 7.5 11.1L7.5 9.33C7.5 9.06 7.72 8.83 8 8.83Z" fill="#191919" fill-opacity="1.000000" fill-rule="nonzero"/>
	</g>
</svg>
