<svg width="16.000000" height="16.000000" viewBox="0 0 16 16" fill="none" xmlns="http://www.w3.org/2000/svg" xmlns:xlink="http://www.w3.org/1999/xlink">
	<desc>
			Created with Pixso.
	</desc>
	<defs/>
	<rect id="矩形 297" width="16.000000" height="16.000000" fill="#C4C4C4" fill-opacity="0"/>
	<path id="合并" d="M0.501709 4.99609L0.5 6.50806C0.499634 6.78809 0.719482 7.0083 0.99939 7.00854C1.27942 7.00879 1.49963 6.78906 1.5 6.50903L1.50171 4.99731C1.50171 4.8042 1.52295 4.61597 1.56531 4.43262C1.59741 4.29395 1.6416 4.1582 1.698 4.02515Q1.78491 3.81982 1.90479 3.63599L1.90479 3.63599L1.90479 3.63599Q2.04651 3.4187 2.23413 3.23145Q2.41919 3.04663 2.63342 2.90649Q2.82019 2.78418 3.02905 2.69604Q3.23218 2.61011 3.44385 2.56201L3.44397 2.56201Q3.71582 2.5 4.00171 2.5Q4.29016 2.5 4.56421 2.56299C4.70398 2.59521 4.84094 2.63965 4.97498 2.69653Q5.1814 2.78394 5.36621 2.90454L5.36621 2.90454C5.51062 2.99878 5.64514 3.1084 5.76965 3.23315Q5.95386 3.41772 6.09387 3.63135L6.09387 3.63135C6.17578 3.75635 6.24634 3.88892 6.30542 4.02905Q6.3905 4.23047 6.43872 4.44043L6.43872 4.44043Q6.50171 4.7146 6.50171 5.00342L6.50061 6C5.12195 6.00244 4.00513 7.12061 4.00513 8.5L4.00513 12.5C4.00513 13.8806 5.12439 15 6.50513 15L13.1051 15C14.4858 15 15.6051 13.8806 15.6051 12.5L15.6051 8.5C15.6051 7.11914 14.4858 6 13.1051 6L7.50061 6L7.50171 5.00342Q7.50171 4.61353 7.41931 4.24194L7.41931 4.24194L7.41931 4.24194Q7.3512 3.93481 7.22668 3.64014Q7.1001 3.34009 6.92383 3.073L6.92383 3.073C6.79492 2.87769 6.646 2.69556 6.47729 2.52661C6.30676 2.35571 6.1228 2.20532 5.92554 2.0752C5.74927 1.95923 5.5625 1.85938 5.36499 1.77563C5.16858 1.69263 4.96802 1.62817 4.76331 1.58276L4.76331 1.58252Q4.3916 1.5 4.00171 1.5Q3.6145 1.5 3.24524 1.58154L3.24524 1.58154Q2.93628 1.64966 2.63989 1.7749Q2.34131 1.90088 2.07507 2.07642L2.07507 2.07642Q1.78149 2.27002 1.52759 2.52368Q1.27087 2.78003 1.07556 3.07666L1.07556 3.07666Q0.902222 3.33984 0.777222 3.63501Q0.650391 3.93433 0.581909 4.24658L0.581909 4.24658Q0.501709 4.61255 0.501709 4.99609ZM13.1051 7C13.9336 7 14.6051 7.67139 14.6051 8.5L14.6051 12.5C14.6051 13.3284 13.9336 14 13.1051 14L6.50513 14C5.67676 14 5.00513 13.3284 5.00513 12.5L5.00513 8.5C5.00513 7.67139 5.67676 7 6.50513 7L13.1051 7ZM10.0049 9.1001C10.2849 9.1001 10.5049 9.32007 10.5049 9.6001L10.5049 11.1001C10.5049 11.3799 10.2849 11.6001 10.0049 11.6001C9.72485 11.6001 9.50488 11.3799 9.50488 11.1001L9.50488 9.6001C9.50488 9.32007 9.72485 9.1001 10.0049 9.1001Z" clip-rule="evenodd" fill="#191919" fill-opacity="1.000000" fill-rule="evenodd"/>
</svg>
