<?xml version="1.0" encoding="utf-8"?>
<svg version="1.1" id="图层_1" xmlns="http://www.w3.org/2000/svg" xmlns:xlink="http://www.w3.org/1999/xlink" x="0px" y="0px"
	 viewBox="0 0 132 132" style="enable-background:new 0 0 132 132;" xml:space="preserve">
<style type="text/css">
	.st0{fill:none;}
	.st1{fill-rule:evenodd;clip-rule:evenodd;fill:currentColor;}
</style>
<rect id="size" class="st0" width="132" height="132"/>
<path id="合并" class="st1" d="M3.7,37.9l0,12.5c0,2.3,1.8,4.1,4.1,4.1c2.3,0,4.1-1.8,4.1-4.1l0-12.5c0-1.6,0.2-3.1,0.5-4.7
	c0.3-1.1,0.6-2.3,1.1-3.4c0.5-1.1,1-2.2,1.7-3.2l0,0c0.8-1.2,1.7-2.3,2.7-3.3c1-1,2.1-1.9,3.3-2.7l0,0h0l0,0c1-0.7,2.1-1.3,3.3-1.7
	c1.1-0.5,2.3-0.8,3.4-1.1h0c1.5-0.3,3-0.5,4.6-0.5c1.6,0,3.1,0.2,4.6,0.5c1.2,0.3,2.3,0.6,3.4,1.1c2.5,1,4.7,2.5,6.6,4.4
	c1,1,1.9,2.1,2.7,3.3l0,0c0.7,1,1.3,2.1,1.7,3.3c0.5,1.1,0.8,2.2,1.1,3.4l0,0c0.3,1.5,0.5,3.1,0.5,4.6l0,8.2
	c-11.4,0-20.6,9.2-20.6,20.6v33c0,11.4,9.2,20.6,20.6,20.6h54.5c11.4,0,20.6-9.2,20.6-20.6v-33c0-11.4-9.2-20.6-20.6-20.6H61.4
	l0-8.2c0-2.1-0.2-4.2-0.7-6.3l0,0l0,0c-0.4-1.7-0.9-3.3-1.6-5c-0.7-1.6-1.5-3.2-2.5-4.7c-1.1-1.6-2.3-3.1-3.7-4.5
	c-1.4-1.4-2.9-2.6-4.6-3.7c-1.5-1-3-1.8-4.6-2.5c-1.6-0.7-3.3-1.2-5-1.6l0,0c-2-0.5-4.1-0.7-6.3-0.7c-2.1,0-4.2,0.2-6.2,0.7h0
	c-1.7,0.4-3.4,0.9-5,1.6c-1.6,0.7-3.2,1.5-4.7,2.5l0,0h0l0,0c-1.6,1.1-3.1,2.3-4.5,3.7c-1.4,1.4-2.7,2.9-3.7,4.6l0,0
	c-1,1.4-1.8,3-2.5,4.6c-0.7,1.6-1.2,3.3-1.6,5C3.9,33.7,3.7,35.8,3.7,37.9z M120.1,66.8c0-6.8-5.5-12.4-12.4-12.4H53.2
	c-6.8,0-12.4,5.5-12.4,12.4v33c0,6.8,5.5,12.4,12.4,12.4h54.5c6.8,0,12.4-5.5,12.4-12.4V66.8z M82.1,71.7c2.3,0,4.1,1.8,4.1,4.1
	v12.4c0,2.3-1.8,4.1-4.1,4.1c-2.3,0-4.1-1.8-4.1-4.1V75.9C78,73.6,79.8,71.7,82.1,71.7z"/>
</svg>
