<?xml version="1.0" encoding="utf-8"?>
<svg version="1.1" id="图层_1" xmlns="http://www.w3.org/2000/svg" xmlns:xlink="http://www.w3.org/1999/xlink" x="0px" y="0px"
	 viewBox="0 0 132 132" style="enable-background:new 0 0 132 132;" xml:space="preserve">
<style type="text/css">
	.st0{fill:none;}
	.st1{fill:currentColor;}
</style>
<rect id="size" class="st0" width="132" height="132"/>
<path id="形状结合" class="st1" d="M63.8,14.2c14.5,0,26.4,11.5,26.4,25.6v9.5c0,6.4-2.4,12.2-6.4,16.7l4.7,1.2
	c2.2,0.4,3.6,2.6,3.1,4.9c-0.4,2.2-2.6,3.6-4.9,3.1l-13.6-2.9c-3.9-0.7-4.5-5.9-1-7.7c6-3,9.8-8.9,9.8-15.4v-9.5
	c0-9.5-8.1-17.3-18.2-17.3c-7.8,0-14.5,4.8-17.1,11.5l-0.5,1.6l-0.3,1.5l-0.1,1.1l-0.1,1.7v9.5c0,0.4,0,0.8,0,1.4l0.2,1.1l0.2,1.1
	l0.4,1.5c1.4,4.5,4.7,8.2,9.1,10.4c3.5,1.7,2.8,6.8-1,7.7L32,77.2c-5,1.1-8.4,5.2-8.4,10v17c0,3,2.6,5.4,5.7,5.4H74
	c2.3,0,4.1,1.9,4.1,4.1c0,2.3-1.8,4.1-4.1,4.1H29.3c-7.7,0-13.9-6-13.9-13.6v-17c-0.1-8.7,6.3-16.3,15-18.1l13.9-2.9
	c-1.9-2.1-3.8-5-5-7.8l-0.7-2.2L38.2,55l-0.4-2.1c-0.2-1.2-0.2-2.6-0.2-3.5V39.2l0.1-2.1l0.2-1.6l0.4-1.9
	C41.3,22.6,52,14.2,63.8,14.2z M102.8,73.3c7.1,0,12.8,5.8,12.8,12.9c3.5,1.1,6.1,4.1,6.1,8v14.5c0,4.8-3.9,8.7-8.7,8.7H92.6
	c-4.8,0-8.7-3.9-8.7-8.7V94.2c0-3.9,2.6-7.2,6.1-8.2C90.2,78.9,95.9,73.3,102.8,73.3z M113,92.9H92.6c-0.7,0-1.2,0.6-1.2,1.2v14.5
	c0,0.7,0.6,1.2,1.2,1.2H113c0.7,0,1.2-0.5,1.2-1.2V94.2C114.3,93.5,113.8,92.9,113,92.9z M102.8,80.7c-2.7,0-5,2.1-5.4,4.8h10.7
	c-0.3-2.4-2.2-4.4-4.5-4.7L102.8,80.7z"/>
</svg>
