<svg width="16.000000" height="16.000000" viewBox="0 0 16 16" fill="none" xmlns="http://www.w3.org/2000/svg" xmlns:xlink="http://www.w3.org/1999/xlink">
	<desc>
			Created with Pixso.
	</desc>
	<defs/>
	<mask id="mask434_9185" mask-type="alpha" maskUnits="userSpaceOnUse" x="0.000000" y="0.000000" width="16.000000" height="16.000000">
		<rect id="账号-account" width="16.000000" height="16.000000" fill="#000000" fill-opacity="1.000000"/>
	</mask>
	<g mask="url(#mask434_9185)">
		<path id="Fill-1" d="M7.77 1.89C6.37 1.89 5.15 2.82 4.78 4.13L4.75 4.32L4.69 4.63L4.68 4.81L4.68 6.02C4.68 6.1 4.68 6.18 4.69 6.27L4.71 6.42L4.75 6.6L4.79 6.81L4.87 7.07C5 7.37 5.16 7.66 5.36 7.91L3.85 8.34C2.83 8.55 2.08 9.44 2.09 10.48L2.09 12.48C2.09 13.36 2.83 14.09 3.75 14.09L11.84 14.09C12.75 14.09 13.5 13.36 13.5 12.48L13.5 10.48L13.49 10.34C13.41 9.36 12.7 8.53 11.71 8.34L10.12 8.01C10.55 7.48 10.88 6.72 10.88 6.03L10.88 4.91C10.88 3.25 9.48 1.89 7.77 1.89ZM7.77 2.89C8.93 2.89 9.88 3.8 9.88 4.91L9.88 6.03C9.88 6.78 9.43 7.48 8.75 7.82C8.31 8.03 8.39 8.66 8.85 8.77L11.51 9.32C12.08 9.43 12.49 9.92 12.5 10.49L12.5 12.48C12.5 12.8 12.2 13.09 11.84 13.09L3.75 13.09C3.38 13.09 3.09 12.8 3.09 12.48L3.09 10.48C3.09 9.92 3.5 9.43 4.06 9.32L6.7 8.77C7.17 8.66 7.26 8.03 6.82 7.82C6.36 7.59 6.01 7.21 5.82 6.75L5.77 6.6L5.72 6.41L5.7 6.29C5.68 6.17 5.68 6.09 5.68 6.02L5.68 4.85L5.69 4.71L5.71 4.56L5.76 4.39C6 3.52 6.82 2.89 7.77 2.89Z" fill="#191919" fill-opacity="1.000000" fill-rule="nonzero"/>
	</g>
</svg>
