<svg width="16.000000" height="16.000000" viewBox="0 0 16 16" fill="none" xmlns="http://www.w3.org/2000/svg" xmlns:xlink="http://www.w3.org/1999/xlink">
	<desc>
			Created with Pixso.
	</desc>
	<defs/>
	<mask id="mask466_10345" mask-type="alpha" maskUnits="userSpaceOnUse" x="0.000000" y="0.000000" width="16.000000" height="16.000000">
		<rect id="使用指南-user-guide" width="16.000000" height="16.000000" fill="#000000" fill-opacity="1.000000"/>
	</mask>
	<g mask="url(#mask466_10345)">
		<path id="形状结合" d="M11.27 1.5C12.35 1.5 13.25 2.37 13.25 3.45L13.25 10.74C13.25 11.81 12.35 12.68 11.27 12.68L4.97 12.68C4.7 12.68 4.47 12.46 4.47 12.18C4.47 11.91 4.7 11.68 4.97 11.68L11.27 11.68C11.81 11.68 12.25 11.27 12.25 10.74L12.25 3.45C12.25 2.93 11.81 2.5 11.27 2.5L11.24 6C11.24 6.41 10.74 6.64 10.41 6.37L9.24 5.37L8.06 6.37C7.77 6.62 7.31 6.45 7.25 6.08L7.25 2.5L4.72 2.5C4.18 2.5 3.75 2.93 3.75 3.45L3.75 12.53C3.75 13.06 4.18 13.5 4.72 13.5L12.75 13.5C13.02 13.5 13.25 13.71 13.25 14C13.25 14.27 13.02 14.5 12.75 14.5L4.72 14.5C3.62 14.5 2.75 13.62 2.75 12.53L2.75 3.45C2.75 2.37 3.62 1.5 4.72 1.5L11.27 1.5ZM10.25 2.5L8.25 2.5L8.25 4.91L8.91 4.33C9.08 4.18 9.31 4.18 9.5 4.28L10.24 4.91L10.25 2.5Z" fill="#595959" fill-opacity="1.000000" fill-rule="nonzero"/>
	</g>
</svg>
