<?xml version="1.0" encoding="utf-8"?>
<svg version="1.1" id="图层_1" xmlns="http://www.w3.org/2000/svg" xmlns:xlink="http://www.w3.org/1999/xlink" x="0px" y="0px"
	 viewBox="0 0 132 132" style="enable-background:new 0 0 132 132;" xml:space="preserve">
<style type="text/css">
	.st0{fill:none;}
	.st1{fill:currentColor;}
</style>
<rect id="size" class="st0" width="132" height="132"/>
<path id="形状结合" class="st1" d="M91.8,13.9c9,0,16.3,7.2,16.3,16v60.2c0,8.9-7.3,16-16.3,16H39.7c-2.1,0-4.1-1.7-4.1-4.1
	c0-2.2,2-4.1,4.1-4.1h52.1c4.5,0,8.1-3.4,8.1-7.8V29.9c0-4.3-3.6-7.8-8.1-7.8L91.5,51c0,3.4-4.1,5.3-6.8,3.1L75,45.8l-9.6,8.2
	c-2.5,2.1-6.3,0.6-6.8-2.4V22.1h-21c-4.5,0-7.9,3.5-7.9,7.8v75c0,4.5,3.5,8,7.9,8H104c2.2,0,4.1,1.8,4.1,4.1c0,2.2-1.9,4.1-4.1,4.1
	H37.7c-8.9,0-16.2-7.3-16.2-16.3v-75c0-8.8,7.3-16,16.2-16H91.8z M83.4,22.1H66.9v19.8l5.4-4.7c1.5-1.2,3.4-1.3,4.9-0.4l6.1,5.1
	L83.4,22.1z"/>
</svg>
