<svg width="16.000000" height="16.000000" viewBox="0 0 16 16" fill="none" xmlns="http://www.w3.org/2000/svg" xmlns:xlink="http://www.w3.org/1999/xlink">
	<desc>
			Created with Pixso.
	</desc>
	<defs/>
	<mask id="mask434_9190" mask-type="alpha" maskUnits="userSpaceOnUse" x="0.000000" y="0.000000" width="16.000000" height="16.000000">
		<rect id="权限-authority" width="16.000000" height="16.000000" fill="#000000" fill-opacity="1.000000"/>
	</mask>
	<g mask="url(#mask434_9190)">
		<path id="形状结合" d="M7.38 1.5C9.14 1.5 10.58 2.88 10.58 4.6L10.58 5.75C10.58 6.52 10.29 7.22 9.8 7.78L10.37 7.92C10.64 7.97 10.81 8.25 10.75 8.52C10.7 8.79 10.42 8.95 10.15 8.89L8.51 8.55C8.04 8.45 7.95 7.83 8.39 7.62C9.12 7.26 9.58 6.54 9.58 5.75L9.58 4.6C9.58 3.44 8.59 2.5 7.38 2.5C6.43 2.5 5.62 3.08 5.31 3.89L5.25 4.09L5.21 4.27L5.19 4.39L5.19 4.6L5.19 5.75C5.19 5.8 5.19 5.85 5.19 5.91L5.21 6.05L5.23 6.17L5.29 6.36C5.45 6.9 5.85 7.36 6.39 7.62C6.81 7.83 6.72 8.44 6.27 8.55L3.52 9.13C2.91 9.26 2.5 9.76 2.5 10.34L2.5 12.39C2.5 12.76 2.81 13.05 3.18 13.05L8.6 13.05C8.89 13.05 9.1 13.28 9.1 13.55C9.1 13.83 8.89 14.05 8.6 14.05L3.18 14.05C2.26 14.05 1.5 13.32 1.5 12.39L1.5 10.34C1.48 9.28 2.26 8.37 3.32 8.14L5 7.8C4.77 7.54 4.54 7.18 4.4 6.86L4.31 6.59L4.27 6.43L4.21 6.17C4.19 6.03 4.18 5.87 4.18 5.75L4.18 4.53L4.19 4.28L4.22 4.08L4.28 3.85C4.65 2.51 5.93 1.5 7.38 1.5ZM12.1 8.65C12.96 8.65 13.65 9.36 13.65 10.22C14.08 10.35 14.39 10.72 14.39 11.18L14.39 12.95C14.39 13.53 13.91 14 13.34 14L10.86 14C10.28 14 9.81 13.53 9.81 12.95L9.81 11.18C9.81 10.72 10.12 10.32 10.55 10.18C10.57 9.34 11.26 8.65 12.1 8.65ZM13.34 11.04L10.86 11.04C10.78 11.04 10.71 11.11 10.71 11.18L10.71 12.95C10.71 13.04 10.78 13.1 10.86 13.1L13.34 13.1C13.42 13.1 13.49 13.04 13.49 12.95L13.49 11.18C13.49 11.11 13.42 11.04 13.34 11.04ZM12.1 9.56C11.77 9.56 11.49 9.81 11.45 10.13L12.75 10.13C12.71 9.85 12.48 9.61 12.2 9.57L12.1 9.56Z" fill="#191919" fill-opacity="1.000000" fill-rule="nonzero"/>
	</g>
</svg>
