<?xml version="1.0" encoding="utf-8"?>
<svg version="1.1" id="图层_1" xmlns="http://www.w3.org/2000/svg" xmlns:xlink="http://www.w3.org/1999/xlink" x="0px" y="0px"
	 viewBox="0 0 132 132" style="enable-background:new 0 0 132 132;" xml:space="preserve">
<style type="text/css">
	.st0{fill:none;}
	.st1{fill:currentColor;}
</style>
<rect id="size" class="st0" width="132" height="132"/>
<path id="Fill-1" class="st1" d="M65,14.3c-11.5,0-21.6,7.7-24.7,18.5L40,34.3l-0.3,2.6l-0.1,1.5v10c0,0.7,0,1.3,0.1,2.1l0.2,1.2
	l0.2,1.5l0.5,1.7l0.7,2.1c0.9,2.5,2.4,4.9,4,6.9l-12.5,3.5c-8.4,1.7-14.6,9.1-14.5,17.7v16.5c0,7.3,6.1,13.3,13.5,13.3h66.8
	c7.5,0,13.7-6,13.7-13.3V85.1l-0.2-1.2c-0.5-8.1-6.4-14.9-14.6-16.5l-13-2.7c3.5-4.4,6.3-10.6,6.3-16.3v-9.2
	C90.7,25.5,79.2,14.3,65,14.3z M65,22.5c9.7,0,17.5,7.5,17.5,16.7v9.2c0,6.2-3.7,12-9.5,14.8c-3.5,1.7-2.9,6.9,0.9,7.8l21.9,4.5
	c4.7,0.9,8,5,8.2,9.7v16.4c0,2.6-2.5,5-5.4,5H31.7c-2.9,0-5.3-2.4-5.3-5V85.1c0-4.6,3.2-8.7,8-9.6L56.2,71c3.9-0.9,4.5-6.1,1-7.8
	c-3.8-1.9-6.8-5-8.2-8.8l-0.5-1.2l-0.3-1.6l-0.2-1c-0.2-1-0.2-1.6-0.2-2.2v-9.7l0.1-1.2l0.2-1.2l0.2-1.4
	C50.3,27.7,57.2,22.5,65,22.5z"/>
</svg>
