<?xml version="1.0" encoding="utf-8"?>
<!-- Generator: Adobe Illustrator 26.0.2, SVG Export Plug-In . SVG Version: 6.00 Build 0)  -->
<svg version="1.1" id="图层_1" xmlns="http://www.w3.org/2000/svg" xmlns:xlink="http://www.w3.org/1999/xlink" x="0px" y="0px"
	 viewBox="0 0 24 24" style="enable-background:new 0 0 24 24;" xml:space="preserve">
<style type="text/css">
	.st0{fill:currentColor;}
</style>
<g>
	<path class="st0" d="M12.4,15c0.1,0,0.2,0,0.3-0.1c0-0.1,0.1-0.3,0.1-0.7v-1.6c-0.4,0.3-0.6,0.5-0.6,0.7c-0.1,0.2-0.1,0.4-0.1,0.8
		s0,0.6,0.1,0.8C12.2,14.9,12.3,15,12.4,15z"/>
	<path class="st0" d="M21,3.4H3.1c-1.2,0-2.2,0.9-2.2,2.1v13.1c0,1.2,0.9,2.1,2.1,2.1h18c1.2,0,2.1-0.9,2.1-2.1V5.4
		C23.1,4.2,22.2,3.4,21,3.4z M9.9,13.9c0-0.6,0.1-1,0.3-1.2s0.6-0.4,1.3-0.7c0.8-0.3,1.2-0.5,1.2-0.6c0.1-0.1,0.1-0.3,0.1-0.6
		c0-0.4,0-0.7-0.1-0.8s-0.2-0.2-0.3-0.2c-0.2,0-0.3,0-0.3,0.2c0,0.1-0.1,0.4-0.1,0.8v0.8H9.8v-0.5c0-0.6,0.1-1,0.2-1.4
		c0.1-0.3,0.4-0.6,0.8-0.8c0.4-0.2,0.9-0.4,1.6-0.4c0.8,0,1.4,0.1,1.8,0.4c0.4,0.3,0.6,0.6,0.7,1c0.2,0.4,0.2,1.2,0.2,2.5v3.8h-2.3
		v-0.7c-0.1,0.3-0.3,0.5-0.6,0.6c-0.1,0.2-0.4,0.2-0.7,0.2c-0.4,0-0.8-0.1-1.1-0.3c-0.3-0.2-0.5-0.7-0.5-1.5
		C9.9,14.5,9.9,13.9,9.9,13.9z M6,8.6l0.7,5.5c0-0.4,0.1-1.4,0.3-3c0-0.8,0-1.7,0.1-2.5h2.1l-1.1,7.6h-3L3.9,8.5
		C3.9,8.5,6,8.5,6,8.6z M20,11.1c-0.4,0-0.7,0.1-0.9,0.2s-0.3,0.3-0.4,0.5c0,0.2-0.1,0.7-0.1,1.4v3h-2.3V8.5h2.3l-0.1,1
		c0.3-0.7,0.8-1.1,1.5-1.1C20,8.4,20,11.1,20,11.1z"/>
</g>
</svg>
