<svg width="16.000000" height="16.000000" viewBox="0 0 16 16" fill="currentColor" xmlns="http://www.w3.org/2000/svg" xmlns:xlink="http://www.w3.org/1999/xlink">
	<desc>
			Created with Pixso.
	</desc>
	<defs/>
	<mask id="mask1188_13277" mask-type="alpha" maskUnits="userSpaceOnUse" x="0.000000" y="0.000000" width="16.000000" height="16.000000">
		<rect id="日志中心-logcenter" width="16.000000" height="16.000000" stroke="currentColor" fill="currentColor" fill-opacity="1.000000"/>
	</mask>
	<g mask="url(#mask1188_13277)">
		<path id="形状" d="M14 10.83L13 10.83L13 3.83C13 3 12.32 2.33 11.5 2.33L4.5 2.33C3.66 2.33 3 3 3 3.83L3 11.83C3 12.66 3.66 13.33 4.5 13.33L10.5 13.33L10.5 14.33L4.5 14.33C3.11 14.33 2 13.21 2 11.83L2 3.83C2 2.45 3.11 1.33 4.5 1.33L11.5 1.33C12.87 1.33 14 2.45 14 3.83L14 10.83ZM10.5 8.33C10.76 8.33 11 8.1 11 7.83C11 7.56 10.76 7.33 10.5 7.33L5.5 7.33C5.21 7.33 5 7.56 5 7.83C5 8.1 5.21 8.33 5.5 8.33L10.5 8.33ZM7.5 11.33C7.76 11.33 8 11.1 8 10.83C8 10.56 7.76 10.33 7.5 10.33L5.5 10.33C5.21 10.33 5 10.56 5 10.83C5 11.1 5.21 11.33 5.5 11.33L7.5 11.33ZM10.5 5.33C10.76 5.33 11 5.1 11 4.83C11 4.56 10.76 4.33 10.5 4.33L5.5 4.33C5.21 4.33 5 4.56 5 4.83C5 5.1 5.21 5.33 5.5 5.33L10.5 5.33ZM11.5 11.33C11.26 11.37 11 11.58 11 11.83L11 12.62L12.29 11.33L11.5 11.33ZM10 11.83C10 11 10.66 10.33 11.5 10.33L13.5 10.33C13.94 10.33 14.16 10.87 13.84 11.18L10.84 14.18C10.53 14.5 10 14.28 10 13.83L10 11.83Z"  fill="currentColor" fill-opacity="1.000000" fill-rule="nonzero"/>
	</g>
</svg>
