<?xml version="1.0" encoding="utf-8"?>
<svg version="1.1" id="图层_1" xmlns="http://www.w3.org/2000/svg" xmlns:xlink="http://www.w3.org/1999/xlink" x="0px" y="0px"
	 viewBox="0 0 132 132" style="enable-background:new 0 0 132 132;" xml:space="preserve">
<style type="text/css">
	.st0{fill:none;}
	.st1{fill:currentColor;}
</style>
<rect id="size" class="st0" width="132" height="132"/>
<path id="形状结合" class="st1" d="M103.1,16.5c11.4,0,20.6,9.2,20.6,20.6v57.8c0,11.4-9.2,20.6-20.6,20.6H28.9
	c-11.4,0-20.6-9.2-20.6-20.6V37.1c0-11.4,9.2-20.6,20.6-20.6H103.1z M103.1,24.8H28.9c-6.8,0-12.4,5.5-12.4,12.4v57.8
	c0,6.8,5.5,12.4,12.4,12.4h74.2c6.8,0,12.4-5.5,12.4-12.4V37.1C115.5,30.3,110,24.8,103.1,24.8z M56.4,46.9c0.8,0,1.6,0.2,2.3,0.6
	l24.3,13.3c2.4,1.3,3.4,4.5,2.1,7c-0.5,0.9-1.2,1.7-2.1,2.1L58.8,83.2c-2.4,1.3-5.5,0.4-6.8-2.1c-0.4-0.7-0.6-1.6-0.6-2.4V52
	C51.4,49.2,53.7,46.9,56.4,46.9z"/>
</svg>
