<svg version="1.1" id="图层_1" xmlns="http://www.w3.org/2000/svg" xmlns:xlink="http://www.w3.org/1999/xlink" x="0px" y="0px"
	 viewBox="0 0 64 64" style="enable-background:new 0 0 64 64;" xml:space="preserve">
<style type="text/css">
	.st0{fill:currentcolor;}
</style>
<path class="st0" d="M55.9,22c-4,0-7.3,2.9-8,6.6h-4.8c-0.7-3.8-4-6.6-8-6.6s-7.3,2.9-8,6.6h-4.8c-0.7-5.5-5.4-9.7-11.1-9.7
	C5.1,19,0.1,24,0.1,30.2s5,11.2,11.2,11.2c5.7,0,10.3-4.2,11.1-9.7h4.8c0.7,3.8,4,6.6,8,6.6s7.3-2.9,8-6.6H48c0.7,3.8,4,6.6,8,6.6
	c4.5,0,8.1-3.6,8.1-8.1S60.4,22,55.9,22z M12.9,36.3h-2.5v-9.5c-0.3,0.3-0.7,0.5-1.3,0.7s-1,0.4-1.5,0.4v-2.2c1.4-0.4,2.7-1,3.7-1.8
	h1.6V36.3z M35.1,34.3c-2.3,0-4.1-1.8-4.1-4.1s1.8-4.1,4.1-4.1s4.1,1.8,4.1,4.1S37.4,34.3,35.1,34.3z M55.9,34.3
	c-2.3,0-4.1-1.8-4.1-4.1s1.8-4.1,4.1-4.1s4.1,1.8,4.1,4.1S58.2,34.3,55.9,34.3z"/>
</svg>
