<?xml version="1.0" encoding="utf-8"?>
<svg version="1.1" id="图层_1" xmlns="http://www.w3.org/2000/svg" xmlns:xlink="http://www.w3.org/1999/xlink" x="0px" y="0px"
	 viewBox="0 0 132 132" style="enable-background:new 0 0 132 132;" xml:space="preserve">
<style type="text/css">
	.st0{fill:none;}
	.st1{fill:currentColor;}
</style>
<rect id="size" class="st0" width="132" height="132"/>
<path id="形状结合" class="st1" d="M115.5,86.6c2.3,0,4.1,1.8,4.1,4.1v10.6c0,10.1-8.2,18.3-18.3,18.3H30.7
	c-10.1,0-18.3-8.2-18.3-18.3V90.8c0-2.3,1.8-4.1,4.1-4.1s4.1,1.8,4.1,4.1v10.6c0,5.5,4.5,10,10,10h70.7c5.5,0,10-4.5,10-10V90.8
	C111.4,88.5,113.2,86.6,115.5,86.6z M63.1,17.7c1.6-1.6,4.2-1.6,5.8,0L92.3,41c1.6,1.6,1.6,4.2,0,5.8l-0.6,0.5
	c-1.6,1.1-3.8,1-5.3-0.5L70.5,31l0,68.3c0,2.1-1.6,3.8-3.6,4.1l-0.6,0c-2.3,0-4.1-1.8-4.1-4.1l0-69L45.6,46.9
	c-1.5,1.5-3.8,1.6-5.4,0.4l-0.5-0.4c-1.6-1.6-1.6-4.2,0-5.8L63.1,17.7z"/>
</svg>
