<?xml version="1.0" encoding="utf-8"?>
<svg version="1.1" id="图层_1" xmlns="http://www.w3.org/2000/svg" xmlns:xlink="http://www.w3.org/1999/xlink" x="0px" y="0px"
	 viewBox="0 0 132 132" style="enable-background:new 0 0 132 132;" xml:space="preserve">
<style type="text/css">
	.st0{fill:none;}
	.st1{fill-rule:evenodd;clip-rule:evenodd;fill:currentColor;}
	.st2{fill:none;stroke:currentColor;stroke-opacity:0;}
</style>
<rect id="size" class="st0" width="132" height="132"/>
<g>
	<path id="形状结合" class="st1" d="M66,49.5c9.1,0,16.4,7.3,16.4,16.4v38.5c0,9.1-7.3,16.5-16.4,16.5H27.5
		c-9.1,0-16.5-7.4-16.5-16.5V66c0-9.1,7.4-16.4,16.5-16.4H66z M51.2,64l-8.2,0.3c0.2,0.6,0.4,1.6,0.7,3c0.3,1.2,0.6,2.2,0.7,2.9
		H26.9v6.5h6.2c2.1,6.4,5,11.6,8.6,15.8c-3.9,2.4-8.9,4.5-15.1,6.4c0.9,1.2,2.2,3.1,4,5.9c6.7-2.4,12.5-4.5,16.8-7.3
		c4.5,2.9,10.1,5.4,16.8,7.4c1.2-2.1,2.6-4.5,4.3-6.7c-6.2-1.2-11.3-3.1-15.4-5.7c3.9-3.8,6.8-9.1,8.7-15.8H68v-6.5H52
		C51.8,68.1,51.5,66,51.2,64z M54.1,76.7c-1.2,4.5-3.5,8.2-6.7,11.4c-2.9-3.1-5.1-6.9-6.7-11.4H54.1z M104.5,11
		c9.1,0,16.5,7.4,16.5,16.5V66c0,9.1-7.4,16.5-16.5,16.5H88v-8.2h16.5c4.5,0,8.2-3.7,8.2-8.2V27.5c0-4.5-3.7-8.2-8.2-8.2H66
		c-4.5,0-8.2,3.7-8.2,8.2V44h-8.2V27.5C49.5,18.4,56.9,11,66,11H104.5z M85.3,25.1c2.4,0,4.5,1.4,5.2,3.6l12.5,34.1
		c0.7,2.1-0.3,4.5-2.5,5.3c-0.5,0.2-1,0.2-1.4,0.2c-1.7,0-3.3-1-3.9-2.7L93,59.9h-5.9c-0.9-3.1-2.5-5.9-4.5-8.2H90l-4.8-13.2
		L81.1,50c-2.1-2-4.5-3.5-7.2-4.5L80,28.8C80.8,26.5,82.9,25.1,85.3,25.1z"/>
	<path id="形状结合_00000010998318707575897520000013027657123687105463_" class="st2" d="M82.5,66v38.5
		c0,9.1-7.3,16.5-16.4,16.5H27.5c-9.1,0-16.5-7.4-16.5-16.5V66c0-9.1,7.4-16.4,16.5-16.4H66C75.1,49.5,82.5,56.9,82.5,66z
		 M42.9,64.3c0.2,0.6,0.4,1.6,0.7,3c0.3,1.2,0.6,2.2,0.7,2.9H26.9v6.5h6.2c2.1,6.4,5,11.6,8.6,15.8c-3.9,2.4-8.9,4.5-15.1,6.4
		c0.9,1.2,2.2,3.1,4,5.9c6.7-2.4,12.5-4.5,16.8-7.3c4.5,2.9,10.1,5.4,16.8,7.4c1.2-2.1,2.6-4.5,4.3-6.7c-6.2-1.2-11.3-3.1-15.4-5.7
		c3.9-3.8,6.8-9.1,8.7-15.8H68v-6.5H52c-0.2-2.1-0.5-4.1-0.8-6.2L42.9,64.3z M47.4,88.1c-2.9-3.1-5.1-6.9-6.7-11.4h13.4
		C52.8,81.1,50.6,84.9,47.4,88.1z M121,27.5V66c0,9.1-7.4,16.5-16.5,16.5H88v-8.2h16.5c4.5,0,8.2-3.7,8.2-8.2V27.5
		c0-4.5-3.7-8.2-8.2-8.2H66c-4.5,0-8.2,3.7-8.2,8.2V44h-8.2V27.5C49.5,18.4,56.9,11,66,11h38.5C113.6,11,121,18.4,121,27.5z
		 M90.5,28.8l12.5,34.1c0.7,2.1-0.3,4.5-2.5,5.3c-0.5,0.2-1,0.2-1.4,0.2c-1.7,0-3.3-1-3.9-2.7L93,59.9h-5.9
		c-0.9-3.1-2.5-5.9-4.5-8.2H90l-4.8-13.2L81.1,50c-2.1-2-4.5-3.5-7.2-4.5L80,28.8c0.8-2.2,2.9-3.6,5.3-3.6S89.7,26.5,90.5,28.8z"/>
</g>
</svg>
