<?xml version="1.0" encoding="utf-8"?>
<svg version="1.1" id="图层_1" xmlns="http://www.w3.org/2000/svg" xmlns:xlink="http://www.w3.org/1999/xlink" x="0px" y="0px"
	 viewBox="0 0 132 132" style="enable-background:new 0 0 132 132;" xml:space="preserve">
<style type="text/css">
	.st0{fill:none;}
	.st1{fill:currentColor;}
</style>
<rect id="size" class="st0" width="132" height="132"/>
<path id="path" class="st1" d="M97.3,123.7H39.6c-11.5,0-20.6-9.2-20.6-20.6V28.8C19,17.3,28,8.2,39.6,8.2h41.3
	c1.1,0,2.1,0.4,2.9,1.2l33,33c0.7,0.7,1.2,1.7,1.2,2.9v57.7C118,114.5,108.7,123.7,97.3,123.7z M39.6,16.5
	c-6.8,0-12.4,5.5-12.4,12.4v74.2c0,6.8,5.5,12.4,12.4,12.4h57.8c6.8,0,12.4-5.5,12.4-12.4V47L79,16.5H39.6z M93.2,78.3
	c0-2.4-1.9-4.1-4.1-4.1H47.8c-2.3,0-4.1,1.7-4.1,4.1c0,2.2,1.8,4.1,4.1,4.1h41.3C91.3,82.5,93.2,80.6,93.2,78.3z M50.7,65.6
	l11.6-11.6c1.6-1.8,1.6-4.2,0-5.9L50.7,36.4c-1.7-1.6-4.2-1.6-5.9,0c-1.8,1.8-1.8,4.2,0,6l8.7,8.7l-8.7,8.8c-1.8,1.6-1.8,4.1,0,5.8
	c0.7,0.8,1.7,1.3,2.8,1.3C48.7,67,50,66.5,50.7,65.6z M93.2,94.8c0-2.3-1.9-4.1-4.1-4.1H47.8c-2.3,0-4.1,1.8-4.1,4.1
	c0,2.2,1.8,4.1,4.1,4.1h41.3C91.3,99,93.2,97.1,93.2,94.8z"/>
</svg>
