<?xml version="1.0" encoding="utf-8"?>
<svg version="1.1" id="图层_1" xmlns="http://www.w3.org/2000/svg" xmlns:xlink="http://www.w3.org/1999/xlink" x="0px" y="0px"
	 viewBox="0 0 132 132" style="enable-background:new 0 0 132 132;" xml:space="preserve">
<style type="text/css">
	.st0{fill:none;}
	.st1{fill-rule:evenodd;clip-rule:evenodd;fill:currentColor;}
</style>
<rect id="size" class="st0" width="132" height="132"/>
<path id="合并" class="st1" d="M112.4,27.8l-36.5-21c-6.2-3.5-13.8-3.5-19.9,0l-36.5,21C13.4,31.3,9.6,38,9.6,45V87
	c0,7.1,3.8,13.7,10,17.2l36.5,21c3.1,1.7,6.4,2.6,9.9,2.6c3.5,0,6.9-0.9,10-2.6l36.5-21c6.2-3.5,10-10.1,10-17.2V45
	C122.4,38,118.6,31.3,112.4,27.8z M114.1,87c0,4.1-2.3,8-5.9,10.1l-36.5,21c-3.6,2.1-8.1,2.1-11.6,0l-36.5-21
	c-3.6-2.1-5.9-5.9-5.9-10.1V45c0-4.1,2.2-7.9,5.9-10.1l36.5-21c1.7-1.1,3.7-1.6,5.8-1.6c2.1,0,4,0.5,5.9,1.6l36.5,21
	c3.5,2.1,5.9,5.9,5.9,10.1V87z M66,41.3c-13.7,0-24.8,11.1-24.8,24.8S52.3,90.8,66,90.8S90.7,79.7,90.7,66S79.7,41.3,66,41.3z
	 M66,49.5c-9.1,0-16.5,7.4-16.5,16.5c0,9.1,7.4,16.5,16.5,16.5c9.1,0,16.5-7.4,16.5-16.5C82.5,56.9,75.1,49.5,66,49.5z"/>
</svg>
