<?xml version="1.0" encoding="utf-8"?>
<svg version="1.1" id="图层_1" xmlns="http://www.w3.org/2000/svg" xmlns:xlink="http://www.w3.org/1999/xlink" x="0px" y="0px"
	 viewBox="0 0 132 132" style="enable-background:new 0 0 132 132;" xml:space="preserve">
<style type="text/css">
	.st0{fill:none;}
	.st1{fill:currentColor;}
</style>
<rect class="st0" width="132" height="132"/>
<path class="st1" d="M74.2,28.9c-2.3,0-4.1,1.8-4.1,4.1s1.8,4.1,4.1,4.1h14.9L68.6,57.8c-1.5,1.4-1.7,3.7-0.4,5.4l0.4,0.5
	c1.7,1.6,4.2,1.6,5.9,0l20.5-20.5v14.7c0,2,1.4,3.7,3.4,4H99c2.3,0,4.1-1.8,4.1-4.1V36.3c0-4.1-3.3-7.4-7.4-7.4H74.2z M63.4,68.4
	c-1.6-1.6-4.2-1.6-5.9,0L37.1,88.9V74.2c0-2-1.4-3.7-3.4-4H33c-2.3,0-4.1,1.8-4.1,4.1v21.4c0,4.1,3.3,7.4,7.4,7.4h21.5
	c2.3,0,4.1-1.8,4.1-4.1S60.1,95,57.8,95H42.8l20.6-20.7c1.3-1.6,1.3-3.8,0-5.4V68.4z M33,20.6h66c6.8,0,12.4,5.5,12.4,12.4v66
	c0,6.8-5.5,12.4-12.4,12.4H33c-6.8,0-12.4-5.5-12.4-12.4V33C20.6,26.2,26.2,20.6,33,20.6z M33,12.4c-11.4,0-20.6,9.2-20.6,20.6v66
	c0,11.4,9.2,20.6,20.6,20.6h66c11.4,0,20.6-9.2,20.6-20.6V33c0-11.4-9.2-20.6-20.6-20.6H33z"/>
</svg>
