<?xml version="1.0" encoding="utf-8"?>
<svg version="1.1" id="图层_1" xmlns="http://www.w3.org/2000/svg" xmlns:xlink="http://www.w3.org/1999/xlink" x="0px" y="0px"
	 viewBox="0 0 132 132" style="enable-background:new 0 0 132 132;" xml:space="preserve">
<style type="text/css">
	.st0{fill:none;}
	.st1{fill:currentColor;}
</style>
<rect id="size" class="st0" width="132" height="132"/>
<path id="形状结合" class="st1" d="M49.2,70.4c6.8,0,12.4,5.5,12.4,12.4v28.6c0,2.3-1.8,4.1-4.1,4.1c-2.3,0-4.1-1.8-4.1-4.1
	l0-26.9l-27.2,27.2c-1.6,1.6-4.2,1.6-5.8,0c-1.6-1.6-1.6-4.2,0-5.8l27.2-27.2l-26.8,0c-2.1,0-3.8-1.6-4.1-3.6l0-0.6
	c0-2.3,1.8-4.1,4.1-4.1H49.2z M74.6,16.5c2.3,0,4.1,1.8,4.1,4.1l0,26.8l27.2-27.2c1.6-1.6,4.2-1.6,5.8,0c1.6,1.6,1.6,4.2,0,5.8
	L84.5,53.3l26.9,0c2.1,0,3.8,1.6,4.1,3.6l0,0.6c0,2.3-1.8,4.1-4.1,4.1H82.8c-6.8,0-12.4-5.5-12.4-12.4V20.6
	C70.4,18.3,72.3,16.5,74.6,16.5z"/>
</svg>
