<?xml version="1.0" encoding="utf-8"?>
<svg version="1.1" id="图层_1" xmlns="http://www.w3.org/2000/svg" xmlns:xlink="http://www.w3.org/1999/xlink" x="0px" y="0px"
	 viewBox="0 0 132 132" style="enable-background:new 0 0 132 132;" xml:space="preserve">
<style type="text/css">
	.st0{fill:none;}
	.st1{fill:currentColor;}
</style>
<rect id="size" class="st0" width="132" height="132"/>
<path id="形状结合" class="st1" d="M65.9,24.8c13.6,0,24.8,10.9,24.8,24.4v9.2c0,5.7-2,11-5.4,15.3l11.8,3.3
	c7.8,1.7,13.6,8.4,14.2,16.4l0.1,0.9v16.3c0,7.3-6,13.2-13.4,13.2H33.9c-7.3,0-13.3-5.9-13.3-13.2V94.3c-0.1-8.3,5.9-15.6,14.1-17.4
	l12.5-2.6c-1.6-2-3.5-5-4.5-7.7l-0.5-1.2l-0.4-1.5l-0.3-1.5l-0.1-1l-0.2-1.2c-0.1-0.7-0.1-1.3-0.1-2v-9.5l0.2-2.1l0.2-1.7l0.5-2.2
	C44.9,32.3,54.7,24.8,65.9,24.8z M65.9,33c-7.5,0-14,5-15.9,12l-0.3,1.2l-0.1,0.9l-0.2,1c0,0.6,0,0.7,0,1.1v9.6
	c0,0.4,0.1,1.1,0.2,1.7l0.2,0.9l0.2,1.1l0.6,1.6c1.4,3.7,4.2,6.8,7.8,8.7c3.5,1.8,2.8,6.9-1,7.8l-21,4.5c-4.5,0.9-7.6,4.8-7.6,9.2
	v16.3c0,2.6,2.2,5,5,5H98c2.8,0,5.1-2.3,5.1-5V94.3c-0.1-4.5-3.3-8.3-7.8-9.2l-21-4.5c-3.8-0.8-4.5-5.9-1-7.8c5.4-2.8,9-8.2,9-14.4
	v-9.2C82.4,40.3,75,33,65.9,33z M113.6,56.5c7.9,1.6,14.3,8.2,14.3,15.9v14.2c0,2.2-1.9,4.1-4.1,4.1c-2.3,0-4.1-1.9-4.1-4.1V72.4
	c0-3.7-2.9-6.9-7-7.8c-2.2-0.3-3.7-2.6-3.2-4.8C109.8,57.6,111.4,56.1,113.6,56.5z M22.6,59.9c0.4,2.2-1.1,4.5-3.3,4.8
	c-4.1,0.8-6.9,4-6.9,7.8v14.2c0,2.2-1.9,4.1-4.1,4.1c-2.3,0-4.1-1.9-4.1-4.1V72.4C4,64.7,9.8,58.2,17.7,56.7
	C20,56.2,22.1,57.6,22.6,59.9z M82.5,8.2c11,0,20.8,6.2,23.8,15.1l0.4,1.4l0.4,2.1l0.1,1.3l0.1,0.9v7.4c0,0.8-0.1,1.6-0.2,2.6
	l-0.6,2.3l-0.3,1.2c-0.9,1.8-3.4,3.5-5.4,2.6c-2.1-0.7-3.3-3.1-2.5-5.2l0.2-1l0.3-1.1c0-0.3,0.2-1.2,0.2-1.4v-7.8l-0.1-0.8l-0.2-1
	L98.4,26c-1.7-5.4-8.2-9.5-15.9-9.5c-2.3,0-4.1-1.9-4.1-4.1C78.4,10,80.2,8.2,82.5,8.2z M49.5,8.2c2.2,0,4.1,1.7,4.1,4.1
	c0,2.2-1.9,4.1-4.1,4.1c-7.7,0-14.3,4.1-16,9.5l-0.2,0.9l-0.2,1L33,28.7v7.8c0,0.2,0,0.5,0.1,1.1l0.3,1.4c0.7,2.3-0.1,5.5-2.2,6.2
	c-2,0.8-4.1-0.2-5-2l-0.7-1.8L25,39.5c-0.2-0.9-0.2-2.2-0.2-3.1V29v-0.9l0.2-1.3l0.2-1.4l0.6-2.1C28.6,14.4,38.4,8.2,49.5,8.2z"/>
</svg>
