<?xml version="1.0" encoding="utf-8"?>
<svg version="1.1" id="图层_1" xmlns="http://www.w3.org/2000/svg" xmlns:xlink="http://www.w3.org/1999/xlink" x="0px" y="0px"
	 viewBox="0 0 132 132" style="enable-background:new 0 0 132 132;" xml:space="preserve">
<style type="text/css">
	.st0{fill:none;}
	.st1{fill:currentColor;}
</style>
<rect id="矩形" class="st0" width="132" height="132"/>
<path class="st1" d="M69.3,38c0,7.1,6.1,13.2,13.2,13.2S95.7,45.1,95.7,38s-6.1-13.2-13.2-13.2C75.3,24.2,69.3,30.2,69.3,38z
	 M87.4,38c0,2.8-2.2,5-4.9,5s-4.9-2.2-4.9-5s2.2-5,4.9-5C85.2,32.5,87.4,34.7,87.4,38z M80.8,74.2l-6.6,6.6c-3.8,3.8-9.3,3.8-13.2,0
	L36.9,57.2c-0.5-0.6-1.1-0.6-1.7,0L14.9,77.5v13.2c0,7.7,6.6,13.8,15.4,13.8h34.1c2.2,0,4.4,1.6,4.4,4.4c0,2.2-1.7,4.4-4.4,4.4H30.2
	c-13.2,0-23.7-9.9-23.7-22V28.6c0-12.1,10.5-22,23.7-22h68.2c13.2,0,23.7,9.9,23.7,22v31.9c0,2.2-1.6,4.4-4.4,4.4
	c-2.2,0-4.4-1.7-4.4-4.4V28.6c0-7.7-6.6-13.8-15.4-13.8H30.2c-8.2,0.6-14.9,6.6-14.9,13.8V66l14.9-14.3c3.8-3.8,9.3-3.8,13.2,0
	l24.2,23.7c0.6,0.6,1.1,0.6,1.7,0l6.6-6.6c1.7-1.7,4.4-1.7,6.1,0S82.5,72.6,80.8,74.2z M125.4,99c0,2.2-1.6,4.4-4.4,4.4h-13.8v13.8
	c0,2.2-1.6,4.4-4.4,4.4c-2.2,0-4.4-1.6-4.4-4.4v-13.8H84.7c-2.2,0-4.4-1.6-4.4-4.4s1.7-4.4,4.4-4.4H99V80.9c0-2.2,1.6-4.4,4.4-4.4
	c2.2,0,4.4,1.7,4.4,4.4v13.8H121C123.2,94.6,125.4,96.2,125.4,99z"/>
</svg>
