<?xml version="1.0" encoding="utf-8"?>
<svg version="1.1" id="图层_1" xmlns="http://www.w3.org/2000/svg" xmlns:xlink="http://www.w3.org/1999/xlink" x="0px" y="0px"
	 viewBox="0 0 132 132" style="enable-background:new 0 0 132 132;" xml:space="preserve">
<style type="text/css">
	.st0{fill:none;}
	.st1{fill:currentColor;}
</style>
<rect id="size" class="st0" width="132" height="132"/>
<path id="形状结合" class="st1" d="M116.1,56.8c5.1,5,5.1,13.4,0,18.4L99.7,91.6c-1.6,1.6-4.2,1.6-5.8,0c-1.7-1.7-1.7-4.2,0-5.9
	l15.7-15.7H68.3v45c0,2.3-1.8,4.1-4.1,4.1c-2.3,0-4.1-1.8-4.1-4.1v-45H22.5l15.6,15.7c1.5,1.5,1.6,3.8,0.4,5.4
	c-1.6,1.6-4.6,2.1-6.2,0.5L15.9,75.2c-5.1-5-5.1-13.4,0-18.4l16.4-16.4c1.6-1.6,4.2-1.6,5.8,0c1.6,1.6,1.6,4.2,0,5.9L22.5,61.8H60
	V17c0-2.3,1.8-4.1,4.1-4.1c2.3,0,4.1,1.8,4.1,4.1v44.9h41.2L93.9,46.2c-1.5-1.5-1.7-3.8-0.4-5.4c1.6-1.6,4.6-2.1,6.2-0.4L116.1,56.8
	z"/>
</svg>
