<?xml version="1.0" encoding="utf-8"?>
<svg version="1.1" id="图层_1" xmlns="http://www.w3.org/2000/svg" xmlns:xlink="http://www.w3.org/1999/xlink" x="0px" y="0px"
	 viewBox="0 0 16 16" style="enable-background:new 0 0 16 16;" xml:space="preserve">
<style type="text/css">
	.st0{fill:currentColor;}
</style>
<desc>Created with Pixso.</desc>
<path id="path" class="st0" d="M8,1C4.1,1,1,4.1,1,8c0,3.9,3.1,7,7,7c3.9,0,7-3.1,7-7C15,4.1,11.9,1,8,1z M8,14c-3.3,0-6-2.7-6-6
	c0-3.3,2.7-6,6-6c3.3,0,6,2.7,6,6C14,11.3,11.3,14,8,14z M10,8.4C10,8.8,9.8,9,9.5,9H7.7C7.3,9,7,8.7,7,8.3V5.5C7,5.2,7.2,5,7.5,5
	C7.8,5,8,5.2,8,5.5V8h1.5C9.7,8,9.9,8.2,10,8.4z"/>
</svg>
