<?xml version="1.0" encoding="utf-8"?>
<svg version="1.1" id="图层_1" xmlns="http://www.w3.org/2000/svg" xmlns:xlink="http://www.w3.org/1999/xlink" x="0px" y="0px"
	 viewBox="0 0 132 132" style="enable-background:new 0 0 132 132;" xml:space="preserve">
<style type="text/css">
	.st0{fill:none;}
	.st1{fill:currentColor;}
</style>
<rect id="size" class="st0" width="132" height="132"/>
<path id="形状结合" class="st1" d="M41.2,10.3c2.3,0,4.1,1.8,4.1,4.1v8.2h4.1c6.8,0,12.4,5.5,12.4,12.4v61.9
	c0,6.8-5.5,12.4-12.4,12.4h-4.1v8.2c0,2.3-1.8,4.1-4.1,4.1s-4.1-1.8-4.1-4.1v-8.2H33c-6.8,0-12.4-5.5-12.4-12.4V35.1
	c0-6.8,5.5-12.4,12.4-12.4h4.1v-8.2C37.1,12.2,39,10.3,41.2,10.3z M49.5,30.9H33c-2.3,0-4.1,1.8-4.1,4.1v61.9c0,2.3,1.8,4.1,4.1,4.1
	h16.5c2.3,0,4.1-1.8,4.1-4.1V35.1C53.6,32.8,51.8,30.9,49.5,30.9z M90.8,10.3c2.3,0,4.1,1.8,4.1,4.1v22.7H99
	c6.8,0,12.4,5.5,12.4,12.4v33c0,6.8-5.5,12.4-12.4,12.4h-4.1v22.7c0,2.3-1.8,4.1-4.1,4.1s-4.1-1.8-4.1-4.1V94.9h-4.1
	c-6.8,0-12.4-5.5-12.4-12.4v-33c0-6.8,5.5-12.4,12.4-12.4h4.1V14.4C86.6,12.2,88.5,10.3,90.8,10.3z M99,45.4H82.5
	c-2.3,0-4.1,1.8-4.1,4.1v33c0,2.3,1.8,4.1,4.1,4.1H99c2.3,0,4.1-1.8,4.1-4.1v-33C103.1,47.2,101.3,45.4,99,45.4z"/>
</svg>
