<?xml version="1.0" encoding="utf-8"?>
<svg version="1.1" id="图层_1" xmlns="http://www.w3.org/2000/svg" xmlns:xlink="http://www.w3.org/1999/xlink" x="0px" y="0px"
	 viewBox="0 0 132 132" style="enable-background:new 0 0 132 132;" xml:space="preserve">
<style type="text/css">
	.st0{fill:none;}
	.st1{fill:currentColor;}
</style>
<rect id="size" class="st0" width="132" height="132"/>
<path id="形状结合" class="st1" d="M63.9,17.7c2.4,0,4.1,1.8,4.1,4.1s-1.7,4.1-4.1,4.1H33.2c-6.6,0-11.9,5.4-11.9,11.9v61.6
	c0,6.6,5.3,12,11.9,12h61.5c6.6,0,12-5.4,12-12V69.9c0-2.2,1.8-4.1,4.1-4.1c2.2,0,4.1,1.9,4.1,4.1v29.5c0,11.1-9.1,20.2-20.2,20.2
	H33.2c-11.1,0-20.1-9.1-20.1-20.2V37.8c0-11.1,9-20.1,20.1-20.1H63.9z M97.5,12.4c2.2,0,4.1,1.7,4.1,4.1l-0.1,14.6h14.7
	c2.2,0,4.1,1.7,4.1,4.1c0,2.2-1.9,4.1-4.1,4.1h-14.7l0.1,14.6c0,2.2-1.9,4.1-4.1,4.1c-2.3,0-4.1-1.9-4.1-4.1l-0.1-14.6H78.7
	c-2.3,0-4.1-1.9-4.1-4.1c0-2.4,1.8-4.1,4.1-4.1h14.6l0.1-14.6C93.4,14.1,95.2,12.4,97.5,12.4z"/>
</svg>
