<?xml version="1.0" encoding="utf-8"?>
<svg version="1.1" id="图层_1" xmlns="http://www.w3.org/2000/svg" xmlns:xlink="http://www.w3.org/1999/xlink" x="0px" y="0px"
	 viewBox="0 0 16 16" style="enable-background:new 0 0 16 16;" xml:space="preserve">
<style type="text/css">
	.st0{fill:currentColor;}
</style>
<desc>Created with Pixso.</desc>
<path id="形状结合" class="st0" d="M12.7,1.5c1,0,1.8,0.8,1.8,1.8V10c0,1-0.8,1.8-1.8,1.8H3.3c-1,0-1.8-0.8-1.8-1.8V3.3
	c0-1,0.8-1.8,1.8-1.8H12.7z M12.7,2.5H3.3c-0.5,0-0.8,0.4-0.8,0.8V10c0,0.5,0.4,0.8,0.8,0.8h9.3c0.5,0,0.8-0.4,0.8-0.8V3.3
	C13.5,2.9,13.1,2.5,12.7,2.5z M12.1,5.3C12.3,5.6,12.2,5.8,12,6L9.5,8.1c-0.2,0.1-0.4,0.1-0.6,0L6.7,6.3l-2,1.8
	C4.5,8.2,4.2,8.3,4,8.1C3.8,7.9,3.8,7.5,4,7.3l2.3-2.1C6.5,5,6.7,5,6.9,5.2L9.1,7l2.2-1.8C11.5,5,11.8,5,12.1,5.3z M11.7,13.1
	c0.3,0,0.5,0.2,0.5,0.5s-0.2,0.5-0.5,0.5H4.3c-0.3,0-0.5-0.2-0.5-0.5s0.2-0.5,0.5-0.5H11.7z"/>
</svg>
