<?xml version="1.0" encoding="utf-8"?>
<svg version="1.1" id="图层_1" xmlns="http://www.w3.org/2000/svg" xmlns:xlink="http://www.w3.org/1999/xlink" x="0px" y="0px"
	 viewBox="0 0 132 132" style="enable-background:new 0 0 132 132;" xml:space="preserve">
<style type="text/css">
	.st0{fill:none;}
	.st1{fill:currentColor;}
</style>
<rect id="size" class="st0" width="132" height="132"/>
<path id="形状结合" class="st1" d="M66,8.2c31.9,0,57.8,25.9,57.8,57.8S97.9,123.8,66,123.8S8.2,97.9,8.2,66S34.1,8.2,66,8.2z
	 M103.8,34L34,103.8c8.6,7.3,19.8,11.7,32,11.7c27.3,0,49.5-22.2,49.5-49.5C115.5,53.8,111.1,42.7,103.8,34z M66,16.5
	c-27.3,0-49.5,22.2-49.5,49.5c0,12.2,4.4,23.3,11.7,32L98,28.2C89.3,20.9,78.2,16.5,66,16.5z"/>
</svg>
