<?xml version="1.0" encoding="utf-8"?>
<svg version="1.1" id="图层_1" xmlns="http://www.w3.org/2000/svg" xmlns:xlink="http://www.w3.org/1999/xlink" x="0px" y="0px"
	 viewBox="0 0 132 132" style="enable-background:new 0 0 132 132;" xml:space="preserve">
<style type="text/css">
	.st0{fill:none;}
	.st1{fill:currentColor;}
</style>
<rect id="size" class="st0" width="132" height="132"/>
<path id="形状结合" class="st1" d="M66,12.4c2.3,0,4.1,1.8,4.1,4.1v4.1h14.4c6.8,0,12.4,5.5,12.4,12.4v16.5
	c0,6.8-5.5,12.4-12.4,12.4l-14.5,0c0,0.2,0,0.4,0,0.6v7.6H99c6.8,0,12.4,5.5,12.4,12.4V99c0,6.8-5.5,12.4-12.4,12.4H70.1v6
	c0,2.3-1.8,4.1-4.1,4.1c-2.3,0-4.1-1.8-4.1-4.1v-6H33c-6.8,0-12.4-5.5-12.4-12.4V82.5c0-6.8,5.5-12.4,12.4-12.4h28.9v-7.6
	c0-0.2,0-0.4,0-0.6l-14.5,0c-6.8,0-12.4-5.5-12.4-12.4V33c0-6.8,5.5-12.4,12.4-12.4h14.4v-4.1C61.9,14.2,63.7,12.4,66,12.4z
	 M99,78.4H33c-2.3,0-4.1,1.8-4.1,4.1V99c0,2.3,1.8,4.1,4.1,4.1h66c2.3,0,4.1-1.8,4.1-4.1V82.5C103.1,80.2,101.3,78.4,99,78.4z
	 M84.6,28.9H47.4c-2.3,0-4.1,1.8-4.1,4.1v16.5c0,2.3,1.8,4.1,4.1,4.1h37.1c2.3,0,4.1-1.8,4.1-4.1V33C88.7,30.7,86.8,28.9,84.6,28.9z
	"/>
</svg>
