<?xml version="1.0" encoding="utf-8"?>
<svg version="1.1" id="图层_1" xmlns="http://www.w3.org/2000/svg" xmlns:xlink="http://www.w3.org/1999/xlink" x="0px" y="0px"
	 viewBox="0 0 132 132" style="enable-background:new 0 0 132 132;" xml:space="preserve">
<style type="text/css">
	.st0{fill:none;}
	.st1{fill-rule:evenodd;clip-rule:evenodd;fill:currentColor;}
	.st2{fill:#C2C2C2;}
</style>
<rect id="size" class="st0" width="132" height="132"/>
<path id="矩形_193__x28_边框_x29_" class="st1" d="M119.6,37.1c0-13.7-11.1-24.8-24.8-24.8H37.1c-13.7,0-24.8,11.1-24.8,24.8
	v57.8c0,13.6,11.1,24.8,24.8,24.8h57.8c13.6,0,24.8-11.1,24.8-24.8V37.1z M111.4,37.1c0-9.2-7.4-16.5-16.5-16.5H37.1
	c-9.2,0-16.5,7.3-16.5,16.5v57.8c0,9.1,7.3,16.5,16.5,16.5h57.8c9.1,0,16.5-7.4,16.5-16.5V37.1z"/>
<path id="矩形_194" class="st2" d="M41.2,33h49.5c4.6,0,8.2,3.7,8.2,8.2v49.5c0,4.6-3.7,8.2-8.2,8.2H41.2c-4.6,0-8.2-3.7-8.2-8.2
	V41.2C33,36.7,36.7,33,41.2,33z"/>
</svg>
