<?xml version="1.0" encoding="utf-8"?>
<svg version="1.1" id="图层_1" xmlns="http://www.w3.org/2000/svg" xmlns:xlink="http://www.w3.org/1999/xlink" x="0px" y="0px"
	 viewBox="0 0 132 132" style="enable-background:new 0 0 132 132;" xml:space="preserve">
<style type="text/css">
	.st0{fill:none;}
	.st1{fill:currentColor;}
</style>
<rect id="size" class="st0" width="132" height="132"/>
<path id="形状结合" class="st1" d="M96.9,70.1c6.8,0,12.4,5.5,12.4,12.4l0,4.1h8.2c2.3,0,4.1,1.8,4.1,4.1s-1.8,4.1-4.1,4.1h-8.2
	l0,4.1c0,6.8-5.5,12.4-12.4,12.4H35.1c-6.8,0-12.4-5.5-12.4-12.4l0-4.1h-8.3c-2.3,0-4.1-1.8-4.1-4.1s1.8-4.1,4.1-4.1h8.3l0-4.1
	c0-6.8,5.5-12.4,12.4-12.4H96.9z M96.9,78.4H35.1c-2.3,0-4.1,1.8-4.1,4.1V99c0,2.3,1.8,4.1,4.1,4.1h61.9c2.3,0,4.1-1.8,4.1-4.1V82.5
	C101.1,80.2,99.2,78.4,96.9,78.4z M82.4,20.6c6.8,0,12.4,5.5,12.4,12.4v4.1h22.7c2.3,0,4.1,1.8,4.1,4.1s-1.8,4.1-4.1,4.1H94.8v4.1
	c0,6.8-5.5,12.4-12.4,12.4h-33c-6.8,0-12.4-5.5-12.4-12.4v-4.1H14.4c-2.3,0-4.1-1.8-4.1-4.1s1.8-4.1,4.1-4.1h22.7V33
	c0-6.8,5.5-12.4,12.4-12.4H82.4z M82.4,28.9h-33c-2.3,0-4.1,1.8-4.1,4.1v16.5c0,2.3,1.8,4.1,4.1,4.1h33c2.3,0,4.1-1.8,4.1-4.1V33
	C86.6,30.7,84.7,28.9,82.4,28.9z"/>
</svg>
