<?xml version="1.0" encoding="utf-8"?>
<svg version="1.1" id="图层_1" xmlns="http://www.w3.org/2000/svg" xmlns:xlink="http://www.w3.org/1999/xlink" x="0px" y="0px"
	 viewBox="0 0 132 132" style="enable-background:new 0 0 132 132;" xml:space="preserve">
<style type="text/css">
	.st0{fill:none;}
	.st1{fill:currentColor;}
</style>
<rect id="size" class="st0" width="132" height="132"/>
<path id="形状结合" class="st1" d="M100.7,82.2c3.4-5.8,10.8-7.8,16.6-4.4l0,0l0.8,0.5c5.2,3.5,6.9,10.5,3.7,16.1l0,0
	l-15.5,26.7c-0.4,0.8-1.2,1.4-2,1.6l0,0l-13.3,4.6c-2.3,0.8-4.7-0.8-4.9-3.1l0,0l-1.3-13c-0.1-0.8,0.1-1.6,0.5-2.2l0,0L100.7,82.2z
	 M93.2,12.4c12.2,0,22.3,9.1,22.3,20.6v33c0,2.3-1.8,4.1-4.1,4.1s-4.1-1.8-4.1-4.1V33c0-6.7-6.2-12.4-14-12.4H38.8
	c-7.8,0-14,5.6-14,12.4v66c0,6.7,6.2,12.4,14,12.4H66c2.3,0,4.1,1.8,4.1,4.1s-1.8,4.1-4.1,4.1H38.8c-12.2,0-22.3-9.1-22.3-20.6V33
	c0-11.5,10.1-20.6,22.3-20.6H93.2z M102.7,93.4l-10.6,18.2l0.7,7.2l7.6-2.6l10.4-18L102.7,93.4z M113,83.9c-2.2-0.9-4.8-0.1-6,2l0,0
	l-0.6,1.1l8.2,4.7l0.7-1.1c1.1-1.9,0.7-4.2-0.8-5.7l-0.5-0.4l-0.5-0.3L113,83.9z M70.1,67.3c2.3,0,4.1,1.8,4.1,4.1
	c0,2.3-1.8,4.1-4.1,4.1H45.4c-2.3,0-4.1-1.8-4.1-4.1c0-2.3,1.8-4.1,4.1-4.1H70.1z M86.6,41.2c2.3,0,4.1,1.8,4.1,4.1
	c0,2.3-1.8,4.1-4.1,4.1H45.4c-2.3,0-4.1-1.8-4.1-4.1c0-2.3,1.8-4.1,4.1-4.1H86.6z"/>
</svg>
