<?xml version="1.0" encoding="utf-8"?>
<svg version="1.1" id="图层_1" xmlns="http://www.w3.org/2000/svg" xmlns:xlink="http://www.w3.org/1999/xlink" x="0px" y="0px"
	 viewBox="0 0 132 132" style="enable-background:new 0 0 132 132;" xml:space="preserve">
<style type="text/css">
	.st0{fill:none;}
	.st1{fill:currentColor;}
</style>
<rect id="size" class="st0" width="132" height="132"/>
<path id="形状结合" class="st1" d="M99,16.5c2.3,0,4.1,1.8,4.1,4.1v8.2h8.2c2.3,0,4.1,1.8,4.1,4.1s-1.8,4.1-4.1,4.1h-8.2v24.8
	h8.2c2.3,0,4.1,1.8,4.1,4.1c0,2.3-1.8,4.1-4.1,4.1h-8.2v24.8h8.2c2.3,0,4.1,1.8,4.1,4.1s-1.8,4.1-4.1,4.1h-8.2v8.2
	c0,2.3-1.8,4.1-4.1,4.1s-4.1-1.8-4.1-4.1v-8.2H70.1v8.2c0,2.3-1.8,4.1-4.1,4.1c-2.3,0-4.1-1.8-4.1-4.1v-8.2H37.1v8.2
	c0,2.3-1.8,4.1-4.1,4.1s-4.1-1.8-4.1-4.1v-8.2h-8.2c-2.3,0-4.1-1.8-4.1-4.1s1.8-4.1,4.1-4.1h8.2V70.1h-8.2c-2.3,0-4.1-1.8-4.1-4.1
	c0-2.3,1.8-4.1,4.1-4.1h8.2V37.1h-8.2c-2.3,0-4.1-1.8-4.1-4.1s1.8-4.1,4.1-4.1h8.2l0-8.2c0-2.3,1.8-4.1,4.1-4.1s4.1,1.8,4.1,4.1
	l0,8.2h24.8v-8.2c0-2.3,1.8-4.1,4.1-4.1c2.3,0,4.1,1.8,4.1,4.1v8.2h24.8v-8.2C94.9,18.3,96.7,16.5,99,16.5z M94.9,94.9V70.1H70.1
	v24.8H94.9z M61.9,70.1H37.1v24.8h24.8V70.1z M94.9,61.9V37.1H70.1v24.8H94.9z M61.9,37.1H37.1v24.8h24.8V37.1z"/>
</svg>
