<?xml version="1.0" encoding="utf-8"?>
<svg version="1.1" id="图层_1" xmlns="http://www.w3.org/2000/svg" xmlns:xlink="http://www.w3.org/1999/xlink" x="0px" y="0px"
	 viewBox="0 0 132 132" style="enable-background:new 0 0 132 132;" xml:space="preserve">
<style type="text/css">
	.st0{fill:none;}
	.st1{fill:currentColor;}
</style>
<rect id="size" class="st0" width="132" height="132"/>
<path id="形状" class="st1" d="M49.2,58.8H20.6c-5.3,0-9.6-4.3-9.6-9.6V20.6c0-5.3,4.3-9.6,9.6-9.6h28.6c5.3,0,9.6,4.3,9.6,9.6
	v28.6C58.8,54.5,54.5,58.8,49.2,58.8z M20.6,19.2c-0.8,0-1.4,0.6-1.4,1.4v28.6c0,0.8,0.6,1.4,1.4,1.4h28.6c0.8,0,1.4-0.6,1.4-1.4
	V20.6c0-0.8-0.6-1.4-1.4-1.4H20.6z M49.2,118.2H20.6c-5.3,0-9.6-4.3-9.6-9.6V80c0-5.3,4.3-9.6,9.6-9.6h28.6c5.3,0,9.6,4.3,9.6,9.6
	v28.6C58.8,113.9,54.5,118.2,49.2,118.2z M20.6,78.7c-0.8,0-1.4,0.6-1.4,1.4v28.6c0,0.8,0.6,1.4,1.4,1.4h28.6c0.8,0,1.4-0.6,1.4-1.4
	V80c0-0.8-0.6-1.4-1.4-1.4H20.6z M108.6,118.2H80c-5.3,0-9.6-4.3-9.6-9.6V80c0-5.3,4.3-9.6,9.6-9.6h28.6c5.3,0,9.6,4.3,9.6,9.6v28.6
	C118.2,113.9,113.9,118.2,108.6,118.2z M80,78.7c-0.8,0-1.4,0.6-1.4,1.4v28.6c0,0.8,0.6,1.4,1.4,1.4h28.6c0.8,0,1.4-0.6,1.4-1.4V80
	c0-0.8-0.6-1.4-1.4-1.4H80z M94.3,58.8c-13.2,0-23.9-10.7-23.9-23.9S81.1,11,94.3,11s23.9,10.7,23.9,23.9S107.5,58.8,94.3,58.8
	L94.3,58.8z M94.3,19.2c-8.6,0-15.7,7-15.7,15.7s7,15.7,15.7,15.7s15.7-7,15.7-15.7S103,19.2,94.3,19.2z"/>
</svg>
