<?xml version="1.0" encoding="utf-8"?>
<svg version="1.1" id="图层_1" xmlns="http://www.w3.org/2000/svg" xmlns:xlink="http://www.w3.org/1999/xlink" x="0px" y="0px"
	 viewBox="0 0 132 132" style="enable-background:new 0 0 132 132;" xml:space="preserve">
<style type="text/css">
	.st0{fill:none;}
	.st1{fill:currentColor;}
</style>
<rect id="size" class="st0" width="132" height="132"/>
<path id="形状结合" class="st1" d="M99,12.4c11.4,0,20.6,9.2,20.6,20.6v66c0,11.4-9.2,20.6-20.6,20.6H33
	c-11.4,0-20.6-9.2-20.6-20.6V33c0-11.4,9.2-20.6,20.6-20.6H99z M61.9,82.5H20.6V99c0,6.5,5.1,11.9,11.5,12.3l0.8,0h28.9V82.5z
	 M111.4,82.5H70.1v28.9H99c6.5,0,11.9-5.1,12.3-11.5l0-0.8V82.5z M61.9,45.4H20.6v28.9h41.2V45.4z M111.4,45.4H70.1v28.9h41.2V45.4z
	 M99,20.6H33c-6.8,0-12.4,5.5-12.4,12.4v4.1h90.8V33c0-6.5-5.1-11.9-11.5-12.3L99,20.6z"/>
</svg>
