<?xml version="1.0" encoding="utf-8"?>
<svg version="1.1" id="图层_1" xmlns="http://www.w3.org/2000/svg" xmlns:xlink="http://www.w3.org/1999/xlink" x="0px" y="0px"
	 viewBox="0 0 132 132" style="enable-background:new 0 0 132 132;" xml:space="preserve">
<style type="text/css">
	.st0{fill:none;}
	.st1{fill:currentColor;}
</style>
<rect id="size" class="st0" width="132" height="132"/>
<path id="形状结合" class="st1" d="M57.8,16.5c2.3,0,4.1,1.8,4.1,4.1s-1.8,4.1-4.1,4.1H37.1c-6.8,0-12.4,5.5-12.4,12.4v57.8
	c0,6.8,5.5,12.4,12.4,12.4h57.8c6.8,0,12.4-5.5,12.4-12.4V74.2c0-2.3,1.8-4.1,4.1-4.1s4.1,1.8,4.1,4.1v20.6
	c0,11.4-9.2,20.6-20.6,20.6H37.1c-11.4,0-20.6-9.2-20.6-20.6V37.1c0-11.4,9.2-20.6,20.6-20.6H57.8z M111.4,16.5L111.4,16.5
	c0.2,0,0.3,0,0.4,0L111.4,16.5c0.3,0,0.5,0,0.8,0.1c0.1,0,0.1,0,0.2,0c0.1,0,0.3,0.1,0.4,0.1c0.1,0,0.1,0,0.2,0.1
	c0.1,0,0.2,0.1,0.3,0.1c0.1,0,0.2,0.1,0.2,0.1c0.1,0,0.2,0.1,0.2,0.1c0.1,0,0.1,0.1,0.2,0.1c0.3,0.2,0.6,0.5,0.8,0.8l-0.4-0.4
	c0.2,0.2,0.3,0.3,0.4,0.5c0.1,0.1,0.2,0.2,0.2,0.4c0,0.1,0.1,0.2,0.1,0.2c0,0.1,0.1,0.2,0.1,0.3c0,0.1,0,0.1,0.1,0.2
	c0,0.1,0.1,0.2,0.1,0.4c0,0.1,0,0.1,0,0.2c0,0.1,0,0.2,0,0.3c0,0.1,0,0.2,0,0.3c0,0,0,0.1,0,0.2v28.9c0,2.3-1.8,4.1-4.1,4.1
	s-4.1-1.8-4.1-4.1V30.6L67.6,70.2c-1.6,1.6-4.2,1.6-5.8,0c-1.6-1.6-1.6-4.2,0-5.8l39.6-39.6H82.5c-2.1,0-3.8-1.6-4.1-3.6l0-0.6
	c0-2.3,1.8-4.1,4.1-4.1H111.4z"/>
</svg>
