<?xml version="1.0" encoding="utf-8"?>
<svg version="1.1" id="图层_1" xmlns="http://www.w3.org/2000/svg" xmlns:xlink="http://www.w3.org/1999/xlink" x="0px" y="0px"
	 viewBox="0 0 132 132" style="enable-background:new 0 0 132 132;" xml:space="preserve">
<style type="text/css">
	.st0{fill:none;}
	.st1{fill-rule:evenodd;clip-rule:evenodd;fill:currentColor;}
</style>
<rect id="size" class="st0" width="132" height="132"/>
<path id="path4__x28_边框_x29_" class="st1" d="M64.3,94.6L36.4,65.9c-1.6-1.7-4.2-1.7-5.9-0.1c-1.7,1.6-1.7,4.2-0.1,5.9l35,36
	c1.9,2,3.8,2,5.8,0.1l35.1-36.1c1.6-1.7,1.6-4.2-0.1-5.8c-1.7-1.6-4.2-1.6-5.9,0.1L72.5,94.6l-0.1-76.5c0-2.3-1.8-4.1-4.1-4.1
	c-2.3,0-4.1,1.8-4.1,4.1L64.3,94.6z"/>
</svg>
