<?xml version="1.0" encoding="utf-8"?>
<svg version="1.1" id="图层_1" xmlns="http://www.w3.org/2000/svg" xmlns:xlink="http://www.w3.org/1999/xlink" x="0px" y="0px"
	 viewBox="0 0 132 132" style="enable-background:new 0 0 132 132;" xml:space="preserve">
<style type="text/css">
	.st0{fill:none;}
	.st1{fill:currentColor;}
</style>
<rect id="size" class="st0" width="132" height="132"/>
<path id="形状结合" class="st1" d="M118.7,65.5c2.3,0.1,4,2,3.9,4.3C121.5,92,107,111.6,85.7,119c-27.2,9.4-56.8-3.9-68-29.9
	l-4.2,15.4c-0.5,2-2.4,3.2-4.3,3l-0.7-0.1c-2.2-0.6-3.5-2.9-2.9-5.1l7.1-26.2c0.6-2.2,2.8-3.5,5-2.9l26.3,7c2.2,0.6,3.5,2.8,2.9,5
	c-0.6,2.2-2.8,3.5-5,2.9l-17.5-4.7l0.1,0.3c8.8,23.4,34.7,35.6,58.5,27.4c18.2-6.3,30.4-22.9,31.4-41.8
	C114.5,67.1,116.4,65.4,118.7,65.5z M115.4,42.7l4.2-15.4c0.5-2,2.4-3.2,4.3-3l0.7,0.1c2.2,0.6,3.5,2.9,2.9,5.1l-7.1,26.2
	c-0.6,2.2-2.8,3.5-5,2.9l-26.3-7c-2.2-0.6-3.5-2.8-2.9-5c0.6-2.2,2.8-3.5,5-2.9l17.5,4.7l-0.1-0.3C99.9,24.6,74,12.4,50.2,20.6
	C32,26.9,19.7,43.6,18.8,62.4c-0.1,2.3-2,4-4.3,3.9c-2.3-0.1-4-2-3.9-4.3c1.1-22.2,15.6-41.8,36.9-49.2
	C74.7,3.4,104.2,16.7,115.4,42.7z"/>
</svg>
