<?xml version="1.0" encoding="utf-8"?>
<svg version="1.1" id="图层_1" xmlns="http://www.w3.org/2000/svg" xmlns:xlink="http://www.w3.org/1999/xlink" x="0px" y="0px"
	 viewBox="0 0 132 132" style="enable-background:new 0 0 132 132;" xml:space="preserve">
<style type="text/css">
	.st0{fill:none;}
	.st1{fill:currentColor;}
</style>
<rect id="size" class="st0" width="132" height="132"/>
<path id="形状结合" class="st1" d="M89.9,8.2c1,0,2,0.3,2.7,1.1l18.2,16.5c0.8,0.7,1.4,1.7,1.4,3.1V66c0,2.2-1.9,4.1-4.1,4.1
	c-2.3,0-4.1-1.9-4.1-4.1V30.6L88.3,16.5H35.4c-7.3,0-13.3,4.9-13.9,11.1v1.2v74.2c0,6.7,6.2,12.4,13.9,12.4h27.3
	c2.2,0,4.1,1.8,4.1,4.1c0,2.2-1.9,4.1-4.1,4.1H35.4c-12.2,0-22.2-9.2-22.2-20.6V28.9c0-11.6,10-20.6,22.2-20.6H89.9z M100.4,76.9
	c1.2,0,2.3,0.7,3,1.7l2.1,4.6l1.8,1.1l4.3-0.6c1.2-0.1,2.3,0.2,3.1,1.2l3.6,6c0.6,1.1,0.6,2.4,0.1,3.4l-3,4.1v2.1l2.6,3.5
	c0.7,0.9,0.9,2.1,0.6,3.2l-3.5,6.1c-0.6,1.1-1.7,1.7-2.9,1.8l-5-0.5l-1.8,1l-1.7,4c-0.4,1.1-1.4,1.8-2.5,2.1l-0.8,0.1h-6.3
	c-1.2,0-2.3-0.7-3-1.6l-2.1-4.7l-1.8-1l-4.4,0.5c-1.2,0.2-2.2-0.2-3.1-1.2l-3.6-6c-0.6-1.1-0.7-2.3-0.1-3.4l3-4.1v-2.1l-2.6-3.5
	c-0.7-0.9-0.9-2.1-0.6-3.2l3.5-6.2c0.6-1,1.6-1.8,2.9-1.8l5,0.6l1.8-1.1l1.7-4c0.4-1.1,1.4-1.8,2.5-2.1L100.4,76.9z M98.4,83.6h-2.3
	l-1,2.2c-0.4,1.1-1.2,2-2.1,2.6l-2.5,1.5c-1.2,0.7-2.6,1-4,0.8l-2.4-0.3l-1.2,2.1l1.5,1.8c0.7,1,1.2,2,1.2,3.2l0.1,0.8v2.1
	c0,1.5-0.5,2.8-1.3,4l-1.5,1.9l1.2,2.1l2.5-0.3c1.1-0.1,2.2,0.1,3.3,0.5l2.6,1.4c1.2,0.7,2.1,1.8,2.7,3.1l0.9,2.2h2.4l0.9-2.2
	c0.5-1.1,1.2-2,2.1-2.6l2.6-1.7c1.2-0.6,2.6-0.9,4-0.7l2.4,0.3l1.2-2l-1.5-2c-0.7-0.9-1.2-2-1.2-3.1l-0.1-2.9c0-1.4,0.4-2.8,1.3-4
	l1.5-1.8l-1.2-2l-2.4,0.2c-1.2,0.2-2.2,0-3.3-0.4l-2.6-1.4c-1.2-0.8-2.2-1.8-2.8-3.1L98.4,83.6z M97.3,93.5c3.3,0,5.9,2.6,5.9,5.9
	s-2.6,5.9-5.9,5.9c-3.3,0-5.9-2.6-5.9-5.9S94,93.5,97.3,93.5z M66.8,67.2c2.2,0,4.1,1.9,4.1,4.1c0,2.2-1.9,4.1-4.1,4.1H42.1
	c-2.3,0-4.1-1.9-4.1-4.1c0-2.2,1.8-4.1,4.1-4.1H66.8z M83.3,41.2c2.2,0,4.1,1.7,4.1,4.1c0,2.2-1.9,4.1-4.1,4.1H42.1
	c-2.3,0-4.1-1.9-4.1-4.1c0-2.4,1.8-4.1,4.1-4.1H83.3z"/>
</svg>
