<?xml version="1.0" encoding="utf-8"?>
<svg version="1.1" id="图层_1" xmlns="http://www.w3.org/2000/svg" xmlns:xlink="http://www.w3.org/1999/xlink" x="0px" y="0px"
	 viewBox="0 0 132 132" style="enable-background:new 0 0 132 132;" xml:space="preserve">
<style type="text/css">
	.st0{fill:none;}
	.st1{fill-rule:evenodd;clip-rule:evenodd;fill:currentColor;}
</style>
<rect id="size" class="st0" width="132" height="132"/>
<path id="矢量_15__x28_边框_x29_" class="st1" d="M24.7,28.9c-2.4,0-4.1,1.7-4.1,4.1c0,2.3,1.7,4.1,4.1,4.1h82.5
	c2.3,0,4.1-1.8,4.1-4.1c0-2.4-1.8-4.1-4.1-4.1H24.7z M110.1,60.6L96.4,74.3c-0.6,0.6-1.2,1-1.9,1.2c-0.7,0.2-1.4,0.4-2.1,0.4
	c-0.8,0-1.6-0.2-2.2-0.4c-0.7-0.2-1.3-0.7-1.9-1.2L74.6,60.6c-1.7-1.7-1.7-4.2,0-5.9c1.6-1.6,4.2-1.6,5.9,0l12,12l11.9-12
	c1.7-1.6,4.2-1.6,5.9,0C111.8,56.4,111.8,59,110.1,60.6z M24.7,61.9h33c2.3,0,4.1,1.7,4.1,4.1c0,2.3-1.8,4.1-4.1,4.1h-33
	c-2.4,0-4.1-1.8-4.1-4.1C20.6,63.6,22.4,61.9,24.7,61.9z M24.7,94.9h82.5c2.3,0,4.1,1.8,4.1,4.1s-1.8,4.1-4.1,4.1H24.7
	c-2.4,0-4.1-1.8-4.1-4.1S22.4,94.9,24.7,94.9z"/>
</svg>
