<?xml version="1.0" encoding="utf-8"?>
<svg version="1.1" id="图层_1" xmlns="http://www.w3.org/2000/svg" xmlns:xlink="http://www.w3.org/1999/xlink" x="0px" y="0px"
	 viewBox="0 0 132 132" style="enable-background:new 0 0 132 132;" xml:space="preserve">
<style type="text/css">
	.st0{fill:none;}
	.st1{fill-rule:evenodd;clip-rule:evenodd;fill:currentColor;}
</style>
<rect id="size" class="st0" width="132" height="132"/>
<path id="矢量_15__x28_边框_x29_" class="st1" d="M114.3,35.9L94.8,55.4c-0.6,0.6-1.2,1-1.9,1.2C92.2,57,91.5,57,90.8,57
	c-0.8,0-1.6-0.1-2.2-0.4c-0.7-0.2-1.3-0.7-1.9-1.2L67.2,35.9c-1.7-1.6-1.7-4.2,0-5.9c1.7-1.7,4.2-1.7,5.9,0l17.7,17.7l17.7-17.7
	c1.7-1.7,4.2-1.7,5.9,0C115.9,31.7,115.9,34.3,114.3,35.9z M20.6,28.9c-2.4,0-4.1,1.7-4.1,4.1c0,2.3,1.7,4.1,4.1,4.1h33
	c2.3,0,4.1-1.8,4.1-4.1c0-2.4-1.8-4.1-4.1-4.1H20.6z M20.6,61.9h33c2.3,0,4.1,1.7,4.1,4.1c0,2.3-1.8,4.1-4.1,4.1h-33
	c-2.4,0-4.1-1.8-4.1-4.1C16.5,63.7,18.2,61.9,20.6,61.9z M73,75.4c-1.7-1.7-4.2-1.7-5.9,0s-1.7,4.2,0,5.9l19.5,19.5
	c0.6,0.6,1.2,1,1.9,1.2c0.7,0.3,1.4,0.4,2.2,0.4c0.7,0,1.5-0.1,2.1-0.4c0.7-0.2,1.3-0.7,1.9-1.2l19.5-19.5c1.6-1.7,1.6-4.2,0-5.9
	c-1.7-1.7-4.2-1.7-5.9,0L90.8,93.2L73,75.4z M20.6,94.9h33c2.3,0,4.1,1.8,4.1,4.1s-1.8,4.1-4.1,4.1h-33c-2.4,0-4.1-1.8-4.1-4.1
	S18.2,94.9,20.6,94.9z"/>
</svg>
