<?xml version="1.0" encoding="utf-8"?>
<!-- Generator: Adobe Illustrator 26.0.2, SVG Export Plug-In . SVG Version: 6.00 Build 0)  -->
<svg version="1.1" id="图层_1" xmlns="http://www.w3.org/2000/svg" xmlns:xlink="http://www.w3.org/1999/xlink" x="0px" y="0px"
	 viewBox="0 0 132 132" style="enable-background:new 0 0 132 132;" xml:space="preserve">
<style type="text/css">
	.st0{fill:currentColor;}
	.st1{fill:none;stroke:currentColor;stroke-width:10;stroke-linejoin:round;stroke-miterlimit:10;}
</style>
<g>
	<polygon class="st0" points="53.1,50.3 45.3,42.5 29.6,58.2 29.6,58.2 22.7,65 21.8,66 29.6,73.8 29.6,73.8 45.3,89.5 53.1,81.6 
		37.5,66 	"/>
	<polygon class="st0" points="110.4,66 110.4,66 102.5,58.2 102.5,58.2 86.9,42.5 79.1,50.3 94.7,66 79.1,81.6 86.9,89.5 
		102.5,73.8 102.5,73.8 	"/>
	
		<rect x="41.6" y="63.3" transform="matrix(0.2587 -0.966 0.966 0.2587 -14.4623 113.1999)" class="st0" width="49.8" height="5.5"/>
</g>
<path class="st1" d="M117.2,113.5H14.9c-5.3,0-9.6-4.3-9.6-9.6V28c0-5.3,4.3-9.6,9.6-9.6h102.3c5.3,0,9.6,4.3,9.6,9.6v76
	C126.8,109.3,122.5,113.5,117.2,113.5z"/>
</svg>
