<svg t="1655977262275" class="icon" viewBox="0 0 1024 1024" version="1.1" xmlns="http://www.w3.org/2000/svg" p-id="1717" width="200" height="200"><path d="M412.8 448c38.4 0 76.8-22.4 89.6-57.6 16-35.2 6.4-76.8-19.2-105.6s-70.4-35.2-105.6-19.2c-35.2 12.8-57.6 51.2-57.6 89.6 0 51.2 41.6 92.8 92.8 92.8z m-19.2-118.4c6.4-6.4 12.8-9.6 22.4-9.6 16 0 32 12.8 32 28.8s-12.8 32-28.8 35.2c-16 0-32-12.8-35.2-28.8 0-9.6 3.2-19.2 9.6-25.6z" fill="#333333" p-id="1718"></path><path d="M896 224h-32v-64c0-35.2-28.8-64-64-64H224c-35.2 0-64 28.8-64 64v64h-32c-35.2 0-64 28.8-64 64v448c0 35.2 28.8 64 64 64h32v64c0 35.2 28.8 64 64 64h576c35.2 0 64-28.8 64-64v-64h32c35.2 0 64-28.8 64-64V288c0-35.2-28.8-64-64-64zM160 736c-19.2 0-32-12.8-32-32V320c0-19.2 12.8-32 32-32v448z m640 96c0 19.2-12.8 32-32 32H256c-16 0-32-12.8-32-32V192c0-19.2 12.8-32 32-32h512c16 0 32 12.8 32 32v640z m96-128c0 19.2-12.8 32-32 32V288c16 0 32 12.8 32 32v384z" fill="#333333" p-id="1719"></path><path d="M684.8 464L550.4 598.4l-67.2-67.2c-6.4-6.4-12.8-9.6-22.4-9.6-9.6 0-16 3.2-22.4 9.6l-160 160c-12.8 12.8-12.8 32 0 44.8 12.8 12.8 32 12.8 44.8 0l134.4-134.4 67.2 67.2c6.4 6.4 12.8 9.6 22.4 9.6 9.6 0 16-3.2 22.4-9.6l160-160c12.8-12.8 12.8-32 0-44.8-9.6-12.8-32-12.8-44.8 0z"  p-id="1720"></path></svg>