<?xml version="1.0" encoding="utf-8"?>
<!-- Generator: Adobe Illustrator 26.0.2, SVG Export Plug-In . SVG Version: 6.00 Build 0)  -->
<svg version="1.1" id="图层_1"
	xmlns="http://www.w3.org/2000/svg"
	xmlns:xlink="http://www.w3.org/1999/xlink" x="0px" y="0px" viewBox="0 0 72.2 58.3" style="enable-background:new 0 0 72.2 58.3;" xml:space="preserve">
	<style type="text/css">
	.st0{fill:none;stroke:currentColor;stroke-width:6;stroke-linecap:round;stroke-miterlimit:10;}
	.st1{fill:currentColor;}
	</style>
	<g>
		<path class="st0" d="M19.4,55.3H9.2c-3.4,0-6.2-3.1-6.2-7V10.1c0-3.9,2.8-7,6.2-7H63c3.4,0,6.2,3.1,6.2,7v7.2"/>
		<g>
			<path class="st1" d="M62,27.9c1.8,0,3.3,1.5,3.3,3.3v17.4c0,1.8-1.5,3.3-3.3,3.3H32.1c-1.8,0-3.3-1.5-3.3-3.3V31.1
			c0-1.8,1.5-3.3,3.3-3.3H62 M62,21.9H32.1c-5.1,0-9.3,4.1-9.3,9.3v17.4c0,5.1,4.1,9.3,9.3,9.3H62c5.1,0,9.3-4.1,9.3-9.3V31.1
			C71.3,26,67.1,21.9,62,21.9L62,21.9z"/>
		</g>
	</g>
</svg>
