<svg class="icon" style="width: 1em;height: 1em;vertical-align: middle;fill: currentColor;overflow: hidden;" viewBox="0 0 1024 1024" version="1.1"
  xmlns="http://www.w3.org/2000/svg" p-id="5074">
  <path d="M79.34 308.22c0-42.93 15.27-79.67 45.5-110.39 30.53-30.43 67.26-45.69 110.19-45.69h173.32c4.63 0 8.27 1.08 11.03 3.45 2.56 2.36 4.43 5.91 5.32 10.64 0.98 4.63 1.48 8.86 1.67 12.7 0.2 3.64 0.2 8.56-0.2 14.28-0.39 5.71-0.59 9.36-0.59 10.83-1.08 2.95-1.48 5.32-1.08 7.39 0.39 1.97-0.89 3.64-3.84 4.92-2.95 1.28-4.43 2.17-4.43 2.95 0 0.79-1.97 1.28-6.2 1.68l-6.2 0.59h-168.8c-23.83 0-44.21 8.57-61.15 25.51-17.04 16.94-25.5 37.32-25.5 61.15v381.59c0 23.83 8.57 44.21 25.5 61.15 16.94 17.04 37.32 25.5 61.15 25.5h173.32c4.63 0 8.27 1.08 11.03 3.45 2.75 2.17 4.63 5.71 5.51 10.44 0.98 4.63 1.48 8.86 1.67 12.7 0.2 3.64 0.2 8.57-0.2 14.28-0.4 5.91-0.59 9.36-0.59 10.83 0 4.63-1.67 8.66-5.12 12.11-3.25 3.45-7.39 5.12-12.11 5.12H235.22c-42.93 0-79.77-15.26-110.19-45.79-30.43-30.53-45.69-67.26-45.69-110.19v-381.2z m0 0M927.51 523.18c6.79-6.79 10.24-14.87 10.15-24.33 0-9.35-3.45-17.62-10.24-24.42L632.87 179.9c-6.99-6.79-15.06-10.24-24.42-10.24-9.35 0-17.63 3.45-24.42 10.24-6.79 6.99-10.24 15.06-10.24 24.42V360.4H331.23c-9.36 0-17.63 3.44-24.42 10.24-6.79 7-10.24 15.07-10.24 24.43v207.88c0 9.35 3.45 17.63 10.24 24.42 6.99 6.79 15.07 10.24 24.42 10.24h242.65V793.5c0 9.35 3.44 17.63 10.24 24.42 6.99 6.79 15.06 10.24 24.42 10.24 9.35 0 17.63-3.45 24.42-10.24l294.55-294.74z m0 0" p-id="5075"></path>
</svg>