<?xml version="1.0" encoding="utf-8"?>
<!-- Generator: Adobe Illustrator 26.0.2, SVG Export Plug-In . SVG Version: 6.00 Build 0)  -->
<svg version="1.1" id="图层_1" xmlns="http://www.w3.org/2000/svg" xmlns:xlink="http://www.w3.org/1999/xlink" x="0px" y="0px"
	 viewBox="0 0 16 16" style="enable-background:new 0 0 16 16;" xml:space="preserve">
<style type="text/css">
	.st0{fill:none;}
</style>
<g id="中文">
	<rect id="矩形" class="st0" width="16" height="16"/>
	<g>
		<path d="M12.5,2h-9C2.1,2,1,3.1,1,4.5v7C1,12.9,2.1,14,3.5,14h9c1.4,0,2.5-1.1,2.5-2.5v-7C15,3.1,13.9,2,12.5,2z M14,11.5
			c0,0.8-0.7,1.5-1.5,1.5h-9C2.7,13,2,12.3,2,11.5v-7C2,3.7,2.7,3,3.5,3h9C13.3,3,14,3.7,14,4.5V11.5z"/>
		<path d="M7.4,9.8C7.2,9.8,7.1,9.8,7,9.9C6.9,9.9,6.8,10,6.8,10s-0.1,0.1-0.2,0.1c-0.1,0-0.2,0.1-0.3,0.1s-0.2,0-0.4,0.1
			c-0.3,0-0.5,0-0.8-0.2S4.7,9.9,4.5,9.7C4.4,9.5,4.3,9.3,4.2,9S4.1,8.5,4.1,8.3c0-0.3,0-0.5,0.1-0.8c0.1-0.2,0.2-0.5,0.3-0.6
			S4.8,6.5,5,6.4c0.2-0.1,0.4-0.2,0.7-0.2c0.2,0,0.4,0,0.6,0.1c0.2,0.1,0.3,0.1,0.4,0.2c0.1,0.1,0.2,0.1,0.3,0.2
			c0.1,0,0.2,0.1,0.3,0c0.1,0,0.1-0.1,0.2-0.1s0.1-0.1,0.1-0.1c0,0,0-0.1,0-0.1c0,0,0-0.1,0-0.2c0-0.1-0.1-0.2-0.2-0.3
			C7.3,5.9,7.1,5.8,7,5.7C6.8,5.6,6.6,5.5,6.4,5.4C6.2,5.4,5.9,5.3,5.7,5.3c-0.4,0-0.7,0.1-1,0.2C4.3,5.7,4.1,5.9,3.8,6.1
			S3.4,6.7,3.3,7S3.1,7.8,3.1,8.3c0,0.5,0.1,0.9,0.2,1.2c0.1,0.4,0.3,0.7,0.6,0.9s0.5,0.5,0.9,0.6c0.3,0.1,0.7,0.2,1.1,0.2
			c0.3,0,0.5,0,0.7-0.1S7,11,7.2,10.9c0.2-0.1,0.3-0.2,0.4-0.3c0.1-0.1,0.1-0.2,0.1-0.3c0-0.1,0-0.2,0-0.3S7.5,9.9,7.4,9.8z"/>
		<path d="M12.2,5.4c-0.2,0-0.3,0-0.4,0.1c-0.1,0.1-0.1,0.2-0.1,0.3v3.3L9.2,5.7c0-0.1-0.1-0.1-0.2-0.2C9,5.5,8.9,5.4,8.8,5.4
			c-0.2,0-0.3,0-0.4,0.1C8.3,5.6,8.3,5.7,8.3,5.8v4.9c0,0.1,0,0.2,0.1,0.3c0.1,0.1,0.2,0.1,0.4,0.1c0.2,0,0.3,0,0.4-0.1
			s0.1-0.2,0.1-0.3V7.6l2.5,3.3c0,0.1,0.1,0.1,0.2,0.2c0.1,0.1,0.2,0.1,0.3,0.1c0.2,0,0.3,0,0.4-0.1c0.1-0.1,0.1-0.2,0.1-0.2v-5
			c0-0.1,0-0.2-0.1-0.3S12.4,5.4,12.2,5.4z"/>
	</g>
</g>
</svg>
