<?xml version="1.0" encoding="utf-8"?>
<!-- Generator: Adobe Illustrator 26.0.2, SVG Export Plug-In . SVG Version: 6.00 Build 0)  -->
<svg version="1.1" id="flow-navigation" xmlns="http://www.w3.org/2000/svg" xmlns:xlink="http://www.w3.org/1999/xlink" x="0px" y="0px" viewBox="0 0 16 16" style="enable-background:new 0 0 16 16;" xml:space="preserve">
	<path id="flow-navigation-path" fill="currentColor" d="M8,15c3.9,0,7-3.1,7-7s-3.1-7-7-7S1,4.1,1,8S4.1,15,8,15z M8,13.7c-3.1,0-5.7-2.5-5.7-5.7
					S4.9,2.3,8,2.3s5.7,2.5,5.7,5.7S11.1,13.7,8,13.7z M10.7,4.6c0.5-0.2,1,0.3,0.7,0.7L9.7,9.1C9.6,9.4,9.4,9.6,9.1,9.7l-3.8,1.7
					c-0.5,0.2-1-0.3-0.7-0.7l1.7-3.8c0.1-0.3,0.4-0.5,0.6-0.6L10.7,4.6z M9.8,6.2L7.4,7.3c0,0-0.1,0.1-0.1,0.1L6.2,9.8l2.4-1.1
					c0,0,0.1-0.1,0.1-0.1L9.8,6.2z M9.8,6.2L7.4,7.3c0,0-0.1,0.1-0.1,0.1l1.3,1.3c0,0,0.1-0.1,0.1-0.1L9.8,6.2z" />
</svg>
