<?xml version="1.0" encoding="UTF-8"?>
<svg width="16px" height="16px" viewBox="0 0 16 16" version="1.1" xmlns="http://www.w3.org/2000/svg" xmlns:xlink="http://www.w3.org/1999/xlink">
    <title>框选</title>
    <desc>Created with Sketch.</desc>
    <g id="页面-1" stroke="none" stroke-width="1" fill="none" fill-rule="evenodd">
        <g id="属性面板-Tips样式-浅色" transform="translate(-484.000000, -60.000000)">
            <g id="编组-28" transform="translate(456.000000, 60.000000)">
                <g id="icon1" transform="translate(28.000000, 0.000000)">
                    <g id="-mockplus-">
                        <g id="导入-import" transform="translate(8.000000, 8.000000) scale(-1, -1) translate(-8.000000, -8.000000) ">
                            <g>
                                <path d="M13,1.25 C13.9664983,1.25 14.75,2.03350169 14.75,3 L14.75,13 C14.75,13.9664983 13.9664983,14.75 13,14.75 L3,14.75 C2.03350169,14.75 1.25,13.9664983 1.25,13 L1.25,8 C1.25,7.58578644 1.58578644,7.25 2,7.25 C2.41421356,7.25 2.75,7.58578644 2.75,8 L2.75,13 C2.75,13.1380712 2.86192881,13.25 3,13.25 L13,13.25 C13.1380712,13.25 13.25,13.1380712 13.25,13 L13.25,3 C13.25,2.86192881 13.1380712,2.75 13,2.75 L8,2.75 C7.58578644,2.75 7.25,2.41421356 7.25,2 C7.25,1.58578644 7.58578644,1.25 8,1.25 L13,1.25 Z M2.52814423,1.51929488 L4.283,3.274 L5.75,1.80682905 L5.75,5.3 C5.75,5.57614237 5.52614237,5.8 5.25,5.8 L1.75682905,5.8 L3.224,4.333 L1.46929488,2.57814423 C1.17690171,2.28575105 1.17690171,1.81168805 1.46929488,1.51929488 C1.76168805,1.22690171 2.23575105,1.22690171 2.52814423,1.51929488 Z" id="形状结合" fill="currentColor" fill-rule="nonzero"></path>
                                <rect id="矩形" fill="#FFFFFF" opacity="0" x="0" y="0" width="16" height="16"></rect>
                            </g>
                        </g>
                    </g>
                </g>
            </g>
        </g>
    </g>
</svg>