<?xml version="1.0" encoding="utf-8"?>
<!-- Generator: Adobe Illustrator 26.0.2, SVG Export Plug-In . SVG Version: 6.00 Build 0)  -->
<svg version="1.1" id="flow-file-download" xmlns="http://www.w3.org/2000/svg" xmlns:xlink="http://www.w3.org/1999/xlink" x="0px" y="0px" viewBox="0 0 16 16" style="enable-background:new 0 0 16 16;" xml:space="preserve">
	<path fill="currentColor" d="M6.2,1.2c0.2,0,0.3,0.1,0.5,0.2L8.3,3h5.9
			c0.4,0,0.7,0.3,0.7,0.7v10.5c0,0.4-0.3,0.7-0.7,0.7H1.9c-0.4,0-0.7-0.3-0.7-0.7V1.9c0-0.4,0.3-0.7,0.7-0.7H6.2z M6,2.5H2.5v10.9
			h10.9V4.3H8c-0.2,0-0.3-0.1-0.5-0.2L6,2.5z M8.4,6.5c0.4,0,0.7,0.3,0.7,0.7c0,0.4-0.3,0.7-0.7,0.7l0,0H4.9c-0.4,0-0.7-0.3-0.7-0.7
			c0-0.4,0.3-0.7,0.7-0.7l0,0H8.4z" />
</svg>
