<?xml version="1.0" encoding="utf-8"?>
<!-- Generator: Adobe Illustrator 26.0.2, SVG Export Plug-In . SVG Version: 6.00 Build 0)  -->
<svg version="1.1" id="flow-align-top" xmlns="http://www.w3.org/2000/svg" xmlns:xlink="http://www.w3.org/1999/xlink" x="0px" y="0px" viewBox="0 0 16 16" style="enable-background:new 0 0 16 16;" xml:space="preserve">
	<path id="flow-align-top-path" fill="currentColor" d="M6.1,3.9c0.5,0,0.8,0.3,0.8,0.8v8.9
	c0,0.5-0.3,0.8-0.8,0.8H2.8c-0.5,0-0.8-0.3-0.8-0.8V4.8c0-0.5,0.3-0.8,0.8-0.8H6.1z M5.7,5.2H3.2v8.1h2.4V5.2z M12.6,3.9
	c0.5,0,0.8,0.3,0.8,0.8v5.7c0,0.5-0.3,0.8-0.8,0.8H9.3c-0.5,0-0.8-0.3-0.8-0.8V4.8c0-0.5,0.3-0.8,0.8-0.8H12.6z M12.2,5.2H9.7V10
	h2.4V5.2z M13.5,1.5c0.4,0,0.6,0.2,0.6,0.6S14,2.8,13.5,2.8H1.8C1.4,2.7,1.2,2.5,1.2,2.2s0.2-0.6,0.6-0.6H13.5z" />
</svg>
