<svg viewBox="0 0 1024 1024" version="1.1" xmlns="http://www.w3.org/2000/svg" p-id="2887">
  <path d="M996.072727 398.941091v76.753454h-254.138182l-14.894545 146.013091h2.234182a146.385455 146.385455 0 0 1 56.599273-35.746909 178.222545 178.222545 0 0 1 64.791272-11.170909A161.559273 161.559273 0 0 1 972.8 623.709091a189.021091 189.021091 0 0 1 47.709091 135.586909 167.889455 167.889455 0 0 1-62.557091 134.981818 211.223273 211.223273 0 0 1-137.122909 46.917818 200.145455 200.145455 0 0 1-124.416-39.470545 155.229091 155.229091 0 0 1-63.301818-117.76h85.643636a89.786182 89.786182 0 0 0 34.304 64.837818 115.153455 115.153455 0 0 0 68.514909 18.618182 115.525818 115.525818 0 0 0 79.732364-29.044364 102.167273 102.167273 0 0 0 32.023273-78.242909 123.019636 123.019636 0 0 0-27.55491-84.154182 98.443636 98.443636 0 0 0-79.127272-30.580363 132.933818 132.933818 0 0 0-59.578182 11.915636 95.790545 95.790545 0 0 0-43.194182 41.006546h-81.035636l29.044363-299.52zM449.024 93.090909v372.363636H93.090909V93.090909H0v837.818182h93.090909v-372.363636h355.933091v372.363636h93.090909V93.090909z" p-id="2888"></path>
</svg>