<svg viewBox="0 0 1024 1024" version="1.1" xmlns="http://www.w3.org/2000/svg" p-id="15690">
  <path d="M690.2 154.2C635.2 112.4 573.2 98 494.6 98c-59.6 0-110.6 12.2-151 39.4C284 178 256 246.2 256 354l153.6 0c0-28.8-2.8-59.8 14-86.4 16.8-26.6 40.2-47 80.4-47 40.8 0 61.8 11.8 81.6 36.2 16.8 20.8 23.2 45.6 23.2 72 0 22.8-11.6 43.8-25.4 62.8-7.6 11.2-17.6 21.2-30.2 30.8 0 0-83 49.4-112.2 96.2-21.8 34.8-29.6 78.4-31.4 130.6-0.2 3.8 1.2 11.6 14.4 11.6 13 0 112 0 123.6 0 11.6 0 14-8.8 14.2-12.4 0.8-19 3.2-48.2 6.6-59.2 6.6-20.8 19.4-39 39.4-54.6l41.4-28.6c37.4-29.2 67.2-53 80.4-71.8 22.6-30.8 38.4-68.8 38.4-113.8C768 247 741 192.8 690.2 154.2zM484 740.4c-51.8-1.6-94.6 34.4-96.4 90.6-1.6 56.4 39 93.4 91 95 54 1.6 95.8-33.2 97.4-89.4C577.6 780.4 538 742 484 740.4z" p-id="15691"></path>
</svg>