<svg version="1.1" id="图层_1" xmlns="http://www.w3.org/2000/svg" xmlns:xlink="http://www.w3.org/1999/xlink" x="0px" y="0px" viewBox="0 0 16 16" style="enable-background:new 0 0 16 16;" xml:space="preserve" width="132px" height="132px" fill="#8A8E99" color="#8A8E99">
<style type="text/css">
	.st0{fill:currentColor;}
</style>
<g>
	<path class="st0" d="M8,0C3.6,0,0,3.6,0,8s3.6,8,8,8s8-3.6,8-8S12.4,0,8,0z M8,14.5c-3.6,0-6.5-2.9-6.5-6.5S4.4,1.5,8,1.5&#10;&#9;&#9;s6.5,2.9,6.5,6.5S11.6,14.5,8,14.5z"/>
	<rect x="7" y="11" class="st0" width="2" height="2"/>
	<path class="st0" d="M8,2.7c-0.9,0-1.7,0.3-2.3,0.8C5.1,3.9,4.8,4.6,4.7,5.6l0,0.3l0.1,0.1l1.7,0.2L6.5,6l0-0.2&#10;&#9;&#9;c0.1-0.6,0.3-1,0.5-1.2c0.3-0.2,0.6-0.4,1-0.4c0.4,0,0.8,0.1,1,0.4c0.3,0.3,0.4,0.6,0.4,0.9c0,0.2,0,0.3-0.1,0.5&#10;&#9;&#9;C9.2,6.2,9,6.5,8.6,6.8C8.2,7.1,8,7.4,7.8,7.6C7.6,7.9,7.4,8.1,7.3,8.4C7.1,8.8,7.1,9.2,7.1,9.7c0,0.1,0,0.1,0,0.3l0.1,0.1l1.6,0&#10;&#9;&#9;L8.9,10c0-0.4,0-0.7,0.1-0.9C9,9,9.1,8.8,9.2,8.7c0.1-0.1,0.3-0.3,0.7-0.7c0.6-0.5,1-0.9,1.2-1.3c0.2-0.4,0.3-0.8,0.3-1.3&#10;&#9;&#9;c0-0.8-0.3-1.5-0.9-2C9.8,2.9,9,2.7,8,2.7z"/>
</g>
</svg>