<svg
  viewBox="0 0 1024 1024"
  version="1.1"
  xmlns="http://www.w3.org/2000/svg"
>
  <path
    d="M810.666667 85.333333 213.333333 85.333333C187.733333 85.333333 170.666667 68.266667 170.666667 42.666667s17.066667-42.666667 42.666667-42.666667l597.333333 0c25.6 0 42.666667 17.066667 42.666667 42.666667S836.266667 85.333333 810.666667 85.333333zM810.666667 1024 213.333333 1024c-25.6 0-42.666667-17.066667-42.666667-42.666667s17.066667-42.666667 42.666667-42.666667l597.333333 0c25.6 0 42.666667 17.066667 42.666667 42.666667S836.266667 1024 810.666667 1024zM981.333333 853.333333c-25.6 0-42.666667-17.066667-42.666667-42.666667L938.666667 213.333333c0-25.6 17.066667-42.666667 42.666667-42.666667s42.666667 17.066667 42.666667 42.666667l0 597.333333C1024 836.266667 1006.933333 853.333333 981.333333 853.333333zM42.666667 853.333333c-25.6 0-42.666667-17.066667-42.666667-42.666667L0 213.333333c0-25.6 17.066667-42.666667 42.666667-42.666667s42.666667 17.066667 42.666667 42.666667l0 597.333333C85.333333 836.266667 68.266667 853.333333 42.666667 853.333333zM810.666667 853.333333 213.333333 853.333333c-25.6 0-42.666667-17.066667-42.666667-42.666667L170.666667 213.333333c0-25.6 17.066667-42.666667 42.666667-42.666667l597.333333 0c25.6 0 42.666667 17.066667 42.666667 42.666667l0 597.333333C853.333333 836.266667 836.266667 853.333333 810.666667 853.333333zM256 768l512 0L768 256 256 256 256 768z"
  ></path>
</svg>