<?xml version="1.0" encoding="utf-8"?>
<!-- Generator: Adobe Illustrator 26.0.2, SVG Export Plug-In . SVG Version: 6.00 Build 0)  -->
<svg version="1.1" id="图层_1" xmlns="http://www.w3.org/2000/svg" xmlns:xlink="http://www.w3.org/1999/xlink" x="0px" y="0px"
	 viewBox="0 0 24 24" style="enable-background:new 0 0 24 24;" xml:space="preserve">
<style type="text/css">
	.st0{fill-rule:evenodd;clip-rule:evenodd;fill:currentColor;fill-opacity:0;}
	.st1{fill-rule:evenodd;clip-rule:evenodd;fill:currentColor;}
</style>
<g id="ic_landscape_lined">
	<g id="编组">
		<rect id="矩形" class="st0" width="24" height="24"/>
		<path id="形状结合" class="st1" d="M19.7,9.5c1.2,0,2.2,0.9,2.2,2.1l0,0.2v6c0,1.2-0.9,2.2-2.1,2.2l-0.2,0h-11
			c-1.2,0-2.2-0.9-2.2-2.1l0-0.2v-6c0-1.2,0.9-2.2,2.1-2.2l0.2,0H19.7z M10.2,4c1.2,0,2.2,0.9,2.2,2.1l0,0.2v1.5
			c0,0.4-0.3,0.8-0.8,0.8c-0.4,0-0.7-0.3-0.7-0.6l0-0.1V6.2c0-0.4-0.3-0.7-0.7-0.7l-0.1,0h-6c-0.4,0-0.7,0.3-0.7,0.7l0,0.1v10.5
			c0,0.4,0.3,0.7,0.7,0.7l0.1,0h0.5c0.4,0,0.8,0.3,0.8,0.8c0,0.4-0.3,0.7-0.6,0.7l-0.1,0H4.2c-1.2,0-2.2-0.9-2.2-2.1l0-0.2V6.2
			C2,5.1,2.9,4.1,4.1,4l0.2,0H10.2z M19.7,11h-11C8.4,11,8,11.3,8,11.6l0,0.1v6c0,0.4,0.3,0.7,0.7,0.7l0.1,0h11
			c0.4,0,0.8-0.3,0.8-0.8l0-2.2l-0.1,0c-0.4,0-0.6-0.4-0.6-0.7c0-0.4,0.3-0.7,0.7-0.7l0-2.2c0-0.4-0.3-0.7-0.7-0.7L19.7,11z
			 M9.2,13.2c0.2,0,0.4,0.2,0.5,0.4l0,0.1v2c0,0.3-0.2,0.5-0.5,0.5c-0.2,0-0.4-0.2-0.5-0.4l0-0.1v-2C8.7,13.5,9,13.2,9.2,13.2z
			 M15.4,4c0.6,0,1.3,0.2,2.1,0.5c1.2,0.6,2,1.6,2.3,3.2c0.1,0.6-0.5,1-1,0.8l-0.1,0l-1.4-0.8c-0.4-0.2-0.5-0.7-0.3-1
			c0.1-0.1,0.2-0.2,0.3-0.3l0.1,0l0,0C17.3,6.1,17.1,6,17,5.9l-0.2-0.1c-0.5-0.2-1-0.3-1.4-0.4l-0.2,0c-0.4,0-0.8-0.3-0.8-0.7
			c0-0.4,0.3-0.7,0.6-0.8l0.1,0L15.4,4z"/>
	</g>
</g>
</svg>
