<?xml version="1.0" encoding="utf-8"?>
<!-- Generator: Adobe Illustrator 26.0.2, SVG Export Plug-In . SVG Version: 6.00 Build 0)  -->
<svg version="1.1" id="图层_1" xmlns="http://www.w3.org/2000/svg" xmlns:xlink="http://www.w3.org/1999/xlink" x="0px" y="0px"
	 viewBox="0 0 24 24" style="enable-background:new 0 0 24 24;" xml:space="preserve">
<style type="text/css">
	.st0{fill-rule:evenodd;clip-rule:evenodd;}
</style>
<g>
	<path class="st0" d="M14,2L14,2L14,2C14,2,14,2,14,2z"/>
	<path class="st0" d="M20,8c0-0.2-0.1-0.4-0.2-0.5l-5.2-5.2c0,0-0.1-0.1-0.1-0.1c0,0,0,0,0,0c0,0,0,0,0,0c0,0,0,0,0,0c0,0,0,0-0.1,0
		c0,0,0,0,0,0c0,0,0,0-0.1,0c0,0,0,0,0,0c0,0-0.1,0-0.1,0H7C5.4,2,4,3.4,4,5v14c0,1.7,1.3,3,3,3H17c1.7,0,3-1.3,3-3v-7.3v-1.2L20,8
		L20,8z M14.8,4.6l2.7,2.7h-1.9c-0.4,0-0.8-0.3-0.8-0.8V4.6z M18.5,19c0,0.8-0.7,1.5-1.5,1.5H7c-0.8,0-1.5-0.7-1.5-1.5V5
		c0-0.8,0.7-1.5,1.5-1.5l6.2,0l0,3c0,1.2,1,2.2,2.2,2.2h3v1.7v1.2V19z"/>
</g>
</svg>
