<?xml version="1.0" encoding="utf-8"?>
<!-- Generator: Adobe Illustrator 26.0.2, SVG Export Plug-In . SVG Version: 6.00 Build 0)  -->
<svg version="1.1" id="图层_1" xmlns="http://www.w3.org/2000/svg" xmlns:xlink="http://www.w3.org/1999/xlink" x="0px" y="0px"
	 viewBox="0 0 24 24" style="enable-background:new 0 0 24 24;" xml:space="preserve">
<style type="text/css">
	.st0{fill-rule:evenodd;clip-rule:evenodd;}
</style>
<path id="形状结合" class="st0" d="M12,2c0.9,0,1.8,0.1,2.7,0.3c0,0,0.1,0,0.1,0c0.9,0.2,1.7,0.5,2.4,0.8c0.1,0,0.1,0,0.2,0.1
	c1.7,0.9,2.8,2.2,2.8,3.7l0,0v10c0,0,0,0,0,0.1c0,2.9-3.8,5-8.3,5s-8.3-2.1-8.3-5l0-0.1l0,0v-10l0,0l0-0.1C3.9,4.1,7.6,2,12,2z
	 M12,17.1c-2.7,0-5.2-0.8-6.7-2.1l0,1.9c0,0,0,0,0,0.1c0,1.8,3,3.5,6.7,3.5s6.7-1.7,6.7-3.5l0-0.1l0,0l0-1.9
	C17.2,16.3,14.7,17.1,12,17.1z M12.6,12l-0.3,0c0,0,0,0,0,0L12,12l0,0c-0.1,0-0.2,0-0.3,0C9.1,12,6.7,11.2,5.3,10l0,2.1l0,0
	c0,1.8,3,3.5,6.7,3.5c3.7,0,6.6-1.6,6.7-3.4l0-0.1l0-2.1C17.3,11.2,15.1,11.9,12.6,12z M12,3.5C8.2,3.5,5.3,5.3,5.3,7
	c0,1.6,2.5,3.3,6,3.5c0.1,0,0.3,0,0.4,0l0.3,0l0,0c0.2,0,0.5,0,0.7,0c3.3-0.2,5.7-1.7,6-3.2l0-0.1c0,0,0-0.1,0-0.1l0-0.1
	C18.6,5.2,15.7,3.5,12,3.5z"/>
</svg>
