<svg version="1.1" id="图层_1" xmlns="http://www.w3.org/2000/svg" xmlns:xlink="http://www.w3.org/1999/xlink" x="0px" y="0px" viewBox="0 0 16 16" style="enable-background:new 0 0 16 16;" xml:space="preserve" width="132px" height="132px">
<style type="text/css">
	.st0{fill:currentcolor;}
</style>
<g>
	<path class="st0" d="M12.4,1.5h-3c-1.1,0-2,0.8-2,1.9v1.9h1.5V3.4C8.9,3.2,9.1,3,9.4,3h3c0.3,0,0.5,0.2,0.5,0.4v9.3&#10;&#9;&#9;c0,0.2-0.2,0.4-0.5,0.4h-3c-0.3,0-0.5-0.2-0.5-0.4v-1.9H7.4v1.8c0,1,0.9,1.9,2,1.9h3c1.1,0,2-0.8,2-1.9V3.4&#10;&#9;&#9;C14.4,2.3,13.5,1.5,12.4,1.5z"/>
	<path class="st0" d="M4.1,8.8h7.3V7.2H4.3L5,6.5c0.3-0.3,0.3-0.8,0-1.1c-0.3-0.3-0.8-0.3-1.1,0L1.8,7.6c-0.3,0.3-0.3,0.8,0,1.1&#10;&#9;&#9;l2.1,2.1C4.1,10.9,4.3,11,4.5,11c0.2,0,0.4-0.1,0.5-0.2c0.3-0.3,0.3-0.8,0-1.1L4.1,8.8z"/>
</g>
</svg>