<svg width="16.000000" height="16.000000" viewBox="0 0 16 16" fill="none" xmlns="http://www.w3.org/2000/svg" xmlns:xlink="http://www.w3.org/1999/xlink">
	<desc>
			Created with Pixso.
	</desc>
	<defs/>
	<rect id="矩形 296" width="16.000000" height="16.000000" fill="#C4C4C4" fill-opacity="0"/>
	<path id="合并" d="M4.19995 5L4.19995 6.01782C2.96069 6.16626 2.00012 7.22095 2.00012 8.5L2.00012 12.5C2.00012 13.8806 3.11938 15 4.50012 15L11.1001 15C12.4808 15 13.6001 13.8806 13.6001 12.5L13.6001 8.5C13.6001 7.15259 12.5343 6.05444 11.2 6.00195L11.2 5Q11.2 4.61133 11.1179 4.24097L11.1178 4.24097C11.0724 4.03564 11.0079 3.83447 10.9247 3.63745C10.8408 3.43921 10.7406 3.25171 10.624 3.07471L10.6239 3.07471Q10.4296 2.78003 10.1748 2.52515C10.0049 2.35522 9.82166 2.20557 9.62512 2.07593Q9.35986 1.90112 9.06238 1.77515Q8.76697 1.65039 8.45898 1.58203L8.45898 1.58203L8.45886 1.58203C8.21191 1.52734 7.95898 1.5 7.69995 1.5C7.4408 1.5 7.18787 1.52734 6.94092 1.58203Q6.63281 1.65039 6.3374 1.77515Q6.03992 1.90112 5.77478 2.07593L5.77478 2.07593L5.77478 2.07593Q5.47998 2.27026 5.22498 2.52515Q4.97009 2.78003 4.77576 3.07471Q4.60095 3.34009 4.4751 3.63745Q4.35022 3.93286 4.28198 4.24097L4.28198 4.24097Q4.19995 4.61133 4.19995 5ZM10.2 5L10.2 6L5.19995 6L5.19995 5Q5.19995 4.71265 5.26245 4.43994L5.26245 4.43994C5.29456 4.29932 5.33911 4.16187 5.39612 4.0271C5.45471 3.88867 5.52441 3.75757 5.60535 3.63354L5.60535 3.63354Q5.74622 3.41821 5.93213 3.23218C6.05615 3.10815 6.18994 2.99927 6.3335 2.90552C6.4574 2.82446 6.5885 2.75488 6.72693 2.69629C6.86169 2.63916 6.99927 2.59473 7.13977 2.5625L7.13977 2.5625Q7.41272 2.5 7.69995 2.5C7.89136 2.5 8.07812 2.52075 8.26001 2.5625L8.26013 2.5625L8.26013 2.5625Q8.4707 2.61084 8.67285 2.69629Q8.88049 2.78418 9.06628 2.90552Q9.28174 3.04639 9.46765 3.23218C9.59167 3.3562 9.70056 3.48999 9.79443 3.63354Q9.91577 3.81934 10.0037 4.0271C10.0607 4.16187 10.1052 4.29932 10.1375 4.43994Q10.2 4.71265 10.2 5ZM11.1001 7C11.9286 7 12.6001 7.67163 12.6001 8.5L12.6001 12.5C12.6001 13.3284 11.9286 14 11.1001 14L4.50012 14C3.67175 14 3.00012 13.3284 3.00012 12.5L3.00012 8.5C3.00012 7.67163 3.67175 7 4.50012 7L11.1001 7ZM8 9.1001C8.27991 9.1001 8.5 9.32007 8.5 9.6001L8.5 11.1001C8.5 11.3801 8.27991 11.6001 8 11.6001C7.71997 11.6001 7.5 11.3801 7.5 11.1001L7.5 9.6001C7.5 9.32007 7.71997 9.1001 8 9.1001Z" clip-rule="evenodd" fill="#191919" fill-opacity="1.000000" fill-rule="evenodd"/>
</svg>
