<svg width="24px" height="24px" viewBox="0 0 24 24" version="1.1" xmlns="http://www.w3.org/2000/svg" xmlns:xlink="http://www.w3.org/1999/xlink">
    <title>ic_redirect_plus_lined</title>
    <g id="ic_redirect_plus_lined" stroke="none" stroke-width="1" fill="currentColor" fill-rule="evenodd">
        <g id="编组">
            <rect id="矩形" fill="#D8D8D8" opacity="0" x="0" y="0" width="24" height="24"></rect>
            <path d="M16.9826,12.964 C17.3622958,12.964 17.676091,13.2461539 17.7257534,13.6122294 L17.7326,13.714 L17.732,16.232 L20.25,16.2325 C20.6642136,16.2325 21,16.5682864 21,16.9825 C21,17.3621958 20.7178461,17.675991 20.3517706,17.7256534 L20.25,17.7325 L17.732,17.732 L17.7326,20.25 C17.7326,20.6642136 17.3968136,21 16.9826,21 C16.6029042,21 16.289109,20.7178461 16.2394466,20.3517706 L16.2326,20.25 L16.232,17.732 L13.714,17.7325 C13.2997864,17.7325 12.964,17.3967136 12.964,16.9825 C12.964,16.6028042 13.2461539,16.289009 13.6122294,16.2393466 L13.714,16.2325 L16.232,16.232 L16.2326,13.714 C16.2326,13.2997864 16.5683864,12.964 16.9826,12.964 Z M18,3 C19.5976809,3 20.9036609,4.24891996 20.9949073,5.82372721 L21,6 L21,12.214 C21,12.6282136 20.6642136,12.964 20.25,12.964 C19.8703042,12.964 19.556509,12.6818461 19.5068466,12.3157706 L19.5,12.214 L19.5,8.851 L4.5,8.851 L4.5,18 C4.5,18.7796961 5.09488808,19.4204487 5.85553999,19.4931334 L6,19.5 L12.2402913,19.5 C12.6545049,19.5 12.9902913,19.8357864 12.9902913,20.25 C12.9902913,20.6296958 12.7081374,20.943491 12.3420619,20.9931534 L12.2402913,21 L6,21 C4.40231912,21 3.09633912,19.75108 3.00509269,18.1762728 L3,18 L3,6 C3,4.40231912 4.24891996,3.09633912 5.82372721,3.00509269 L6,3 L18,3 Z M9.99511719,11.2204668 C10.4093307,11.2204668 10.7451172,11.5562532 10.7451172,11.9704668 C10.7451172,12.3501626 10.4629633,12.6639578 10.0968877,12.7136202 L9.99511719,12.7204668 L6.3046875,12.7204668 C5.89047394,12.7204668 5.5546875,12.3846804 5.5546875,11.9704668 C5.5546875,11.590771 5.83684138,11.2769758 6.20291694,11.2273134 L6.3046875,11.2204668 L9.99511719,11.2204668 Z M18,4.5 L6,4.5 C5.22030388,4.5 4.57955132,5.09488808 4.50686658,5.85553999 L4.5,6 L4.5,7.351 L19.5,7.351 L19.5,6 C19.5,5.22030388 18.9051119,4.57955132 18.14446,4.50686658 L18,4.5 Z" id="形状结合"></path>
        </g>
    </g>
</svg>