<svg data-icon="SymbolSolid20" aria-hidden="true" focusable="false" width="48" height="48" viewBox="0 0 20 20" class="bem-Svg" style="display: block;"><path fill-rule="evenodd" clip-rule="evenodd" d="M1.514 5.228a.25.25 0 010-.456l8.384-3.727a.25.25 0 01.204 0l8.384 3.727a.25.25 0 010 .456l-8.385 3.727a.25.25 0 01-.203 0L1.514 5.228zM1.138 16.07A.25.25 0 011 15.846V7.381a.25.25 0 01.35-.229l7.5 3.281c.091.04.15.13.15.23v8.932a.25.25 0 01-.362.223l-7.5-3.75zm17.724 0a.25.25 0 00.138-.223V7.381a.25.25 0 00-.35-.229l-7.5 3.281a.25.25 0 00-.15.23v8.932a.25.25 0 00.362.223l7.5-3.75z" fill="currentColor"></path></svg>