<?xml version="1.0" standalone="no"?><!DOCTYPE svg PUBLIC "-//W3C//DTD SVG 1.1//EN" "http://www.w3.org/Graphics/SVG/1.1/DTD/svg11.dtd">
<svg t="1690199830393" class="icon" viewBox="0 0 1024 1024" version="1.1"
  xmlns="http://www.w3.org/2000/svg" p-id="26787"
  xmlns:xlink="http://www.w3.org/1999/xlink" width="200" height="200">
  <style type="text/css">
.st0{fill:currentColor;}
  </style>
  <path class="st0" d="M469.3413 661.333333a234.526667 234.526667 0 0 1 234.666667-234.666666h128a233.233333 233.233333 0 0 1 91.333333 18.466666q7.593333 3.206667 14.88 6.92A341.066667 341.066667 0 0 0 597.3413 128H341.3413a341.333333 341.333333 0 0 0-256 567.106667V917.333333a21.333333 21.333333 0 0 0 36.42 15.086667l132.873333-132.873333A342.193333 342.193333 0 0 0 341.3413 810.666667h181.626667A234.106667 234.106667 0 0 1 469.3413 661.333333zM256.007967 512a42.666667 42.666667 0 1 1 42.666666-42.666667 42.666667 42.666667 0 0 1-42.666666 42.666667z m170.666666-42.666667a42.666667 42.666667 0 1 1 42.666667 42.666667 42.666667 42.666667 0 0 1-42.666667-42.666667z m597.333334 192a191.866667 191.866667 0 0 1-85.333334 159.66V917.333333a21.333333 21.333333 0 0 1-36.42 15.086667L823.174633 853.333333H704.007967a192 192 0 1 1 0-384h128a192 192 0 0 1 192 192z" p-id="26788">
  </path>
</svg>