<?xml version="1.0" encoding="UTF-8"?>
<svg width="24px" height="24px" viewBox="0 0 24 24" version="1.1" xmlns="http://www.w3.org/2000/svg"
    xmlns:xlink="http://www.w3.org/1999/xlink">
    <title>ic_eraser_lined</title>
    <g id="ic_eraser_lined" stroke="none" stroke-width="1" fill="none" fill-rule="evenodd">
        <g id="编组">
            <rect id="矩形" fill="currentColor" opacity="0" x="0" y="0" width="24" height="24"></rect>
            <path
                d="M12.8822399,2.98566565 C14.0541331,1.81377243 15.9560069,1.81377243 17.1279001,2.98566565 L17.1279001,2.98566565 L21.0139001,6.87166565 C22.1868436,8.04460913 22.1868436,9.9457154 21.0139269,11.117299 L21.0139269,11.117299 L11.1175985,21.0146272 C9.94472412,22.1861688 8.0440829,22.1861688 6.87230815,21.014394 L6.87230815,21.014394 L2.98493851,17.1280242 C1.81344717,15.9552001 1.81344717,14.0547913 2.98549013,12.8814156 L2.98549013,12.8814156 Z M19.93587,19.7498957 C20.3500836,19.7498957 20.68587,20.0856822 20.68587,20.4998957 C20.68587,20.8795915 20.4037161,21.1933867 20.0376406,21.2430491 L19.93587,21.2498957 L14.99987,21.2498957 C14.5856564,21.2498957 14.24987,20.9141093 14.24987,20.4998957 C14.24987,20.1202 14.5320239,19.8064048 14.8980994,19.7567424 L14.99987,19.7498957 L19.93587,19.7498957 Z M5.63538895,12.3527457 L4.0462015,13.9420242 C3.45969284,14.5292001 3.45969284,15.4807913 4.04583186,16.0675974 L4.04583186,16.0675974 L7.93290009,19.9536656 C8.51905711,20.5398227 9.47041589,20.5398227 10.0572131,19.9536924 L10.0572131,19.9536924 L11.6463889,18.3637457 L5.63538895,12.3527457 Z M16.0672399,4.04632582 C15.4811331,3.46021904 14.5290069,3.46021904 13.9429342,4.04629172 L13.9429342,4.04629172 L6.69638895,11.2927457 L12.7063889,17.3027457 L19.9535415,10.0563642 C20.5036243,9.50690658 20.5380044,8.63681903 20.0564335,8.04648474 L19.9532399,7.93232582 Z"
                id="形状结合" fill="currentColor"></path>
        </g>
    </g>
</svg>