<svg version="1.1" id="copy-outline" xmlns="http://www.w3.org/2000/svg" xmlns:xlink="http://www.w3.org/1999/xlink" x="0px" y="0px" viewBox="0 0 16 16" style="enable-background:new 0 0 16 16;" xml:space="preserve" width="132px" height="132px">
<style type="text/css">
	.st0{fill:currentcolor;}
</style>
<path class="st0" d="M14.5,1.5H5.2c-0.4,0-0.8-0.3-0.8-0.8S4.8,0,5.2,0h10C15.7,0,16,0.3,16,0.8v10c0,0.4-0.3,0.8-0.8,0.8&#10;&#9;s-0.8-0.3-0.8-0.8V1.5z M1.5,14.5h10v-10h-10V14.5z M1,16c-0.6,0-1-0.4-1-1V4c0-0.6,0.4-1,1-1h11c0.6,0,1,0.4,1,1v11&#10;&#9;c0,0.6-0.4,1-1,1H1z"/>
</svg>