<svg data-icon="ElementEvents" aria-hidden="true" focusable="false" width="41" height="41" viewBox="0 0 41 41"
  class="bem-Svg" style="display: block">
  <g fill="none" fill-rule="evenodd">
    <path d="M-4-4h48v48H-4z"></path>
    <path
      d="M40.828 38.002l-5.414-5.414 3.878-3.88c.388-.388.27-.816-.262-.95l-14.062-3.516c-.532-.132-.86.196-.726.728l3.516 14.06c.132.534.56.652.95.262l3.878-3.88L38 40.832l2.828-2.83z"
      fill="#A9A9A9"></path>
    <path
      d="M4 20.004c0-8.822 7.178-16 16-16s16 7.178 16 16h4c0-11.028-8.972-20-20-20s-20 8.972-20 20 8.972 20 20 20v-4c-8.822-.002-16-7.178-16-16z"
      fill="#707070"></path>
    <path
      d="M20 12.004c4.41 0 8 3.588 8 8h4c0-6.618-5.382-12-12-12s-12 5.382-12 12 5.382 12 12 12v-4c-4.41 0-8-3.588-8-8s3.59-8 8-8z"
      fill="#707070"></path>
  </g>
</svg>