<?xml version="1.0" encoding="utf-8"?>
<!-- Generator: Adobe Illustrator 26.0.2, SVG Export Plug-In . SVG Version: 6.00 Build 0)  -->
<svg version="1.1" id="图层_1" xmlns="http://www.w3.org/2000/svg" xmlns:xlink="http://www.w3.org/1999/xlink" x="0px" y="0px"
	 viewBox="0 0 16 16" style="enable-background:new 0 0 16 16;" xml:space="preserve">
<style type="text/css">
	.st0{fill:currentColor;}
	.st1{fill:#FFFFFF;}
</style>
<desc>Created with Sketch.</desc>
<path class="st0" d="M14.2,12.2V3.8c0-1.1-0.8-1.9-1.9-1.9H3.9c-1.1,0-1.9,0.8-1.9,1.9v8.3c0,1.1,0.8,1.9,1.9,1.9h8.3
	C13.3,14,14.2,13.2,14.2,12.2z M11.9,3.4c0.4,0,0.8,0.3,0.8,0.8v7.7c0,0.4-0.3,0.8-0.8,0.8H4.3c-0.4,0-0.8-0.3-0.8-0.8V4.2
	c0-0.4,0.3-0.8,0.8-0.8C4.3,3.4,11.9,3.4,11.9,3.4z"/>
<g>
	<path class="st1" d="M3.6,4.2H2c-0.4,0-0.7-0.3-0.7-0.7V2c0-0.4,0.3-0.7,0.7-0.7h1.5c0.4,0,0.7,0.3,0.7,0.7v1.5
		C4.2,3.9,3.9,4.2,3.6,4.2z"/>
	<path class="st0" d="M3.6,4.7H2c-0.6,0-1.1-0.5-1.1-1.1V2c0-0.6,0.5-1.1,1.1-1.1h1.5c0.6,0,1.1,0.5,1.1,1.1v1.5
		C4.7,4.2,4.2,4.7,3.6,4.7z M2.1,2C2.1,2,2,2.1,2,2.2v1.3c0,0.1,0.1,0.2,0.2,0.2h1.3c0.1,0,0.2-0.1,0.2-0.2V2.2C3.6,2.1,3.5,2,3.4,2
		C3.4,2,2.1,2,2.1,2z"/>
</g>
<g>
	<path class="st1" d="M3.6,14.6H2c-0.4,0-0.7-0.3-0.7-0.7v-1.5c0-0.4,0.3-0.7,0.7-0.7h1.5c0.4,0,0.7,0.3,0.7,0.7V14
		C4.2,14.3,3.9,14.6,3.6,14.6z"/>
	<path class="st0" d="M3.6,15.1H2c-0.6,0-1.1-0.5-1.1-1.1v-1.5c0-0.6,0.5-1.1,1.1-1.1h1.5c0.6,0,1.1,0.5,1.1,1.1V14
		C4.7,14.6,4.2,15.1,3.6,15.1z M2.1,12.4c-0.1,0-0.2,0.1-0.2,0.2v1.3C2,13.9,2.1,14,2.1,14h1.3c0.1,0,0.2-0.1,0.2-0.2v-1.3
		c0-0.1-0.1-0.2-0.2-0.2C3.4,12.4,2.1,12.4,2.1,12.4z"/>
</g>
<g>
	<path class="st1" d="M14,4.2h-1.5c-0.4,0-0.7-0.3-0.7-0.7V2c0-0.4,0.3-0.7,0.7-0.7H14c0.4,0,0.7,0.3,0.7,0.7v1.5
		C14.6,3.9,14.3,4.2,14,4.2z"/>
	<path class="st0" d="M14,4.7h-1.5c-0.6,0-1.1-0.5-1.1-1.1V2c0-0.6,0.5-1.1,1.1-1.1H14c0.6,0,1.1,0.5,1.1,1.1v1.5
		C15.1,4.2,14.6,4.7,14,4.7z M12.6,2c-0.1,0-0.2,0.1-0.2,0.2v1.3c0,0.1,0.1,0.2,0.2,0.2h1.3c0.1,0,0.2-0.1,0.2-0.2V2.2
		C14,2.1,13.9,2,13.9,2C13.9,2,12.6,2,12.6,2z"/>
</g>
<g>
	<path class="st1" d="M14,14.6h-1.5c-0.4,0-0.7-0.3-0.7-0.7v-1.5c0-0.4,0.3-0.7,0.7-0.7H14c0.4,0,0.7,0.3,0.7,0.7V14
		C14.6,14.3,14.3,14.6,14,14.6z"/>
	<path class="st0" d="M14,15.1h-1.5c-0.6,0-1.1-0.5-1.1-1.1v-1.5c0-0.6,0.5-1.1,1.1-1.1H14c0.6,0,1.1,0.5,1.1,1.1V14
		C15.1,14.6,14.6,15.1,14,15.1z M12.6,12.4c-0.1,0-0.2,0.1-0.2,0.2v1.3c0,0.1,0.1,0.2,0.2,0.2h1.3c0.1,0,0.2-0.1,0.2-0.2v-1.3
		c0-0.1-0.1-0.2-0.2-0.2C13.9,12.4,12.6,12.4,12.6,12.4z"/>
</g>
</svg>
