<?xml version="1.0" encoding="utf-8"?>
<!-- Generator: Adobe Illustrator 26.0.2, SVG Export Plug-In . SVG Version: 6.00 Build 0)  -->
<svg version="1.1" id="flow-align-bottom" xmlns="http://www.w3.org/2000/svg" xmlns:xlink="http://www.w3.org/1999/xlink" x="0px" y="0px"
	 viewBox="0 0 16 16" style="enable-background:new 0 0 16 16;" xml:space="preserve">
<path id="flow-align-bottom-path" fill="currentColor" d="M6.6,12.1c0.5,0,0.8-0.3,0.8-0.8V2.3
	c0-0.5-0.3-0.8-0.8-0.8H3.3c-0.5,0-0.8,0.3-0.8,0.8v8.9c0,0.5,0.3,0.8,0.8,0.8H6.6z M6.2,10.8H3.7V2.7h2.4V10.8z M13.1,12.1
	c0.5,0,0.8-0.3,0.8-0.8V5.6c0-0.5-0.3-0.8-0.8-0.8H9.8C9.3,4.8,9,5.1,9,5.6v5.7c0,0.5,0.3,0.8,0.8,0.8H13.1z M12.7,10.8h-2.4V6h2.4
	V10.8z M14.1,14.5c0.3,0,0.7-0.2,0.7-0.7s-0.2-0.6-0.7-0.6H2.4c-0.3,0-0.7,0.2-0.7,0.6s0.2,0.7,0.7,0.7H14.1z"/>
</svg>
