<?xml version="1.0" encoding="utf-8"?>
<!-- Generator: Adobe Illustrator 26.0.2, SVG Export Plug-In . SVG Version: 6.00 Build 0)  -->
<svg version="1.1" id="图层_1" xmlns="http://www.w3.org/2000/svg" xmlns:xlink="http://www.w3.org/1999/xlink" x="0px" y="0px"
	 viewBox="0 0 16 16" style="enable-background:new 0 0 16 16;" xml:space="preserve">
<g>
	<path d="M5.8,1.7H2.9c-0.8,0-1.5,0.7-1.5,1.5V6c0,0.8,0.7,1.5,1.5,1.5h2.9c0.8,0,1.5-0.7,1.5-1.5l0-3C7.1,2.2,6.5,1.7,5.8,1.7z
		 M6.3,6c0,0.3-0.3,0.5-0.5,0.5H2.9C2.6,6.5,2.4,6.2,2.4,6V3.2c0-0.3,0.3-0.5,0.5-0.5h2.9c0.3,0,0.5,0.3,0.5,0.4V6z"/>
	<path d="M10.2,7.5h2.9c0.8,0,1.5-0.7,1.5-1.5l0-3c-0.2-0.8-0.8-1.3-1.5-1.3h-2.9c-0.8,0-1.5,0.7-1.5,1.5V6
		C8.7,6.8,9.4,7.5,10.2,7.5z M9.7,3.2c0-0.3,0.3-0.5,0.5-0.5h2.9c0.3,0,0.5,0.3,0.5,0.4V6c0,0.3-0.3,0.5-0.5,0.5h-2.9
		C9.9,6.5,9.7,6.2,9.7,6V3.2z"/>
	<path d="M5.8,8.6H2.9c-0.8,0-1.5,0.7-1.5,1.5V13c0,0.8,0.7,1.5,1.5,1.5h2.9c0.8,0,1.5-0.7,1.5-1.5l0-3.1C7.1,9.1,6.5,8.6,5.8,8.6z
		 M6.3,13c0,0.3-0.3,0.5-0.5,0.5H2.9c-0.3,0-0.5-0.3-0.5-0.5v-2.9c0-0.3,0.3-0.5,0.5-0.5h2.9c0.3,0,0.5,0.3,0.5,0.4V13z"/>
	<path d="M13.1,8.6h-2.9c-0.8,0-1.5,0.7-1.5,1.5V13c0,0.8,0.7,1.5,1.5,1.5h2.9c0.8,0,1.5-0.7,1.5-1.5l0-3.1
		C14.4,9.1,13.8,8.6,13.1,8.6z M13.6,13c0,0.3-0.3,0.5-0.5,0.5h-2.9c-0.3,0-0.5-0.3-0.5-0.5v-2.9c0-0.3,0.3-0.5,0.5-0.5h2.9
		c0.3,0,0.5,0.3,0.5,0.4V13z"/>
</g>
</svg>
