<?xml version="1.0" encoding="utf-8"?>
<!-- Generator: Adobe Illustrator 26.0.2, SVG Export Plug-In . SVG Version: 6.00 Build 0)  -->
<svg version="1.1" id="图层_1" xmlns="http://www.w3.org/2000/svg" xmlns:xlink="http://www.w3.org/1999/xlink" x="0px" y="0px"
	 viewBox="0 0 16 16" style="enable-background:new 0 0 16 16;" xml:space="preserve">
<style type="text/css">
	.st0{fill-rule:evenodd;clip-rule:evenodd;}
</style>
<g>
	<path class="st0" d="M8,1.5C4.4,1.5,1.5,4.4,1.5,8s2.9,6.5,6.5,6.5s6.5-2.9,6.5-6.5S11.6,1.5,8,1.5z M8,13.5C5,13.5,2.5,11,2.5,8
		C2.5,5,5,2.5,8,2.5c3,0,5.5,2.5,5.5,5.5C13.5,11,11,13.5,8,13.5z"/>
	<path class="st0" d="M8,4.5c-1.2,0-2.2,1-2.2,2.2C5.8,7,6,7.2,6.2,7.2S6.8,7,6.8,6.7C6.8,6,7.3,5.5,8,5.5S9.2,6,9.2,6.7
		c0,0.7-0.6,1.2-1.2,1.2c-0.3,0-0.5,0.2-0.5,0.5v1.2c0,0.3,0.2,0.5,0.5,0.5s0.5-0.2,0.5-0.5V8.9c1-0.2,1.7-1.1,1.7-2.2
		C10.2,5.5,9.2,4.5,8,4.5z"/>
	<path class="st0" d="M7.9,10.5c-0.4,0-0.7,0.3-0.7,0.7c0,0.4,0.3,0.7,0.7,0.7s0.7-0.3,0.7-0.7C8.6,10.8,8.3,10.5,7.9,10.5z"/>
</g>
</svg>
