<?xml version="1.0" encoding="utf-8"?>
<!-- Generator: Adobe Illustrator 26.0.2, SVG Export Plug-In . SVG Version: 6.00 Build 0)  -->
<svg version="1.1" id="图层_1" xmlns="http://www.w3.org/2000/svg" xmlns:xlink="http://www.w3.org/1999/xlink" x="0px" y="0px"
	 viewBox="0 0 24 24" style="enable-background:new 0 0 24 24;" xml:space="preserve">
<style type="text/css">
	.st0{fill-rule:evenodd;clip-rule:evenodd;}
</style>
<g>
	<path class="st0" d="M16.6,11.2h-3.8V7.4l0-0.1c0-0.3-0.4-0.6-0.7-0.6c-0.4,0-0.8,0.3-0.8,0.7v3.8H7.4l-0.1,0
		c-0.3,0-0.6,0.4-0.6,0.7c0,0.4,0.3,0.8,0.7,0.8h3.8v3.8l0,0.1c0,0.3,0.4,0.6,0.7,0.6c0.4,0,0.8-0.3,0.8-0.7v-3.8h3.8l0.1,0
		c0.3,0,0.6-0.4,0.6-0.7C17.2,11.6,16.9,11.2,16.6,11.2z"/>
	<path class="st0" d="M21,5.9C20.9,4.3,19.6,3,18,3H6L5.8,3C4.2,3.1,3,4.4,3,6v12l0,0.2C3.1,19.8,4.4,21,6,21h12l0.2,0
		c1.6-0.1,2.8-1.4,2.8-3V9.5v-1L21,5.9L21,5.9z M19.5,18l0,0.2c-0.1,0.7-0.7,1.3-1.5,1.3H6l-0.2,0c-0.7-0.1-1.3-0.7-1.3-1.5V6l0-0.2
		C4.6,5.1,5.2,4.5,6,4.5h12l0.2,0c0.7,0.1,1.3,0.7,1.3,1.5c0,0,0,0,0,0v2.5c0,0,0,0,0,0V18z"/>
</g>
</svg>
