<?xml version="1.0" encoding="utf-8"?>
<!-- Generator: Adobe Illustrator 26.0.2, SVG Export Plug-In . SVG Version: 6.00 Build 0)  -->
<svg version="1.1" id="图层_1" xmlns="http://www.w3.org/2000/svg" xmlns:xlink="http://www.w3.org/1999/xlink" x="0px" y="0px"
	 viewBox="0 0 64 64" style="enable-background:new 0 0 64 64;" xml:space="preserve">
<style type="text/css">
	.st0{fill:currentColor;}
</style>
<g>
	<path class="st0" d="M31.8,48.6c-8.4,0-15.2-6.8-15.2-15.2c0-6.3,4-12.1,9.9-14.2c1.7-0.6,3.4-0.9,5.2-0.9v-7.7
		c-2.7,0-5.4,0.5-7.9,1.4c-8.9,3.3-15,11.9-15,21.4C8.8,46,19,56.2,31.6,56.2S54.4,46,54.4,33.4h-7.7C46.9,41.8,40.1,48.6,31.8,48.6
		z"/>
	<path class="st0" d="M45.1,29.6h10.8c-2-10.2-9.9-18.2-20.1-20.3v10.9C40.1,21.8,43.6,25.3,45.1,29.6z"/>
</g>
</svg>
