<svg viewBox="0 0 1024 1024" version="1.1" xmlns="http://www.w3.org/2000/svg" p-id="35622">
  <path d="M904.533333 153.6h-785.066666C54.613333 153.6 0 208.213333 0 273.066667v477.866666c0 64.853333 54.613333 119.466667 119.466667 119.466667h785.066666c64.853333 0 119.466667-54.613333 119.466667-119.466667V273.066667c0-64.853333-54.613333-119.466667-119.466667-119.466667zM375.466667 614.4c0 6.826667-3.413333 13.653333-13.653334 17.066667h-3.413333c-6.826667 0-10.24-3.413333-13.653333-6.826667L238.933333 467.626667V614.4c0 10.24-6.826667 17.066667-17.066666 17.066667S204.8 624.64 204.8 614.4v-204.8c0-6.826667 3.413333-13.653333 13.653333-17.066667 6.826667-3.413333 13.653333 0 20.48 6.826667l105.813334 157.013333V409.6c0-10.24 6.826667-17.066667 17.066666-17.066667s13.653333 6.826667 13.653334 17.066667v204.8z m153.6-119.466667c10.24 0 17.066667 6.826667 17.066666 17.066667s-6.826667 17.066667-17.066666 17.066667H443.733333v68.266666h85.333334c10.24 0 17.066667 6.826667 17.066666 17.066667s-6.826667 17.066667-17.066666 17.066667h-102.4c-10.24 0-17.066667-6.826667-17.066667-17.066667v-204.8c0-10.24 6.826667-17.066667 17.066667-17.066667h102.4c10.24 0 17.066667 6.826667 17.066666 17.066667s-6.826667 17.066667-17.066666 17.066667H443.733333v68.266666h85.333334z m256 122.88c0 6.826667-6.826667 13.653333-13.653334 13.653334h-3.413333c-6.826667 0-13.653333-3.413333-13.653333-10.24l-54.613334-105.813334-54.613333 105.813334c-3.413333 6.826667-10.24 10.24-17.066667 10.24s-13.653333-6.826667-13.653333-13.653334l-34.133333-204.8c0-10.24 3.413333-17.066667 13.653333-20.48 10.24-3.413333 17.066667 3.413333 20.48 13.653334l23.893333 153.6 44.373334-88.746667c6.826667-10.24 23.893333-10.24 30.72 0l44.373333 88.746667 23.893333-153.6c0-10.24 10.24-17.066667 20.48-13.653334 10.24 0 17.066667 10.24 13.653334 20.48l-30.72 204.8z" p-id="35623"></path>
</svg>