<?xml version="1.0" encoding="UTF-8"?>
<svg width="14px" height="14px" viewBox="0 0 14 14" version="1.1" xmlns="http://www.w3.org/2000/svg" xmlns:xlink="http://www.w3.org/1999/xlink">
    <title>设置 setting</title>
    <g id="4.0icon" stroke="none" stroke-width="1" fill="none" fill-rule="evenodd">
        <g id="编组-4" transform="translate(0.939582, 0.697165)" stroke="currentColor">
            <path d="M6.93655642,0 C7.3486611,0 7.7210476,0.244990387 7.88305131,0.622692137 L7.88305131,0.622692137 L8.36694062,1.75086893 L8.86721407,2.03874726 L10.0929635,1.89148264 C10.4887963,1.84389544 10.8752789,2.02840928 11.0867403,2.36254692 L11.0867403,2.36254692 L11.1072969,2.39645638 L11.9825342,3.90490315 C12.1892622,4.26119297 12.1623872,4.70613536 11.9142673,5.03512913 L11.9142673,5.03512913 L11.1741776,6.01627587 L11.1741776,6.58924755 L11.9142824,7.57054912 C12.1541219,7.88857552 12.1872255,8.31494278 12.0024324,8.66484393 L12.0024324,8.66484393 L11.9825381,8.70076024 L11.1072969,10.2092136 C10.901034,10.5647019 10.5019908,10.7633608 10.0929635,10.7141873 L10.0929635,10.7141873 L8.86721407,10.5667762 L8.36694062,10.8546545 L7.88305131,11.9829779 C7.72627356,12.3484957 7.37246711,12.5897261 6.97630778,12.604909 L6.97630778,12.604909 L6.93655642,12.60567 L5.18430452,12.60567 C4.7721782,12.60567 4.39977652,12.3606542 4.23778621,11.9829234 L4.23778621,11.9829234 L3.75374885,10.8546545 L3.2534754,10.5667762 L2.02787302,10.7141873 C1.63204021,10.7617746 1.24555767,10.5772607 1.03409625,10.2431231 L1.03409625,10.2431231 L1.01353965,10.2092136 L0.138298458,8.70076024 C-0.0684261307,8.34447628 -0.0415556585,7.89954198 0.206554156,7.57054912 L0.206554156,7.57054912 L0.946511891,6.58924755 L0.946511891,6.01627587 L0.206569196,5.03512913 C-0.0332800063,4.71710182 -0.0663881914,4.29072696 0.118407709,3.94082007 L0.118407709,3.94082007 L0.138302293,3.90490315 L1.01353965,2.39645638 C1.21980256,2.04096809 1.61884578,1.8423092 2.02787302,1.89148264 L2.02787302,1.89148264 L3.2534754,2.03874726 L3.75374885,1.75086893 L4.23778621,0.622746629 C4.39455103,0.25720062 4.74837123,0.0159455687 5.14455104,0.000761106902 L5.14455104,0.000761106902 L5.18430452,0 L6.93655642,0 Z" id="path-1-path" stroke-linecap="round" stroke-linejoin="round"></path>
            <path d="M6.09887981,4.18745038 C4.93058518,4.18745038 3.98349519,5.13454037 3.98349519,6.302835 C3.98349519,7.47112963 4.93058518,8.41821962 6.09887981,8.41821962 C7.26717444,8.41821962 8.21426442,7.47112963 8.21426442,6.302835 C8.21426442,5.13454037 7.26717444,4.18745038 6.09887981,4.18745038 Z" id="path-1-path" fill-rule="nonzero"></path>
        </g>
    </g>
</svg>